<?xml version="1.0" standalone="no"?>
<!DOCTYPE svg PUBLIC "-//W3C//DTD SVG 1.1//EN" "http://www.w3.org/Graphics/SVG/1.1/DTD/svg11.dtd" >
<svg xmlns="http://www.w3.org/2000/svg" xmlns:xlink="http://www.w3.org/1999/xlink" version="1.1">
<metadata>
Created by FontForge 20170731 at Mon Nov 11 04:15:49 2019
 By Aleksey,,,
MOCOSANS (c) 2019
</metadata>
<defs>
<font id="FIGHTBACKRegular" horiz-adv-x="0" >
  <font-face 
    font-family="FIGHTBACK"
    font-weight="400"
    font-stretch="normal"
    units-per-em="1000"
    panose-1="0 0 0 0 0 0 0 0 0 0"
    ascent="800"
    descent="-200"
    x-height="576"
    cap-height="733"
    bbox="-133 -233 766 891"
    underline-thickness="50"
    underline-position="-200"
    unicode-range="U+000A-F010"
  />
<missing-glyph horiz-adv-x="527" 
d="M50 700h427v-700h-427v700zM78 680l185 -309l186 309h-371zM251 350l-180 300v-601zM264 329l-185 -308h370zM276 350l181 -303v605z" />
    <glyph glyph-name=".notdef" horiz-adv-x="527" 
d="M50 700h427v-700h-427v700zM78 680l185 -309l186 309h-371zM251 350l-180 300v-601zM264 329l-185 -308h370zM276 350l181 -303v605z" />
    <glyph glyph-name=".null" 
 />
    <glyph glyph-name=".null" 
 />
    <glyph glyph-name="nonmarkingreturn" horiz-adv-x="333" 
 />
    <glyph glyph-name="LF" unicode="&#xa;" 
 />
    <glyph glyph-name="controlCR" unicode="&#xd;" 
 />
    <glyph glyph-name="space" unicode=" " horiz-adv-x="330" 
 />
    <glyph glyph-name="exclam" unicode="!" horiz-adv-x="203" 
d="M206 668q5 -4 6.5 -15t-1.5 -18q-10 -30 -31 -88t-30 -87q-9 -27 -29.5 -95.5t-33.5 -104.5q-4 -12 -11 -23.5t-17 -26.5t-14 -22q-2 0 -4.5 1.5t-4.5 2.5q-5 29 11.5 133.5t47 218t59.5 156.5q4 -3 16 -9t20.5 -11.5t15.5 -11.5zM-9 89q47 4 75 -23q14 -13 10.5 -26.5
t-21.5 -18.5q-31 -10 -50.5 10.5t-13.5 57.5zM126 696q-29 -99 -55 -187q-1 -2 -6 -7q4 18 9 50.5t9 55t14 51t25 52.5zM37 308q-5 1 -7 1q22 119 33 179q-11 -83 -14 -107q-1 -5 -12 -73zM65 500q-1 -3 -2 -12q1 9 1 13l1 -1l-1 1l1 1v-1.5v-0.5z" />
    <glyph glyph-name="quotedbl" unicode="&#x22;" horiz-adv-x="149" 
d="M131 643q2 -1 6.5 -3t7 -3.5t6 -3.5t5 -4.5t3 -5.5t0.5 -6.5t-3 -7.5q-50 -83 -95 -122q-1 1 -7 3q16 66 17 71q5 14 16 38.5t15 33.5q9 21 29 10zM6 644q64 -3 41 -53q-3 -5 -44 -80q-3 0 -7 1.5t-6 2.5q11 86 16 129z" />
    <glyph glyph-name="quotedbl" unicode="&#x201d;" horiz-adv-x="149" 
d="M131 643q2 -1 6.5 -3t7 -3.5t6 -3.5t5 -4.5t3 -5.5t0.5 -6.5t-3 -7.5q-50 -83 -95 -122q-1 1 -7 3q16 66 17 71q5 14 16 38.5t15 33.5q9 21 29 10zM6 644q64 -3 41 -53q-3 -5 -44 -80q-3 0 -7 1.5t-6 2.5q11 86 16 129z" />
    <glyph glyph-name="quotedbl" unicode="&#x201c;" horiz-adv-x="149" 
d="M131 643q2 -1 6.5 -3t7 -3.5t6 -3.5t5 -4.5t3 -5.5t0.5 -6.5t-3 -7.5q-50 -83 -95 -122q-1 1 -7 3q16 66 17 71q5 14 16 38.5t15 33.5q9 21 29 10zM6 644q64 -3 41 -53q-3 -5 -44 -80q-3 0 -7 1.5t-6 2.5q11 86 16 129z" />
    <glyph glyph-name="numbersign" unicode="#" horiz-adv-x="733" 
d="M680 502q22 0 39 -14.5t23 -39.5h-28q-149 9 -211 13q-23 2 -29 -19q-2 -5 -25 -65q18 -1 55.5 -3.5t57.5 -4.5v-2.5v-2.5q-16 1 -48.5 3t-48.5 3v-7q48 -3 52 -3q7 -1 19 -2t21.5 -1.5t18.5 -0.5q18 -1 29 -6.5t19 -23.5h-86q-9 0 -38 -2t-45 -1q-17 0 -26 -8t-15 -25
q-49 -139 -99 -280q-1 -2 -22 -41l-11 2q-3 44 -3 46q2 25 6 48.5t13.5 53.5t14.5 44t18 50q1 3 23 59q-12 -5 -18 -7q1 6 3 14t4.5 17t4.5 17q-74 -15 -85 -18q-9 -3 -16 -22q-3 -10 -7 -22.5t-7 -23t-7 -23t-7 -22.5q-1 -3 -25 -49q-12 21 -14 44.5t2 52.5t3 45
q-83 -22 -87 -23q-36 -11 -60.5 -1t-41.5 43q21 6 78.5 21t88.5 23v1.5v1.5q-67 -15 -168 -38q-1 1 -2 2.5t-1.5 2.5t-1.5 2q4 2 10.5 8.5t12 10t11.5 4.5q77 16 167 29q22 3 27 22q1 5 17 61q-26 0 -80 -9.5t-82 -6.5q-1 3 -2 10q67 16 72 17q50 8 81 10q21 1 27 21
q10 35 37 122q0 2 10 32q2 -1 4.5 -1.5t3.5 -1.5q-6 -20 -23 -76.5t-27 -88.5q2 0 4.5 -1t3.5 -1q27 75 29 81t25 82q53 -18 38 -68q-2 -6 -32 -88q67 8 76 10q10 3 18 20q3 6 56 128q3 7 5.5 10t7.5 5t11 -5q-12 -22 -34.5 -64t-32.5 -61q1 0 3 -1t3 -2q47 80 54 90
q5 8 14.5 16t13.5 7q20 -9 9 -43q-2 -8 -28 -83q14 1 44.5 5.5t47.5 6t42 0t46 -9.5h-80v-2.5v-2.5h80zM373 386q5 12 26 71q-62 0 -69 -1q-15 -1 -22 -15q-4 -7 -28 -69q68 4 80 5q10 1 13 9z" />
    <glyph glyph-name="dollar" unicode="$" horiz-adv-x="375" 
d="M298 547q-10 -26 -27.5 -73.5t-22.5 -61.5q-1 -1 -9 -26q33 -5 60 -20t42 -34t25 -41t10 -43t-5 -39q-21 -60 -90 -80q-52 -15 -120 23q-4 -17 -15 -56.5t-17 -60.5h-2.5t-3 0.5t-2.5 0.5q-2 35 -2 37q3 38 9 76q1 10 -2.5 14.5t-14.5 9.5q-51 20 -95 43q-11 6 -26 30
q16 -17 39 -30.5t40 -20.5t50 -19q-13 13 -39.5 36t-43.5 42t-27 41l13.5 -13.5t14.5 -14t14 -12.5t15.5 -13.5t15 -11.5t17 -11t17 -8.5t19.5 -7.5q20 34 29 72t1 61q-28 -3 -48 11t-42 41q-4 6 -5.5 14.5t0.5 14.5q7 15 45 84q2 5 9 15q-11 -13 -33 -41.5t-34 -43.5
q2 5 4.5 13.5t4.5 15t5.5 14t7.5 13.5q70 118 186 154q12 4 19 19l5 12.5t5 13t5.5 12.5t7.5 13q-2 -15 -3 -26q7 9 15 19q27 -15 16 -48q-4 -13 9 -29q21 -25 39 -60q1 -6 1 -9.5t-2 -11t-3 -10.5h-4.5h-5.5q-7 29 -12 50q-27 0 -38.5 -7.5t-20.5 -31.5zM275 632
q-98 -40 -146 -109q15 12 18 15q56 42 114 84q1 1 2.5 1.5t3 1.5t2.5 2q1 0 6 5zM300 337q-36 3 -66 1q-2 0 -4.5 -1t-4.5 -3t-3.5 -4.5t-2.5 -4.5q-8 -22 -42 -128q48 7 78 19.5t50 41.5q12 17 18 49q3 13 -3.5 21.5t-19.5 8.5zM232 470q1 2 16 36l-4 2t-3 1
q-7 -14 -22 -42l-3 1q5 14 14 43l-7 4q-19 -24 -100 -127q44 -8 54.5 -4t28.5 36q14 24 26 50z" />
    <glyph glyph-name="percent" unicode="%" horiz-adv-x="405" 
d="M363 653q47 -34 50.5 -51.5t-29.5 -52.5q-171 -177 -338 -431q-23 -34 -51 -65q3 20 11.5 40t22 45.5t19.5 39.5q-1 -1 -8.5 -5t-13.5 -7q49 80 112 173t105 150.5t120 163.5zM328 232q11 -19 20 -33q11 -15 10 -26t-16 -22q-38 -26 -98 -64q-36 -22 -84 5q-5 3 -6.5 14
t1.5 18q23 74 88 127q1 0 5 3.5t6 5.5v10q-44 -28 -70.5 -68t-45.5 -94q-19 19 -8 44q32 75 85 111q20 14 60.5 3t52.5 -34zM174 98q35 -7 80 30t54 81q-9 8 -22 19q-57 -40 -92 -99q-1 -2 -20 -31zM10 469q-12 5 -17 16t-1 25q22 67 83 112q14 10 25 6q51 -21 83 -41
q11 -6 10 -14.5t-14 -14.5q-11 -5 -20 -18q-5 -8 -11 -18t-12.5 -20.5t-10.5 -18.5q-16 -24 -42.5 -31t-50.5 6q18 19 51.5 55t48.5 52q-29 -4 -53.5 -24.5t-34.5 -48.5q-11 -30 -34 -23zM350 661q-8 -11 -95 -127l-3 2q55 111 62 124q2 4 4 6.5t5 3.5t4.5 1t5.5 -1.5
t5.5 -2t6 -3.5t5.5 -3z" />
    <glyph glyph-name="ampersand" unicode="&#x26;" horiz-adv-x="584" 
d="M593 322q-22 19 -45 28t-50 6t-45 -7.5t-51 -16.5q-8 -2 -12 -4q19 -13 25 -30t4 -30.5t-9 -35.5q-19 -61 -65 -105q-4 -4 -22.5 -22t-26.5 -25t-24 -17t-32 -15q-46 -12 -71 -8q-92 14 -153 86q-43 50 -15 106q51 102 114 169q20 21 30 37q9 14 5 27q-14 55 10 98
q9 15 20 31.5t26 38t22 30.5q4 7 5 8q0 1 -2 6q27 -6 51 -20.5t38.5 -33t16.5 -37.5q2 -22 -18.5 -53.5t-43.5 -40.5q4 21 10.5 58.5t8.5 52.5q-1 1 -4 1.5t-4 1.5q-69 -52 -98 -155q43 -20 46 -22q20 -9 0 -23q-7 -5 -19 -13t-20.5 -13.5t-19 -13.5t-18.5 -15
q-100 -87 -75 -213q16 -79 89 -54q126 42 203 151q6 9 10.5 20.5t9 26.5t6.5 23q-1 0 -2.5 0.5t-2.5 1.5q-7 -15 -21 -44t-21 -43q-2 0 -4.5 1t-3.5 2q10 19 15.5 30t9.5 30t0 38q-79 -45 -84 -48q-29 -18 -47.5 -15t-40.5 31q164 84 272 108q19 4 33 -5q49 -32 90 -70z
M193 303q-1 3 -3 7q102 59 216 82q-35 -15 -106 -44.5t-107 -44.5zM133 539q3 19 4.5 24.5t5.5 23t8.5 26t12 21.5t18 22.5t24.5 17.5q-15 -27 -40 -73t-33 -62z" />
    <glyph glyph-name="quotesingle" unicode="'" horiz-adv-x="54" 
d="M60 532q-7 15 -46 92v1l1 -1v19q27 -7 40.5 -39.5t4.5 -71.5zM-10 634q1 1 3.5 2.5l2.5 1.5l18 -14q6 -16 16.5 -48.5t16.5 -48.5q-1 -1 -2 -1.5l-1 -0.5z" />
    <glyph glyph-name="quotesingle" unicode="&#x2019;" horiz-adv-x="54" 
d="M60 532q-7 15 -46 92v1l1 -1v19q27 -7 40.5 -39.5t4.5 -71.5zM-10 634q1 1 3.5 2.5l2.5 1.5l18 -14q6 -16 16.5 -48.5t16.5 -48.5q-1 -1 -2 -1.5l-1 -0.5z" />
    <glyph glyph-name="quotesingle" unicode="&#x2018;" horiz-adv-x="54" 
d="M60 532q-7 15 -46 92v1l1 -1v19q27 -7 40.5 -39.5t4.5 -71.5zM-10 634q1 1 3.5 2.5l2.5 1.5l18 -14q6 -16 16.5 -48.5t16.5 -48.5q-1 -1 -2 -1.5l-1 -0.5z" />
    <glyph glyph-name="parenleft" unicode="(" horiz-adv-x="252" 
d="M264 635q19 -16 19.5 -25t-17.5 -26q-151 -130 -182 -310q-14 -84 4 -171q0 -1 3 -21q-46 48 -49 106q-6 124 45 262q40 109 141 184q20 15 36 1zM128 565q4 8 10 16t13.5 17t16.5 17t20 15.5t22 13.5q-11 -11 -28.5 -27.5t-31.5 -30t-22 -21.5zM45 380h3h2
q-3 -20 -10.5 -58.5t-11.5 -57.5h-5q9 47 22 116z" />
    <glyph glyph-name="parenright" unicode=")" horiz-adv-x="263" 
d="M247 625q13 -16 19 -40t6.5 -36t0.5 -46q0 -197 -133 -388q-22 -33 -68.5 -51.5t-81.5 -7.5q3 4 8 12t9.5 14t8.5 11q175 180 216 377q5 23 7.5 48.5t4 58t3.5 48.5z" />
    <glyph glyph-name="asterisk" unicode="*" horiz-adv-x="270" 
d="M185 602q16 -8 47 -24.5t47 -24.5q-1 -3 -3 -8q-75 22 -98 28q-5 -15 -16.5 -50.5t-18.5 -54.5q-1 1 -2.5 1t-2.5 1q1 15 3 35t3.5 39.5t3.5 35.5h-4.5h-3.5q-4 -41 -10 -114l-3 -1v120q-50 -26 -54 -28q-20 -11 -31 -9t-27 22q89 28 111 35q-14 0 -60 -12t-76 -5
q12 2 31 6.5t34.5 7.5t29.5 6q-22 14 -57 36q0 1 1 3t2 3q8 -2 26 -7t27 -7v1.5t1 1.5q-11 4 -33 13t-33 13q1 2 2 5t2 4q56 -22 111 -43q3 9 6 20t5 19.5t5 19t5 18.5q1 0 2.5 -0.5l1.5 -0.5q-1 -10 -4.5 -30t-5.5 -30q1 0 2.5 -0.5t2.5 -0.5q2 4 9 24.5t11 32.5
q15 -9 17.5 -26.5t-0.5 -31.5q7 0 14 0.5t13 2.5t13 3t13.5 1t13.5 -3t13 -9q-13 -15 -45.5 -24t-40.5 -14z" />
    <glyph glyph-name="plus" unicode="+" horiz-adv-x="425" 
d="M432 368q0 -3 2 -13q-2 -1 -7 -5t-9.5 -6.5t-8.5 -2.5q-38 -3 -127 -6q-8 2 -15 0t-11.5 0t-8.5 0t-6 -1t-4 -2t-3 -3.5t-3 -5.5t-2.5 -8t-2.5 -11.5t-4 -15.5q-6 -23 -12.5 -49t-13.5 -57t-11 -49q0 -1 -9 -32q-2 0 -4.5 1t-3.5 1q3 37 9.5 111t10.5 111q-1 0 -3.5 0.5
t-3.5 0.5q-3 -15 -9 -47l-9 -48h-2q1 14 2.5 30t3.5 34.5t3 30.5h-93q-52 1 -75 38q-1 1 -12 30q96 -7 104 -8q7 0 26.5 -3t32 -2.5t20.5 5.5t12.5 16.5t9 30.5t6.5 25q2 7 28 95q2 -1 4.5 -1.5t4.5 -1.5l-45 -155q1 -1 4.5 -1.5t4.5 -1.5q8 26 17.5 59.5t19.5 67.5t18 60
q45 -27 30 -81q-3 -12 -8 -27t-10.5 -32t-8.5 -27q-1 -1 -8 -28q131 -12 180 -16zM13 368h69h69q-45 6 -132 6l-7 -2z" />
    <glyph glyph-name="comma" unicode="," horiz-adv-x="137" 
d="M78 189q57 -17 23 -70q-15 -24 -23 -36t-24 -28.5t-33 -26.5q-14 -8 -31 -8q58 111 88 169z" />
    <glyph glyph-name="hyphen" unicode="-" horiz-adv-x="531" 
d="M487 385q-1 -1 0.5 -4t4 -8.5t4.5 -9.5q-59 -3 -62 -3q-20 -1 -59 -1t-70 -1t-59 -3q-17 -1 -34.5 -4.5t-42.5 -9.5t-34 -9q-36 -8 -53 14q-2 2 -21 9q-4 2 -49 17q27 15 177 33.5t211 17.5q-62 7 -176.5 -7t-166.5 -12q149 20 160 21q110 10 203 11q17 1 56 -20
q1 0 2 -1q6 -3 8.5 -5t6 -5.5t2 -8.5t-7.5 -11z" />
    <glyph glyph-name="period" unicode="." horiz-adv-x="205" 
d="M134 142q10 -7 18 -18t6 -16q-6 -17 -35 -29q-14 -6 -37 4.5t-28 23.5q-4 12 2.5 27t19.5 23l10 2q-6 -15 -17 -39q1 0 2.5 -0.5t2.5 -1.5l4 6q11 25 21 28.5t31 -10.5z" />
    <glyph glyph-name="slash" unicode="/" horiz-adv-x="406" 
d="M349 626q21 -15 0 -34q-83 -75 -107 -103q-122 -139 -189 -340q-1 -2 -18 -38q-41 171 64 332q-40 -103 -44 -116q-7 -20 -7 -53q6 18 6 19q52 190 205 334q18 17 53 19q3 0 7 -1t8.5 -3.5t7 -4.5t8 -6t6.5 -5zM262 650q-46 -44 -59 -56h-1q10 10 28 30l27 30
q1 -1 2.5 -2t2.5 -2z" />
    <glyph glyph-name="zero" unicode="0" horiz-adv-x="423" 
d="M325 688q41 -8 74.5 -49.5t33.5 -81.5q-6 -123 -72 -262q-37 -78 -92 -159q-45 -65 -125 -48q-3 1 -9.5 2t-9.5 1q-85 20 -119 86t1 147q27 63 41 94t42.5 80t58.5 85q44 50 138 104q12 6 38 1zM273 272q101 169 72 374q-54 -19 -112 -114t-87 -207t-7 -173
q98 91 164 249q-12 -55 -40 -106.5t-60 -89t-78 -81.5q26 9 48 24t40.5 38t30 40t29.5 46zM251 692q-30 -15 -55.5 -34t-47 -44t-37 -45.5t-33 -54t-27 -53t-26.5 -57.5q-5 -11 -7 -17q12 35 20.5 57.5t22 54t27 54.5t32.5 48t40 46q46 43 91 45z" />
    <glyph glyph-name="one" unicode="1" horiz-adv-x="300" 
d="M298 684q10 -7 11 -16t-4 -19q-5 -12 -10.5 -29t-11 -33.5t-10.5 -29.5q-9 -20 -32 -64t-33 -68q0 -2 -93 -242q-10 -27 -29.5 -75.5t-27.5 -68.5q-12 -32 -14 -41q-6 -30 -41 -49q-19 24 -10 57q15 48 64 223q1 5 -6 12q-7 -13 -14.5 -28.5t-14 -28t-14.5 -29t-15 -28.5
q-10 44 63 222q6 14 83 218q-32 -12 -54.5 -5.5t-51.5 29.5q17 1 35 6t27 9t29.5 15t25.5 13q5 3 11 8.5t12 12t10 9.5q1 1 20 9q4 2 10 4l10.5 3.5t9.5 4t9 5.5q21 17 56 -6zM46 257q76 166 112 301q-4 2 -11 4q-34 -102 -101 -305z" />
    <glyph glyph-name="two" unicode="2" horiz-adv-x="521" 
d="M498 168q3 -6 32 -75q-30 3 -31 3q-103 35 -228 17q-34 -5 -77 -13t-87 -16.5t-77 -13.5q-34 -5 -55.5 -18.5t-31.5 -41.5q-39 23 -29 66q16 63 74 76q32 7 55.5 23t39.5 43q7 13 26 25q-6 -9 -17.5 -27.5t-17.5 -28.5q1 0 3 -1.5t3 -2.5q26 31 27 33q20 23 87.5 99
t103.5 118q60 69 90 106q13 16 16 38q3 18 -8 26t-28 1q-42 -18 -78 -45.5t-80 -69.5q-5 -6 -17 -18l-19 -19q-21 -19 -40 1q28 65 80 115q61 61 177 95q31 9 62 -23t22 -64q-20 -64 -54 -111q-27 -38 -57.5 -77t-72 -91.5t-59.5 -75.5q0 -1 -12 -18q30 4 92.5 13.5
t94.5 14.5v-4q-35 -7 -106 -21.5t-106 -21.5q0 -1 0.5 -3.5t0.5 -3.5l124 22l14 2q17 -6 39 -7t40 0.5t40 -0.5q34 -3 45 -26zM162 194q1 -1 3.5 -3t3.5 -3q18 5 29.5 18t22 32.5t18.5 27.5l-5 5zM392 674q-188 -50 -266 -208q-3 44 45 100t113.5 89.5t107.5 18.5zM387 563
q-24 -43 -40 -61q-33 -36 -190 -205l-9 -5q29 38 80.5 93.5t92 106t63.5 102.5q2 0 4 -0.5t4 -0.5q-1 -3 -1 -8t-0.5 -8t-1 -7t-2.5 -7z" />
    <glyph glyph-name="three" unicode="3" horiz-adv-x="390" 
d="M254 444q3 0 39 12h1h-1q7 -7 21.5 -22.5t25 -27.5t19.5 -24t8 -26.5t-11 -25.5q-84 -91 -110 -115q-29 -27 -175 -153q-4 -3 -73 -61l-8 4q8 27 8 28q35 58 80.5 110t109.5 114q5 6 37.5 37.5t49.5 48.5q1 1 15 22q-1 1 -3 2.5t-2 2.5q-26 -19 -34 -25q-3 1 -7 1.5
t-6.5 1t-6 0.5t-5.5 -1q-25 -9 -72 -27.5t-55 -21.5q-33 -13 -48 -17q-3 -1 -6.5 0t-8.5 2.5t-7 1.5q0 2 -0.5 4.5t-0.5 4.5q64 27 69 30q-43 2 -60 12t-33 42q19 9 20 10q86 37 230 56zM398 628l1.5 -12t-3.5 -8t-6.5 -6t-8 -5.5t-7.5 -5.5q-21 -16 -162 -128q51 -5 81 -7
q-33 -4 -90.5 -10.5t-72.5 -8.5q64 52 69 56q10 9 115 107q-1 1 -2 2.5t-2 2.5q-22 -16 -65 -47q-1 0 -2 1l-1 1l44 51q-1 2 -2 5q-114 -29 -122 -32q-35 -9 -52 0t-33 45q47 19 49 20q130 46 219 35q11 -2 21.5 -9t18.5 -19t13 -28zM218 693q-89 -30 -143 -44q13 12 27 20
t32.5 13t30 7.5t35 6.5t31.5 5zM338 701h-107v0h1q17 2 52.5 5t53.5 4v-9z" />
    <glyph glyph-name="four" unicode="4" horiz-adv-x="470" 
d="M384 353q9 -2 24 -4t25.5 -3.5t23.5 -7.5t23 -16q-27 -14 -28 -15q-10 -2 -37.5 -7t-41.5 -9q-21 -6 -28 -22q-11 -29 -31 -82.5t-26 -69.5q-8 -22 -24 -50l-3.5 -7t-4 -7t-4.5 -5t-7.5 -2t-10.5 4l-13 -11q-28 10 -19 41q23 84 47 168q5 18 3 31q-21 -24 -37.5 -77
t-23.5 -68q6 22 17 64.5t17 64.5q-2 1 -5 3l-18 -15q-12 11 -59.5 -3t-64.5 -35q-43 20 -74 70q-29 46 5 94q26 35 57 79t63 90.5t56 80.5q8 10 47 50q1 0 16 9l2.5 -2.5l2.5 -2.5q-24 -34 -25 -35q-84 -93 -186 -262q-1 -1 -9 -27l7 -3q23 34 24 35q75 102 189 254
q2 3 10 11q27 26 45.5 24.5t39.5 -31.5q12 -16 6 -35q-8 -25 -23 -51t-25.5 -41t-35.5 -45.5t-32 -39.5q-5 -6 -71 -90q1 -1 2.5 -3.5l1.5 -2.5q5 1 18 3t21.5 4.5t14.5 7.5q5 5 8.5 13t7 20t5.5 17l3 -1t5 -1q-6 -28 -9 -47q7 -4 13 -1t9 6.5t7 11.5q44 89 62 122
q3 6 8.5 11.5t13 12.5t11.5 11q29 -40 31 -42q16 -20 17.5 -42t-5.5 -37t-21 -39q-1 0 -7 -16zM308 373q4 9 29.5 59t38.5 76l-6 3l-6 3q-48 -78 -56 -141z" />
    <glyph glyph-name="five" unicode="5" horiz-adv-x="422" 
d="M413 687q8 1 18 1t24 -0.5t21 -0.5l-6 -11q-20 -8 -51 -19t-58.5 -21.5t-50.5 -18.5q-20 -8 -100 -41q-6 -2 -8 -5q-41 -78 -91 -170q0 -1 -2 -9q168 17 188 19q33 2 75 -7q5 -1 10.5 -4.5t12.5 -10t10 -8.5q-16 -15 -26 -24q-10 -24 -32 -71q-20 -44 -22 -46
q-3 -6 -9 -16.5l-10 -17.5t-9.5 -15.5t-11 -16t-11.5 -14.5q-18 -22 -39.5 -45t-52 -55t-44.5 -47q26 50 27 52q-22 -11 -60.5 -29.5t-52.5 -25.5q-1 2 -4 5.5t-5 5.5q38 50 114 152t114 152q-1 2 -3.5 4t-4.5 3q-11 -12 -34.5 -37t-34.5 -38q-1 0 -1.5 0.5t-0.5 1.5l22 33
q-1 1 -1.5 3.5t-0.5 3.5q-73 -13 -80 -14q-61 -11 -72 -11q-1 0 -7.5 -0.5t-9.5 -0.5t-7.5 1.5t-6 4.5t-0.5 8.5t6 13.5q3 4 -2 8q-22 20 -6 57q13 29 37 81t31 66q9 21 9 39q-14 -7 -22 -30.5t-11 -27.5q-11 -17 -33 -65q-2 -5 -12.5 -29.5t-16.5 -37.5q3 26 12.5 54
t19 47.5t25 51.5t23.5 50q-53 6 -81 61q-1 3 -18 43l9 4q47 -16 97 -18t124 5t98 8q10 0 23.5 2.5t23.5 5.5t23.5 6t24.5 5zM335 396q-154 -15 -243 -23l1 -7q40 4 121 12t121 12v3v3z" />
    <glyph glyph-name="six" unicode="6" horiz-adv-x="405" 
d="M367 654q7 2 14 3q-7 -2 -14 -3zM410 388q9 -19 2 -50q-16 -79 -105 -156q-34 -29 -102 -68q-50 -28 -111 2q-64 31 -80.5 70.5t7.5 108.5q38 111 110 200q17 21 38.5 46.5t38 44.5t40.5 46.5t39 44.5q16 18 29 4q9 -11 14.5 -15.5t16 -9t20.5 -2.5q-10 -5 -16 -14
t-10.5 -21.5t-8.5 -18.5q-130 -193 -181 -277q-10 -16 -19 -35.5t-15.5 -35t-16 -37.5t-15.5 -36q2 -1 5 -3.5t4 -3.5q74 8 161 71q67 49 88 154q13 -11 14 -25t-4 -23q-28 -88 -121 -143q-16 -10 -48 -26.5t-46 -24.5q105 27 165 86q61 59 69 115q3 19 0 30t-13 17t-28 8
q-8 0 -111 6q4 3 11 9t11.5 10t9.5 6q37 18 89 0.5t69 -54.5zM273 696q0 -1 1.5 -3t1.5 -3q-6 -7 -35 -40t-37 -42t-34 -39.5t-35.5 -43t-31 -41.5t-31 -46t-25.5 -45t-24.5 -50.5t-17.5 -50t-15 -55.5q1 7 3 21.5t3.5 25.5t4.5 20q35 110 129 233q49 64 85 105
q6 7 13.5 14.5t14 13t15.5 13t15 13.5z" />
    <glyph glyph-name="seven" unicode="7" horiz-adv-x="344" 
d="M420 395v-7q-117 -29 -134 -34q-26 -8 -34 -23q-48 -98 -199 -408l-4 -11q-5 14 -3 32.5t6 30.5t9 29.5t7 27.5q-22 14 -23 14q-5 -8 -16 -24.5l-17 -25.5q-1 1 -3 2t-3 1q6 23 7 24q14 34 44 106t45 110q7 17 7 34q-16 -9 -25.5 -26t-18 -37t-19.5 -30q29 64 46 102
q-28 -13 -29 -14q-25 -13 -44 10q-20 24 -17 36.5t33 22.5q3 1 7 2.5t7 3t6.5 3t7.5 2t7 1.5q39 2 61.5 23.5t41.5 61.5q13 29 29 60t38 70.5t32 58.5q4 7 2 19q-124 -56 -137 -62q-1 0 -64 -37q-30 -16 -40.5 -13t-29.5 35q158 113 333 150q-178 -17 -339 -137l-7 7
q2 2 5 7t5.5 8.5t5.5 4.5q91 56 117 68q74 35 154 62q48 16 70 -11q2 -4 10 -13.5t11.5 -13.5t8.5 -13t6 -15.5t-0.5 -16t-6.5 -19.5t-1 -16q10 -14 11.5 -29.5t-3 -27.5t-12.5 -28q-4 -7 -71 -121l-9 -16h129zM172 395q90 162 116 212q3 5 4.5 10.5t3 13t2.5 11.5
q-6 1 -7 1q-23 -44 -69.5 -134t-69.5 -135q3 -1 6 -3q13 22 14 24z" />
    <glyph glyph-name="eight" unicode="8" horiz-adv-x="377" 
d="M261 179q84 66 82 165q41 -61 23 -142q-20 -91 -95.5 -146.5t-175.5 -53.5q-68 1 -112.5 34t-66.5 98q-12 36 13 64q8 8 75.5 83t103.5 114q4 4 10 9t11.5 8t12.5 7.5t11 7.5l-50 75q-19 28 -3 63q13 29 39 54t53 36q-61 -64 -66 -71q-26 -31 -11 -61q1 -2 20 -31l4 6
q-28 58 27 113q23 22 40 35.5t43 23.5t53 9q28 -1 57.5 -29t26.5 -54q-3 -41 -29 -80q-9 -14 -20 -28t-26.5 -30.5t-22.5 -24.5l55 -90q-6 -16 -17 -48t-13 -36l-1 0.5t-2 0.5l10 78q-2 0 -4.5 0.5t-3.5 0.5q-1 -2 -4 -16l-7 23q-7 23 -34 29.5t-42 -10.5q-6 -7 -13 -14.5
t-12.5 -14t-12.5 -14.5t-13 -14q-10 -11 -106 -118q-2 1 -5 4q26 33 77.5 98t76.5 98q0 1 -1 3t-2 3q-19 -8 -20 -9q-59 -54 -85 -81q-55 -58 -56 -139q0 -16 11.5 -24.5t26.5 -4.5q8 2 85 24l1 -3l-69 -33q0 -2 0.5 -5t0.5 -4q2 0 5.5 -0.5t6.5 -0.5t6.5 -0.5t6.5 -0.5
t5.5 0.5t5.5 2.5q7 3 29 12.5t32.5 15t26.5 14.5t28 19zM348 618q-113 -34 -171 -118q23 -12 29.5 -11.5t22.5 15.5q76 74 87 83q3 4 8 6t13 5t12 5q0 1 1 3z" />
    <glyph glyph-name="nine" unicode="9" horiz-adv-x="382" 
d="M462 589q4 -3 7 -5q-15 -32 -16 -34q-9 -24 -16 -48q-1 -6 -4.5 -24t-7.5 -28q-77 -183 -204 -347q-13 -17 -30 -29t-32 -18t-37 -9.5t-37 -4t-39 -0.5q-3 0 -6 1.5t-9 5t-10 5.5q5 6 13 19.5t15 21.5t14 10q19 7 32.5 19t28.5 33t22 28q27 30 151 181q0 1 13 23
q-3 2 -8 5q-85 -67 -97 -76q-17 -14 -32 -22q-26 -12 -44 -8.5t-41 21.5q-72 61 -31 147q21 44 56 91q63 84 161 146q24 15 46 0q50 -31 66 -76q6 -16 1 -22.5t-23 -7.5q-3 3 -3 4q-8 31 -16 34.5t-36 -12.5q-49 -29 -85 -72t-76 -107q-1 -3 -30 -60q92 13 162 79
q16 15 34.5 33t39.5 39t34 33q1 1 20 16q-2 -18 -13 -33t-58 -59q-14 -14 -43.5 -39t-43.5 -38q6 2 13 6t12 7t12.5 8t11 7.5t11.5 9.5t10 9t10.5 10t10 9.5t11 10.5t9.5 10q9 8 101 97zM248 698q-15 -14 -45.5 -41t-48 -42.5t-42.5 -42.5t-40 -49.5t-28.5 -53.5t-20.5 -64
q0 5 -0.5 13.5t-0.5 15t2 11.5q23 86 80.5 146.5t143.5 106.5zM237 321q-2 -4 -8 -11q-33 -44 -52 -67t-50.5 -56.5t-65 -56t-71.5 -37.5q41 38 123.5 114t123.5 114z" />
    <glyph glyph-name="colon" unicode=":" horiz-adv-x="218" 
d="M181 402q5 -24 -3 -35t-31 -11q-1 0 -17 1l2.5 -5l2.5 -5t2 -4.5t2 -4.5l-4 -4q-6 5 -18 14t-18 14v-1v1v0q6 51 7 56q2 19 7.5 23t22.5 -4q4 -1 11 -3.5t11 -4.5t9.5 -5.5t8.5 -9t5 -12.5zM140 229q25 -13 8 -32q-6 -7 -9.5 -10.5t-10 -8t-12 -3t-14.5 3.5
q-17 9 -26 32.5t-5 50.5q64 -29 69 -33zM99 362q-31 51 -4 74q3 -49 4 -74zM85 180q-23 5 -33.5 19t-3.5 33q24 -34 37 -52z" />
    <glyph glyph-name="semicolon" unicode=";" horiz-adv-x="212" 
d="M119 214q26 -10 20 -31q-6 -18 -41.5 -45.5t-54.5 -28.5l-9 4q47 89 52 98q3 7 8 9t8 1t9.5 -4t7.5 -3zM127 435q6 0 15.5 -5.5t17.5 -13t13 -16.5t3 -15q-1 -4 -6 -8.5t-10 -8t-12.5 -9t-13.5 -9.5q-4 5 -12.5 11.5t-13 11t-5.5 9.5q-2 8 -0.5 17.5t5.5 17t9 13t10 5.5z
" />
    <glyph glyph-name="less" unicode="&#x3c;" horiz-adv-x="370" 
d="M374 553q4 -5 5 -9.5t-1.5 -8.5t-5 -6l-7.5 -6q-12 -10 -53.5 -42t-63.5 -50q-12 -10 -142 -119q51 -73 169 -140q17 -10 49 -36q1 -1 17 -22l-4 -6q-6 2 -17.5 6t-20.5 7.5t-16 7.5q-92 61 -144 101q-23 18 -128 110q-17 15 -20 25q-2 5 -0.5 14t6.5 12q128 89 262 177
q6 4 13.5 7t17 6.5t14.5 4.5q1 0 1.5 -2t0.5 -3q-114 -72 -123 -78q-62 -42 -114 -87q127 86 139 93q23 15 102 60q11 6 34 0t30 -16z" />
    <glyph glyph-name="equal" unicode="=" horiz-adv-x="403" 
d="M275 462v5q-49 -3 -143.5 -7.5t-139.5 -7.5q-1 2 -1.5 4.5t-0.5 4.5q25 5 26 5q195 12 252 14q36 1 82 -10q7 -2 13.5 -6t15.5 -11.5t14 -10.5q-14 -8 -14 -17.5t4.5 -20.5t2.5 -19q-21 3 -22 3q-146 28 -307 1q-13 -3 -17 -2q-24 7 -29 14q-2 1 -0.5 5.5t4.5 11.5t4 10
q0 1 -5 4.5t-8 6.5v2.5t1 2.5q89 6 268 18zM356 327q7 0 15.5 -3.5t20.5 -10t20 -9.5q-20 -21 -23 -23.5t-9 -2.5q-30 -1 -106 -7t-130.5 -5t-105.5 13q-44 11 -38 57q29 -3 30 -3q290 -5 326 -6z" />
    <glyph glyph-name="greater" unicode="&#x3e;" horiz-adv-x="443" 
d="M438 365q17 -19 14 -30.5t-26 -22.5q-64 -30 -134 -59q-38 -16 -80 -41t-68 -43t-73 -52q-11 -8 -23 -15.5t-28 -17t-24 -13.5l-6 9q124 165 334 291q-78 39 -223 111q1 2 2.5 5.5t2.5 5.5q38 -18 114.5 -53t114.5 -53l1 1q0 1 1 1q-22 14 -23 15q-214 100 -219 103
q-15 7 -43 38q-2 3 -2.5 7t-0.5 9.5t-1 8.5q22 -3 23 -3q20 -9 76 -35q18 -9 64 -30t78.5 -37t62.5 -32q41 -22 86 -68z" />
    <glyph glyph-name="question" unicode="?" horiz-adv-x="459" 
d="M428 562q5 -3 6.5 -19.5t-3.5 -24.5q-52 -83 -86 -119q-69 -72 -183 -134q-8 -4 -16 -10.5t-18 -15.5t-15 -13q-15 17 -9.5 31t52.5 81q-5 -4 -14.5 -12t-14.5 -12l-2 2t-2 1q5 6 14 17.5t17 20t15 15.5q19 17 61 54t64 57q56 52 75 102l-8 3q-4 -2 -30 -9t-33 -9
t-29 -8.5t-32.5 -11t-27.5 -12t-30.5 -15.5t-26.5 -17q-10 -8 -27 -26.5t-19 -20.5q-1 0 -17 -11q2 -2 4 -6.5t5 -9l5 -7.5q-1 -1 -2.5 -2l-3 -2t-2.5 -2l-36 53q2 -1 4.5 -2t7 -2t7.5 -3q-19 44 18 80q4 3 56 47q-24 -3 -46 -20.5t-35.5 -42.5t-12.5 -50q-28 51 12 85
q54 45 97 64q35 16 138 42q13 3 45 -5q-82 -4 -175 -55q-1 -1 -24 -19q129 51 145 56q13 4 65 8q10 0 16 -9q4 -7 27 -46q3 -3 5.5 -11.5t6.5 -14.5t12 -10zM376 528q1 1 16 22l-4 3q-125 -113 -196 -178l4 -5q145 128 180 158zM87 184q9 2 21 -7t19.5 -23t6.5 -26
q0 -3 -3 -6.5t-7.5 -7t-5.5 -4.5q-21 0 -39 15.5t-15 31.5q1 8 8.5 17t14.5 10zM86 234q-24 57 45 106q-24 -34 -31.5 -46.5t-10 -23.5t-3.5 -36z" />
    <glyph glyph-name="at" unicode="@" horiz-adv-x="473" 
d="M215 107q41 11 76.5 32.5t82.5 58.5q9 7 28 22.5t34.5 27.5t30.5 22q-6 -8 -18.5 -26t-22.5 -31.5t-21 -23.5q-52 -52 -121 -103q-95 -71 -180 6q-49 44 -80 99q-14 24 -15 52t6.5 50.5t20.5 50.5q102 206 273 311q48 28 89.5 13t65.5 -68q14 -32 17.5 -63.5t-5 -62
t-19.5 -55t-30 -57.5q-19 -34 -57 -88q-33 -48 -66 -1q-2 3 -30 55q-70 -60 -75 -64q-20 -16 -29.5 -13t-19.5 28q-6 15 -6.5 29t5.5 29.5t10.5 23t15.5 24.5q49 75 114 99q24 -23 28 -52t-14 -54q-10 10 -6.5 30.5t-2.5 33.5q-88 -50 -129 -166q10 4 19.5 8t17.5 7.5
t18 9.5t16 9.5t17 11t15.5 11t16.5 12t16 11.5q2 -34 2 -36q-2 -15 5 -18.5t19 1.5q8 3 12 7q52 49 81 99.5t32 111.5q2 35 -7 68q-5 18 -27 28q-54 25 -107 -13q-211 -151 -239 -367q-11 -78 17 -100t104 -11q67 10 138 60q5 3 21 13l4 -2q-71 -56 -131.5 -79t-133.5 -1
q51 -30 124 -10zM95 476q2 2 18 24.5t20 27.5t19 24t21.5 25.5l21 21t25 21.5t25 16t29.5 15q-33 -31 -94.5 -91.5t-84.5 -83.5zM245 488l3 -4l-83 -77v1zM6 324q3 -1 6 -1q-5 -29 -16 -87q-1 0 -3 0.5t-3 0.5q2 13 7.5 42t8.5 45z" />
    <glyph glyph-name="A" unicode="A" horiz-adv-x="486" 
d="M561 291v-4t0.5 -3.5t0.5 -3.5q-123 -23 -136 -24q-21 -3 -30 -11t-10 -30q-9 -121 -45 -189q-20 -38 -55 -50q-2 96 13 248q-128 -50 -161 72q-1 0 -4 -0.5t-4 -0.5q-10 -22 -30.5 -68.5t-31.5 -70.5q-35 7 -61 45.5t-13 66.5q24 52 39 76q112 180 198 274q1 2 26 22
l3 -5q-113 -127 -182 -244q108 129 228 271q81 -43 85 -139q1 -18 3 -186v-39q154 -7 167 -7zM167 256q6 -22 28 -25.5t72 7.5q-19 3 -34.5 1t-34 1.5t-31.5 15.5zM142 313q77 -7 135 -12q-2 29 -6.5 93t-7.5 100q-30 -45 -121 -181zM296 10q2 18 9.5 65t10.5 80.5t1 66.5
q-9 -33 -13.5 -74.5t-5.5 -62t-2 -75.5zM311 305q1 18 4.5 114t5.5 147q-2 0 -6 1t-6 1q-9 -37 -9 -39q0 -15 1.5 -42.5t1.5 -38.5v-143h4.5h3.5z" />
    <glyph glyph-name="A" unicode="&#xc5;" horiz-adv-x="486" 
d="M561 291v-4t0.5 -3.5t0.5 -3.5q-123 -23 -136 -24q-21 -3 -30 -11t-10 -30q-9 -121 -45 -189q-20 -38 -55 -50q-2 96 13 248q-128 -50 -161 72q-1 0 -4 -0.5t-4 -0.5q-10 -22 -30.5 -68.5t-31.5 -70.5q-35 7 -61 45.5t-13 66.5q24 52 39 76q112 180 198 274q1 2 26 22
l3 -5q-113 -127 -182 -244q108 129 228 271q81 -43 85 -139q1 -18 3 -186v-39q154 -7 167 -7zM167 256q6 -22 28 -25.5t72 7.5q-19 3 -34.5 1t-34 1.5t-31.5 15.5zM142 313q77 -7 135 -12q-2 29 -6.5 93t-7.5 100q-30 -45 -121 -181zM296 10q2 18 9.5 65t10.5 80.5t1 66.5
q-9 -33 -13.5 -74.5t-5.5 -62t-2 -75.5zM311 305q1 18 4.5 114t5.5 147q-2 0 -6 1t-6 1q-9 -37 -9 -39q0 -15 1.5 -42.5t1.5 -38.5v-143h4.5h3.5z" />
    <glyph glyph-name="A" unicode="&#xc4;" horiz-adv-x="486" 
d="M561 291v-4t0.5 -3.5t0.5 -3.5q-123 -23 -136 -24q-21 -3 -30 -11t-10 -30q-9 -121 -45 -189q-20 -38 -55 -50q-2 96 13 248q-128 -50 -161 72q-1 0 -4 -0.5t-4 -0.5q-10 -22 -30.5 -68.5t-31.5 -70.5q-35 7 -61 45.5t-13 66.5q24 52 39 76q112 180 198 274q1 2 26 22
l3 -5q-113 -127 -182 -244q108 129 228 271q81 -43 85 -139q1 -18 3 -186v-39q154 -7 167 -7zM167 256q6 -22 28 -25.5t72 7.5q-19 3 -34.5 1t-34 1.5t-31.5 15.5zM142 313q77 -7 135 -12q-2 29 -6.5 93t-7.5 100q-30 -45 -121 -181zM296 10q2 18 9.5 65t10.5 80.5t1 66.5
q-9 -33 -13.5 -74.5t-5.5 -62t-2 -75.5zM311 305q1 18 4.5 114t5.5 147q-2 0 -6 1t-6 1q-9 -37 -9 -39q0 -15 1.5 -42.5t1.5 -38.5v-143h4.5h3.5z" />
    <glyph glyph-name="A" unicode="&#xc3;" horiz-adv-x="486" 
d="M561 291v-4t0.5 -3.5t0.5 -3.5q-123 -23 -136 -24q-21 -3 -30 -11t-10 -30q-9 -121 -45 -189q-20 -38 -55 -50q-2 96 13 248q-128 -50 -161 72q-1 0 -4 -0.5t-4 -0.5q-10 -22 -30.5 -68.5t-31.5 -70.5q-35 7 -61 45.5t-13 66.5q24 52 39 76q112 180 198 274q1 2 26 22
l3 -5q-113 -127 -182 -244q108 129 228 271q81 -43 85 -139q1 -18 3 -186v-39q154 -7 167 -7zM167 256q6 -22 28 -25.5t72 7.5q-19 3 -34.5 1t-34 1.5t-31.5 15.5zM142 313q77 -7 135 -12q-2 29 -6.5 93t-7.5 100q-30 -45 -121 -181zM296 10q2 18 9.5 65t10.5 80.5t1 66.5
q-9 -33 -13.5 -74.5t-5.5 -62t-2 -75.5zM311 305q1 18 4.5 114t5.5 147q-2 0 -6 1t-6 1q-9 -37 -9 -39q0 -15 1.5 -42.5t1.5 -38.5v-143h4.5h3.5z" />
    <glyph glyph-name="A" unicode="&#xc2;" horiz-adv-x="486" 
d="M561 291v-4t0.5 -3.5t0.5 -3.5q-123 -23 -136 -24q-21 -3 -30 -11t-10 -30q-9 -121 -45 -189q-20 -38 -55 -50q-2 96 13 248q-128 -50 -161 72q-1 0 -4 -0.5t-4 -0.5q-10 -22 -30.5 -68.5t-31.5 -70.5q-35 7 -61 45.5t-13 66.5q24 52 39 76q112 180 198 274q1 2 26 22
l3 -5q-113 -127 -182 -244q108 129 228 271q81 -43 85 -139q1 -18 3 -186v-39q154 -7 167 -7zM167 256q6 -22 28 -25.5t72 7.5q-19 3 -34.5 1t-34 1.5t-31.5 15.5zM142 313q77 -7 135 -12q-2 29 -6.5 93t-7.5 100q-30 -45 -121 -181zM296 10q2 18 9.5 65t10.5 80.5t1 66.5
q-9 -33 -13.5 -74.5t-5.5 -62t-2 -75.5zM311 305q1 18 4.5 114t5.5 147q-2 0 -6 1t-6 1q-9 -37 -9 -39q0 -15 1.5 -42.5t1.5 -38.5v-143h4.5h3.5z" />
    <glyph glyph-name="A" unicode="&#xc1;" horiz-adv-x="486" 
d="M561 291v-4t0.5 -3.5t0.5 -3.5q-123 -23 -136 -24q-21 -3 -30 -11t-10 -30q-9 -121 -45 -189q-20 -38 -55 -50q-2 96 13 248q-128 -50 -161 72q-1 0 -4 -0.5t-4 -0.5q-10 -22 -30.5 -68.5t-31.5 -70.5q-35 7 -61 45.5t-13 66.5q24 52 39 76q112 180 198 274q1 2 26 22
l3 -5q-113 -127 -182 -244q108 129 228 271q81 -43 85 -139q1 -18 3 -186v-39q154 -7 167 -7zM167 256q6 -22 28 -25.5t72 7.5q-19 3 -34.5 1t-34 1.5t-31.5 15.5zM142 313q77 -7 135 -12q-2 29 -6.5 93t-7.5 100q-30 -45 -121 -181zM296 10q2 18 9.5 65t10.5 80.5t1 66.5
q-9 -33 -13.5 -74.5t-5.5 -62t-2 -75.5zM311 305q1 18 4.5 114t5.5 147q-2 0 -6 1t-6 1q-9 -37 -9 -39q0 -15 1.5 -42.5t1.5 -38.5v-143h4.5h3.5z" />
    <glyph glyph-name="A" unicode="&#xc0;" horiz-adv-x="486" 
d="M561 291v-4t0.5 -3.5t0.5 -3.5q-123 -23 -136 -24q-21 -3 -30 -11t-10 -30q-9 -121 -45 -189q-20 -38 -55 -50q-2 96 13 248q-128 -50 -161 72q-1 0 -4 -0.5t-4 -0.5q-10 -22 -30.5 -68.5t-31.5 -70.5q-35 7 -61 45.5t-13 66.5q24 52 39 76q112 180 198 274q1 2 26 22
l3 -5q-113 -127 -182 -244q108 129 228 271q81 -43 85 -139q1 -18 3 -186v-39q154 -7 167 -7zM167 256q6 -22 28 -25.5t72 7.5q-19 3 -34.5 1t-34 1.5t-31.5 15.5zM142 313q77 -7 135 -12q-2 29 -6.5 93t-7.5 100q-30 -45 -121 -181zM296 10q2 18 9.5 65t10.5 80.5t1 66.5
q-9 -33 -13.5 -74.5t-5.5 -62t-2 -75.5zM311 305q1 18 4.5 114t5.5 147q-2 0 -6 1t-6 1q-9 -37 -9 -39q0 -15 1.5 -42.5t1.5 -38.5v-143h4.5h3.5z" />
    <glyph glyph-name="B" unicode="B" horiz-adv-x="526" 
d="M533 558q13 -50 -42 -80q-30 -17 -64.5 -36t-74.5 -41t-65 -36q-1 0 -19 -12h51q13 1 54 5.5t63 6.5q5 0 12 -4.5t9 -9.5q8 -15 13 -42q5 -26 -1.5 -40t-29.5 -27q-51 -30 -80 -43q-93 -41 -236 -145q-23 -17 -44.5 -39t-48 -53t-40.5 -46q2 6 6 19t7 23t8 18
q31 61 97 112q40 30 116.5 85.5t90.5 65.5q0 1 8 15h-5t-5.5 0.5t-5.5 0t-4 -1.5q-41 -29 -166 -121q-12 -9 -18 -11q36 39 113 101t102 84q-71 -10 -77 -11q-9 -2 -23.5 -7.5t-21.5 -7.5q-58 -14 -68 -69q0 -5 -3.5 -10.5t-7 -10t-9 -10t-8.5 -9.5q-17 37 -18 42
q-1 1 -5 22h-13q-17 -3 -28.5 -3t-21 8t-15.5 19.5t-13 31.5q-2 5 2.5 14.5t9.5 12.5q29 13 61 17q13 2 20 7t10 17q4 19 22 40l-5 -24q1 0 2 -0.5t2 -0.5q8 18 17 39t17.5 40l17 38t18 40t17.5 39q-2 0 -4.5 2t-3.5 3q-9 -4 -14 -12t-9 -19.5t-7 -16.5q-3 -4 -28 -54
q-2 1 -5 2q0 1 37 98l-39 -13q-22 -6 -29 24q171 62 187 68q58 18 130 29q25 4 45 -7.5t31 -34.5q20 -43 29 -81zM463 597q-26 9 -53 12.5t-55 2t-53.5 -5.5t-57.5 -11q19 -16 28 -32.5t7.5 -34t-6 -30.5t-13 -33.5t-12.5 -30.5zM476 558q24 21 16 45q-16 -23 -17 -24
q-26 -26 -51 -45q-33 -25 -222 -171q1 -2 4 -6q9 3 9 4q135 97 162 117q50 38 99 80zM250 657q-26 -8 -142 -46q-1 2 -2 5t-2 4q12 4 24.5 7.5t23.5 7t24 7t24 7t24 7t24 7.5q0 -1 0.5 -3t1.5 -3z" />
    <glyph glyph-name="C" unicode="C" horiz-adv-x="421" 
d="M299 169q63 33 98 51q1 -2 3 -4q-11 -13 -12 -13q-13 -9 -43.5 -32t-53.5 -39t-46 -27q-42 -22 -86.5 -17.5t-72.5 34.5q-36 40 -53 58q-58 62 -38 146q59 258 273 363q0 1 11 5q-47 -39 -76 -65t-63.5 -67.5t-54.5 -83.5q-11 -22 -20.5 -46t-21 -58t-16.5 -48
q-9 -24 18 -19q8 83 47.5 153t106.5 146q28 32 105 87q9 7 23 9.5t24 -0.5q28 -10 79 -43q8 -6 11 -25q5 -34 -30 -35q-32 -2 -58 -17q-201 -118 -239 -333q-1 -7 1 -56q0 -23 26 -18q121 26 239 92q79 45 135 67q-37 -28 -109 -83t-107 -82z" />
    <glyph glyph-name="C" unicode="&#xc7;" horiz-adv-x="421" 
d="M299 169q63 33 98 51q1 -2 3 -4q-11 -13 -12 -13q-13 -9 -43.5 -32t-53.5 -39t-46 -27q-42 -22 -86.5 -17.5t-72.5 34.5q-36 40 -53 58q-58 62 -38 146q59 258 273 363q0 1 11 5q-47 -39 -76 -65t-63.5 -67.5t-54.5 -83.5q-11 -22 -20.5 -46t-21 -58t-16.5 -48
q-9 -24 18 -19q8 83 47.5 153t106.5 146q28 32 105 87q9 7 23 9.5t24 -0.5q28 -10 79 -43q8 -6 11 -25q5 -34 -30 -35q-32 -2 -58 -17q-201 -118 -239 -333q-1 -7 1 -56q0 -23 26 -18q121 26 239 92q79 45 135 67q-37 -28 -109 -83t-107 -82z" />
    <glyph glyph-name="D" unicode="D" horiz-adv-x="577" 
d="M342 248q-92 -65 -245 -154q8 26 24 76t24 74q-2 -2 -10.5 -6.5t-12.5 -6.5q-17 9 -11 38q6 32 18 50q30 46 150 225q1 1 18 25q29 -18 33 -31.5t-10 -42.5q-23 -52 -117 -272q-2 -3 -32 -78q59 40 62 43q45 36 73.5 60t65 60t63.5 72q77 100 77 220q-1 28 -28 37
q-87 26 -210 -17q-41 -14 -103 -45q-15 -7 -24 -3t-16 20q102 57 208 74q35 5 107 11q14 1 39 -3q13 -2 19 -9t9 -21q45 -242 -171 -396zM534 630q14 -9 26.5 -31.5t19.5 -51t6 -52.5q-7 -129 -103 -230q-82 -86 -188 -135q-29 -14 -89 -44.5t-91 -44.5q-16 -7 -33 -13.5
t-41.5 -14t-34.5 -11.5l-13 -1q0 1 -1 2.5t-2 2.5q43 34 46 35q122 77 321 200q156 96 179 287q1 9 1.5 20t0 21.5t-1 20t-1.5 21t-1 19.5zM133 603q19 29 62.5 53t92 35t97.5 13.5t79 -11.5q-197 -19 -331 -90zM230 561q19 27 39 22q-72 -123 -149 -253q6 35 7 37
q29 86 103 194z" />
    <glyph glyph-name="E" unicode="E" horiz-adv-x="499" 
d="M520 579q-55 5 -162.5 -18.5t-165.5 -19.5q20 -17 22 -18q44 -25 35 -82q-1 -5 -17 -82h186v-2.5v-2.5q-66 -23 -71 -24q-79 -26 -114 -37q-26 -7 -31 -31q-2 -11 -27 -117q28 5 58.5 17.5t46 21t49.5 28.5q1 -1 2 -3t1 -3q-6 -4 -76 -50q1 -1 2 -2.5t1 -2.5
q54 27 178 91q-3 -22 -4 -23q-12 -37 -37 -66.5t-65 -62.5q-31 -26 -53 -50q-23 -25 -56 -14q-94 31 -158 99q-41 43 -26 100q32 121 71 257q7 26 -5 40t-33 49q-10 18 -3 37.5t27 23.5q77 17 123 20q23 1 48 1t58 -0.5t49 -0.5v-2q-99 -10 -157 -16q0 -1 1 -2
q46 -4 139.5 -11.5t139.5 -11.5v-2.5v-3.5v-3q-6 -2 -11 -4q17 -4 35 -9v-8z" />
    <glyph glyph-name="E" unicode="&#xcb;" horiz-adv-x="499" 
d="M520 579q-55 5 -162.5 -18.5t-165.5 -19.5q20 -17 22 -18q44 -25 35 -82q-1 -5 -17 -82h186v-2.5v-2.5q-66 -23 -71 -24q-79 -26 -114 -37q-26 -7 -31 -31q-2 -11 -27 -117q28 5 58.5 17.5t46 21t49.5 28.5q1 -1 2 -3t1 -3q-6 -4 -76 -50q1 -1 2 -2.5t1 -2.5
q54 27 178 91q-3 -22 -4 -23q-12 -37 -37 -66.5t-65 -62.5q-31 -26 -53 -50q-23 -25 -56 -14q-94 31 -158 99q-41 43 -26 100q32 121 71 257q7 26 -5 40t-33 49q-10 18 -3 37.5t27 23.5q77 17 123 20q23 1 48 1t58 -0.5t49 -0.5v-2q-99 -10 -157 -16q0 -1 1 -2
q46 -4 139.5 -11.5t139.5 -11.5v-2.5v-3.5v-3q-6 -2 -11 -4q17 -4 35 -9v-8z" />
    <glyph glyph-name="E" unicode="&#xca;" horiz-adv-x="499" 
d="M520 579q-55 5 -162.5 -18.5t-165.5 -19.5q20 -17 22 -18q44 -25 35 -82q-1 -5 -17 -82h186v-2.5v-2.5q-66 -23 -71 -24q-79 -26 -114 -37q-26 -7 -31 -31q-2 -11 -27 -117q28 5 58.5 17.5t46 21t49.5 28.5q1 -1 2 -3t1 -3q-6 -4 -76 -50q1 -1 2 -2.5t1 -2.5
q54 27 178 91q-3 -22 -4 -23q-12 -37 -37 -66.5t-65 -62.5q-31 -26 -53 -50q-23 -25 -56 -14q-94 31 -158 99q-41 43 -26 100q32 121 71 257q7 26 -5 40t-33 49q-10 18 -3 37.5t27 23.5q77 17 123 20q23 1 48 1t58 -0.5t49 -0.5v-2q-99 -10 -157 -16q0 -1 1 -2
q46 -4 139.5 -11.5t139.5 -11.5v-2.5v-3.5v-3q-6 -2 -11 -4q17 -4 35 -9v-8z" />
    <glyph glyph-name="E" unicode="&#xc9;" horiz-adv-x="499" 
d="M520 579q-55 5 -162.5 -18.5t-165.5 -19.5q20 -17 22 -18q44 -25 35 -82q-1 -5 -17 -82h186v-2.5v-2.5q-66 -23 -71 -24q-79 -26 -114 -37q-26 -7 -31 -31q-2 -11 -27 -117q28 5 58.5 17.5t46 21t49.5 28.5q1 -1 2 -3t1 -3q-6 -4 -76 -50q1 -1 2 -2.5t1 -2.5
q54 27 178 91q-3 -22 -4 -23q-12 -37 -37 -66.5t-65 -62.5q-31 -26 -53 -50q-23 -25 -56 -14q-94 31 -158 99q-41 43 -26 100q32 121 71 257q7 26 -5 40t-33 49q-10 18 -3 37.5t27 23.5q77 17 123 20q23 1 48 1t58 -0.5t49 -0.5v-2q-99 -10 -157 -16q0 -1 1 -2
q46 -4 139.5 -11.5t139.5 -11.5v-2.5v-3.5v-3q-6 -2 -11 -4q17 -4 35 -9v-8z" />
    <glyph glyph-name="E" unicode="&#xc8;" horiz-adv-x="499" 
d="M520 579q-55 5 -162.5 -18.5t-165.5 -19.5q20 -17 22 -18q44 -25 35 -82q-1 -5 -17 -82h186v-2.5v-2.5q-66 -23 -71 -24q-79 -26 -114 -37q-26 -7 -31 -31q-2 -11 -27 -117q28 5 58.5 17.5t46 21t49.5 28.5q1 -1 2 -3t1 -3q-6 -4 -76 -50q1 -1 2 -2.5t1 -2.5
q54 27 178 91q-3 -22 -4 -23q-12 -37 -37 -66.5t-65 -62.5q-31 -26 -53 -50q-23 -25 -56 -14q-94 31 -158 99q-41 43 -26 100q32 121 71 257q7 26 -5 40t-33 49q-10 18 -3 37.5t27 23.5q77 17 123 20q23 1 48 1t58 -0.5t49 -0.5v-2q-99 -10 -157 -16q0 -1 1 -2
q46 -4 139.5 -11.5t139.5 -11.5v-2.5v-3.5v-3q-6 -2 -11 -4q17 -4 35 -9v-8z" />
    <glyph glyph-name="F" unicode="F" horiz-adv-x="438" 
d="M646 629q7 -19 -17 -19q-13 0 -40 1.5t-41 1.5q-37 0 -276 -2v-12q49 -39 27 -113q-2 -6 -25 -88q36 -3 65.5 -1t65.5 -3.5t66 -20.5q-148 -18 -161 -19q-30 -4 -48.5 -18.5t-28.5 -44.5q-51 -150 -137 -383q-6 -17 -52 -111q-1 -2 -20 -30q-28 57 -7 120
q16 52 48.5 149.5t46.5 141.5q1 2 2 5l1.5 4.5t1.5 5t1 5t0.5 5t0 5.5t-1.5 5t-3 5.5l-4 5t-6 5.5q-13 -32 -14 -34q-10 -35 -31 -106.5t-32 -107.5q0 -1 -12 -28q-14 0 -15 8.5t3 15.5q11 43 51 199l20 80q0 4 -3 11t-7 8q-49 17 -71 79q-11 29 20 32q59 5 70 7q3 0 28 7
q4 12 11.5 31.5t13.5 34.5t10 27q7 18 40 103q-58 -17 -61 -18q-28 -9 -41 -3t-23 33q-1 1 -9 30q235 44 285 53q-1 1 -1 2.5v2.5q-162 -21 -285 -36q1 24 27 27q1 0 118 8q174 13 257 15q-14 -2 -35 -7l0.5 -1l0.5 -1q10 1 32 3t38.5 3t32.5 0q25 -1 93 -17q7 -1 14 -18
q3 -6 6 -13t6 -16t5 -14zM219 562q-17 -5 -44.5 -69.5t-31.5 -102.5q56 100 76 172zM3 358q27 -17 76 -12.5t185 34.5q-161 -14 -261 -22z" />
    <glyph glyph-name="G" unicode="G" horiz-adv-x="457" 
d="M465 363q3 -4 1 -14t-6 -14q-16 -14 -30 -31t-25.5 -35.5t-21 -35.5t-21.5 -38.5t-21 -35.5q-16 -25 -116 -184q-1 0 -3 1t-3 1q1 27 7.5 57t12 50.5t17 56t15.5 52.5q-24 -43 -26 -47q-20 -36 -28 -47q8 41 40 112t38 87q-98 -105 -122 -132q-3 -3 -7 -10q-3 -4 -4 -6
q-24 -33 -47 -35.5t-54 24.5q-24 20 -48 52q-34 44 -18 97q59 191 196 303q33 26 100 56q41 19 77 6.5t61.5 -42t35.5 -66.5q1 -4 -0.5 -9.5t-5 -13t-4.5 -11.5q-2 3 -7.5 9.5t-9 11.5t-4.5 10q-4 28 -12 34t-36 0q-69 -18 -143 -88q-93 -88 -142 -189q-6 -12 -11.5 -26.5
t-12 -33.5t-10.5 -29q37 9 117.5 60.5t102.5 78.5q-3 0 -7 -1q-15 -2 -23 -3t-19.5 1t-18.5 10.5t-11 23.5q35 10 37 11q84 25 100 31q6 2 15 11.5t13 12.5q5 3 12 4.5t9 -0.5q44 -50 71 -87zM167 598q-83 -79 -144 -185q43 103 118 173q1 1 27 18q19 16 56 50l3 -3l3 -3
q-18 -15 -63 -50z" />
    <glyph glyph-name="H" unicode="H" horiz-adv-x="484" 
d="M594 380q1 -3 1 -5q-48 -10 -51 -11q-80 -21 -112 -32q-15 -5 -21 -23q-12 -38 -28 -89t-31.5 -101t-28.5 -89q-3 -12 -14.5 -32.5t-15.5 -28.5q-1 -4 -19 -60q0 18 -1 56.5t-0.5 67.5t3.5 56q3 32 17 91t18 85q-8 -22 -23 -67t-22 -67l-5 1q4 26 16 90t18 100
q-113 -22 -139 -27q-6 -2 -13 -19q-9 -24 -28.5 -78t-30.5 -83q0 -2 -18 -33q-1 0 -2.5 0.5t-3.5 0.5h-3q0 8 -0.5 23.5t-0.5 27.5t2 23t5.5 22.5t9.5 28t9 24.5q-19 -22 -46 -52q0 14 4.5 42t5 40.5t-3.5 39.5q-1 0 -3.5 0.5t-4.5 0.5q-9 -44 -27 -131q-2 0 -5 0.5t-4 1.5
q6 55 7 61q5 34 9 47q12 38 -13 65q-3 3 -4.5 8t-3 12t-2.5 11q27 6 30 6h21q27 97 30 109q9 34 11 45q2 13 9 23t19 21t16 16q3 4 11.5 4t13.5 -2q42 -23 61 -40q26 -22 13 -75q-4 -13 -9 -26t-14 -32t-14 -29q101 4 122 6q4 0 8.5 5.5t5.5 10.5q4 14 13 56.5t15 65.5
q9 32 41 115q4 10 21 16q-7 -27 -20.5 -77t-19.5 -71q1 -1 3.5 -1.5t3.5 -0.5q25 66 28 75q21 57 21 58q8 17 18 19t25 -9q21 -15 26 -29t-2 -38q-2 -9 -50 -162q-1 -1 -7 -25q31 -7 87.5 -19t65.5 -13z" />
    <glyph glyph-name="I" unicode="I" horiz-adv-x="205" 
d="M260 697q6 -1 10 -2q0 -6 -0.5 -18t-1 -21.5t-3.5 -17.5q-27 -92 -55 -170q-11 -30 -25 -66t-28.5 -73.5t-24.5 -64.5q-5 -14 -12 -41t-8 -30q-2 -9 -6 -22t-7.5 -24.5t-5.5 -21.5q-6 -22 -7 -36v-108q-1 0 -4.5 -0.5t-4.5 -0.5q-33 30 -54 96q-4 14 -28 97q-13 45 8 101
q13 36 47.5 136.5t55.5 154.5q13 33 67 133q11 19 31 31q4 2 9.5 2.5t14.5 1t14 0.5q-67 -146 -105 -281t-34 -174q24 65 76.5 205t80.5 214z" />
    <glyph glyph-name="I" unicode="&#xcf;" horiz-adv-x="205" 
d="M260 697q6 -1 10 -2q0 -6 -0.5 -18t-1 -21.5t-3.5 -17.5q-27 -92 -55 -170q-11 -30 -25 -66t-28.5 -73.5t-24.5 -64.5q-5 -14 -12 -41t-8 -30q-2 -9 -6 -22t-7.5 -24.5t-5.5 -21.5q-6 -22 -7 -36v-108q-1 0 -4.5 -0.5t-4.5 -0.5q-33 30 -54 96q-4 14 -28 97q-13 45 8 101
q13 36 47.5 136.5t55.5 154.5q13 33 67 133q11 19 31 31q4 2 9.5 2.5t14.5 1t14 0.5q-67 -146 -105 -281t-34 -174q24 65 76.5 205t80.5 214z" />
    <glyph glyph-name="I" unicode="&#xce;" horiz-adv-x="205" 
d="M260 697q6 -1 10 -2q0 -6 -0.5 -18t-1 -21.5t-3.5 -17.5q-27 -92 -55 -170q-11 -30 -25 -66t-28.5 -73.5t-24.5 -64.5q-5 -14 -12 -41t-8 -30q-2 -9 -6 -22t-7.5 -24.5t-5.5 -21.5q-6 -22 -7 -36v-108q-1 0 -4.5 -0.5t-4.5 -0.5q-33 30 -54 96q-4 14 -28 97q-13 45 8 101
q13 36 47.5 136.5t55.5 154.5q13 33 67 133q11 19 31 31q4 2 9.5 2.5t14.5 1t14 0.5q-67 -146 -105 -281t-34 -174q24 65 76.5 205t80.5 214z" />
    <glyph glyph-name="I" unicode="&#xcd;" horiz-adv-x="205" 
d="M260 697q6 -1 10 -2q0 -6 -0.5 -18t-1 -21.5t-3.5 -17.5q-27 -92 -55 -170q-11 -30 -25 -66t-28.5 -73.5t-24.5 -64.5q-5 -14 -12 -41t-8 -30q-2 -9 -6 -22t-7.5 -24.5t-5.5 -21.5q-6 -22 -7 -36v-108q-1 0 -4.5 -0.5t-4.5 -0.5q-33 30 -54 96q-4 14 -28 97q-13 45 8 101
q13 36 47.5 136.5t55.5 154.5q13 33 67 133q11 19 31 31q4 2 9.5 2.5t14.5 1t14 0.5q-67 -146 -105 -281t-34 -174q24 65 76.5 205t80.5 214z" />
    <glyph glyph-name="I" unicode="&#xcc;" horiz-adv-x="205" 
d="M260 697q6 -1 10 -2q0 -6 -0.5 -18t-1 -21.5t-3.5 -17.5q-27 -92 -55 -170q-11 -30 -25 -66t-28.5 -73.5t-24.5 -64.5q-5 -14 -12 -41t-8 -30q-2 -9 -6 -22t-7.5 -24.5t-5.5 -21.5q-6 -22 -7 -36v-108q-1 0 -4.5 -0.5t-4.5 -0.5q-33 30 -54 96q-4 14 -28 97q-13 45 8 101
q13 36 47.5 136.5t55.5 154.5q13 33 67 133q11 19 31 31q4 2 9.5 2.5t14.5 1t14 0.5q-67 -146 -105 -281t-34 -174q24 65 76.5 205t80.5 214z" />
    <glyph glyph-name="J" unicode="J" horiz-adv-x="414" 
d="M327 590q11 -10 18 -21t10 -18.5t3 -22t-0.5 -19t-3.5 -22.5t-3 -20q-27 -171 -90 -318q-12 -28 -57 -81q-5 -5 -16.5 -7.5t-19.5 0.5q-55 17 -80 53q-3 4 -7 8t-11 8.5t-10 6.5q-5 4 -14.5 11t-17.5 13t-14 12q-22 23 -24 55t17 57q2 2 29 36q-9 -48 -22 -115l28 -7
q-4 10 -5 20.5t-1 18.5t3.5 20t4.5 17.5t8 19.5t8.5 16.5t10.5 18.5t10 18q10 17 16 21q3 2 38 13q0 -3 2 -10.5t2 -10.5v-10q-21 -94 -32 -128q-15 -41 -10.5 -58.5t41.5 -47.5q2 4 5 8t5.5 7.5t5 7.5t4.5 8t3 8q21 71 74 264q2 5 31 115q2 -1 3.5 -1t3 -0.5t3.5 -0.5
q-8 -42 -26 -139.5t-28 -149.5q1 -1 1.5 -1h0.5q10 28 11 29q43 153 61 219q4 16 3 41q-2 21 -14 29.5t-32 3.5q-7 -2 -17 -5t-19.5 -5.5t-17.5 -4.5q-19 -4 -44 8t-42.5 32.5t-19.5 38.5q109 16 115 16q153 12 289 18q47 2 94 -24q-44 -8 -131 -24.5t-133 -24.5zM170 575
q14 4 108 33q-17 0 -62.5 -12.5t-73.5 -6.5q2 -21 28 -14z" />
    <glyph glyph-name="K" unicode="K" horiz-adv-x="559" 
d="M630 587q13 -18 -5 -29q-158 -89 -376 -213q-4 -2 -9 2q148 96 271 175q-1 1 -2 2.5t-1 2.5q-155 -92 -321 -191q5 -2 10 -5.5t7.5 -4.5t5.5 -1q124 -1 182 -123q11 -25 21.5 -53t23 -64.5t18.5 -53.5q-1 -1 -4 -2t-5 -2q-20 38 -21 40q-3 5 -9 14t-10 14.5t-9.5 12.5
t-10.5 13.5t-11 11.5q-65 61 -125 105q-46 35 -111 21q88 -9 125 -46q-104 10 -118 12q-18 2 -25 -16q-33 -77 -93 -216q-1 -1 -19 -37l-12 4q1 7 1.5 21.5t2 25.5t4.5 20q7 22 19 64t18 60q12 36 29.5 105t26.5 98q61 202 129 332q0 1 9 17q74 -39 41 -113q-9 -19 -53 -122
l1 -8q49 38 50 39q37 30 85.5 60.5t80.5 47.5t92 48q32 16 53 -9q22 -27 44 -59zM22 267q-1 -3 -23 -53q-1 0 -3 1t-3 1q21 101 92 277.5t92 255.5q28 -11 31.5 -17.5t-5.5 -30.5q-48 -115 -181 -434zM73 318q7 -2 9 -2q-14 -45 -42.5 -133t-43.5 -132q-1 0 -3 1t-3 1
q1 15 3.5 30.5t6.5 32t7 29t9.5 30.5t9.5 28t11.5 30t11.5 27.5t12.5 30t11.5 27.5z" />
    <glyph glyph-name="L" unicode="L" horiz-adv-x="321" 
d="M477 102q11 -3 20 -18q-13 0 -40 1t-48 1t-40 -3q-128 -16 -229 -38q-29 -7 -58.5 -15.5t-72.5 -22.5t-57 -19q-34 -10 -46 -3t-27 45q96 38 174 68v2q-32 -10 -90 -28.5t-79 -24.5q65 63 189 85q1 10 3.5 64t3.5 82q1 12 -3.5 13t-22.5 -6q4 18 9.5 34.5t15 36
t14.5 28.5t19.5 33.5t17.5 28.5q-8 -24 -13 -40q17 27 42.5 67t49 76.5t44.5 68.5q-7 -25 -8 -29q1 0 2 -1q8 9 23.5 28.5t23.5 29.5l1.5 -0.5t1.5 -1.5q-2 -5 -7 -14.5t-7 -12.5q2 -1 4 -3q26 30 29 34q10 9 18 6q19 -7 28 -32.5t-1 -42.5q-5 -9 -73 -122q-36 -59 -53 -89
t-42 -81.5t-39 -96.5q-1 -5 -5.5 -13t-5.5 -9q-1 -2 -10 -23q195 2 344 -43z" />
    <glyph glyph-name="M" unicode="M" horiz-adv-x="654" 
d="M610 694q52 -18 53 -54q1 -34 -9 -63q-12 -35 -37 -100.5t-35 -95.5q-3 -7 -15.5 -42.5t-16 -46t-14.5 -42t-15 -46.5t-11.5 -43t-11.5 -47t-8 -43.5t-6 -47.5q0 -2 -8 -32q-15 27 -21 95t1 143q4 39 14.5 117.5t14.5 118.5q-42 -101 -44 -242q0 -19 6 -248
q-23 25 -20 160q0 20 0.5 42.5t0 42.5t0.5 42.5t3 41.5q3 26 8 53t13 63.5t11 53.5q-33 -42 -35 -44q-16 -20 -54.5 -68.5t-59.5 -74.5q-19 -24 -31.5 -26.5t-39.5 11.5q-77 36 -86 111q-1 0 -5 14q-32 -45 -72 -193.5t-53 -267.5q-1 -1 -3.5 -1.5t-3.5 -0.5q-1 5 -5.5 15.5
t-6.5 19t-1 15.5q23 362 147 688q0 2 15 33q52 -26 80 -62q8 -11 13 -21.5t6 -23t1.5 -20t-0.5 -23t-2 -21.5q0 -30 -3 -90.5t-4 -91.5q0 -4 1.5 -9t4.5 -11.5t4 -9.5q3 1 10 3t12 4t8 5q43 45 107 118q76 85 123 146q-6 -3 -13 -7q0 1 -2 2t-2 2q41 73 45 80
q8 15 23.5 19.5t28.5 -0.5zM85 592q15 52 47 77q-84 -228 -142 -594q16 140 16 147q13 134 79 370z" />
    <glyph glyph-name="N" unicode="N" horiz-adv-x="498" 
d="M487 686q26 -11 20 -41q-30 -132 -40 -164q-17 -51 -51.5 -143t-44.5 -120q-2 -6 -72 -213q-2 -5 -8 -7v37q2 13 9 61t12.5 79t12.5 61q9 39 -3 71.5t-42 72.5q21 -39 23 -42q17 -24 -2 -43q-18 42 -98 223l-3 -3q-101 -287 -137 -393q-4 -9 -7 -20.5t-6.5 -25.5
l-5.5 -22q-3 -10 -4.5 -14t-7.5 -9.5t-15 -6.5q-2 0 -4 -3t-4.5 -8.5t-4.5 -7.5q-1 1 -3.5 5.5t-4 8t-0.5 7.5q0 11 1 43.5t3 55t8 42.5q30 107 117 369q2 8 53 138q33 -22 41 -53q5 -16 16 -40q11 -23 68 -142q0 -1 20 -41q43 113 46 120q27 68 64 154q11 27 30 22
q-9 -29 -19 -63t-20.5 -70.5t-17.5 -61.5q1 0 3.5 -1t3.5 -1q72 184 74 189zM163 683q-95 -213 -163 -504q-1 1 -4.5 1.5t-5.5 0.5q5 26 16 82t20.5 99t19.5 81q9 35 22.5 74t30.5 85.5t25 72.5q6 17 14 19t25 -11z" />
    <glyph glyph-name="N" unicode="&#xd1;" horiz-adv-x="498" 
d="M487 686q26 -11 20 -41q-30 -132 -40 -164q-17 -51 -51.5 -143t-44.5 -120q-2 -6 -72 -213q-2 -5 -8 -7v37q2 13 9 61t12.5 79t12.5 61q9 39 -3 71.5t-42 72.5q21 -39 23 -42q17 -24 -2 -43q-18 42 -98 223l-3 -3q-101 -287 -137 -393q-4 -9 -7 -20.5t-6.5 -25.5
l-5.5 -22q-3 -10 -4.5 -14t-7.5 -9.5t-15 -6.5q-2 0 -4 -3t-4.5 -8.5t-4.5 -7.5q-1 1 -3.5 5.5t-4 8t-0.5 7.5q0 11 1 43.5t3 55t8 42.5q30 107 117 369q2 8 53 138q33 -22 41 -53q5 -16 16 -40q11 -23 68 -142q0 -1 20 -41q43 113 46 120q27 68 64 154q11 27 30 22
q-9 -29 -19 -63t-20.5 -70.5t-17.5 -61.5q1 0 3.5 -1t3.5 -1q72 184 74 189zM163 683q-95 -213 -163 -504q-1 1 -4.5 1.5t-5.5 0.5q5 26 16 82t20.5 99t19.5 81q9 35 22.5 74t30.5 85.5t25 72.5q6 17 14 19t25 -11z" />
    <glyph glyph-name="O" unicode="O" horiz-adv-x="448" 
d="M454 503q4 -66 1 -81q-12 -86 -28 -121q-36 -84 -83 -146q-11 -14 -25.5 -29t-25.5 -25t-30 -26.5t-28 -24.5q-12 -11 -31 -13q-83 -10 -146 22q-20 11 -28.5 38t1.5 49q2 5 2 17q-5 165 97 322q23 35 51 73t65 85.5t55 71.5q0 1 12 20q7 -9 9.5 -13t8 -9.5t9.5 -7t10 -1
t13 3.5q4 2 10.5 -0.5t13 -6.5t10.5 -9q5 -5 14.5 -12t16 -11.5t13 -13t8.5 -18.5q4 -17 -2 -31.5t-18 -18.5q-11 -2 -19.5 2t-12 9.5t-9.5 16.5q-1 2 -19 39q-5 -5 -15 -13t-16.5 -14t-11.5 -12q-172 -208 -198 -423q-9 -71 25 -111q131 124 227 333q-26 -69 -39.5 -103.5
t-42.5 -88t-61 -93.5q1 0 3 -1.5t3 -2.5q19 19 19 20q88 116 117 209q4 14 16 41t16 41q3 8 2 25.5t0 26.5q2 8 24 84q2 0 5.5 -0.5t5.5 -1.5q6 -63 6 -67zM52 400q-45 -88 -32 -211v-28q-18 23 -25.5 57t-2.5 63q22 144 119 298q23 35 92 114q3 4 8.5 6t13.5 3.5t12 2.5
q0 -1 0.5 -3.5t1.5 -3.5q-7 -10 -16 -22t-16 -22t-15.5 -21.5t-15.5 -22t-15 -22t-15 -22.5q-52 -84 -94 -166z" />
    <glyph glyph-name="O" unicode="&#xd8;" horiz-adv-x="448" 
d="M454 503q4 -66 1 -81q-12 -86 -28 -121q-36 -84 -83 -146q-11 -14 -25.5 -29t-25.5 -25t-30 -26.5t-28 -24.5q-12 -11 -31 -13q-83 -10 -146 22q-20 11 -28.5 38t1.5 49q2 5 2 17q-5 165 97 322q23 35 51 73t65 85.5t55 71.5q0 1 12 20q7 -9 9.5 -13t8 -9.5t9.5 -7t10 -1
t13 3.5q4 2 10.5 -0.5t13 -6.5t10.5 -9q5 -5 14.5 -12t16 -11.5t13 -13t8.5 -18.5q4 -17 -2 -31.5t-18 -18.5q-11 -2 -19.5 2t-12 9.5t-9.5 16.5q-1 2 -19 39q-5 -5 -15 -13t-16.5 -14t-11.5 -12q-172 -208 -198 -423q-9 -71 25 -111q131 124 227 333q-26 -69 -39.5 -103.5
t-42.5 -88t-61 -93.5q1 0 3 -1.5t3 -2.5q19 19 19 20q88 116 117 209q4 14 16 41t16 41q3 8 2 25.5t0 26.5q2 8 24 84q2 0 5.5 -0.5t5.5 -1.5q6 -63 6 -67zM52 400q-45 -88 -32 -211v-28q-18 23 -25.5 57t-2.5 63q22 144 119 298q23 35 92 114q3 4 8.5 6t13.5 3.5t12 2.5
q0 -1 0.5 -3.5t1.5 -3.5q-7 -10 -16 -22t-16 -22t-15.5 -21.5t-15.5 -22t-15 -22t-15 -22.5q-52 -84 -94 -166z" />
    <glyph glyph-name="O" unicode="&#xd6;" horiz-adv-x="448" 
d="M454 503q4 -66 1 -81q-12 -86 -28 -121q-36 -84 -83 -146q-11 -14 -25.5 -29t-25.5 -25t-30 -26.5t-28 -24.5q-12 -11 -31 -13q-83 -10 -146 22q-20 11 -28.5 38t1.5 49q2 5 2 17q-5 165 97 322q23 35 51 73t65 85.5t55 71.5q0 1 12 20q7 -9 9.5 -13t8 -9.5t9.5 -7t10 -1
t13 3.5q4 2 10.5 -0.5t13 -6.5t10.5 -9q5 -5 14.5 -12t16 -11.5t13 -13t8.5 -18.5q4 -17 -2 -31.5t-18 -18.5q-11 -2 -19.5 2t-12 9.5t-9.5 16.5q-1 2 -19 39q-5 -5 -15 -13t-16.5 -14t-11.5 -12q-172 -208 -198 -423q-9 -71 25 -111q131 124 227 333q-26 -69 -39.5 -103.5
t-42.5 -88t-61 -93.5q1 0 3 -1.5t3 -2.5q19 19 19 20q88 116 117 209q4 14 16 41t16 41q3 8 2 25.5t0 26.5q2 8 24 84q2 0 5.5 -0.5t5.5 -1.5q6 -63 6 -67zM52 400q-45 -88 -32 -211v-28q-18 23 -25.5 57t-2.5 63q22 144 119 298q23 35 92 114q3 4 8.5 6t13.5 3.5t12 2.5
q0 -1 0.5 -3.5t1.5 -3.5q-7 -10 -16 -22t-16 -22t-15.5 -21.5t-15.5 -22t-15 -22t-15 -22.5q-52 -84 -94 -166z" />
    <glyph glyph-name="O" unicode="&#xd5;" horiz-adv-x="448" 
d="M454 503q4 -66 1 -81q-12 -86 -28 -121q-36 -84 -83 -146q-11 -14 -25.5 -29t-25.5 -25t-30 -26.5t-28 -24.5q-12 -11 -31 -13q-83 -10 -146 22q-20 11 -28.5 38t1.5 49q2 5 2 17q-5 165 97 322q23 35 51 73t65 85.5t55 71.5q0 1 12 20q7 -9 9.5 -13t8 -9.5t9.5 -7t10 -1
t13 3.5q4 2 10.5 -0.5t13 -6.5t10.5 -9q5 -5 14.5 -12t16 -11.5t13 -13t8.5 -18.5q4 -17 -2 -31.5t-18 -18.5q-11 -2 -19.5 2t-12 9.5t-9.5 16.5q-1 2 -19 39q-5 -5 -15 -13t-16.5 -14t-11.5 -12q-172 -208 -198 -423q-9 -71 25 -111q131 124 227 333q-26 -69 -39.5 -103.5
t-42.5 -88t-61 -93.5q1 0 3 -1.5t3 -2.5q19 19 19 20q88 116 117 209q4 14 16 41t16 41q3 8 2 25.5t0 26.5q2 8 24 84q2 0 5.5 -0.5t5.5 -1.5q6 -63 6 -67zM52 400q-45 -88 -32 -211v-28q-18 23 -25.5 57t-2.5 63q22 144 119 298q23 35 92 114q3 4 8.5 6t13.5 3.5t12 2.5
q0 -1 0.5 -3.5t1.5 -3.5q-7 -10 -16 -22t-16 -22t-15.5 -21.5t-15.5 -22t-15 -22t-15 -22.5q-52 -84 -94 -166z" />
    <glyph glyph-name="O" unicode="&#xd4;" horiz-adv-x="448" 
d="M454 503q4 -66 1 -81q-12 -86 -28 -121q-36 -84 -83 -146q-11 -14 -25.5 -29t-25.5 -25t-30 -26.5t-28 -24.5q-12 -11 -31 -13q-83 -10 -146 22q-20 11 -28.5 38t1.5 49q2 5 2 17q-5 165 97 322q23 35 51 73t65 85.5t55 71.5q0 1 12 20q7 -9 9.5 -13t8 -9.5t9.5 -7t10 -1
t13 3.5q4 2 10.5 -0.5t13 -6.5t10.5 -9q5 -5 14.5 -12t16 -11.5t13 -13t8.5 -18.5q4 -17 -2 -31.5t-18 -18.5q-11 -2 -19.5 2t-12 9.5t-9.5 16.5q-1 2 -19 39q-5 -5 -15 -13t-16.5 -14t-11.5 -12q-172 -208 -198 -423q-9 -71 25 -111q131 124 227 333q-26 -69 -39.5 -103.5
t-42.5 -88t-61 -93.5q1 0 3 -1.5t3 -2.5q19 19 19 20q88 116 117 209q4 14 16 41t16 41q3 8 2 25.5t0 26.5q2 8 24 84q2 0 5.5 -0.5t5.5 -1.5q6 -63 6 -67zM52 400q-45 -88 -32 -211v-28q-18 23 -25.5 57t-2.5 63q22 144 119 298q23 35 92 114q3 4 8.5 6t13.5 3.5t12 2.5
q0 -1 0.5 -3.5t1.5 -3.5q-7 -10 -16 -22t-16 -22t-15.5 -21.5t-15.5 -22t-15 -22t-15 -22.5q-52 -84 -94 -166z" />
    <glyph glyph-name="O" unicode="&#xd3;" horiz-adv-x="448" 
d="M454 503q4 -66 1 -81q-12 -86 -28 -121q-36 -84 -83 -146q-11 -14 -25.5 -29t-25.5 -25t-30 -26.5t-28 -24.5q-12 -11 -31 -13q-83 -10 -146 22q-20 11 -28.5 38t1.5 49q2 5 2 17q-5 165 97 322q23 35 51 73t65 85.5t55 71.5q0 1 12 20q7 -9 9.5 -13t8 -9.5t9.5 -7t10 -1
t13 3.5q4 2 10.5 -0.5t13 -6.5t10.5 -9q5 -5 14.5 -12t16 -11.5t13 -13t8.5 -18.5q4 -17 -2 -31.5t-18 -18.5q-11 -2 -19.5 2t-12 9.5t-9.5 16.5q-1 2 -19 39q-5 -5 -15 -13t-16.5 -14t-11.5 -12q-172 -208 -198 -423q-9 -71 25 -111q131 124 227 333q-26 -69 -39.5 -103.5
t-42.5 -88t-61 -93.5q1 0 3 -1.5t3 -2.5q19 19 19 20q88 116 117 209q4 14 16 41t16 41q3 8 2 25.5t0 26.5q2 8 24 84q2 0 5.5 -0.5t5.5 -1.5q6 -63 6 -67zM52 400q-45 -88 -32 -211v-28q-18 23 -25.5 57t-2.5 63q22 144 119 298q23 35 92 114q3 4 8.5 6t13.5 3.5t12 2.5
q0 -1 0.5 -3.5t1.5 -3.5q-7 -10 -16 -22t-16 -22t-15.5 -21.5t-15.5 -22t-15 -22t-15 -22.5q-52 -84 -94 -166z" />
    <glyph glyph-name="O" unicode="&#xd2;" horiz-adv-x="448" 
d="M454 503q4 -66 1 -81q-12 -86 -28 -121q-36 -84 -83 -146q-11 -14 -25.5 -29t-25.5 -25t-30 -26.5t-28 -24.5q-12 -11 -31 -13q-83 -10 -146 22q-20 11 -28.5 38t1.5 49q2 5 2 17q-5 165 97 322q23 35 51 73t65 85.5t55 71.5q0 1 12 20q7 -9 9.5 -13t8 -9.5t9.5 -7t10 -1
t13 3.5q4 2 10.5 -0.5t13 -6.5t10.5 -9q5 -5 14.5 -12t16 -11.5t13 -13t8.5 -18.5q4 -17 -2 -31.5t-18 -18.5q-11 -2 -19.5 2t-12 9.5t-9.5 16.5q-1 2 -19 39q-5 -5 -15 -13t-16.5 -14t-11.5 -12q-172 -208 -198 -423q-9 -71 25 -111q131 124 227 333q-26 -69 -39.5 -103.5
t-42.5 -88t-61 -93.5q1 0 3 -1.5t3 -2.5q19 19 19 20q88 116 117 209q4 14 16 41t16 41q3 8 2 25.5t0 26.5q2 8 24 84q2 0 5.5 -0.5t5.5 -1.5q6 -63 6 -67zM52 400q-45 -88 -32 -211v-28q-18 23 -25.5 57t-2.5 63q22 144 119 298q23 35 92 114q3 4 8.5 6t13.5 3.5t12 2.5
q0 -1 0.5 -3.5t1.5 -3.5q-7 -10 -16 -22t-16 -22t-15.5 -21.5t-15.5 -22t-15 -22t-15 -22.5q-52 -84 -94 -166z" />
    <glyph glyph-name="P" unicode="P" horiz-adv-x="474" 
d="M567 553q22 -40 14.5 -71t-44.5 -60q-38 -28 -76 -44q-174 -74 -241 -96q-30 -10 -46.5 -27t-26.5 -46q-14 -40 -44.5 -111.5t-36.5 -85.5q-1 -4 -21 -69q-1 1 -2.5 1.5t-2.5 1.5q1 10 4.5 29.5t4.5 29.5q-2 1 -5 1q-22 -57 -42 -107l-2 -0.5t-3 -0.5q0 3 -2.5 9.5
t-3.5 11t-1 8.5q2 17 5 48.5t5 50.5t6 46t9 49q10 43 21.5 88.5t29 107t24.5 87.5q2 6 8 10q-13 -60 -38.5 -180t-38.5 -179q1 -1 3.5 -1.5t3.5 -0.5q21 83 22 87q84 343 108 443q3 9 3 28t2 27q4 20 19 52q1 2 7 3.5t10 0.5q16 -5 23 -12q15 -15 32.5 -17t36.5 6
q44 14 103 20q61 7 101 -39q47 -54 72 -99zM483 542q23 19 20.5 35.5t-31.5 27.5q-44 16 -126 38q-7 1 -14 1.5t-17 -0.5t-14 -1q0 -2 -1 -8q6 -1 21.5 -2.5t22 -2.5t20 -3t22 -4.5t19.5 -6t20.5 -8.5t18.5 -11q-7 0 -20.5 3t-17.5 4q-58 8 -93 11q-4 1 -11 -3t-8 -8
q-12 -30 -36 -94.5t-37 -98.5q-4 -11 -10 -23.5t-15.5 -29.5t-14.5 -27q18 14 19 15q128 104 140 114q5 5 61.5 45.5t77.5 70.5l10 -3q-35 -39 -79 -78.5t-96.5 -82t-82.5 -71.5q14 9 15 10q193 155 237 191z" />
    <glyph glyph-name="Q" unicode="Q" horiz-adv-x="574" 
d="M372 116l81 -27q36 -15 72 -40q-38 15 -82 18.5t-77 -1t-81 -14.5q-72 -15 -126 -34.5t-103 -55.5q-58 68 -66 78q7 3 17 9.5t17 10.5t14 6q84 30 141 46q11 4 33 6.5t33 5.5l-13 4q-50 5 -75.5 29.5t-32.5 72.5q-24 164 59 292q66 102 163 122q20 5 39 4
q-7 -5 -17.5 -11t-17.5 -10.5t-16.5 -10.5t-16 -11.5t-13.5 -13.5t-12 -16q86 49 94 53q41 25 77 -9q1 -1 14 -10q0 16 -5.5 33.5t-11 27t-17.5 28.5t-16 25q2 2 6 5q20 -9 20 -10q61 -52 95.5 -106t34.5 -121q1 -222 -159 -333q-8 -6 -43 -33q-1 0 -9 -9zM288 215
q144 115 189 283q5 18 5 73q0 3 -6.5 8t-10.5 4q-27 -4 -43.5 -8t-37 -14.5t-35.5 -26.5q-8 -9 -24.5 -26.5t-26.5 -28.5t-23.5 -26.5t-23.5 -29.5q-36 -48 -59 -143q7 4 10 10q6 12 16.5 35t19.5 41t20 32q9 12 20 24t23 24.5t21.5 21.5t24 23t22.5 22q2 3 6.5 4.5t11 2.5
t9.5 2q-142 -126 -191 -279q-3 -9 -4.5 -20t-2 -25t-1.5 -21q2 -1 6 -3.5t5 -3.5q6 4 13.5 7.5t14 6.5t14 7t13.5 7.5t13 8t12 8.5z" />
    <glyph glyph-name="R" unicode="R" horiz-adv-x="383" 
d="M457 599q11 -50 -30 -73q-25 -13 -221 -113q-3 -1 -19 -10q11 -26 25 -57.5t28 -64.5t25 -56l-9 -6q-6 7 -16.5 23t-16.5 24q-4 -4 -13 -11q21 -40 22 -41q12 -18 44 -64.5t49 -71.5q6 -9 11 -19.5t11.5 -23.5t9.5 -20q-5 -4 -7 -6q-6 4 -17.5 13.5t-20.5 17.5t-16 16
q-11 14 -23 30t-26.5 36.5t-21.5 30.5q-63 86 -64 87q-4 5 -56 87q-10 -31 -28 -83.5t-25 -73.5h-4v56q-1 1 -3.5 1.5t-3.5 0.5q-6 -31 -17.5 -93.5t-16.5 -93.5q-2 0 -4 -0.5t-3 -0.5l-3 18t-2.5 17.5t0.5 17.5q29 209 98 390q9 25 10 35q1 3 0 7t-3.5 9t-2.5 7
q-19 -14 -20 -15q-4 -5 -8 -21q-18 -78 -77 -335q0 37 1 40q0 6 5 47q19 141 21 167q1 5 -3 10t-11.5 12t-10.5 11l10 5q14 0 22.5 6.5t12 13.5t7.5 21q3 10 34 104q-10 3 -27.5 8t-22.5 6v4.5t1 3.5q2 2 41 28q-9 2 -28.5 -4.5t-33 -2t-20.5 31.5q13 3 38.5 10.5t45.5 12
t39 6.5q104 11 200 11q47 -1 90 -38.5t54 -84.5zM393 603q19 24 9.5 49t-40.5 29q-40 4 -85 -3q-9 -1 -114 -25q5 -7 12 -18t12.5 -18t11.5 -12q14 -16 14 -27.5t-11 -28.5q-5 -9 -56 -106q16 5 16 6q149 88 175 104q32 21 56 50z" />
    <glyph glyph-name="S" unicode="S" horiz-adv-x="434" 
d="M408 413q78 -135 -14 -249q-65 -80 -116 -112q-123 -75 -234 -34q-39 14 -54 60q68 -47 165 -8q35 14 79 50q56 46 108 104q-16 -14 -37.5 -32t-42.5 -35.5t-38 -31.5q6 7 28.5 33t30 35.5t26 32.5t26.5 37.5t19.5 36.5t17.5 43t9 44q-41 -68 -44 -73q-24 -35 -59 -66
q10 14 21.5 31.5t23.5 35.5t21 32q-1 1 -2.5 3t-2.5 3q-75 -27 -80 -29q-4 -1 -26 -9.5t-34 -12.5q-1 -1 -4.5 -2t-5 -1.5t-5 -1.5t-5.5 -1t-5 -0.5t-5 0t-4.5 1.5t-4.5 2.5t-4.5 3.5t-4.5 6q-2 2 -4 2q-34 -4 -50 28q-23 46 -13 93q27 127 142 214q13 10 26.5 18t34.5 20
t27 16q21 13 49 -1q46 -24 70 -79q1 -3 1 -6.5t-0.5 -9t-0.5 -7.5q-22 7 -24 7q-3 1 -9.5 4t-11 4.5t-7.5 0.5q-71 -30 -96 -48q-52 -37 -87.5 -76t-52.5 -90q-7 -21 1 -30q4 -4 14 -5.5t16 1.5q18 6 51.5 20.5t43.5 18.5q36 15 83 31q34 12 54 -22zM133 574
q-36 -49 -53 -97t-9 -104q-24 31 -19 70q16 122 123 210q23 19 76 49q13 7 42 9q-99 -56 -160 -137z" />
    <glyph glyph-name="T" unicode="T" horiz-adv-x="208" 
d="M235 603q30 -18 16 -50q-31 -65 -44 -98q-67 -161 -59 -330q0 -12 2.5 -23t7 -28.5t5.5 -21.5q1 -3 13 -41q-48 13 -86.5 61.5t-38.5 94.5q-1 77 37 220q1 5 28 103q-3 1 -6 3q-23 -66 -24 -70q-12 -39 -21 -76q-9 -34 -16 -74q-1 -6 -12 -78h-8q-1 7 -2.5 23t-2 23
t0.5 23q27 190 98 316q0 1 10 21q-68 -30 -71 -32q-41 -20 -66.5 -10t-47.5 55q12 4 31 11t32 11.5t30 10t32 8.5q152 36 254 53q72 12 159 -30q-34 -6 -92.5 -9.5t-105 -11.5t-84.5 -30q29 -22 31 -24zM-54 634q8 23 56 45t109 32.5t104 2.5q-29 -8 -86.5 -22t-101.5 -27
t-81 -31z" />
    <glyph glyph-name="U" unicode="U" horiz-adv-x="479" 
d="M588 537q19 21 34 29q-37 -53 -39 -56q-13 -19 -37.5 -57t-45 -67.5t-40.5 -54.5q-91 -115 -211 -201q-50 -36 -107 -15q-60 22 -82 33q-93 47 -63 149q48 160 105 258q37 63 92 79q-21 -34 -24 -40l8 -7q5 15 6 16q7 12 11 12q3 0 6.5 -0.5t6 -0.5h5.5t6 0.5t5.5 3
l5.5 5.5q10 14 33 23q-13 -18 -13 -19q-102 -119 -165 -288q-29 -77 -3 -128q2 -4 6 -8t9.5 -8.5t8.5 -7.5q-39 57 -9 148q37 113 140 239q6 8 15 16.5t14.5 12.5t19.5 14t17 12q-14 -21 -45.5 -61.5t-53 -74.5t-33.5 -69q18 25 53 76q1 -1 2.5 -1.5t1.5 -1.5
q-47 -86 -50 -92q-44 -92 -55 -125q-4 -13 -5.5 -27.5t-2.5 -33.5t-1 -28q0 -1 -4 -8q3 -3 7.5 -7l4.5 -4q161 128 243 238q30 41 61.5 85.5t71.5 103t59 85.5q0 -33 -15.5 -66t-38 -68.5t-31.5 -61.5q43 67 131 204q2 -31 -6 -67t-15 -54.5t-26 -60.5q1 -1 2.5 -2t2.5 -2
q25 29 27 31z" />
    <glyph glyph-name="U" unicode="&#xdc;" horiz-adv-x="479" 
d="M588 537q19 21 34 29q-37 -53 -39 -56q-13 -19 -37.5 -57t-45 -67.5t-40.5 -54.5q-91 -115 -211 -201q-50 -36 -107 -15q-60 22 -82 33q-93 47 -63 149q48 160 105 258q37 63 92 79q-21 -34 -24 -40l8 -7q5 15 6 16q7 12 11 12q3 0 6.5 -0.5t6 -0.5h5.5t6 0.5t5.5 3
l5.5 5.5q10 14 33 23q-13 -18 -13 -19q-102 -119 -165 -288q-29 -77 -3 -128q2 -4 6 -8t9.5 -8.5t8.5 -7.5q-39 57 -9 148q37 113 140 239q6 8 15 16.5t14.5 12.5t19.5 14t17 12q-14 -21 -45.5 -61.5t-53 -74.5t-33.5 -69q18 25 53 76q1 -1 2.5 -1.5t1.5 -1.5
q-47 -86 -50 -92q-44 -92 -55 -125q-4 -13 -5.5 -27.5t-2.5 -33.5t-1 -28q0 -1 -4 -8q3 -3 7.5 -7l4.5 -4q161 128 243 238q30 41 61.5 85.5t71.5 103t59 85.5q0 -33 -15.5 -66t-38 -68.5t-31.5 -61.5q43 67 131 204q2 -31 -6 -67t-15 -54.5t-26 -60.5q1 -1 2.5 -2t2.5 -2
q25 29 27 31z" />
    <glyph glyph-name="U" unicode="&#xdb;" horiz-adv-x="479" 
d="M588 537q19 21 34 29q-37 -53 -39 -56q-13 -19 -37.5 -57t-45 -67.5t-40.5 -54.5q-91 -115 -211 -201q-50 -36 -107 -15q-60 22 -82 33q-93 47 -63 149q48 160 105 258q37 63 92 79q-21 -34 -24 -40l8 -7q5 15 6 16q7 12 11 12q3 0 6.5 -0.5t6 -0.5h5.5t6 0.5t5.5 3
l5.5 5.5q10 14 33 23q-13 -18 -13 -19q-102 -119 -165 -288q-29 -77 -3 -128q2 -4 6 -8t9.5 -8.5t8.5 -7.5q-39 57 -9 148q37 113 140 239q6 8 15 16.5t14.5 12.5t19.5 14t17 12q-14 -21 -45.5 -61.5t-53 -74.5t-33.5 -69q18 25 53 76q1 -1 2.5 -1.5t1.5 -1.5
q-47 -86 -50 -92q-44 -92 -55 -125q-4 -13 -5.5 -27.5t-2.5 -33.5t-1 -28q0 -1 -4 -8q3 -3 7.5 -7l4.5 -4q161 128 243 238q30 41 61.5 85.5t71.5 103t59 85.5q0 -33 -15.5 -66t-38 -68.5t-31.5 -61.5q43 67 131 204q2 -31 -6 -67t-15 -54.5t-26 -60.5q1 -1 2.5 -2t2.5 -2
q25 29 27 31z" />
    <glyph glyph-name="U" unicode="&#xda;" horiz-adv-x="479" 
d="M588 537q19 21 34 29q-37 -53 -39 -56q-13 -19 -37.5 -57t-45 -67.5t-40.5 -54.5q-91 -115 -211 -201q-50 -36 -107 -15q-60 22 -82 33q-93 47 -63 149q48 160 105 258q37 63 92 79q-21 -34 -24 -40l8 -7q5 15 6 16q7 12 11 12q3 0 6.5 -0.5t6 -0.5h5.5t6 0.5t5.5 3
l5.5 5.5q10 14 33 23q-13 -18 -13 -19q-102 -119 -165 -288q-29 -77 -3 -128q2 -4 6 -8t9.5 -8.5t8.5 -7.5q-39 57 -9 148q37 113 140 239q6 8 15 16.5t14.5 12.5t19.5 14t17 12q-14 -21 -45.5 -61.5t-53 -74.5t-33.5 -69q18 25 53 76q1 -1 2.5 -1.5t1.5 -1.5
q-47 -86 -50 -92q-44 -92 -55 -125q-4 -13 -5.5 -27.5t-2.5 -33.5t-1 -28q0 -1 -4 -8q3 -3 7.5 -7l4.5 -4q161 128 243 238q30 41 61.5 85.5t71.5 103t59 85.5q0 -33 -15.5 -66t-38 -68.5t-31.5 -61.5q43 67 131 204q2 -31 -6 -67t-15 -54.5t-26 -60.5q1 -1 2.5 -2t2.5 -2
q25 29 27 31z" />
    <glyph glyph-name="U" unicode="&#xd9;" horiz-adv-x="479" 
d="M588 537q19 21 34 29q-37 -53 -39 -56q-13 -19 -37.5 -57t-45 -67.5t-40.5 -54.5q-91 -115 -211 -201q-50 -36 -107 -15q-60 22 -82 33q-93 47 -63 149q48 160 105 258q37 63 92 79q-21 -34 -24 -40l8 -7q5 15 6 16q7 12 11 12q3 0 6.5 -0.5t6 -0.5h5.5t6 0.5t5.5 3
l5.5 5.5q10 14 33 23q-13 -18 -13 -19q-102 -119 -165 -288q-29 -77 -3 -128q2 -4 6 -8t9.5 -8.5t8.5 -7.5q-39 57 -9 148q37 113 140 239q6 8 15 16.5t14.5 12.5t19.5 14t17 12q-14 -21 -45.5 -61.5t-53 -74.5t-33.5 -69q18 25 53 76q1 -1 2.5 -1.5t1.5 -1.5
q-47 -86 -50 -92q-44 -92 -55 -125q-4 -13 -5.5 -27.5t-2.5 -33.5t-1 -28q0 -1 -4 -8q3 -3 7.5 -7l4.5 -4q161 128 243 238q30 41 61.5 85.5t71.5 103t59 85.5q0 -33 -15.5 -66t-38 -68.5t-31.5 -61.5q43 67 131 204q2 -31 -6 -67t-15 -54.5t-26 -60.5q1 -1 2.5 -2t2.5 -2
q25 29 27 31z" />
    <glyph glyph-name="V" unicode="V" horiz-adv-x="353" 
d="M555 811q6 -4 8 -6q-86 -144 -91 -153q-1 -2 -243 -425q-1 -1 -15 -25t-20 -37q-28 -58 -36 -87q-11 -38 -32 -50t-57 0q-24 8 -36 15q-22 10 -31.5 25t-7.5 40q2 20 -1.5 61t-1.5 61q0 7 3 47.5t4 51t4.5 46.5t5.5 51t6.5 46t9 51t11.5 45.5t14 48.5l3 11q-16 13 -34 27
l4 6q45 10 52.5 2.5t-2.5 -52.5q-6 -24 -24 -92t-26 -105q-5 -24 -8.5 -50t-7.5 -62l-6 -54q17 71 50 204.5t49 196.5q55 -17 45 -67q-7 -32 -23.5 -100.5t-23.5 -105.5q-4 -18 -22 -158l1 -12q49 19 54 22q16 7 26 21q38 48 68 91q35 50 75.5 108.5t87 126t76.5 109.5
q30 44 80 114zM439 696q2 -2 7 -6q-16 -23 -53.5 -81t-58.5 -88.5t-53.5 -77t-63 -85t-63.5 -74.5q48 69 142.5 206t142.5 206z" />
    <glyph glyph-name="W" unicode="W" horiz-adv-x="756" 
d="M749 680l6 23q1 -1 2.5 -1h2.5q-16 -102 -17 -108q-3 -16 -9 -56t-12 -68t-14 -54q-42 -133 -124 -211q-31 -29 -81 -56q-55 -29 -105 11q-2 2 -52 44q-52 -81 -58 -90q-10 -15 -30 -36q-52 -53 -115 -21q-10 6 -20.5 12.5t-21 13.5t-19.5 13.5t-20.5 15.5t-19.5 14
q-18 14 -15 49q11 140 81 315q4 11 72 177q23 -11 29.5 -27t-2.5 -44q-7 -23 -25 -74.5t-26 -79.5q-38 -131 -62 -237q-2 -15 -2 -22.5t2 -25t3 -25.5q26 5 43 18t36 35q29 34 99 122q36 46 126 162q1 1 9 17q18 -34 0 -57q-126 -156 -204 -249q-3 -4 -8 -8l-10 -8t-9.5 -7
l-10.5 -7t-10 -7q-1 -1 -23 -16q33 -7 60 19q6 5 18 16t18.5 17t17 16t17.5 17.5t15.5 17.5t15.5 19q18 24 36 51t41 63.5t34 52.5q1 2 3.5 6t3.5 5q1 0 2 -0.5t2 -0.5q-13 -100 -25 -194q20 -3 20 -4q32 -18 52.5 -16.5t48.5 25.5q78 65 139 173q55 99 95 270zM488 258
q-5 -5 -12.5 -8t-18 -6.5l-16.5 -5.5l-1 9q25 20 47.5 42.5t46 54t35 48.5t38.5 56q37 55 43 63q17 21 30 48.5t18.5 47t14.5 56t13 51.5q1 4 31 114q1 0 4 -0.5t5 -1.5q-1 -8 -2.5 -23.5t-3 -28t-3.5 -22.5q-45 -185 -98 -287q-66 -125 -171 -207zM135 647q2 -1 4.5 -3
t4.5 -2q-29 -64 -38.5 -85t-33 -77t-34 -89t-22.5 -81t-18 -91l-7 1v49q22 131 101 294q2 4 43 84z" />
    <glyph glyph-name="X" unicode="X" horiz-adv-x="493" 
d="M493 628q20 -18 -4 -38q-108 -88 -123 -101q-19 -16 -54 -48.5t-52 -46.5q-17 -15 -6 -34q8 -14 27.5 -44t33.5 -53.5t25 -45.5q12 -24 31.5 -46.5t44.5 -47t38 -39.5q1 -1 15 -16q-38 8 -136.5 89.5t-152.5 149.5q-56 69 -78.5 152.5t-31.5 196.5q49 -8 54 -9
q10 -4 19 -24q2 -6 45 -111q1 -1 13 -27q13 11 67 56t89.5 69.5t75.5 42.5q1 0 2 -2t2 -3l-131 -107q2 -2 4 -6q22 17 24 19q101 77 113 87q8 7 15.5 7t10.5 -1.5t11 -9.5zM72 515q38 -182 202 -323q6 -5 117 -96l-1.5 -1.5t-0.5 -1.5q-50 32 -53 34q-9 5 -24 13.5t-27.5 16
t-22.5 14.5q-19 16 -84 81q-2 1 -25 31q-50 -48 -102.5 -110t-86.5 -107t-89 -120q-1 0 -4 1.5t-4 1.5q2 24 3 25q46 104 90 181.5t102 141.5q7 8 11 14l3 15q-27 -19 -27 -20q-25 -25 -49.5 -59.5t-38 -57.5t-38.5 -67q-2 -4 -40 -72q-1 1 -3 2t-3 2q59 110 63 117
q43 86 139 186q10 11 11.5 21.5t-4.5 23.5q-16 49 -63 206q-5 18 -3 29q1 3 3 6.5t5.5 8t5.5 6.5l6 -6t6.5 -7t3.5 -7q4 -20 11 -61t11 -62z" />
    <glyph glyph-name="Y" unicode="Y" horiz-adv-x="294" 
d="M387 632q17 -22 16 -34q-1 -13 -18 -42q-12 -21 -58.5 -98t-71.5 -119q-20 -36 -44.5 -80t-50 -90.5t-44.5 -79.5q-1 -2 -3 -6.5t-3.5 -7t-4.5 -6t-7 -3.5t-11 1q-1 -5 -5 -14.5t-7 -17t-5 -14.5q-3 -8 -5 -11.5t-7 -6.5t-12 2q-3 2 -7.5 4t-8 3.5t-7.5 4t-6 5.5t-2.5 8
t2.5 11q8 20 54 129q14 34 17 52l-64 -134q-1 1 -7 4q92 285 303 533q4 -3 8.5 -6.5t9.5 -8t8 -7.5q14 17 16 18q22 14 25 11zM110 350q7 9 7 18t-3 14.5t-9.5 15t-9.5 14.5q-21 39 -103 203q0 1 -2 12q23 -41 66 -117.5t52 -91.5q1 2 5 4q-23 47 -23 48q-70 149 -74 158
q-2 5 -6 10l-10 12.5t-10 11.5q19 -5 49 -13v2.5t0.5 3t1 3.5t1.5 4q42 -7 58 -46q5 -13 62 -146q24 44 25 46q52 79 84 124q2 3 6 4.5t10.5 3.5t10.5 4q-65 -104 -188 -302zM132 416q11 10 12 18.5t-3 12.5t-13 10.5t-12 9.5q2 -7 4.5 -15t5.5 -18.5t6 -17.5zM65 247
q16 35 39 84q1 -1 3.5 -2t3.5 -2q-8 -15 -22 -44t-19 -38z" />
    <glyph glyph-name="Y" unicode="&#x178;" horiz-adv-x="294" 
d="M387 632q17 -22 16 -34q-1 -13 -18 -42q-12 -21 -58.5 -98t-71.5 -119q-20 -36 -44.5 -80t-50 -90.5t-44.5 -79.5q-1 -2 -3 -6.5t-3.5 -7t-4.5 -6t-7 -3.5t-11 1q-1 -5 -5 -14.5t-7 -17t-5 -14.5q-3 -8 -5 -11.5t-7 -6.5t-12 2q-3 2 -7.5 4t-8 3.5t-7.5 4t-6 5.5t-2.5 8
t2.5 11q8 20 54 129q14 34 17 52l-64 -134q-1 1 -7 4q92 285 303 533q4 -3 8.5 -6.5t9.5 -8t8 -7.5q14 17 16 18q22 14 25 11zM110 350q7 9 7 18t-3 14.5t-9.5 15t-9.5 14.5q-21 39 -103 203q0 1 -2 12q23 -41 66 -117.5t52 -91.5q1 2 5 4q-23 47 -23 48q-70 149 -74 158
q-2 5 -6 10l-10 12.5t-10 11.5q19 -5 49 -13v2.5t0.5 3t1 3.5t1.5 4q42 -7 58 -46q5 -13 62 -146q24 44 25 46q52 79 84 124q2 3 6 4.5t10.5 3.5t10.5 4q-65 -104 -188 -302zM132 416q11 10 12 18.5t-3 12.5t-13 10.5t-12 9.5q2 -7 4.5 -15t5.5 -18.5t6 -17.5zM65 247
q16 35 39 84q1 -1 3.5 -2t3.5 -2q-8 -15 -22 -44t-19 -38z" />
    <glyph glyph-name="Y" unicode="&#xdd;" horiz-adv-x="294" 
d="M387 632q17 -22 16 -34q-1 -13 -18 -42q-12 -21 -58.5 -98t-71.5 -119q-20 -36 -44.5 -80t-50 -90.5t-44.5 -79.5q-1 -2 -3 -6.5t-3.5 -7t-4.5 -6t-7 -3.5t-11 1q-1 -5 -5 -14.5t-7 -17t-5 -14.5q-3 -8 -5 -11.5t-7 -6.5t-12 2q-3 2 -7.5 4t-8 3.5t-7.5 4t-6 5.5t-2.5 8
t2.5 11q8 20 54 129q14 34 17 52l-64 -134q-1 1 -7 4q92 285 303 533q4 -3 8.5 -6.5t9.5 -8t8 -7.5q14 17 16 18q22 14 25 11zM110 350q7 9 7 18t-3 14.5t-9.5 15t-9.5 14.5q-21 39 -103 203q0 1 -2 12q23 -41 66 -117.5t52 -91.5q1 2 5 4q-23 47 -23 48q-70 149 -74 158
q-2 5 -6 10l-10 12.5t-10 11.5q19 -5 49 -13v2.5t0.5 3t1 3.5t1.5 4q42 -7 58 -46q5 -13 62 -146q24 44 25 46q52 79 84 124q2 3 6 4.5t10.5 3.5t10.5 4q-65 -104 -188 -302zM132 416q11 10 12 18.5t-3 12.5t-13 10.5t-12 9.5q2 -7 4.5 -15t5.5 -18.5t6 -17.5zM65 247
q16 35 39 84q1 -1 3.5 -2t3.5 -2q-8 -15 -22 -44t-19 -38z" />
    <glyph glyph-name="Z" unicode="Z" horiz-adv-x="473" 
d="M521 166q2 -3 17 -51q-1 -1 -3 -2t-3 -1q-1 1 -4.5 3t-5.5 3.5t-2 3.5q-3 11 -11 18t-14 8.5t-20 4.5q-163 29 -340 -33q-44 -15 -111 -46q-34 -15 -54 13q-2 3 -27 43q-20 25 10 38q41 18 100 48q13 8 27 24q12 15 24 37q6 12 16.5 22t25 21.5t21.5 17.5q90 85 201 194
q16 16 29 40q2 4 3.5 9.5t3 12.5t2.5 11q-2 0 -8 3q-9 -11 -26.5 -32.5t-26.5 -32.5l-3 3q4 6 11.5 19t13.5 22.5t14 15.5q6 6 15.5 9.5t22.5 7t19 5.5q0 1 -1 3.5t-1 3.5q-87 -16 -92 -17q-90 -19 -251 -55q-16 -4 -30 -2.5t-25.5 8t-18.5 17.5q104 30 110 32
q199 52 273 68q13 3 30 -2t28 -14q96 -78 -3 -154q-120 -93 -251 -240q-1 -1 -12 -16q174 7 237.5 -0.5t91.5 -38.5q-7 -1 -18 -2.5t-16 -1.5q3 -5 10.5 -15t12.5 -17.5t9 -15.5zM-54 132q242 127 499 105q-11 5 -26 7q-83 13 -207 -10q-151 -29 -242 -81q-5 -3 -24 -21z
M99 552q34 8 215 52q-196 -72 -223 -82q-3 -1 -6.5 -1.5t-6 -1t-5.5 0.5l-4.5 1.5t-4 2.5t-4 3t-4 3.5t-3 3.5t-3 4t-3.5 4q49 9 52 10zM50 623q41 20 177 49t172 23q-147 -31 -349 -72zM154 334l-5 5q49 54 100 109q1 0 2.5 -2t2.5 -2q-16 -19 -49.5 -55.5t-50.5 -54.5z
" />
    <glyph glyph-name="backslash" unicode="\" horiz-adv-x="210" 
d="M66 657q11 -49 34.5 -186.5t49.5 -231t70 -178.5q-33 -24 -53 1q-32 42 -39 58q-90 229 -96 396q0 7 -13 143q1 0 4 1.5t4 1.5q31 -18 33 -20q0 2 2.5 7t3.5 8zM102 141q-20 35 -44 101.5t-43 141.5t-24 138t13 91q1 -58 8 -115.5t25 -128.5t28 -106t37 -122z" />
    <glyph glyph-name="asciicircum" unicode="^" horiz-adv-x="147" 
d="M139 460q1 -17 4.5 -37t7.5 -42t5 -37q-16 19 -27 62.5t-19 59.5q-23 -30 -24 -32q-8 -15 -33 -68q-10 -23 -27 -14q-24 12 -16 33q26 65 36 105q-16 -30 -50 -89l-6 3q14 29 41 83.5t35 71.5l20 -16t21 -17.5t15 -16.5t13 -22.5t4 -26.5z" />
    <glyph glyph-name="underscore" unicode="_" horiz-adv-x="512" 
d="M468 94q26 1 39.5 -13t14.5 -45q-145 0 -154 -1q-56 -2 -160 -7.5t-131 -7.5q-25 -1 -37 3q-3 2 -40 23q1 1 1.5 4t1.5 4q136 18 144 19q142 11 321 21zM89 80v-5q-17 -2 -49.5 -6t-48.5 -6q0 2 -0.5 6t-0.5 6q17 1 50 2.5t49 2.5z" />
    <glyph glyph-name="a" unicode="a" horiz-adv-x="385" 
d="M225 227q100 64 170 109q-33 -62 -111 -122q-4 -4 -10.5 -8t-11 -7.5t-10 -7.5t-9.5 -8q-22 -22 -51 -4q-24 16 -37 33.5t-12 46.5q-28 -37 -29 -39q-20 -28 -51 -12q-51 25 -65.5 57t0.5 87q31 110 114 201q15 16 50 33q-124 -106 -160 -251q1 -1 3.5 -2.5t3.5 -1.5
q14 30 14 31q55 128 148 205q23 18 45 1q29 -21 43 -42t10 -53q-1 1 -49 41q-30 -8 -69 -53t-66 -103t-24 -98q51 44 54 47q20 18 31 29.5t25 30t21 36.5q4 8 28 38q17 22 45 6q29 -16 19 -44q-12 -32 -53 -151zM217 393q10 17 32 52q-2 1 -5.5 3t-4.5 3q-10 -18 -28 -55
q1 -1 3 -2t3 -1z" />
    <glyph glyph-name="a" unicode="&#xe5;" horiz-adv-x="385" 
d="M225 227q100 64 170 109q-33 -62 -111 -122q-4 -4 -10.5 -8t-11 -7.5t-10 -7.5t-9.5 -8q-22 -22 -51 -4q-24 16 -37 33.5t-12 46.5q-28 -37 -29 -39q-20 -28 -51 -12q-51 25 -65.5 57t0.5 87q31 110 114 201q15 16 50 33q-124 -106 -160 -251q1 -1 3.5 -2.5t3.5 -1.5
q14 30 14 31q55 128 148 205q23 18 45 1q29 -21 43 -42t10 -53q-1 1 -49 41q-30 -8 -69 -53t-66 -103t-24 -98q51 44 54 47q20 18 31 29.5t25 30t21 36.5q4 8 28 38q17 22 45 6q29 -16 19 -44q-12 -32 -53 -151zM217 393q10 17 32 52q-2 1 -5.5 3t-4.5 3q-10 -18 -28 -55
q1 -1 3 -2t3 -1z" />
    <glyph glyph-name="a" unicode="&#xe4;" horiz-adv-x="385" 
d="M225 227q100 64 170 109q-33 -62 -111 -122q-4 -4 -10.5 -8t-11 -7.5t-10 -7.5t-9.5 -8q-22 -22 -51 -4q-24 16 -37 33.5t-12 46.5q-28 -37 -29 -39q-20 -28 -51 -12q-51 25 -65.5 57t0.5 87q31 110 114 201q15 16 50 33q-124 -106 -160 -251q1 -1 3.5 -2.5t3.5 -1.5
q14 30 14 31q55 128 148 205q23 18 45 1q29 -21 43 -42t10 -53q-1 1 -49 41q-30 -8 -69 -53t-66 -103t-24 -98q51 44 54 47q20 18 31 29.5t25 30t21 36.5q4 8 28 38q17 22 45 6q29 -16 19 -44q-12 -32 -53 -151zM217 393q10 17 32 52q-2 1 -5.5 3t-4.5 3q-10 -18 -28 -55
q1 -1 3 -2t3 -1z" />
    <glyph glyph-name="a" unicode="&#xe3;" horiz-adv-x="385" 
d="M225 227q100 64 170 109q-33 -62 -111 -122q-4 -4 -10.5 -8t-11 -7.5t-10 -7.5t-9.5 -8q-22 -22 -51 -4q-24 16 -37 33.5t-12 46.5q-28 -37 -29 -39q-20 -28 -51 -12q-51 25 -65.5 57t0.5 87q31 110 114 201q15 16 50 33q-124 -106 -160 -251q1 -1 3.5 -2.5t3.5 -1.5
q14 30 14 31q55 128 148 205q23 18 45 1q29 -21 43 -42t10 -53q-1 1 -49 41q-30 -8 -69 -53t-66 -103t-24 -98q51 44 54 47q20 18 31 29.5t25 30t21 36.5q4 8 28 38q17 22 45 6q29 -16 19 -44q-12 -32 -53 -151zM217 393q10 17 32 52q-2 1 -5.5 3t-4.5 3q-10 -18 -28 -55
q1 -1 3 -2t3 -1z" />
    <glyph glyph-name="a" unicode="&#xe2;" horiz-adv-x="385" 
d="M225 227q100 64 170 109q-33 -62 -111 -122q-4 -4 -10.5 -8t-11 -7.5t-10 -7.5t-9.5 -8q-22 -22 -51 -4q-24 16 -37 33.5t-12 46.5q-28 -37 -29 -39q-20 -28 -51 -12q-51 25 -65.5 57t0.5 87q31 110 114 201q15 16 50 33q-124 -106 -160 -251q1 -1 3.5 -2.5t3.5 -1.5
q14 30 14 31q55 128 148 205q23 18 45 1q29 -21 43 -42t10 -53q-1 1 -49 41q-30 -8 -69 -53t-66 -103t-24 -98q51 44 54 47q20 18 31 29.5t25 30t21 36.5q4 8 28 38q17 22 45 6q29 -16 19 -44q-12 -32 -53 -151zM217 393q10 17 32 52q-2 1 -5.5 3t-4.5 3q-10 -18 -28 -55
q1 -1 3 -2t3 -1z" />
    <glyph glyph-name="a" unicode="&#xe1;" horiz-adv-x="385" 
d="M225 227q100 64 170 109q-33 -62 -111 -122q-4 -4 -10.5 -8t-11 -7.5t-10 -7.5t-9.5 -8q-22 -22 -51 -4q-24 16 -37 33.5t-12 46.5q-28 -37 -29 -39q-20 -28 -51 -12q-51 25 -65.5 57t0.5 87q31 110 114 201q15 16 50 33q-124 -106 -160 -251q1 -1 3.5 -2.5t3.5 -1.5
q14 30 14 31q55 128 148 205q23 18 45 1q29 -21 43 -42t10 -53q-1 1 -49 41q-30 -8 -69 -53t-66 -103t-24 -98q51 44 54 47q20 18 31 29.5t25 30t21 36.5q4 8 28 38q17 22 45 6q29 -16 19 -44q-12 -32 -53 -151zM217 393q10 17 32 52q-2 1 -5.5 3t-4.5 3q-10 -18 -28 -55
q1 -1 3 -2t3 -1z" />
    <glyph glyph-name="a" unicode="&#xe0;" horiz-adv-x="385" 
d="M225 227q100 64 170 109q-33 -62 -111 -122q-4 -4 -10.5 -8t-11 -7.5t-10 -7.5t-9.5 -8q-22 -22 -51 -4q-24 16 -37 33.5t-12 46.5q-28 -37 -29 -39q-20 -28 -51 -12q-51 25 -65.5 57t0.5 87q31 110 114 201q15 16 50 33q-124 -106 -160 -251q1 -1 3.5 -2.5t3.5 -1.5
q14 30 14 31q55 128 148 205q23 18 45 1q29 -21 43 -42t10 -53q-1 1 -49 41q-30 -8 -69 -53t-66 -103t-24 -98q51 44 54 47q20 18 31 29.5t25 30t21 36.5q4 8 28 38q17 22 45 6q29 -16 19 -44q-12 -32 -53 -151zM217 393q10 17 32 52q-2 1 -5.5 3t-4.5 3q-10 -18 -28 -55
q1 -1 3 -2t3 -1z" />
    <glyph glyph-name="b" unicode="b" horiz-adv-x="386" 
d="M259 569q31 13 67 -6.5t56.5 -55t10.5 -65.5q-50 -148 -163 -221q-42 -27 -97 -14q-3 0 -55 14q-14 -19 -15 -20q-15 -23 -34 -10q-28 19 -20 43q8 27 45 137q0 1 7 14q-1 1 -3 2t-3 2q-4 -7 -28 -45q3 9 7.5 25.5t7.5 25.5q-16 -14 -38 -33q-25 8 -8 26q9 10 27 27.5
t26 26.5q28 29 32 41q23 58 124 327q1 1 6 16q3 0 8 -2q-19 -55 -91 -267l1.5 -0.5l1.5 -0.5q7 13 7 14q6 15 36.5 102t46.5 133q0 1 2 10.5t5.5 12t10.5 -0.5q4 -1 13.5 -3t15 -4t10 -8t4.5 -16q-1 -35 -11 -59q-7 -19 -73 -182l-4 -13q61 25 65 27zM86 249q44 0 91 29.5
t80.5 71t55 86.5t18.5 75q-89 -22 -180 -78q-6 -4 -11 -18q-25 -68 -51 -144q0 -1 -3 -22z" />
    <glyph glyph-name="c" unicode="c" horiz-adv-x="252" 
d="M80 234q46 29 116.5 103t109.5 102q-5 -19 -5 -20q-12 -18 -34.5 -54t-36.5 -58t-38 -50t-49 -47q-26 -20 -57 -13q-53 13 -74.5 46t-21.5 94q0 107 87 219q2 2 7 2q-12 -18 -18.5 -28.5t-16.5 -28t-15.5 -30.5t-11.5 -30t-8 -34q-3 -15 -5 -46q0 -7 7 -14q7 39 8 41
q22 96 104 198q8 10 20 10q31 0 58 -32.5t22 -62.5q-1 0 -9 -15q0 1 -16 67q-39 -27 -74 -89t-49.5 -128t0.5 -102z" />
    <glyph glyph-name="c" unicode="&#xe7;" horiz-adv-x="252" 
d="M80 234q46 29 116.5 103t109.5 102q-5 -19 -5 -20q-12 -18 -34.5 -54t-36.5 -58t-38 -50t-49 -47q-26 -20 -57 -13q-53 13 -74.5 46t-21.5 94q0 107 87 219q2 2 7 2q-12 -18 -18.5 -28.5t-16.5 -28t-15.5 -30.5t-11.5 -30t-8 -34q-3 -15 -5 -46q0 -7 7 -14q7 39 8 41
q22 96 104 198q8 10 20 10q31 0 58 -32.5t22 -62.5q-1 0 -9 -15q0 1 -16 67q-39 -27 -74 -89t-49.5 -128t0.5 -102z" />
    <glyph glyph-name="d" unicode="d" horiz-adv-x="522" 
d="M593 864l5 -2q-1 -10 -3.5 -30t-5.5 -35.5t-8 -28.5q-36 -95 -162 -418q-6 -14 -25.5 -62t-29.5 -74q-16 -45 -71 -93l-11 -1q32 51 53 84q-1 1 -3 2t-2 2q-23 -26 -68 -78q-3 1 -7 4t-5 3q9 37 28 111.5t29 113.5q-13 -14 -13 -15q-108 -143 -111 -146
q-25 -32 -48 -36.5t-59 13.5q-58 29 -76.5 70t-0.5 103q50 176 179 248q9 5 26 13q1 0 17 5q-125 -132 -175 -234q113 140 126 155q14 16 77 71q11 10 19 6q49 -22 89 -46q2 -1 2.5 -4.5t1 -9.5t1.5 -8q-3 0 -10.5 -1t-12 -1t-5.5 2q-4 7 -7.5 11.5t-8 5.5t-7.5 1.5t-8.5 -2
t-7 -3.5t-8 -5.5t-7.5 -5.5q-84 -57 -126 -150q-12 -27 -51 -143q-1 -3 -1.5 -7.5t0 -13t0.5 -14.5q10 7 27 19.5t28.5 22.5t20.5 20q18 21 159 193q39 48 73 105.5t74.5 137t59.5 114.5q1 1 27 39q1 -8 2.5 -15.5t1.5 -8.5q3 3 9 8.5t9 7.5zM547 891q1 -6 -9.5 -33
t-27.5 -64.5t-37 -78t-40.5 -78.5t-35.5 -61q14 56 72 178t78 137z" />
    <glyph glyph-name="e" unicode="e" horiz-adv-x="360" 
d="M441 521q3 -3 6 -5q-12 -20 -12 -21q-19 -22 -63.5 -75t-68.5 -82q-12 -15 -46.5 -58t-54.5 -66q-23 -27 -57 -29.5t-63 19.5q-2 2 -18.5 13t-23.5 18q-6 8 -9.5 12t-9 11.5t-7.5 13.5l-4.5 13.5t-2 15.5t2.5 17q1 6 1.5 14t0.5 14.5t-0.5 16.5t-0.5 17q-13 -45 -15 -51
q-1 0 -3 0.5t-3 0.5q22 103 24 110q25 95 59 140q12 15 20.5 24.5t22 17t27.5 7.5q57 -1 104 -22q19 -8 34.5 -25.5t24 -38.5t10.5 -41q-161 -79 -182 -88q-36 -17 -42 -49q-11 -56 -15 -94q-1 -4 0.5 -8.5t4 -11.5t3.5 -12q52 23 100 54t95 72t79.5 73t81.5 83zM248 563
q-73 -38 -121 -124l5 -7q100 65 117 76q20 13 25 24q6 12 -2 31q-1 3 -10 3t-14 -3zM26 424q29 61 57.5 103.5t70.5 72.5q-40 -9 -78.5 -62.5t-49.5 -113.5z" />
    <glyph glyph-name="e" unicode="&#xeb;" horiz-adv-x="360" 
d="M441 521q3 -3 6 -5q-12 -20 -12 -21q-19 -22 -63.5 -75t-68.5 -82q-12 -15 -46.5 -58t-54.5 -66q-23 -27 -57 -29.5t-63 19.5q-2 2 -18.5 13t-23.5 18q-6 8 -9.5 12t-9 11.5t-7.5 13.5l-4.5 13.5t-2 15.5t2.5 17q1 6 1.5 14t0.5 14.5t-0.5 16.5t-0.5 17q-13 -45 -15 -51
q-1 0 -3 0.5t-3 0.5q22 103 24 110q25 95 59 140q12 15 20.5 24.5t22 17t27.5 7.5q57 -1 104 -22q19 -8 34.5 -25.5t24 -38.5t10.5 -41q-161 -79 -182 -88q-36 -17 -42 -49q-11 -56 -15 -94q-1 -4 0.5 -8.5t4 -11.5t3.5 -12q52 23 100 54t95 72t79.5 73t81.5 83zM248 563
q-73 -38 -121 -124l5 -7q100 65 117 76q20 13 25 24q6 12 -2 31q-1 3 -10 3t-14 -3zM26 424q29 61 57.5 103.5t70.5 72.5q-40 -9 -78.5 -62.5t-49.5 -113.5z" />
    <glyph glyph-name="e" unicode="&#xea;" horiz-adv-x="360" 
d="M441 521q3 -3 6 -5q-12 -20 -12 -21q-19 -22 -63.5 -75t-68.5 -82q-12 -15 -46.5 -58t-54.5 -66q-23 -27 -57 -29.5t-63 19.5q-2 2 -18.5 13t-23.5 18q-6 8 -9.5 12t-9 11.5t-7.5 13.5l-4.5 13.5t-2 15.5t2.5 17q1 6 1.5 14t0.5 14.5t-0.5 16.5t-0.5 17q-13 -45 -15 -51
q-1 0 -3 0.5t-3 0.5q22 103 24 110q25 95 59 140q12 15 20.5 24.5t22 17t27.5 7.5q57 -1 104 -22q19 -8 34.5 -25.5t24 -38.5t10.5 -41q-161 -79 -182 -88q-36 -17 -42 -49q-11 -56 -15 -94q-1 -4 0.5 -8.5t4 -11.5t3.5 -12q52 23 100 54t95 72t79.5 73t81.5 83zM248 563
q-73 -38 -121 -124l5 -7q100 65 117 76q20 13 25 24q6 12 -2 31q-1 3 -10 3t-14 -3zM26 424q29 61 57.5 103.5t70.5 72.5q-40 -9 -78.5 -62.5t-49.5 -113.5z" />
    <glyph glyph-name="e" unicode="&#xe9;" horiz-adv-x="360" 
d="M441 521q3 -3 6 -5q-12 -20 -12 -21q-19 -22 -63.5 -75t-68.5 -82q-12 -15 -46.5 -58t-54.5 -66q-23 -27 -57 -29.5t-63 19.5q-2 2 -18.5 13t-23.5 18q-6 8 -9.5 12t-9 11.5t-7.5 13.5l-4.5 13.5t-2 15.5t2.5 17q1 6 1.5 14t0.5 14.5t-0.5 16.5t-0.5 17q-13 -45 -15 -51
q-1 0 -3 0.5t-3 0.5q22 103 24 110q25 95 59 140q12 15 20.5 24.5t22 17t27.5 7.5q57 -1 104 -22q19 -8 34.5 -25.5t24 -38.5t10.5 -41q-161 -79 -182 -88q-36 -17 -42 -49q-11 -56 -15 -94q-1 -4 0.5 -8.5t4 -11.5t3.5 -12q52 23 100 54t95 72t79.5 73t81.5 83zM248 563
q-73 -38 -121 -124l5 -7q100 65 117 76q20 13 25 24q6 12 -2 31q-1 3 -10 3t-14 -3zM26 424q29 61 57.5 103.5t70.5 72.5q-40 -9 -78.5 -62.5t-49.5 -113.5z" />
    <glyph glyph-name="e" unicode="&#xe8;" horiz-adv-x="360" 
d="M441 521q3 -3 6 -5q-12 -20 -12 -21q-19 -22 -63.5 -75t-68.5 -82q-12 -15 -46.5 -58t-54.5 -66q-23 -27 -57 -29.5t-63 19.5q-2 2 -18.5 13t-23.5 18q-6 8 -9.5 12t-9 11.5t-7.5 13.5l-4.5 13.5t-2 15.5t2.5 17q1 6 1.5 14t0.5 14.5t-0.5 16.5t-0.5 17q-13 -45 -15 -51
q-1 0 -3 0.5t-3 0.5q22 103 24 110q25 95 59 140q12 15 20.5 24.5t22 17t27.5 7.5q57 -1 104 -22q19 -8 34.5 -25.5t24 -38.5t10.5 -41q-161 -79 -182 -88q-36 -17 -42 -49q-11 -56 -15 -94q-1 -4 0.5 -8.5t4 -11.5t3.5 -12q52 23 100 54t95 72t79.5 73t81.5 83zM248 563
q-73 -38 -121 -124l5 -7q100 65 117 76q20 13 25 24q6 12 -2 31q-1 3 -10 3t-14 -3zM26 424q29 61 57.5 103.5t70.5 72.5q-40 -9 -78.5 -62.5t-49.5 -113.5z" />
    <glyph glyph-name="f" unicode="f" horiz-adv-x="350" 
d="M185 547q19 4 164 33q0 -1 1 -3.5t2 -4.5q-18 -12 -19 -12q-13 -4 -67.5 -19t-83.5 -25q-9 -3 -18.5 -10.5t-11.5 -15.5q-22 -65 -76 -241q-3 -9 -9.5 -33.5t-10.5 -37.5q-2 -5 -8.5 -10.5t-9.5 -4.5q-5 1 -10.5 7t-6.5 11q-19 73 13 189q4 13 11 36.5t10 33.5q4 13 1 23
q-17 -19 -30 -61.5t-19 -54.5q13 58 25 108q-8 -1 -19 -7.5t-18 -11t-18 -6.5t-21 6q-26 17 -43 37q14 -7 28 -8t27 3t22.5 8.5t24 12.5t21.5 12q6 3 19 25q3 7 19 38t25 46q23 36 65 100.5t56 87.5q12 18 36 11q105 -32 103 -126q0 -4 -1.5 -9t-3 -8.5t-4 -9t-4.5 -9.5
q-2 4 -8 10t-9.5 11t-6.5 10l-23 69q-23 -24 -42 -54.5t-39 -68t-33 -58.5h22q-18 -11 -24 -15zM134 705q15 37 31 61t43 38q-12 -17 -36.5 -49.5t-37.5 -49.5z" />
    <glyph glyph-name="g" unicode="g" horiz-adv-x="431" 
d="M412 566q32 3 38 -5.5t-7 -37.5q-10 -22 -32.5 -67.5t-32.5 -70.5q-20 -44 -61 -138.5t-63 -144.5q-14 -32 -58 -109q7 35 17 72t21.5 72t23 68t24.5 71.5t22 69.5q-25 -55 -26 -59q-7 -15 -21 -48.5t-25.5 -58.5t-25.5 -46q-11 -16 -21.5 -34.5t-18 -33t-18 -37.5
t-15 -34.5t-16 -38t-15.5 -35.5q-4 -11 -14 -16q72 253 172 452q-1 1 -3.5 3t-3.5 3q-5 -3 -14 -8.5t-16 -9.5t-13 -9q-45 -39 -93 -84q-21 -21 -46 -11q-3 2 -10 4.5t-11 3.5q-29 13 -33 20.5t0 40.5q1 1 3 32q-14 -9 -17 -28.5t-8 -24.5q-1 5 -2.5 16t-2 16t0.5 16
q28 149 106 239q27 31 64 27q-104 -70 -134 -174q6 9 18.5 27t23 32t20.5 25q17 19 77 71q24 21 52 5q9 -5 91 -55q3 5 10 21.5t16.5 27.5t27.5 16q-2 -6 -9 -24t-10 -27q0 -1 1.5 -1.5l1.5 -0.5q3 4 5.5 9t5.5 10t6 9.5t6.5 10.5t6.5 11q4 -4 15.5 -12.5t17.5 -13.5
l-1 -1.5l-1 -1.5zM112 305q93 75 164 132q-10 20 -26.5 52t-21.5 41q-79 -80 -121 -220l2.5 -2.5z" />
    <glyph glyph-name="h" unicode="h" horiz-adv-x="348" 
d="M307 627q31 -9 44 -33.5t1 -58.5q-21 -61 -61.5 -173.5t-52.5 -147.5q-3 -7 -6 -22l-4 -20q-1 -3 -14 -41h-5.5h-5.5q-2 5 -6 16t-6.5 19.5t-3.5 16.5q-8 59 -8 95q1 54 12 94q4 14 52 161q-90 -85 -98 -92q-11 -11 -25.5 -27t-29 -31t-26.5 -26q-25 -24 -30 -60
q0 -4 -10 -52q-34 90 3 203q6 21 14 44.5t18 51.5t15 43t3 26q-49 -100 -87 -231q3 34 4 36q4 25 8 36q8 21 42 113t52 142q2 7 46 154q1 1 6 15q1 -1 4 -1.5t5 -1.5q-17 -64 -40 -153l7 -2q22 67 51 158h29q23 4 18 -22q-6 -36 -18 -68q-5 -15 -107 -296q-1 -1 -8 -24
q14 10 218 159zM90 414q15 14 42.5 40t31.5 30q0 1 -2 3l-2 2q-12 -12 -35.5 -36.5t-35.5 -37.5z" />
    <glyph glyph-name="i" unicode="i" horiz-adv-x="209" 
d="M180 571q5 -2 7.5 -5t3.5 -6t1.5 -5.5t-0.5 -6.5t-1.5 -5.5t-2 -5.5t-1.5 -6q-9 -21 -26 -61.5t-20 -48.5q-56 -134 -78 -190q-11 -30 -38 -24q-38 7 -35 39q3 27 13 64q18 64 64 216q6 22 11 29q1 1 5.5 7.5t6 9t5.5 6.5t7 6t6 2q33 1 55 -34q3 3 9 9.5t8 9.5zM176 759
q15 0 29.5 -17.5t13.5 -34.5q0 -14 -18.5 -31t-33.5 -16q-18 1 -34 15.5t-15 29.5q1 19 20 37t38 17z" />
    <glyph glyph-name="i" unicode="&#xef;" horiz-adv-x="209" 
d="M180 571q5 -2 7.5 -5t3.5 -6t1.5 -5.5t-0.5 -6.5t-1.5 -5.5t-2 -5.5t-1.5 -6q-9 -21 -26 -61.5t-20 -48.5q-56 -134 -78 -190q-11 -30 -38 -24q-38 7 -35 39q3 27 13 64q18 64 64 216q6 22 11 29q1 1 5.5 7.5t6 9t5.5 6.5t7 6t6 2q33 1 55 -34q3 3 9 9.5t8 9.5zM176 759
q15 0 29.5 -17.5t13.5 -34.5q0 -14 -18.5 -31t-33.5 -16q-18 1 -34 15.5t-15 29.5q1 19 20 37t38 17z" />
    <glyph glyph-name="i" unicode="&#xee;" horiz-adv-x="209" 
d="M180 571q5 -2 7.5 -5t3.5 -6t1.5 -5.5t-0.5 -6.5t-1.5 -5.5t-2 -5.5t-1.5 -6q-9 -21 -26 -61.5t-20 -48.5q-56 -134 -78 -190q-11 -30 -38 -24q-38 7 -35 39q3 27 13 64q18 64 64 216q6 22 11 29q1 1 5.5 7.5t6 9t5.5 6.5t7 6t6 2q33 1 55 -34q3 3 9 9.5t8 9.5zM176 759
q15 0 29.5 -17.5t13.5 -34.5q0 -14 -18.5 -31t-33.5 -16q-18 1 -34 15.5t-15 29.5q1 19 20 37t38 17z" />
    <glyph glyph-name="i" unicode="&#xed;" horiz-adv-x="209" 
d="M180 571q5 -2 7.5 -5t3.5 -6t1.5 -5.5t-0.5 -6.5t-1.5 -5.5t-2 -5.5t-1.5 -6q-9 -21 -26 -61.5t-20 -48.5q-56 -134 -78 -190q-11 -30 -38 -24q-38 7 -35 39q3 27 13 64q18 64 64 216q6 22 11 29q1 1 5.5 7.5t6 9t5.5 6.5t7 6t6 2q33 1 55 -34q3 3 9 9.5t8 9.5zM176 759
q15 0 29.5 -17.5t13.5 -34.5q0 -14 -18.5 -31t-33.5 -16q-18 1 -34 15.5t-15 29.5q1 19 20 37t38 17z" />
    <glyph glyph-name="i" unicode="&#xec;" horiz-adv-x="209" 
d="M180 571q5 -2 7.5 -5t3.5 -6t1.5 -5.5t-0.5 -6.5t-1.5 -5.5t-2 -5.5t-1.5 -6q-9 -21 -26 -61.5t-20 -48.5q-56 -134 -78 -190q-11 -30 -38 -24q-38 7 -35 39q3 27 13 64q18 64 64 216q6 22 11 29q1 1 5.5 7.5t6 9t5.5 6.5t7 6t6 2q33 1 55 -34q3 3 9 9.5t8 9.5zM176 759
q15 0 29.5 -17.5t13.5 -34.5q0 -14 -18.5 -31t-33.5 -16q-18 1 -34 15.5t-15 29.5q1 19 20 37t38 17z" />
    <glyph glyph-name="j" unicode="j" horiz-adv-x="282" 
d="M325 575q-74 -17 -109 -26l3 -15t3 -17t0 -14q-12 -124 -34.5 -225t-67.5 -192q-7 -14 -15 -25q-14 -19 -28.5 -23.5t-37.5 4.5q-84 31 -75 112q2 20 7 44t9.5 41t11.5 44.5t10 41.5q3 11 20 21q-4 -62 -15 -202l9 -2q28 29 49 63.5t36 74.5t24 71.5t21 79.5t20 75l-8 3
q-5 -18 -14.5 -55.5t-14.5 -56.5q0 1 -2 1.5t-3 0.5q9 78 14 123q-33 -19 -34 -20q-29 -26 -55 3q-3 2 -35 38q76 13 81 14t15.5 2t16.5 2.5t12.5 7t9.5 16.5q0 1 7 2t9 0q5 -5 11 -8t12.5 -3t11.5 0.5t13 1.5t12 2q20 2 78 2q1 0 22 -7zM-46 100q-17 13 -19 25.5t9 35.5
q4 -25 10 -61z" />
    <glyph glyph-name="k" unicode="k" horiz-adv-x="366" 
d="M373 578q7 -24 0.5 -39t-28.5 -25q-3 -1 -52 -30l16 16l16.5 16.5l16.5 16.5l16 16l-4 5q-133 -92 -199 -138l4 -6q80 45 88 49q3 2 43 22q-101 -67 -118 -78q-1 -1 -34 -19q39 -112 95 -190q25 -35 70 -32q-33 -10 -50.5 -14t-45 -3t-49.5 13q-14 7 -25 17t-20.5 24.5
t-15 24.5t-15 30t-13.5 29q-19 -71 -22 -81q-7 -31 -8 -31q-1 -3 -4 -5.5t-7.5 -5.5t-6.5 -5q-5 21 -6 23q0 1 3 11q-11 1 -28 3q2 19 5.5 57.5t7.5 68t10 55.5q10 37 22.5 80.5t23.5 76.5t26 80.5t24 77.5q1 3 14.5 47.5t20.5 66.5q10 28 20 30q12 3 26.5 -12.5t14.5 -28.5
q0 -14 -3 -27q-16 -55 -72 -249q0 -3 -8 -28q2 -1 4 -1.5t4 -1.5q66 212 101 322q16 -22 4 -57q-11 -33 -78 -223q0 -2 -11 -32q46 28 49 30q81 55 114 80q47 34 64 -26zM241 155q-12 8 -25.5 18t-30 21.5t-25.5 17.5q1 -71 81 -57z" />
    <glyph glyph-name="l" unicode="l" horiz-adv-x="229" 
d="M197 804q23 -6 34.5 -24t5.5 -41q-12 -40 -35.5 -113t-31.5 -97q-43 -138 -83 -274q-1 -3 -11 -60q-49 13 -72 53t-8 91q21 74 85 250q30 85 67 169q3 8 8 14.5t15.5 17.5t11.5 13q4 4 14 1zM26 376l15 54l15 54l-6 1q-18 -61 -32 -107q1 0 3.5 -0.5t4.5 -1.5z" />
    <glyph glyph-name="m" unicode="m" horiz-adv-x="427" 
d="M392 586q21 -5 33.5 -20t11.5 -34q-1 -13 -6 -31q-23 -79 -33 -111q-20 -62 -19 -187v-19q-27 7 -46.5 31t-25.5 57q-14 75 1 157l-64 -88q-3 -5 -12 -15t-13 -15q-15 -20 -39.5 -22t-44.5 12.5t-23 38.5q-1 5 -11 85l-8 -17q-63 -193 -67 -203q-1 -5 -5 -10t-9.5 -11
t-7.5 -9q-2 4 -6 11.5t-6 13.5t-2 11q2 19 18 138q0 5 -0.5 16t-0.5 19t2 16q19 67 50 163q2 4 5 8.5t8 10t7 8.5q2 -2 7 -5q-7 -23 -7 -24q-2 -6 -23.5 -64.5t-31.5 -89.5q-1 -2 -8 -35q64 163 73 187q7 18 15.5 26t25.5 6q23 -4 33 -15t10 -34q2 -157 3 -177q0 -1 4 -28
q22 24 23 25q90 110 128 157q4 6 10.5 18t10.5 17q2 3 8 14.5t13 16t19 1.5z" />
    <glyph glyph-name="n" unicode="n" horiz-adv-x="354" 
d="M350 580q13 -9 14 -21t-7 -26q-78 -165 -139 -302q-4 -11 -8 -23.5t-7.5 -28.5t-5.5 -24h-4.5h-4.5q-10 25 -10 27q-3 22 0 39q6 30 0.5 62t-17 69.5t-15.5 59.5q-6 38 -18 65q-46 -131 -49 -142q-13 -38 -40 -129q-7 -24 -27 -21q-25 3 -22 26q18 144 24 179
q12 75 68 178q8 16 28 12q26 -6 46.5 -29.5t20.5 -52.5q1 -64 17 -147q9 24 10 25q64 150 83 193q6 14 27 17t36 -6zM35 432q57 109 66 126l-9 5q-11 -22 -62 -128z" />
    <glyph glyph-name="n" unicode="&#xf1;" horiz-adv-x="354" 
d="M350 580q13 -9 14 -21t-7 -26q-78 -165 -139 -302q-4 -11 -8 -23.5t-7.5 -28.5t-5.5 -24h-4.5h-4.5q-10 25 -10 27q-3 22 0 39q6 30 0.5 62t-17 69.5t-15.5 59.5q-6 38 -18 65q-46 -131 -49 -142q-13 -38 -40 -129q-7 -24 -27 -21q-25 3 -22 26q18 144 24 179
q12 75 68 178q8 16 28 12q26 -6 46.5 -29.5t20.5 -52.5q1 -64 17 -147q9 24 10 25q64 150 83 193q6 14 27 17t36 -6zM35 432q57 109 66 126l-9 5q-11 -22 -62 -128z" />
    <glyph glyph-name="o" unicode="o" horiz-adv-x="290" 
d="M298 504q17 -164 -118 -284q-25 -22 -67.5 -15t-61.5 34q-36 51 -32 94q1 37 14.5 74.5t27.5 61t39 61.5q8 13 30 34.5t24 24.5q14 15 35 3q77 -46 85 -51q22 -16 24 -37zM111 245q36 9 74 63.5t56.5 120t4.5 103.5q-35 -18 -71 -74t-55 -117.5t-9 -95.5zM189 291
q48 44 73.5 115.5t4.5 100.5q-5 -135 -78 -216zM129 593q-168 -188 -111 -323q-1 -1 -6 -3q-2 6 -6.5 17t-8 19.5t-4.5 16.5q-13 66 25 149.5t96 118.5q1 0 15 5z" />
    <glyph glyph-name="o" unicode="&#xf8;" horiz-adv-x="290" 
d="M298 504q17 -164 -118 -284q-25 -22 -67.5 -15t-61.5 34q-36 51 -32 94q1 37 14.5 74.5t27.5 61t39 61.5q8 13 30 34.5t24 24.5q14 15 35 3q77 -46 85 -51q22 -16 24 -37zM111 245q36 9 74 63.5t56.5 120t4.5 103.5q-35 -18 -71 -74t-55 -117.5t-9 -95.5zM189 291
q48 44 73.5 115.5t4.5 100.5q-5 -135 -78 -216zM129 593q-168 -188 -111 -323q-1 -1 -6 -3q-2 6 -6.5 17t-8 19.5t-4.5 16.5q-13 66 25 149.5t96 118.5q1 0 15 5z" />
    <glyph glyph-name="o" unicode="&#xf6;" horiz-adv-x="290" 
d="M298 504q17 -164 -118 -284q-25 -22 -67.5 -15t-61.5 34q-36 51 -32 94q1 37 14.5 74.5t27.5 61t39 61.5q8 13 30 34.5t24 24.5q14 15 35 3q77 -46 85 -51q22 -16 24 -37zM111 245q36 9 74 63.5t56.5 120t4.5 103.5q-35 -18 -71 -74t-55 -117.5t-9 -95.5zM189 291
q48 44 73.5 115.5t4.5 100.5q-5 -135 -78 -216zM129 593q-168 -188 -111 -323q-1 -1 -6 -3q-2 6 -6.5 17t-8 19.5t-4.5 16.5q-13 66 25 149.5t96 118.5q1 0 15 5z" />
    <glyph glyph-name="o" unicode="&#xf5;" horiz-adv-x="290" 
d="M298 504q17 -164 -118 -284q-25 -22 -67.5 -15t-61.5 34q-36 51 -32 94q1 37 14.5 74.5t27.5 61t39 61.5q8 13 30 34.5t24 24.5q14 15 35 3q77 -46 85 -51q22 -16 24 -37zM111 245q36 9 74 63.5t56.5 120t4.5 103.5q-35 -18 -71 -74t-55 -117.5t-9 -95.5zM189 291
q48 44 73.5 115.5t4.5 100.5q-5 -135 -78 -216zM129 593q-168 -188 -111 -323q-1 -1 -6 -3q-2 6 -6.5 17t-8 19.5t-4.5 16.5q-13 66 25 149.5t96 118.5q1 0 15 5z" />
    <glyph glyph-name="o" unicode="&#xf4;" horiz-adv-x="290" 
d="M298 504q17 -164 -118 -284q-25 -22 -67.5 -15t-61.5 34q-36 51 -32 94q1 37 14.5 74.5t27.5 61t39 61.5q8 13 30 34.5t24 24.5q14 15 35 3q77 -46 85 -51q22 -16 24 -37zM111 245q36 9 74 63.5t56.5 120t4.5 103.5q-35 -18 -71 -74t-55 -117.5t-9 -95.5zM189 291
q48 44 73.5 115.5t4.5 100.5q-5 -135 -78 -216zM129 593q-168 -188 -111 -323q-1 -1 -6 -3q-2 6 -6.5 17t-8 19.5t-4.5 16.5q-13 66 25 149.5t96 118.5q1 0 15 5z" />
    <glyph glyph-name="o" unicode="&#xf3;" horiz-adv-x="290" 
d="M298 504q17 -164 -118 -284q-25 -22 -67.5 -15t-61.5 34q-36 51 -32 94q1 37 14.5 74.5t27.5 61t39 61.5q8 13 30 34.5t24 24.5q14 15 35 3q77 -46 85 -51q22 -16 24 -37zM111 245q36 9 74 63.5t56.5 120t4.5 103.5q-35 -18 -71 -74t-55 -117.5t-9 -95.5zM189 291
q48 44 73.5 115.5t4.5 100.5q-5 -135 -78 -216zM129 593q-168 -188 -111 -323q-1 -1 -6 -3q-2 6 -6.5 17t-8 19.5t-4.5 16.5q-13 66 25 149.5t96 118.5q1 0 15 5z" />
    <glyph glyph-name="o" unicode="&#xf2;" horiz-adv-x="290" 
d="M298 504q17 -164 -118 -284q-25 -22 -67.5 -15t-61.5 34q-36 51 -32 94q1 37 14.5 74.5t27.5 61t39 61.5q8 13 30 34.5t24 24.5q14 15 35 3q77 -46 85 -51q22 -16 24 -37zM111 245q36 9 74 63.5t56.5 120t4.5 103.5q-35 -18 -71 -74t-55 -117.5t-9 -95.5zM189 291
q48 44 73.5 115.5t4.5 100.5q-5 -135 -78 -216zM129 593q-168 -188 -111 -323q-1 -1 -6 -3q-2 6 -6.5 17t-8 19.5t-4.5 16.5q-13 66 25 149.5t96 118.5q1 0 15 5z" />
    <glyph glyph-name="p" unicode="p" horiz-adv-x="323" 
d="M329 512q6 -32 2 -59q-21 -113 -104 -196q-29 -29 -70 -36t-82 1q-8 -32 -27.5 -104.5t-29.5 -110.5q-20 8 -25 23.5t-2 40.5q1 9 8 110q0 -2 0.5 -9.5t1 -14t0.5 -12.5q12 128 34 230t65 198q4 -20 5 -24q9 16 9 17q11 32 38 12q18 -13 44 0q26 11 53.5 6t50.5 -25.5
t29 -46.5zM266 542q1 5 -3 13t-9 9q-21 6 -55.5 -14.5t-41.5 -41.5q-39 -120 -51 -159q-1 -5 -26 -97q31 16 32 17q87 55 130 162q4 12 8.5 27.5t6 25.5t5 31z" />
    <glyph glyph-name="q" unicode="q" horiz-adv-x="346" 
d="M214 254q90 -4 142 -79q-176 93 -320 -65q-21 12 -23 24.5t15 30.5q2 3 43 38q-22 16 -23 17q-70 47 -56 134q25 151 127 225q42 31 92.5 23t81.5 -51l4 -10q-24 10 -45 18q0 -1 -1 -3t-2 -3q28 -23 32 -26q56 -45 33 -114q-26 -74 -74 -129q-1 -1 -26 -30zM62 238
q2 15 5.5 44.5t7 50.5t8.5 39q6 19 15.5 39t23 45.5t19.5 37.5q-89 -112 -87 -231q0 -1 8 -25zM115 261q124 86 154 209q5 21 -5 48q-7 18 -20.5 20.5t-26.5 -10.5q-52 -51 -76.5 -116.5t-38.5 -154.5z" />
    <glyph glyph-name="r" unicode="r" horiz-adv-x="355" 
d="M343 507q60 28 88 41q-4 -60 -72 -77q-66 -17 -112 59q-8 -11 -25.5 -32t-29.5 -37t-22 -32q-22 -38 -61.5 -110.5t-47.5 -85.5q-13 -24 -27 -34q-4 -3 -14 -1.5t-13 5.5q-5 8 -8 13t-6.5 14.5t-2.5 15.5l3 18q12 33 90 256q2 4 9 24l-5 2.5l-5 2.5q-27 -61 -29 -66
q-23 -57 -29 -67q20 72 21 77q14 56 18 76q7 34 37 27q45 -10 38 -46q-3 -16 -10.5 -47.5t-8.5 -35.5q0 -1 -2 -19q53 84 56 90q24 44 78 54q38 7 67 -37q2 -3 25 -48z" />
    <glyph glyph-name="s" unicode="s" horiz-adv-x="319" 
d="M284 438q44 -62 3 -134q-48 -85 -141 -115q-15 -5 -21 -3q-56 12 -94 28t-67 48q-3 3 -7 10v5q54 -18 118.5 1t112 60t60.5 85q-18 -7 -19 -7q-18 -10 -57 -30.5t-59 -31.5q-24 -12 -45 -11.5t-35 13.5q-26 26 -9 51q41 61 65 82q12 10 24.5 20t26 20.5t24.5 18.5t27 19
t25.5 18t17.5 3q37 -25 53 -69q-23 9 -43.5 9.5t-40 -6.5t-34 -15.5t-33.5 -23.5q-53 -39 -83 -100q18 5 19 5q127 52 160 65q32 14 52 -15zM136 389l35 14t46 18q0 2 -1 4t-1 3q-14 -5 -41.5 -15.5t-40.5 -16.5q0 -1 1 -3.5t2 -3.5zM215 599q-3 -2 -23.5 -16.5t-25 -17.5
t-22.5 -16t-24 -17.5t-21.5 -17t-22.5 -19.5t-19.5 -19t-20 -21.5t-17 -21.5t-16.5 -25q-1 1 -3.5 1.5t-3.5 0.5q1 5 3.5 15t5 17.5t6.5 12.5q68 88 169 136q5 3 10.5 4t13 2t11.5 2z" />
    <glyph glyph-name="t" unicode="t" horiz-adv-x="271" 
d="M243 736q111 -15 182 -24q0 -1 -0.5 -3.5t-0.5 -3.5q-70 0 -75 -1q-62 -3 -104 -8q-6 -1 -13 -6.5t-9 -10.5q-78 -214 -98 -365q-1 -4 -11 -95q10 3 25.5 8t23.5 7q-4 -15 -9 -22t-14 -9.5t-22 0.5q-54 9 -64 23t3 67q8 35 86 334q5 16 3 24q-58 -156 -114 -409
q-20 13 -13 44q28 122 42 169q4 17 59 187q0 1 8 25q-1 1 -2 3.5t-2 3.5q-79 -31 -87 -35q-20 -9 -29 9q0 1 -2 4q-19 37 -14.5 46t45.5 16q5 1 85 16q-16 -12 -22 -16q9 1 16.5 2.5t14 6t11 7t10 10.5t8 10.5t7 13t5.5 12.5t6 14.5t5 13.5q1 -2 3 -4.5t2 -4.5q19 6 20 7
q3 2 22 27q17 -12 20.5 -26.5t-2 -36.5t-5.5 -30zM7 686q23 7 88 26q-34 -6 -91 -17q1 -2 1.5 -5t1.5 -4z" />
    <glyph glyph-name="u" unicode="u" horiz-adv-x="331" 
d="M341 628q-26 -91 -36 -127q2 0 14 6q-36 -78 -37 -80q-65 -144 -71 -158q-22 -54 -55.5 -72.5t-88.5 -5.5q-5 1 -15.5 3t-16.5 3.5t-14 5t-12.5 10.5t-7.5 17q-12 55 -11 78q3 110 59 225q7 14 26 25q-6 -15 -22.5 -60t-23.5 -67t-15 -58t-9 -66q65 196 80 239
q3 8 10.5 17.5t11.5 8.5q24 -2 51 -20q6 -3 -4 -31q-3 -9 -22.5 -59.5t-27.5 -78.5q-5 -18 -9 -38.5t-8 -47t-6 -38.5q1 -1 3.5 -2t3.5 -2q25 24 26 25q15 14 29 32t24 31.5t24 37.5t20 34t21 39t19 36q10 19 73 127q1 1 10 14q1 -1 3.5 -1.5t3.5 -1.5z" />
    <glyph glyph-name="u" unicode="&#xfc;" horiz-adv-x="331" 
d="M341 628q-26 -91 -36 -127q2 0 14 6q-36 -78 -37 -80q-65 -144 -71 -158q-22 -54 -55.5 -72.5t-88.5 -5.5q-5 1 -15.5 3t-16.5 3.5t-14 5t-12.5 10.5t-7.5 17q-12 55 -11 78q3 110 59 225q7 14 26 25q-6 -15 -22.5 -60t-23.5 -67t-15 -58t-9 -66q65 196 80 239
q3 8 10.5 17.5t11.5 8.5q24 -2 51 -20q6 -3 -4 -31q-3 -9 -22.5 -59.5t-27.5 -78.5q-5 -18 -9 -38.5t-8 -47t-6 -38.5q1 -1 3.5 -2t3.5 -2q25 24 26 25q15 14 29 32t24 31.5t24 37.5t20 34t21 39t19 36q10 19 73 127q1 1 10 14q1 -1 3.5 -1.5t3.5 -1.5z" />
    <glyph glyph-name="u" unicode="&#xfb;" horiz-adv-x="331" 
d="M341 628q-26 -91 -36 -127q2 0 14 6q-36 -78 -37 -80q-65 -144 -71 -158q-22 -54 -55.5 -72.5t-88.5 -5.5q-5 1 -15.5 3t-16.5 3.5t-14 5t-12.5 10.5t-7.5 17q-12 55 -11 78q3 110 59 225q7 14 26 25q-6 -15 -22.5 -60t-23.5 -67t-15 -58t-9 -66q65 196 80 239
q3 8 10.5 17.5t11.5 8.5q24 -2 51 -20q6 -3 -4 -31q-3 -9 -22.5 -59.5t-27.5 -78.5q-5 -18 -9 -38.5t-8 -47t-6 -38.5q1 -1 3.5 -2t3.5 -2q25 24 26 25q15 14 29 32t24 31.5t24 37.5t20 34t21 39t19 36q10 19 73 127q1 1 10 14q1 -1 3.5 -1.5t3.5 -1.5z" />
    <glyph glyph-name="u" unicode="&#xfa;" horiz-adv-x="331" 
d="M341 628q-26 -91 -36 -127q2 0 14 6q-36 -78 -37 -80q-65 -144 -71 -158q-22 -54 -55.5 -72.5t-88.5 -5.5q-5 1 -15.5 3t-16.5 3.5t-14 5t-12.5 10.5t-7.5 17q-12 55 -11 78q3 110 59 225q7 14 26 25q-6 -15 -22.5 -60t-23.5 -67t-15 -58t-9 -66q65 196 80 239
q3 8 10.5 17.5t11.5 8.5q24 -2 51 -20q6 -3 -4 -31q-3 -9 -22.5 -59.5t-27.5 -78.5q-5 -18 -9 -38.5t-8 -47t-6 -38.5q1 -1 3.5 -2t3.5 -2q25 24 26 25q15 14 29 32t24 31.5t24 37.5t20 34t21 39t19 36q10 19 73 127q1 1 10 14q1 -1 3.5 -1.5t3.5 -1.5z" />
    <glyph glyph-name="u" unicode="&#xf9;" horiz-adv-x="331" 
d="M341 628q-26 -91 -36 -127q2 0 14 6q-36 -78 -37 -80q-65 -144 -71 -158q-22 -54 -55.5 -72.5t-88.5 -5.5q-5 1 -15.5 3t-16.5 3.5t-14 5t-12.5 10.5t-7.5 17q-12 55 -11 78q3 110 59 225q7 14 26 25q-6 -15 -22.5 -60t-23.5 -67t-15 -58t-9 -66q65 196 80 239
q3 8 10.5 17.5t11.5 8.5q24 -2 51 -20q6 -3 -4 -31q-3 -9 -22.5 -59.5t-27.5 -78.5q-5 -18 -9 -38.5t-8 -47t-6 -38.5q1 -1 3.5 -2t3.5 -2q25 24 26 25q15 14 29 32t24 31.5t24 37.5t20 34t21 39t19 36q10 19 73 127q1 1 10 14q1 -1 3.5 -1.5t3.5 -1.5z" />
    <glyph glyph-name="v" unicode="v" horiz-adv-x="293" 
d="M397 725q17 -17 16.5 -29.5t-18.5 -28.5q-117 -97 -195 -230q-12 -23 -34 -65.5t-32 -60.5q-4 -7 -14.5 -18.5t-14.5 -16.5q-2 -4 -5 -13l-4 -12q-2 -3 -6 -13t-6.5 -15t-9.5 -9t-17 -4q-28 3 -48 20.5t-19 38.5q4 58 16 112q6 28 38 147q1 1 11 29q1 0 1 -1t1 -1
q-19 -87 -58 -267q1 0 3 -0.5t3 -0.5l74 274q22 -7 32.5 -22t6.5 -37q-2 -8 -38 -157q-4 -17 -1 -29q59 86 62 91q36 58 102.5 165t94.5 152q14 23 32 18q-34 -50 -103 -149q1 -1 2.5 -2t2.5 -2q73 97 110 146z" />
    <glyph glyph-name="w" unicode="w" horiz-adv-x="423" 
d="M490 734q5 -1 9 -2q-1 -5 -1 -15t-0.5 -18t-2.5 -14q-24 -79 -39.5 -125t-46.5 -110t-68 -112q-32 -41 -59 -66q-17 -15 -55.5 -9t-50.5 24q0 1 -5 25q-46 -52 -49 -56q-20 -24 -46 -13q-38 15 -58 27q-38 24 -25 76q1 4 24 64q-4 -18 -11 -52.5t-10 -49.5h2.5h2.5
q10 31 30 95l30 96q-1 0 -1.5 0.5l-1.5 1.5q-5 -11 -15 -32.5t-15 -32.5q35 89 38 98q14 30 45 15q47 -23 33 -55q-6 -13 -15.5 -31.5t-18.5 -36.5t-16 -33q-7 -18 -28 -91v-27q7 3 19.5 8.5t21.5 10t16 9.5q37 26 58.5 50.5t26.5 60.5q3 23 22 14l2 -1q3 -1 4.5 -2t4 -3
t3.5 -3t2.5 -3.5t2 -4.5t0 -5t-2.5 -7q-10 -25 -13 -54q178 198 257 389z" />
    <glyph glyph-name="x" unicode="x" horiz-adv-x="269" 
d="M304 256q0 -1 19 -13q-12 -7 -23.5 -7.5t-17.5 1.5t-18 8q-64 32 -105 99q-1 2 -9 14q-60 -57 -67 -63q-14 -14 -37 -40q-25 -29 -48 -9q-15 14 2 46q8 15 41 54q6 8 29 33.5t35 40.5q7 10 2 30q-3 16 -13.5 52.5t-14.5 56.5q-5 7 -4 18.5t16 13.5q14 3 24.5 0.5t18 -9.5
t9.5 -18q2 -7 18 -82q67 77 74.5 87t11 12t15.5 -2l7 -3.5t7 -4t5.5 -4t4.5 -5.5t1 -7t-2 -9q-10 -27 -23 -46q-33 -46 -56 -71q-22 -22 -4 -45q37 -48 102 -128zM62 333q5 5 31.5 29.5t33.5 43.5q-2 3 -7 7l-63 -76zM166 465q1 -1 3 -2l4 -2t3 -2q6 9 17.5 27.5t16.5 27.5
q-1 1 -2.5 2t-2.5 2q-23 -31 -39 -53z" />
    <glyph glyph-name="y" unicode="y" horiz-adv-x="437" 
d="M434 596q10 -8 12 -14t-4 -19q-116 -187 -147 -242q-21 -37 -42.5 -78t-49 -94.5t-40.5 -78.5q0 -1 -4 -6q-1 0 -3 1t-3 1q12 30 36 88l-1.5 0.5t-1.5 1.5q-10 -16 -10 -17q-4 -7 -65 -112q-6 4 -8.5 10t-2.5 9t1.5 12t1.5 10q16 123 48 187q-3 -3 -9 -10.5t-11 -13
t-10 -8.5q-25 -17 -39 -11q-53 21 -76 50t-13 82q8 42 40 133q7 20 46 108q0 1 12 18q4 -2 7 -4q-10 -26 -31 -78.5t-31 -79.5l5 -2q35 71 37 77q3 6 35 76q18 -6 21.5 -19.5t-2.5 -27.5q-51 -174 -54 -186q-10 -35 -11 -97q36 20 71 52t58.5 61t55.5 68t56 64
q-15 -24 -46 -72q1 0 2.5 -1t1.5 -2q44 55 47 58q16 18 47.5 53t45.5 51q13 16 28 2z" />
    <glyph glyph-name="y" unicode="&#xff;" horiz-adv-x="437" 
d="M434 596q10 -8 12 -14t-4 -19q-116 -187 -147 -242q-21 -37 -42.5 -78t-49 -94.5t-40.5 -78.5q0 -1 -4 -6q-1 0 -3 1t-3 1q12 30 36 88l-1.5 0.5t-1.5 1.5q-10 -16 -10 -17q-4 -7 -65 -112q-6 4 -8.5 10t-2.5 9t1.5 12t1.5 10q16 123 48 187q-3 -3 -9 -10.5t-11 -13
t-10 -8.5q-25 -17 -39 -11q-53 21 -76 50t-13 82q8 42 40 133q7 20 46 108q0 1 12 18q4 -2 7 -4q-10 -26 -31 -78.5t-31 -79.5l5 -2q35 71 37 77q3 6 35 76q18 -6 21.5 -19.5t-2.5 -27.5q-51 -174 -54 -186q-10 -35 -11 -97q36 20 71 52t58.5 61t55.5 68t56 64
q-15 -24 -46 -72q1 0 2.5 -1t1.5 -2q44 55 47 58q16 18 47.5 53t45.5 51q13 16 28 2z" />
    <glyph glyph-name="y" unicode="&#xfd;" horiz-adv-x="437" 
d="M434 596q10 -8 12 -14t-4 -19q-116 -187 -147 -242q-21 -37 -42.5 -78t-49 -94.5t-40.5 -78.5q0 -1 -4 -6q-1 0 -3 1t-3 1q12 30 36 88l-1.5 0.5t-1.5 1.5q-10 -16 -10 -17q-4 -7 -65 -112q-6 4 -8.5 10t-2.5 9t1.5 12t1.5 10q16 123 48 187q-3 -3 -9 -10.5t-11 -13
t-10 -8.5q-25 -17 -39 -11q-53 21 -76 50t-13 82q8 42 40 133q7 20 46 108q0 1 12 18q4 -2 7 -4q-10 -26 -31 -78.5t-31 -79.5l5 -2q35 71 37 77q3 6 35 76q18 -6 21.5 -19.5t-2.5 -27.5q-51 -174 -54 -186q-10 -35 -11 -97q36 20 71 52t58.5 61t55.5 68t56 64
q-15 -24 -46 -72q1 0 2.5 -1t1.5 -2q44 55 47 58q16 18 47.5 53t45.5 51q13 16 28 2z" />
    <glyph glyph-name="z" unicode="z" horiz-adv-x="351" 
d="M192 275q64 14 122 -22q2 -1 30 -21q-1 -2 -1.5 -4.5t-1.5 -4.5l-2 -4q-66 -10 -70 -11q-21 -2 -60.5 -6t-71.5 -8t-60 -8q-29 -6 -72 -38q-19 -14 -36 0q-6 4 -6 5q-3 3 -11 9.5t-12 12t-5 10.5q-1 3 0 6t4 6.5t5.5 6.5t6.5 7l6 6q83 93 153.5 160.5t147.5 122.5
q1 1 20 21q0 1 -3 6l-18 -1q-72 -24 -111 -39q-7 -2 -17.5 -9t-14.5 -9q-11 -5 -20 -6t-18 2.5t-15 7.5t-15 10.5t-15 9.5v7q167 37 253 56q-52 5 -142 -19.5t-130 -25.5q0 1 -0.5 3t-0.5 3q29 9 30 9q20 4 71 16.5t87.5 20t71.5 13.5q39 7 52.5 0t36.5 -43
q-100 -107 -107.5 -114.5t-117.5 -118.5q-5 -4 -5 -5q-2 -14 -10.5 -23.5t-15.5 -13t-22.5 -8t-21.5 -6.5q-3 -1 -49 -18q1 -1 1.5 -3t1.5 -3q77 28 83 30q50 15 95 25z" />
    <glyph glyph-name="braceleft" unicode="{" horiz-adv-x="319" 
d="M269 619q25 10 37 4t22 -32q-52 3 -83 -59q-6 -10 -10.5 -23.5t-7 -22.5t-7 -25.5t-6.5 -23.5q-3 -10 -6 -21.5t-5.5 -21t-5 -21.5t-5.5 -22q-13 -46 -50 -49q-1 -1 -18 -6q30 -79 33 -89q5 -14 -5 -37q-4 -8 -14.5 -24t-14.5 -25q-11 -26 -10 -46q0 -9 4 -16t11.5 -11
t18.5 -3q65 5 71 5q20 1 47 -9q-85 -45 -161 3q-17 11 -24 29.5t-6.5 33.5t4.5 38q3 17 10.5 48.5t10.5 44.5q-26 -55 -34 -148q-19 25 -9 65q3 12 33 118q-10 8 -31.5 25.5t-34.5 27.5q21 3 22 3q53 5 67 48q25 73 43 138q7 23 12 37.5t16.5 32t26.5 29.5q14 10 37 18
q-18 -14 -31 -31t-20.5 -33.5t-13.5 -38t-9.5 -38.5t-8 -40t-8.5 -39q22 79 24 88q20 70 54 97q17 14 35 22zM80 318l61 61v1q-31 -31 -61 -62z" />
    <glyph glyph-name="verticalbar" unicode="|" horiz-adv-x="281" 
d="M202 710q42 -27 31 -81q-11 -48 -42 -193t-47 -224q-3 -13 -40 -224q-5 9 -13 24t-12 21h6v61v-1v0v1v1v0q20 119 20 128q4 40 10.5 84.5t12 76t17 85t16 75t19.5 84.5t18 77zM180 696q-72 -391 -76 -416q-5 -27 -8 -57.5t-6 -69.5t-5 -58v122q3 71 13 142.5t31 177
t27 138.5q1 3 16 54q2 0 6 -1t5 -2q-3 -29 -3 -30z" />
    <glyph glyph-name="braceright" unicode="}" horiz-adv-x="270" 
d="M211 465q-24 -67 -32 -92q-10 -36 20 -48q31 -14 9 -40q-6 -6 -10 -12.5t-7.5 -15.5t-5.5 -13.5t-4 -16.5t-3 -14.5t-3 -17t-2 -15.5q-6 -43 -16 -79q-7 -24 -20.5 -32.5t-42.5 -6.5q7 13 12.5 26.5t8.5 30.5t4.5 27t3.5 31.5t3 28.5q8 67 49 102l3 8q-2 1 -6 5
q-3 -4 -10.5 -11.5t-13 -13.5t-9.5 -12q-10 -15 -16 -34.5t-7.5 -31t-4 -38t-3 -34t-7.5 -38.5q5 81 5 93q5 78 51 130q-25 15 -15 53q7 24 16 56t17.5 63t15.5 56q6 21 6 53q0 9 -13 15q-1 1 -3.5 -0.5t-6.5 -5.5t-7 -5q-2 1 -4.5 3.5t-7 6t-7.5 6.5q34 15 65 -8
q42 -32 31 -69q-5 -18 -18 -51.5t-15 -38.5zM101 104h-1q0 1 0.5 2.5l0.5 1.5v-4zM101 104l-1 -1v1h1zM100 103q-7 -36 -18.5 -42.5t-47.5 6.5l33 18zM167 541q1 0 4 -1t4 -1q-7 -22 -20.5 -67t-20.5 -67q-1 0 -3.5 1t-3.5 1q7 22 20 67t20 67z" />
    <glyph glyph-name="asciitilde" unicode="~" horiz-adv-x="426" 
d="M415 423q1 -1 21 -11q-1 -2 -1.5 -4t-0.5 -3q-28 1 -30 2q-40 15 -53 25q-20 17 -44 18t-47 -8q-103 -35 -171 -49q-29 -6 -62 24.5t-37 65.5q3 -2 7 -5t6.5 -5t5.5 -4.5t5 -4.5q20 -27 52 -17q29 8 125 41q12 4 23 9q61 32 116 -22q11 -10 24.5 -18.5t32.5 -18.5t28 -15
zM192 407q-4 -2 -14.5 -8t-15 -8.5t-14 -7.5t-16 -6.5t-16 -3.5t-18.5 -1.5t-19 2.5q22 7 59 17.5t54 15.5z" />
    <glyph glyph-name="nonbreakingspace" unicode="&#xa0;" horiz-adv-x="330" 
 />
    <glyph glyph-name="softhyphen" unicode="&#xad;" 
 />
    <glyph glyph-name="e.alt1" unicode="&#xf000;" horiz-adv-x="295" 
d="M317 442q6 -4 10 -6q-4 -8 -10.5 -25t-13 -29t-13.5 -22q-25 -31 -128 -148q-12 -13 -29 -26q-45 -33 -94 -7q-77 40 -82 111q2 -2 5.5 -7t4.5 -6q11 76 12 79q18 108 122 199q23 16 49.5 14t50 -22.5t26.5 -49.5q4 -32 -3 -95q-1 -3 -5 -6.5t-9.5 -6.5t-9.5 -4
q-18 -4 -40 -8.5t-45 -8.5t-40 -8q-6 -2 -12 -6.5t-7 -8.5q-4 -18 -20 -110q3 -3 10 -8q7 2 20.5 7t24 9.5t19.5 9.5q43 28 69.5 46.5t58.5 49.5t53 65q2 5 6.5 9.5t11 10t8.5 8.5zM183 527q-70 -40 -111 -136q1 -1 2.5 -3t2.5 -3q76 29 90 35q13 5 14 12q3 15 11 93
q-1 0 -4.5 1t-4.5 1z" />
    <glyph glyph-name="e.alt2" unicode="&#xf001;" horiz-adv-x="348" 
d="M321 317l28 21l3 -3q1 -1 1 -2q-25 -33 -27 -35q-3 -3 -20 -22t-22.5 -25t-20.5 -21t-24.5 -22.5t-23 -18t-27.5 -18.5q-46 -26 -95 -11t-72 63q-5 9 -2 23q13 79 31.5 138t55.5 112q-20 -5 -21 -5q2 32 14.5 53t31 28t40 5t44.5 -13q38 -20 75 -61q41 -47 -20 -72
q-13 -5 -61.5 -25.5t-74.5 -31.5q-31 -12 -35 -42q-2 -8 -19 -98q1 -1 3.5 -3t3.5 -3q50 14 96.5 40.5t106 70t85.5 59.5q3 -2 5 -4q-48 -57 -62 -74zM211 522q-27 -13 -44.5 -36t-33.5 -58q4 -5 4 -6q93 43 102 47q23 11 9 41q-12 25 -37 12zM89 193q6 -15 26 -13.5
t43 18.5q-55 -4 -69 -5zM-2 278q-13 15 -7 54.5t20.5 82t37.5 81t44 50.5q-15 -41 -47 -131.5t-48 -136.5z" />
    <glyph glyph-name="h.alt1" unicode="&#xf002;" horiz-adv-x="340" 
d="M290 588q41 -9 53.5 -29.5t-0.5 -60.5q-11 -33 -35 -93t-34 -88q-15 -42 -53 -168q-2 -7 -34 -118q-13 64 -14 67q-4 17 -6 35.5t-2.5 34t1.5 35.5t4 33t7 35t8 33t9 34.5t9 33.5q1 4 15 76q-1 1 -3 2.5t-3 2.5q-9 -13 -30.5 -40t-37 -48t-29.5 -41q-21 -31 -30.5 -46
t-21.5 -44t-15 -55l-24 6q12 63 34 177t28 145q-2 1 -6 1.5t-5 0.5q-26 -141 -58 -313q-32 1 -26 39q25 152 35 192q12 54 86 345q0 1 7 17l9 -3q-12 -40 -37 -120q2 -1 6 -2q17 48 18 52q13 33 23 51q13 26 20 28.5t33 -9.5q1 -1 25 -4q-21 -72 -62 -207.5t-61 -198.5
q71 82 167 195q-3 -11 -7 -24q1 0 2 -1l2 -2q22 29 33 44z" />
    <glyph glyph-name="o.alt1" unicode="&#xf003;" horiz-adv-x="258" 
d="M248 454q24 -21 18 -54q-25 -125 -133 -191q-40 -25 -79 -4q-41 23 -68 44q-26 20 -16 58q30 110 116 193q1 1 25 15q-2 2 -5.5 5t-5.5 5q-40 -29 -70.5 -69.5t-61.5 -97.5q6 18 6 19q29 61 57.5 101.5t72.5 67.5q36 22 79.5 7.5t60.5 -53.5q1 -1 2 -14l-2.5 -2.5
l-2.5 -2.5q-3 2 -6.5 5.5l-6 6t-6 5.5t-6.5 4q-3 2 -8 2t-12.5 -0.5t-11.5 -0.5q60 -46 64 -49zM227 427q4 16 -5.5 32.5t-24.5 21.5q-32 10 -53 -16q-58 -71 -81 -144q-16 -51 -4 -90q41 14 44 15q59 31 101 110q13 25 23 71z" />
    <glyph glyph-name="o.alt2" unicode="&#xf004;" horiz-adv-x="329" 
d="M293 461q35 -20 43 -43t-11 -58q-8 -17 -20.5 -35.5t-20 -29.5t-25 -34.5t-22.5 -29.5q-25 -34 -48 -52q-29 -23 -50 -20q-75 8 -124 62q-3 3 -5 7t-4 9.5t-3 7.5v0v0v1q25 79 27 85q38 127 145 207q24 18 34 18.5t36 -15.5q20 -12 23 -17q2 -2 13 -30q-17 1 -36 3
q-57 -35 -101.5 -128t-31.5 -156q28 3 58 40q57 72 86 180q1 10 0.5 14t-2.5 15t-3 17q40 -16 42 -18zM121 514q-52 -46 -77.5 -107t-38.5 -143q0 -2 -2 -18q-1 6 -5.5 19.5t-6.5 23.5t0 18q27 166 148 240q16 9 34 11q-49 -42 -52 -44z" />
    <glyph glyph-name="o.alt3" unicode="&#xf005;" horiz-adv-x="333" 
d="M307 478q19 -57 11 -136q-12 -112 -139 -165q-22 -8 -46 -7.5t-48.5 11.5t-44.5 26.5t-33.5 37t-15.5 44.5q-4 29 15 88q43 137 137 200q13 8 18 8q87 -13 129 -73q5 17 15 44q2 0 7 -1q-5 -48 -5 -53q-2 -17 0 -24zM237 322q39 57 36 103t-47 99q-39 -18 -76.5 -76
t-56 -123t-6.5 -102q51 -12 100 39q28 28 50 60zM11 452q31 77 75 107q-62 -89 -75 -107zM131 238q6 6 15.5 16t17 17.5t17 18t17.5 20.5q9 12 18 25.5t20.5 31.5t16.5 26q-2 -28 -21 -62t-47 -60t-54 -33z" />
    <glyph glyph-name="r.alt1" unicode="&#xf006;" horiz-adv-x="442" 
d="M444 533q6 -5 8 -6q-12 -32 -13 -34q-29 -45 -52 -71q-3 -4 -13.5 -4t-14.5 4q-21 19 -72 74l-16 25q-11 -10 -31.5 -30.5t-35.5 -36t-27 -31.5q-94 -119 -117 -226q-8 -33 -19 -38.5t-38 8.5q-5 3 -9 11.5t-4 15.5q5 145 48 302q1 4 21 74q3 0 11 -2q2 -11 -0.5 -23
t-8 -26t-7.5 -22q-14 -61 -16 -74q15 41 44 122l6 -2q-5 -27 -15 -83q1 0 2 -0.5l1 -0.5q26 68 28 73q12 31 16 38q2 3 4.5 8.5t4 8.5t5.5 7t8 3l12 -3q41 -19 26 -54q-9 -21 -25.5 -58.5t-22.5 -51.5q-6 -15 -6 -29q77 102 107 142q3 4 7 10t6 8q18 25 44 8q11 -8 17.5 -13
t15 -13.5t13 -17.5t7.5 -21q1 -5 3.5 -10.5t6.5 -12.5t6 -12q13 10 41 31z" />
    <glyph glyph-name="u.alt1" unicode="&#xf007;" horiz-adv-x="383" 
d="M386 518l6 -3q-1 -5 -3 -11t-3.5 -11l-3 -10t-4 -10.5t-4.5 -9.5q-64 -105 -105 -165q-40 -57 -139 -98q-31 -13 -66.5 1.5t-57 46.5t-15.5 65q3 15 8 31t13.5 38t11.5 31q4 12 9.5 27t11 30.5t9.5 26.5q0 2 9 32q5 -3 16.5 -9.5t17.5 -10.5q-45 -66 -69 -120.5
t-25 -114.5q26 116 109 230q22 -9 25 -17t-6 -29q-17 -37 -26.5 -61t-18.5 -59t-10 -66q-1 -11 0 -20q0 -1 2 -16q47 32 50 33q79 64 135 170q14 27 67 111q1 2 29 34q5 -14 3 -34.5t-4.5 -32t-8 -31t-8.5 -30.5q8 10 23 30.5t22 31.5z" />
    <glyph glyph-name="O.alt1" unicode="&#xf008;" horiz-adv-x="414" 
d="M422 411q6 -55 -22 -111q-52 -101 -119 -177q-66 -74 -156 -40q-52 19 -84 45.5t-44 72.5q-16 62 4 120q58 173 160 284q1 2 27 27q-3 -4 -24.5 -38.5t-26 -41.5t-23 -38t-24 -42.5t-20 -39t-20 -44t-14.5 -41.5t-14 -47t-8 -46q-1 -12 -1 -18.5t1.5 -18.5t1.5 -15
q8 20 24.5 66t30 81.5t27.5 68.5q47 107 157 230q23 26 49 7q5 -3 67 -49q-175 -135 -239 -378q-8 -33 -6 -85q1 -21 9 -24.5t26 6.5q77 41 117 106q11 18 22 38.5t25 48.5t21 40q5 10 9 13q-46 -180 -204 -266q0 -2 0.5 -4t1.5 -4q3 1 11 2t13.5 2t10.5 3q56 28 106 94
q82 109 97 255q0 1 3 21q1 1 4 1.5t4 0.5q3 -6 8 -19.5t8 -24.5t4 -21z" />
    <glyph glyph-name="O.alt2" unicode="&#xf009;" horiz-adv-x="493" 
d="M110 80q-31 -7 -44 16q-7 13 -29 52.5t-33 61.5q-6 10 2 27q56 116 76 154q92 167 218 262q23 18 47 15t42 -27q5 -7 9.5 -15t9.5 -19t7 -16q-1 0 -3 -1.5t-3 -1.5l-12 10q-29 21 -50 4q-132 -106 -215 -240q-49 -78 -61 -162q-7 -45 17 -68q15 -15 25 -11q8 3 26 8.5
t27.5 9.5t23.5 10.5t23 14.5q143 110 208 248q13 28 17.5 56t4.5 86q27 -24 30.5 -38.5t-9.5 -43.5q-41 -92 -84.5 -163.5t-100.5 -128.5q-81 -80 -169 -100zM482 497q1 -6 6.5 -22.5t7.5 -23t4.5 -19t2 -22t-2.5 -19.5q-59 -248 -243 -360q-54 -33 -90 -25t-76 60
q147 19 246 167q22 33 43 69.5t47.5 86.5t38.5 72q1 1 16 36zM306 688q-241 -194 -306 -452q-1 1 -3.5 1t-3.5 1q-3 22 -3 23q3 11 9 41.5t11.5 51t13.5 39.5q61 147 163 242q49 45 119 53z" />
    <glyph glyph-name="T.alt1" unicode="&#xf00a;" horiz-adv-x="341" 
d="M537 644q8 -1 13 -9q-67 -3 -71 -4q-57 -7 -107 -16q-16 -4 -24 -18q-10 -20 -30.5 -59t-32.5 -63t-28 -57.5t-27.5 -65.5t-20.5 -63q-30 -105 -17 -169q1 -7 4 -15t7.5 -18.5t6.5 -17.5q-50 19 -71 57q-41 75 -15 137q19 48 56 135.5t52 124.5q3 6 4.5 13t3 16.5
t1.5 14.5q-1 0 -8 5q-120 -65 -137 -74q-8 -4 -46 -29q-19 -13 -27.5 -11t-20.5 21q-1 1 -12 23q103 68 189 99q17 6 47 16.5t44 14.5q1 1 2 1q9 3 14 5.5t10.5 8t9.5 13.5q1 3 4 6t7.5 6t9 5t10 5t9.5 6q2 -2 6.5 -5.5t8 -6.5t5.5 -7q9 -19 37 -19.5t134 -5.5zM98 294
q8 19 94 193q-8 -20 -37.5 -89.5t-43 -116.5t-15.5 -97q-23 54 2 110zM-10 520q12 24 62 50.5t98 34.5q-42 -23 -160 -85z" />
    <glyph glyph-name="T.alt2" unicode="&#xf00b;" horiz-adv-x="375" 
d="M176 665q76 4 171.5 2t170.5 -16q-132 -19 -220 -31q0 -8 -0.5 -20.5t-1.5 -20.5t-3 -15q-11 -30 -43.5 -115.5t-47.5 -132.5q-15 -43 -28 -129q-11 -68 47 -89q-85 18 -124 69q-15 20 -10 87q7 94 40 148q4 6 6 15t3 21t2 18q-2 0 -7 2q-14 -44 -74 -231
q-3 15 -3.5 30.5t0 26.5t4.5 29.5t6 26.5t8 29t7 27q7 24 16 50.5t22.5 62t19.5 53.5q-65 -41 -71 -46q-22 -15 -45 -1q-6 4 -80 45v4v4q23 11 67.5 32.5t67.5 31.5l-2 5q-23 -9 -71 -28.5t-72 -29.5q-12 18 -5.5 30.5t28.5 14.5q15 1 19 3q133 53 315 72q29 3 56 3
q1 0 21 -5l-1 -6q-71 -10 -188 -26z" />
    <glyph glyph-name="e.alt3" unicode="&#xf00c;" horiz-adv-x="541" 
d="M550 599q-160 22 -351 -21l1 -6q31 -29 33.5 -42.5t-16.5 -51.5q-10 -21 -31 -62t-32 -62q1 -1 1.5 -2.5t1.5 -3t1 -2.5q65 11 233 38q0 -2 1 -4.5t1 -4.5q-44 -14 -132 -43q0 -1 1 -4q9 2 28 6.5t28 6.5q0 -1 0.5 -2.5t1.5 -2.5q-74 -25 -164 -57q1 -1 1 -2t1 -2
q18 5 54 16t54 16q0 -1 1 -3q-43 -16 -45 -17q-8 -4 -61 -31q-3 -1 -6 -3t-5.5 -3.5t-5.5 -3t-5 -1.5q-22 -1 -29 -13t-9 -36q-1 -13 -2 -19q-1 -18 3 -32.5t13.5 -25t24 -16.5t32.5 -6q102 -1 210 78q12 8 24 18.5t28.5 24.5t25.5 21q-4 -42 -38 -87q-44 -59 -81 -95
q-18 -18 -48 -18q-144 0 -240 80q-17 14 -13 35q21 90 22 128q1 17 6 33t14 36.5t13 30.5q6 18 16 45t19 52t16 45q1 3 1 7t-0.5 7t-2 8t-1.5 8q-25 -6 -27 -6q-18 -9 -29 -19q-16 -17 -35 1q-38 38 -33.5 61.5t53.5 43.5q56 22 102 36q68 20 180 -3q124 -25 187 -55l9 -5
v-3.5v-3v-2.5zM132 546q1 -1 6 -2q-14 -64 -69 -178t-69 -175q-1 0 -3.5 -0.5t-4.5 -0.5q0 4 -1 14.5t-1 14.5t2 14q3 11 27 65q54 122 102 229q0 1 11 19zM305 140q-1 2 -4 6l111 70l4 -8q-18 -11 -55 -34t-56 -34z" />
    <glyph glyph-name="h.alt2" unicode="&#xf00d;" horiz-adv-x="435" 
d="M554 374q1 -2 2 -3q-19 -9 -20 -9q-19 -5 -61.5 -14t-64.5 -14q-38 -8 -59 -17q-14 -5 -22 -21q-19 -36 -36 -81t-26 -78t-23.5 -88.5t-21.5 -82.5q-16 17 -18 42t3 44q3 27 27 226q-109 -8 -133 -10q-5 -1 -10 -5.5t-6 -8.5q-12 -39 -43 -148q0 -2 -9 -37
q-50 51 -42 139q6 53 23 117t29.5 98t41.5 111q2 5 49 106q7 -8 17.5 -19.5t17.5 -18.5t15 -16t13 -18q10 -14 -1 -41q-6 -14 -62 -136q0 -2 -12 -30q9 1 25 4t27.5 4t22.5 1q28 -2 42 10t21 40q6 25 34 83q-7 -27 -32 -117q1 0 3.5 -1t3.5 -1q16 37 37 86t42 97.5t38 86.5
q36 -21 48 -45t0 -57q-5 -15 -61 -155q0 -1 -10 -23h191zM111 332q34 6 114 20q0 1 -0.5 3t-0.5 4q-33 -5 -115 -16q0 -2 0.5 -5.5t1.5 -5.5zM37 472q17 72 40 116t48 52q-17 -33 -47 -90t-41 -78z" />
    <glyph glyph-name="o.alt4" unicode="&#xf00e;" horiz-adv-x="500" 
d="M459 444q9 -16 3 -47q-32 -174 -139 -302q-9 -10 -11 -13q-13 -20 -26.5 -30.5t-32.5 -14.5t-41 8q1 -12 1 -13l-4 2l-20 22q-19 15 -76 57q-11 8 -20 14q-3 1 -22.5 11.5t-28.5 16.5q-39 27 -48 51.5t5 69.5q8 24 11 39q42 182 190 338q24 25 39.5 27.5t46.5 -14.5
q20 -10 64 -41q1 -1 16 -20q0 -1 -3 -5q-18 2 -19 3q-25 15 -46 -9q-5 -5 -17 -18.5t-18 -21t-15.5 -19t-16.5 -21.5t-13 -21q-82 -137 -95 -274q-4 -14 -0.5 -29t18.5 -23q10 -5 16 -18q1 -3 12 -38q22 2 24 3q18 7 33 21q139 129 173 295q14 73 -29 135q-1 1 -9 16
q4 2 5 3q14 -12 15 -13q62 -98 78 -127zM243 195q73 107 94 143q62 107 32 200q28 -46 16 -116q-13 -75 -62 -147.5t-120 -128.5q38 47 40 49zM107 615q11 16 25.5 30t31 23.5t30.5 12.5q-114 -116 -188 -310q26 127 101 244z" />
    <glyph glyph-name="r.alt2" unicode="&#xf00f;" horiz-adv-x="396" 
d="M458 584q13 -52 -30 -75q-24 -12 -218 -112q-5 -2 -13 -6.5t-9 -4.5q17 -38 42.5 -96.5t43.5 -99.5t41.5 -94t42.5 -98l-3 -3l-3 -3q-6 5 -18 14.5t-20.5 17.5t-15.5 16q-12 14 -24 30t-26.5 37t-22.5 31q-2 4 -25.5 35.5t-35.5 47.5q-4 6 -58 90q-15 -48 -46.5 -144.5
t-47.5 -145.5q-3 0 -10 2q7 61 20 178t19 172q-2 0 -9 1q-10 -38 -22.5 -110t-17.5 -95q2 11 4.5 34.5t4.5 41.5t4 35q12 93 17 126q2 9 -1 14t-8 7t-12 4.5t-11 5.5q3 2 7 4.5t7 3.5t5 1q18 0 25 9t13 28q3 10 36 109q-4 0 -8.5 1t-8 1.5t-7.5 1t-8 2t-7 2.5q-5 3 -10 7.5
t-12.5 12t-12.5 11.5q177 55 194 61q53 18 111 14q31 -2 62 -19.5t53 -44.5t29 -58zM57 461q22 46 62 131q-2 1 -4.5 2t-3.5 1l-59 -132q2 0 5 -2zM394 585q20 24 10.5 49.5t-39.5 29.5q-16 5 -40.5 3.5t-40 -3t-39.5 -7.5t-39.5 -11t-39.5 -12q38 -49 41 -55q8 -12 4 -33
q-1 -4 -3.5 -8t-6 -9t-4.5 -8q-6 -11 -46 -89q1 -1 3.5 -2.5t3.5 -2.5q160 97 181 110q31 20 55 48zM13 643q-3 0 -6.5 2t-9 6t-7.5 6q1 2 2 6t1 6l210 40q0 -1 0.5 -3t0.5 -4q-151 -47 -191 -59z" />
    <glyph glyph-name="u.alt2" unicode="&#xf010;" horiz-adv-x="483" 
d="M472 587q12 26 21 36q-2 -33 -3 -35q-6 -131 -6 -135q-11 -100 -40 -179.5t-89 -141.5q-48 -50 -122 -37q-80 15 -165 68q-23 15 -22 46q14 -15 21 -23q1 0 2.5 1t2.5 2q-40 48 -16 131q7 22 71 231q35 -8 46 -23.5t3 -45.5q-8 -32 -27 -102.5t-29 -108.5q-7 -28 -9 -63
q-2 -33 31 -35q6 0 19.5 -4t19.5 -4q17 -1 33 7q18 8 35 23.5t26.5 27t25.5 34.5q34 47 68 109.5t51.5 102t51.5 118.5zM337 334q-9 -19 -22.5 -38t-31.5 -42t-27 -35q-1 1 -3.5 3l-2.5 2q21 30 40.5 60.5t38 67t31 63t30.5 70.5t26.5 65t27.5 72.5t26 67.5q4 -18 6 -28
t1 -24.5t-8 -28.5q-18 -36 -42 -87.5t-46.5 -100.5t-43.5 -87zM84 533q8 14 26 27q-29 -82 -42 -122.5t-27.5 -110.5t-14.5 -130q-44 31 -34 73q44 173 92 263z" />
  </font>
</defs>
</svg>
