<?xml version="1.0" standalone="no"?>
<!DOCTYPE svg PUBLIC "-//W3C//DTD SVG 1.1//EN" "http://www.w3.org/Graphics/SVG/1.1/DTD/svg11.dtd" >
<svg xmlns="http://www.w3.org/2000/svg" xmlns:xlink="http://www.w3.org/1999/xlink" version="1.1">
<metadata>
Created by FontForge 20170731 at Wed Mar 11 11:46:35 2015
 By Aleksey,,,
Copyright (c) 2015 by MA^ns Grebck. All rights reserved.
</metadata>
<defs>
<font id="KrinkesRegularPERSONALUSE" horiz-adv-x="422" >
  <font-face 
    font-family="Krinkes Regular PERSONAL USE"
    font-weight="400"
    font-stretch="normal"
    units-per-em="1000"
    panose-1="0 0 0 0 0 0 0 0 0 0"
    ascent="750"
    descent="-250"
    x-height="382"
    cap-height="523"
    bbox="-4051 -663 1129 908"
    underline-thickness="50"
    underline-position="-150"
    unicode-range="U+000D-FB02"
  />
<missing-glyph horiz-adv-x="187" 
 />
    <glyph glyph-name="fi" unicode="fi" horiz-adv-x="534" 
d="M87 348q39 98 102 148.5t140 50.5q32 0 51 -14.5t26 -37t2.5 -51t-18.5 -55.5q-13 -25 -27 -41.5t-27 -26t-24.5 -13.5t-18.5 -4q-28 0 -36.5 23t3.5 55q15 36 39.5 56.5t54.5 20.5q5 0 13 -2q2 20 -6.5 33t-28.5 13t-39 -13.5t-36.5 -35.5t-32 -50t-24.5 -56l-42 -104
q3 0 5.5 -0.5t4.5 -0.5q79 -3 142.5 25t101.5 102q8 2 17 4q8 2 17.5 3t19.5 1q21 0 35.5 -5t21 -18t4 -34t-15.5 -53q-6 -15 -19 -42.5t-26 -53.5q-15 -32 -32 -66q-8 -20 2 -28t27.5 -4.5t37.5 18.5t33 42l17 -28q-10 -24 -27.5 -44.5t-39 -35.5t-46 -24t-48.5 -9
q-49 0 -68 32t7 95q5 12 16.5 34.5t24 47.5t23 47t15.5 33q2 4 2.5 8t1.5 8q-11 -25 -33 -43t-49.5 -30.5t-57.5 -19.5t-55 -8q4 -14 2.5 -35t-7 -45.5t-14.5 -51.5t-21 -52q-44 -92 -93 -140t-97 -48t-67.5 32.5t6.5 94.5zM130 22q20 40 29.5 73.5t10.5 57t-7 36t-23 11.5
l-108 -261q-8 -19 -3 -28t19 -1.5t35.5 34.5t46.5 78zM593 487q0 -25 -18 -43t-43 -18q-26 0 -44 18t-18 43t18 43t44 18q25 0 43 -18t18 -43z" />
    <glyph glyph-name="t_r" unicode="tr" horiz-adv-x="464" 
d="M225 410l-125 -304q-8 -19 2 -27t27.5 -5t37.5 18t33 42l17 -28q-10 -24 -27.5 -44.5t-39 -35.5t-46 -24t-48.5 -9t-41.5 8t-26.5 24t-8 40t14 55l120 290h-67l28 51h60l12 30l120 23l-22 -53h50l-28 -51h-42zM370 462q29 0 38 -22.5t-4 -54.5q-9 -24 -22 -39h81
q-3 -9 -11 -28t-18 -44t-21.5 -52t-21.5 -51t-17.5 -41.5t-9.5 -23.5q-8 -19 2 -27t27.5 -5t37.5 18t33 42l17 -28q-10 -24 -27.5 -44.5t-39 -35.5t-46 -24t-48.5 -9t-41.5 8t-26 24t-7.5 40t14 55l80 193q-15 -5 -29 -5q-28 0 -37 22.5t5 54.5q14 37 38.5 57t53.5 20z" />
    <glyph glyph-name="f_t" unicode="ft" horiz-adv-x="536" 
d="M87 348q39 98 102 148.5t140 50.5q46 0 65 -28.5t15 -67.5h58l16 40l120 23l-26 -63h94l-28 -51h-86q-18 -44 -38.5 -93t-38 -91.5t-30 -73t-14.5 -36.5q-8 -19 2 -27t27.5 -5t37.5 18t33 42l17 -28q-10 -24 -27.5 -44.5t-39 -35.5t-46 -24t-48.5 -9t-41.5 8t-26.5 24
t-8 40t14 55l6 15q-52 -38 -132 -46q-5 -17 -11 -36.5t-16 -39.5q-44 -92 -93 -140t-97 -48t-67.5 32.5t6.5 94.5zM375 228q17 42 35.5 87.5t35.5 84.5h-51q-1 -6 -5 -11q-13 -25 -27 -41.5t-27 -26t-24.5 -13.5t-18.5 -4q-28 0 -37.5 23t4.5 55q17 37 45 54t58 17
q7 20 -2 35t-29 15t-39 -13.5t-36.5 -35.5t-32 -50t-24.5 -56l-54 -131q61 -5 64 -75q29 1 55 8.5t47 19.5t37 27.5t26 31.5v-1zM130 22q20 40 28 69t6.5 47.5t-11.5 27t-25 7.5l-96 -234q-8 -19 -3 -28t19 -1.5t35.5 34.5t46.5 78z" />
    <glyph glyph-name="f_r" unicode="fr" horiz-adv-x="606" 
d="M605 346q-3 -9 -11 -28t-18 -44t-21.5 -52t-21.5 -51t-17.5 -41.5t-9.5 -23.5q-8 -19 2 -27t27.5 -5t37.5 18t33 42l17 -28q-10 -24 -27.5 -44.5t-39 -35.5t-46 -24t-48.5 -9t-41.5 8t-26 24t-7.5 40t14 55l76 184q-23 -33 -49.5 -60.5t-59 -48t-71.5 -33t-87 -14.5
q5 -54 -33 -135q-44 -92 -93 -140t-97 -48t-67.5 32.5t6.5 94.5l161 396q39 98 97.5 148.5t135.5 50.5q32 0 51 -14.5t26 -37t2.5 -51t-18.5 -55.5q-13 -25 -27 -41.5t-27 -26t-24.5 -13.5t-18.5 -4q-28 0 -36.5 23t3.5 55q15 36 39.5 56.5t54.5 20.5q5 0 13 -2
q2 20 -6.5 33t-28.5 13t-37.5 -13.5t-33.5 -35.5t-29 -50t-23 -56l-54 -131q28 -1 46 -21q39 0 71 6.5t60 20t53.5 35.5t50.5 54q-17 8 -21 28t7 46q14 37 38.5 57t53.5 20q25 0 33 -14t6.5 -33t-10 -38.5t-17.5 -31.5h88zM130 22q20 40 28 69t6.5 47.5t-11.5 27t-25 7.5
l-96 -234q-8 -19 -3 -28t19 -1.5t35.5 34.5t46.5 78z" />
    <glyph glyph-name="T_h" unicode="Th" horiz-adv-x="659" 
d="M514 530q18 -32 -11 -103l-27 -66q21 14 43 21.5t44 7.5q48 0 67 -32.5t-6 -94.5l-65 -157q-7 -19 3 -27t27 -5t37 18t33 42l17 -28q-10 -24 -27.5 -44.5t-39 -35.5t-46 -24t-48.5 -9t-41.5 8t-26 24t-7.5 40t14 55l65 156q6 15 0.5 23.5t-17.5 9t-27.5 -6t-30.5 -20.5
l-80 -194q-8 -21 -2 -33t29 -12h10l-21 -43q-8 -2 -17 -4q-15 -3 -37 -3q-57 0 -71 31t13 97l138 341l2 7q-26 -3 -49.5 0.5t-50.5 8.5l-160 -391q-8 -21 -2.5 -33.5t28.5 -12.5h10l-20 -43q-8 -2 -17 -4q-8 -2 -18 -3t-20 -1q-57 0 -71 31.5t13 98.5l138 338l70 27
q-3 1 -9 1q-29 1 -59.5 -6t-60.5 -21.5t-57.5 -34t-50.5 -41.5l-20 21l80 105q51 21 93.5 22.5t93.5 -8.5q20 -4 46.5 -8.5t56.5 -6t61.5 1t61.5 13.5z" />
    <glyph glyph-name="T_r" unicode="Tr" horiz-adv-x="580" 
d="M443 439q-21 -13 -39 -13.5t-34.5 6t-32.5 17t-33 19.5l-156 -381q-8 -21 -2.5 -33.5t28.5 -12.5h10l-20 -43q-8 -2 -17 -4q-8 -2 -18 -3t-20 -1q-57 0 -71 31.5t13 98.5l138 338l69 27q-2 0 -4 0.5t-4 0.5q-29 2 -59.5 -5.5t-60.5 -21.5t-57.5 -34t-50.5 -42l-20 21
l80 105q51 21 93.5 22.5t93.5 -8.5q20 -4 42 -7.5t47.5 -4.5t55.5 1.5t66 10.5zM452 410q29 0 38 -22.5t-4 -54.5q-5 -11 -9.5 -20t-10.5 -17h92q-5 -13 -16.5 -41t-24 -58t-23 -56t-14.5 -35q-8 -19 2 -27t27.5 -5t37.5 18t33 42l17 -28q-10 -24 -27.5 -44.5t-39 -35.5
t-46 -24t-48.5 -9t-41.5 8t-26 24t-7.5 40t14 55l61 148q-21 -12 -44 -12q-28 0 -37 22.5t5 54.5q14 37 38.5 57t53.5 20z" />
    <glyph glyph-name="F_r" unicode="Fr" horiz-adv-x="620" 
d="M493 439q-28 -17 -54.5 -12t-52 18t-51 27t-52.5 14h-2l-92 -223h152l-19 -51h-154l-51 -125q-8 -21 -2 -33.5t29 -12.5h9l-20 -43q-8 -2 -17 -4q-8 -2 -17.5 -3t-19.5 -1q-58 0 -72 31.5t13 98.5l121 296l106 66q-20 -4 -44.5 -12t-49.5 -19t-48 -26t-41 -33l-20 21
l52 72q25 10 48 17.5t47 12t50.5 6.5t59.5 2q20 0 45 -3t54.5 -5t62 -1t67.5 9zM492 410q29 0 38 -22.5t-4 -54.5q-5 -11 -9.5 -20t-10.5 -17h92q-5 -13 -16.5 -41t-24 -58t-23 -56t-14.5 -35q-8 -19 2 -27t27.5 -5t37.5 18t33 42l17 -28q-10 -24 -27.5 -44.5t-39 -35.5
t-46 -24t-48.5 -9t-41.5 8t-26 24t-7.5 40t14 55l61 148q-21 -12 -44 -12q-28 0 -37 22.5t5 54.5q14 37 38.5 57t53.5 20z" />
    <glyph glyph-name=".notdef" horiz-adv-x="187" 
 />
    <glyph glyph-name=".null" horiz-adv-x="0" 
 />
    <glyph glyph-name="nonmarkingreturn" unicode="&#xd;" horiz-adv-x="187" 
 />
    <glyph glyph-name="NULL" horiz-adv-x="0" 
 />
    <glyph glyph-name="NULL" horiz-adv-x="0" 
 />
    <glyph glyph-name="space" unicode=" " horiz-adv-x="187" 
 />
    <glyph glyph-name="exclam" unicode="!" horiz-adv-x="261" 
d="M167 59q0 -27 -19.5 -46.5t-47.5 -19.5t-47.5 19.5t-19.5 46.5q0 28 19.5 47.5t47.5 19.5t47.5 -19.5t19.5 -47.5zM356 461q-20 -43 -48 -84t-56.5 -76.5t-53 -64t-37.5 -45.5h-35q28 57 47.5 113.5t32 102.5t19 76.5t9.5 35.5q12 25 38 34t52 -2q25 -12 34.5 -38
t-2.5 -52z" />
    <glyph glyph-name="quotedbl" unicode="&#x22;" horiz-adv-x="374" 
d="M261 437h-1q-6 -15 -18 -27t-28 -26t-35 -30.5t-39 -40.5l-35 14l36 110q-8 12 -8 32q0 28 19.5 47.5t47.5 19.5q20 0 36 -10.5t24 -27.5q8 17 24 27.5t36 10.5q28 0 47.5 -19.5t19.5 -47.5q0 -23 -10.5 -39.5t-28 -32.5t-40.5 -35.5t-48 -48.5l-35 14z" />
    <glyph glyph-name="numbersign" unicode="#" 
d="M398 423l-36 -83h49l-29 -69h-50l-25 -58h47l-29 -69h-47l-41 -95h-74l40 95h-55l-41 -95h-74l40 95h-52l29 69h53l25 58h-50l29 69h50l36 83h75l-36 -83h55l36 83h75zM177 213h56l25 58h-56z" />
    <glyph glyph-name="dollar" unicode="$" horiz-adv-x="386" 
d="M301 523q14 0 29 -3l21 61h34l-26 -71q36 -18 47 -57.5t-18 -88.5q-18 -32 -42 -43t-42 0t-20.5 35.5t11.5 48.5q14 23 36.5 32.5t40.5 -1.5q1 17 -13 31t-43 19q-34 5 -64 -13t-43 -49q-15 -34 2 -66t56 -57q53 -32 76 -77t0 -104q-20 -47 -65 -83t-103 -47l-17 -51h-33
l16 47q-8 0 -15 -0.5t-15 0.5l-17 -47h-33l18 53q-27 8 -44.5 26t-25.5 41t-6 49.5t15 50.5q15 29 39.5 45t46.5 4q18 -10 20.5 -35t-11.5 -48q-13 -22 -33.5 -31.5t-38.5 -2.5q-3 -19 18 -38.5t55 -26.5q17 -4 36.5 0t37.5 14t32.5 25.5t22.5 35.5q15 40 -5 68t-68 61
q-24 16 -40 39t-22.5 50t-3 55t19.5 55q22 38 60 62t82 30l21 60h34l-20 -58v0z" />
    <glyph glyph-name="percent" unicode="%" horiz-adv-x="673" 
d="M657 390l-181 -122h1q57 0 87.5 -20.5t37.5 -51t-6 -66t-42.5 -66t-73.5 -51t-97 -20.5q-41 0 -69 9.5t-45 26t-23 38t-2 45.5l-166 -112h-84l181 122h-2q-57 0 -87.5 20.5t-37.5 51t6 66t42.5 66t73 51t97.5 20.5q41 0 69 -10t45 -26.5t22.5 -38t1.5 -45.5l167 113h85z
M465 227q-18 0 -34.5 -14t-30 -35t-22.5 -45.5t-11.5 -45.5t3.5 -35t22 -14t32 14t30 35t23.5 45.5t12.5 45.5t-2.5 35t-22.5 14zM185 163q17 0 34 14t30.5 35t22.5 45.5t11.5 45.5t-3.5 35t-22 14t-32 -14t-30 -35t-23.5 -45.5t-12.5 -45.5t2.5 -35t22.5 -14z" />
    <glyph glyph-name="ampersand" unicode="&#x26;" horiz-adv-x="652" 
d="M703 232q-7 -20 -20.5 -44t-33.5 -47.5t-45.5 -44.5t-55.5 -36q-15 -32 -39 -61.5t-58.5 -52.5t-80 -37t-102.5 -15q-76 -1 -128.5 24t-82.5 65t-38 89t5 94.5t46.5 82.5t86.5 53q-2 12 -2 24.5t1 24.5q3 36 17.5 65t36.5 49.5t49 31.5t55 11.5t54 -10.5t47 -34
q24 -25 27.5 -60t-11.5 -67t-48.5 -54.5t-82.5 -21.5q59 -80 118 -110.5t111 -22.5q3 14 4 28.5t0 28.5q-17 -12 -39 -12q-28 0 -47.5 19.5t-19.5 46.5q0 28 19.5 47.5t47.5 19.5t45 -17.5t25 -42.5t9 -53t-1 -50q30 15 54 43.5t41 67.5zM286 -53q33 -2 63 4t55.5 18.5
t47 30.5t37.5 40q-52 -10 -110.5 7.5t-121.5 76.5q-64 60 -87 127q-27 -17 -40 -45t-13.5 -60.5t11.5 -66.5t34 -62t53.5 -47.5t70.5 -22.5zM371 440q-26 22 -52.5 16t-44 -29t-21 -57t16.5 -68q40 -4 68.5 10t42.5 36.5t12.5 48t-22.5 43.5z" />
    <glyph glyph-name="quotesingle" unicode="'" horiz-adv-x="223" 
d="M141 437q-8 12 -8 32q0 28 19.5 47.5t47.5 19.5t47.5 -19.5t19.5 -47.5q0 -23 -10.5 -39.5t-28 -32.5t-40.5 -35.5t-48 -48.5l-35 14z" />
    <glyph glyph-name="parenleft" unicode="(" horiz-adv-x="409" 
d="M249 -202q-75 64 -111.5 143.5t-36 164.5t37 171t108 164.5t177.5 144t245 109.5l12 -55q-101 -33 -180.5 -92t-137 -132.5t-91.5 -154.5t-44.5 -158.5t4.5 -144t56 -110.5z" />
    <glyph glyph-name="parenright" unicode=")" horiz-adv-x="409" 
d="M243 695q75 -64 111.5 -143.5t36 -164.5t-37 -171t-108 -164.5t-177.5 -144t-245 -109.5l-12 55q101 33 180.5 92t137 132.5t91.5 154.5t44.5 158.5t-4.5 144t-56 110.5z" />
    <glyph glyph-name="asterisk" unicode="*" horiz-adv-x="450" 
d="M397 548l-57 -92l121 66l8 -61l-117 -42l64 -55l-47 -62l-58 86l-24 -100h-74l49 93l-108 -71l-7 62l107 51l-65 44l46 61l59 -73l28 93h75z" />
    <glyph glyph-name="plus" unicode="+" 
d="M297 319l-41 -96h105l-29 -69h-105l-40 -95h-74l40 95h-103l29 69h103l40 96h75z" />
    <glyph glyph-name="comma" unicode="," horiz-adv-x="259" 
d="M41 27q-8 12 -8 32q0 28 19.5 47.5t47.5 19.5t47.5 -19.5t19.5 -47.5q0 -23 -10.5 -39.5t-28 -32.5t-40.5 -35.5t-48 -48.5l-35 14z" />
    <glyph glyph-name="hyphen" unicode="-" horiz-adv-x="270" 
d="M79 223h162l-29 -69h-162z" />
    <glyph glyph-name="period" unicode="." horiz-adv-x="259" 
d="M167 59q0 -27 -19.5 -46.5t-47.5 -19.5t-47.5 19.5t-19.5 46.5q0 28 19.5 47.5t47.5 19.5t47.5 -19.5t19.5 -47.5z" />
    <glyph glyph-name="slash" unicode="/" horiz-adv-x="395" 
d="M547 548l-539 -622h-84l538 622h85z" />
    <glyph glyph-name="zero" unicode="0" horiz-adv-x="413" 
d="M-703 -358q-169 0 -358.5 8t-390 17t-406 14.5t-405.5 1.5t-389.5 -22.5t-358 -58t-310 -104t-246.5 -161.5q-17 41 -59 75.5t-105 52.5t-144 15.5t-176 -36.5q49 85 140 164t223 141t305 101.5t386 45.5q277 8 525 -1.5t476.5 -27.5t442.5 -40t423.5 -38t418.5 -22
t428 8q111 7 195 31.5t142.5 59.5t93.5 75.5t48 80.5t4.5 74.5t-35.5 56.5q-40 32 -82 19t-69 -70l-16 28q16 34 38.5 52.5t47 24.5t50 0.5t47.5 -19.5q31 -20 52.5 -53.5t26 -75.5t-11 -89.5t-58 -93.5t-114.5 -88.5t-180.5 -75t-256.5 -51.5t-342 -19z" />
    <glyph glyph-name="one" unicode="1" horiz-adv-x="300" 
d="M-188 -302q-138 0 -236 -2.5t-168.5 -11t-119.5 -24t-89 -41t-77 -62.5t-84 -88l-383 426h1212q112 0 190.5 26t118.5 64.5t38.5 83.5t-49.5 83q-40 32 -82 19.5t-68 -69.5l-17 28q16 33 38.5 52t47.5 25t50.5 1t46.5 -20q50 -35 76.5 -85t26 -104.5t-29 -108t-86 -96.5
t-146.5 -69.5t-210 -26.5z" />
    <glyph glyph-name="two" unicode="2" horiz-adv-x="391" 
d="M-245 -309q-187 0 -334 -1.5t-262.5 -5.5t-203 -11.5t-155 -19.5t-119 -29t-94.5 -40.5t-81.5 -54.5t-80.5 -70l-383 436h1787q127 0 212.5 26.5t128.5 65.5t42 84t-47 82q-20 16 -41 20.5t-41 -2t-38 -24t-31 -45.5l-16 28q16 34 38.5 52.5t47 24.5t50 1t46.5 -20
q51 -34 74.5 -84t18.5 -105.5t-39 -110t-98 -98.5t-159 -71.5t-222 -27.5z" />
    <glyph glyph-name="three" unicode="3" horiz-adv-x="391" 
d="M-301 -314q-270 0 -484 -1.5t-382 -5.5t-295.5 -11.5t-224.5 -19.5t-169 -29.5t-129.5 -41.5t-105 -55.5t-96.5 -71.5l-383 445h2362q141 0 233.5 27t138.5 66.5t45.5 84t-44.5 80.5q-40 32 -82 19t-68 -70l-17 28q16 34 38.5 52.5t47.5 24.5t50 1t47 -19
q51 -33 72 -83.5t11.5 -106.5t-50 -112t-111 -100.5t-171.5 -72.5t-233 -28z" />
    <glyph glyph-name="four" unicode="4" horiz-adv-x="412" 
d="M-358 -320q-353 0 -634 -1.5t-501.5 -5.5t-387.5 -11.5t-294 -19.5t-219.5 -29.5t-164 -42t-128.5 -56.5t-112 -73l-384 454h2937q156 0 255.5 27.5t148.5 67t49.5 84t-42.5 78.5q-20 16 -41 21t-41 -1.5t-38 -24t-31 -45.5l-16 28q16 33 38.5 51.5t47 24.5t49.5 1
t47 -19q51 -33 69.5 -83t4 -106.5t-60.5 -113.5t-123 -102.5t-184 -74t-244 -28.5z" />
    <glyph glyph-name="five" unicode="5" horiz-adv-x="373" 
d="M-414 -326q-437 0 -784 -1.5t-620.5 -5.5t-480.5 -11t-363.5 -19.5t-270 -30.5t-199 -42.5t-151.5 -57t-128 -74.5l-384 463h3512q171 0 277.5 28t158.5 68t52.5 84.5t-40.5 77.5q-40 32 -82 19t-68 -70l-17 28q16 34 38.5 52.5t47 24.5t50 0.5t47.5 -19.5
q52 -32 67.5 -82.5t-3.5 -107.5t-71 -115t-135.5 -104.5t-197 -75.5t-255.5 -29z" />
    <glyph glyph-name="six" unicode="6" horiz-adv-x="420" 
d="M-302 -349q-143 14 -243.5 9.5t-169 -27t-111 -62t-68.5 -96.5q-16 41 -57 76.5t-103.5 56t-143.5 20t-177 -31.5q69 74 137 130.5t138.5 95.5t145 61t157.5 26q77 4 137 -2.5t111.5 -19t97 -28.5t94 -30t102.5 -23.5t122 -9.5q75 0 135 19.5t104 50.5t70.5 70t34.5 78.5
t-3 76t-43 61.5q-40 32 -82 19.5t-69 -69.5l-16 28q16 33 38.5 52t47.5 25t50.5 1t46.5 -20q50 -35 72.5 -92t14.5 -121t-46.5 -127.5t-109 -111.5t-174 -73t-240.5 -12z" />
    <glyph glyph-name="seven" unicode="7" horiz-adv-x="320" 
d="M-402 -351q-127 7 -249.5 11t-235.5 1t-214.5 -15t-188 -37.5t-156 -66.5t-117.5 -101q-16 41 -57 76.5t-103.5 55t-143.5 18t-177 -32.5q64 77 137.5 139t159.5 107t185.5 71t214.5 31q127 5 234 -2.5t202.5 -21.5t183.5 -31.5t176.5 -32t181 -23t198.5 -5.5
q84 2 150 22.5t113.5 52.5t76 72t38 79.5t-1 75t-40.5 60.5q-40 32 -82 19.5t-69 -69.5l-16 28q16 33 38.5 52t47.5 25t50 0.5t47 -19.5q48 -33 70.5 -88.5t13.5 -118.5t-51.5 -126.5t-123 -112.5t-202.5 -76t-290 -17z" />
    <glyph glyph-name="eight" unicode="8" horiz-adv-x="420" 
d="M-502 -353q-160 5 -328.5 12t-334.5 8t-323.5 -8.5t-296.5 -37.5t-253 -80t-193 -135q-17 41 -58.5 76t-103.5 54.5t-143 17.5t-177 -34q59 79 138.5 147t181 118.5t225 81.5t271.5 36q177 6 331 -2.5t294 -23.5t270 -34t258.5 -34t260 -23t275.5 -1q93 4 165 26
t123.5 54.5t82 73t41 80t0.5 74.5t-39 59q-40 32 -82 19.5t-69 -69.5l-16 28q16 33 38.5 52t47.5 25t50 0.5t47 -19.5q46 -31 68.5 -84.5t13 -116t-56 -126t-138 -113.5t-232 -79t-338.5 -22z" />
    <glyph glyph-name="nine" unicode="9" horiz-adv-x="420" 
d="M-603 -356q-144 2 -301.5 8.5t-320.5 12.5t-327.5 9t-323.5 -3t-308 -24t-280.5 -52.5t-242 -89t-192.5 -133.5q-17 41 -59 75.5t-104.5 53.5t-143.5 16.5t-176 -35.5q54 82 139.5 155.5t202 130t265 91t328.5 40.5q227 7 428.5 -1.5t385.5 -25.5t356 -37t340.5 -36
t339 -22.5t351.5 3.5q102 5 180 28.5t133 57t88 74t44.5 80.5t2.5 75t-37 58q-40 32 -82 19t-69 -70l-16 28q16 33 38.5 51.5t47 24.5t50 1t47.5 -19q33 -21 54.5 -56.5t26.5 -78t-10 -90.5t-53.5 -94.5t-104.5 -88t-163.5 -73t-229.5 -48.5t-304 -15z" />
    <glyph glyph-name="colon" unicode=":" horiz-adv-x="259" 
d="M148 59q0 -27 -19.5 -46.5t-47.5 -19.5t-47.5 19.5t-19.5 46.5q0 28 19.5 47.5t47.5 19.5t47.5 -19.5t19.5 -47.5zM258 319q0 -27 -19.5 -46.5t-47.5 -19.5t-47.5 19.5t-19.5 46.5q0 28 19.5 47.5t47.5 19.5t47.5 -19.5t19.5 -47.5z" />
    <glyph glyph-name="semicolon" unicode=";" horiz-adv-x="259" 
d="M258 319q0 -27 -19.5 -46.5t-47.5 -19.5t-47.5 19.5t-19.5 46.5q0 28 19.5 47.5t47.5 19.5t47.5 -19.5t19.5 -47.5zM21 27q-8 12 -8 32q0 28 19.5 47.5t47.5 19.5t47.5 -19.5t19.5 -47.5q0 -23 -10.5 -39.5t-28 -32.5t-40.5 -35.5t-48 -48.5l-35 14z" />
    <glyph glyph-name="less" unicode="&#x3c;" horiz-adv-x="395" 
d="M114 275l294 141l23 -57l-270 -127l116 -134l-64 -73l-139 184z" />
    <glyph glyph-name="equal" unicode="=" horiz-adv-x="507" 
d="M110 213h304l-29 -69h-304zM167 340h304l-29 -69h-304z" />
    <glyph glyph-name="greater" unicode="&#x3e;" horiz-adv-x="395" 
d="M331 166l-294 -141l-23 57l270 127l-116 134l64 73l139 -184z" />
    <glyph glyph-name="question" unicode="?" horiz-adv-x="369" 
d="M167 59q0 -27 -19.5 -46.5t-47.5 -19.5t-47.5 19.5t-19.5 46.5q0 28 19.5 47.5t47.5 19.5t47.5 -19.5t19.5 -47.5zM147 217q34 9 69 32t64 53t49.5 62t26 59t-6.5 44.5t-47 17.5q-13 0 -27.5 -4t-29.5 -11q16 -10 19.5 -31.5t-7.5 -48.5q-16 -40 -44 -62.5t-61 -22.5
q-31 0 -42 25t6 60q19 42 50.5 73t67.5 51.5t72.5 30.5t64.5 10q61 0 89 -23.5t28 -60t-25 -80t-69 -83t-105 -69.5t-133 -40z" />
    <glyph glyph-name="at" unicode="@" horiz-adv-x="692" 
d="M396 390q39 0 59 -28l8 20h110q-3 -9 -12 -31t-21 -50.5t-25 -60t-24.5 -59.5t-20 -48.5t-10.5 -26.5q-8 -19 1.5 -26.5t26.5 -4.5t37.5 17.5t34.5 40.5q38 69 58.5 138t15.5 124t-41 89.5t-110 34.5q-63 0 -123 -27.5t-113.5 -73t-97 -103.5t-72.5 -118.5t-40.5 -118.5
t-1.5 -103.5t44.5 -73t98.5 -27.5q46 0 90 13.5t86 37.5l11 -44q-44 -23 -91.5 -35.5t-97.5 -12.5q-79 0 -124 31.5t-61 82.5t-6.5 117t40 134t79 134t109.5 117t132.5 82.5t147.5 31.5q63 0 104.5 -20t64 -55t27.5 -81.5t-5.5 -99t-35 -108t-61.5 -108.5q-13 -18 -32.5 -36
t-42.5 -31.5t-47.5 -22t-48.5 -8.5q-31 0 -50.5 13t-24.5 39q-29 -24 -58.5 -38t-56.5 -14q-34 0 -55.5 15.5t-30.5 42.5t-5.5 63.5t21.5 77.5q43 102 107 150t133 48zM346 94q3 13 9 26l83 202q-10 15 -29 15t-35.5 -7.5t-33 -24t-33.5 -43.5t-36 -66q-15 -29 -23.5 -54.5
t-9.5 -44.5t6.5 -30t24.5 -11t37 10t40 28z" />
    <glyph glyph-name="A" unicode="A" horiz-adv-x="481" 
d="M500 105q-8 -24 -25 -44.5t-38.5 -36.5t-45.5 -25t-48 -9q-49 0 -70.5 32.5t0.5 95.5l16 43h-127l-34 -74q-11 -27 -5 -36.5t29 -9.5h9l-32 -43l-22 -4q-10 -2 -20.5 -3t-20.5 -1q-57 0 -63 31.5t39 98.5l27 40.5t34.5 51.5t32.5 48t21 31q39 54 69.5 97t59 73t59 46
t68.5 16q24 0 42.5 -8t28.5 -24t11 -40t-10 -55l-102 -291q-7 -19 3.5 -27.5t27.5 -5t36.5 18.5t30.5 42zM306 212l70 197q9 26 6 40.5t-15 14t-32.5 -17.5t-45.5 -53q-26 -38 -52.5 -86.5t-49.5 -94.5h119z" />
    <glyph glyph-name="B" unicode="B" horiz-adv-x="463" 
d="M351 523q36 0 64.5 -9.5t45.5 -27.5t22 -43.5t-5 -57.5q-6 -19 -19.5 -36.5t-31.5 -32.5t-37.5 -26.5t-36.5 -17.5q22 -4 38.5 -17.5t25.5 -33.5t8.5 -45t-10.5 -52q-67 -166 -277 -133q-18 3 -28 7h-108l171 418l97 60q-44 -10 -93.5 -31t-81.5 -53l-20 21l52 72
q51 21 104.5 29.5t119.5 8.5zM292 249q-27 -9 -46.5 -10t-32.5 3l-84 -204q13 -6 31 -7q22 -3 45 5t43.5 23t37 35t26.5 43q24 54 16.5 83t-36.5 29zM332 486q-5 0 -10 -0.5t-10 -1.5l-79 -191q14 1 37 -2q36 0 64.5 30.5t42.5 71.5q7 23 5.5 40.5t-9 29t-18.5 17.5t-23 6z
" />
    <glyph glyph-name="C" unicode="C" horiz-adv-x="376" 
d="M348 103q-15 -24 -35.5 -44.5t-47 -36.5t-60 -25t-76.5 -9q-86 0 -114 67t5 189q18 66 49 118t71 87.5t87 54.5t97 19q35 0 57.5 -14.5t32 -37.5t7 -51.5t-17.5 -55.5q-13 -25 -27 -41.5t-27.5 -26t-24.5 -13.5t-18 -4q-29 0 -37.5 23t4.5 55q14 37 39 57t55 20
q9 0 13 -1q3 7 2 15t-6.5 15t-17.5 11.5t-31 4.5q-35 0 -63.5 -17.5t-52 -47t-42 -67.5t-32.5 -79q-16 -47 -24 -88t-3.5 -71t24 -47t58.5 -17q45 0 81 25.5t58 60.5l17 -28v0z" />
    <glyph glyph-name="D" unicode="D" horiz-adv-x="477" 
d="M351 523q87 0 122.5 -61t2.5 -183q-16 -58 -42.5 -113.5t-66.5 -97.5t-96 -64t-132 -13q-20 3 -30 7h-107l171 418l97 60q-46 -11 -94.5 -32t-79.5 -52l-20 21l52 72q51 21 104 29.5t119 8.5zM343 486q-7 0 -14.5 -0.5t-15.5 -1.5l-184 -446l14 -4t17 -3q33 -4 63 15
t55.5 52t45.5 74.5t34 82.5q17 51 25 93t6.5 73t-13 48t-33.5 17z" />
    <glyph glyph-name="E" unicode="E" horiz-adv-x="444" 
d="M526 439q-29 -17 -55 -12t-51.5 18t-51.5 27t-53 14h-2l-78 -187h134l-18 -51h-137q-18 -44 -35 -84.5t-29 -71.5q13 10 29.5 18t36.5 8q17 0 34.5 -9t35.5 -19t36.5 -18.5t38 -6.5t40.5 17t43 51l17 -28q-31 -54 -72.5 -84t-83.5 -30q-26 0 -46.5 10.5t-37.5 23.5
t-31 23.5t-28 10.5q-10 0 -21 -5.5t-21.5 -13.5t-20 -17t-15.5 -15l-4 -5l-5 -5h-73l171 418l106 66q-20 -4 -44.5 -12t-49.5 -19t-48 -26t-41 -33l-20 21l52 72q25 10 48 17.5t47 12t50.5 6.5t59.5 2q20 0 45 -3t54.5 -5t62 -1t68.5 9z" />
    <glyph glyph-name="F" unicode="F" horiz-adv-x="370" 
d="M493 439q-28 -17 -54.5 -12t-52 18t-51 27t-52.5 14h-2l-92 -223h152l-19 -51h-154l-51 -125q-8 -21 -2 -33.5t29 -12.5h9l-20 -43q-8 -2 -17 -4q-8 -2 -17.5 -3t-19.5 -1q-58 0 -72 31.5t13 98.5l121 296l106 66q-20 -4 -44.5 -12t-49.5 -19t-48 -26t-41 -33l-20 21
l52 72q25 10 48 17.5t47 12t50.5 6.5t59.5 2q20 0 45 -3t54.5 -5t62 -1t67.5 9z" />
    <glyph glyph-name="G" unicode="G" horiz-adv-x="400" 
d="M361 196q-8 -21 -18.5 -50t-22 -58t-21 -53.5t-14.5 -36.5q-28 -68 -67 -99t-95 -31q-10 0 -18.5 1t-14.5 3q-8 2 -14 4l15 44h10q22 0 38 12t24 33l16 41q-15 -8 -33.5 -13t-40.5 -5q-31 0 -55 17.5t-36.5 50.5t-11 80.5t22.5 107.5q45 132 124 205.5t179 73.5
q36 0 58 -14.5t32 -37.5t7 -51.5t-17 -55.5q-14 -25 -28 -41.5t-27 -26t-24 -13.5t-18 -4q-29 0 -37.5 23t3.5 55q14 37 39 57t55 20q9 0 13 -1q3 7 2 15t-6.5 15t-17.5 11.5t-31 4.5q-34 0 -63 -17.5t-52.5 -47t-42 -67.5t-31.5 -79q-16 -47 -24.5 -87.5t-8.5 -70.5
t7.5 -48.5t24.5 -21.5q13 -2 25.5 5.5t24 21.5t22.5 33t20 40q5 13 9.5 24.5t8.5 19.5q4 10 7 18l8 20l8 18h137l-18 -44h-32z" />
    <glyph glyph-name="H" unicode="H" horiz-adv-x="452" 
d="M284 212h-116l-51 -125q-8 -21 -2 -33.5t29 -12.5h10l-21 -43q-8 -2 -17 -4q-8 -2 -17.5 -3t-19.5 -1q-57 0 -71.5 31.5t12.5 98.5q4 10 14 34.5t23 56t27 66t26.5 65.5t22 54t13.5 32q9 20 2.5 32.5t-29.5 12.5h-9l20 43q8 2 17 4q8 2 17.5 3t19.5 1q58 0 72 -31.5
t-13 -98.5l-54 -131h116l67 165q9 20 3 32.5t-29 12.5h-10l20 43q8 2 17 4q8 2 17.5 3t20.5 1q57 0 71.5 -31.5t-13.5 -98.5l-117 -289q-8 -20 2 -28.5t27.5 -5t37.5 19t33 42.5l17 -28q-10 -24 -27.5 -44.5t-39 -36.5t-46 -25t-48.5 -9t-41.5 8.5t-26.5 24.5t-8 40t14 55z
" />
    <glyph glyph-name="I" unicode="I" horiz-adv-x="252" 
d="M310 479h-37l-151 -374q-10 -25 3 -33t35.5 -3t48.5 21.5t43 42.5l17 -28q-14 -26 -35.5 -47t-46 -36t-50 -23.5t-49.5 -8.5t-43.5 8.5t-30 24.5t-11 40t12.5 55q2 6 11 27.5t21.5 52t27.5 68t30.5 75.5t30 74t25.5 64h-43l18 44h191z" />
    <glyph glyph-name="J" unicode="J" horiz-adv-x="386" 
d="M107 218q29 0 38 -23t-4 -55q-14 -34 -36.5 -54t-49.5 -23q4 -16 17 -25.5t33 -9.5h5q26 2 40.5 20t23.5 38q2 5 13.5 34t28 69.5t36 87.5t36.5 89t29.5 73t16.5 40h-77l21 44h224l-22 -44h-46q-8 -21 -20.5 -53.5t-26.5 -69.5t-29 -75.5t-28 -71.5t-22.5 -57.5
t-12.5 -32.5q-28 -68 -72 -99t-108 -31h-4q-35 1 -58.5 14t-36 34.5t-13.5 48t10 54.5q15 37 39.5 57.5t54.5 20.5z" />
    <glyph glyph-name="K" unicode="K" horiz-adv-x="442" 
d="M117 87q-8 -21 -2 -33.5t29 -12.5h10l-21 -43q-8 -2 -17 -4q-8 -2 -17.5 -3t-19.5 -1q-57 0 -71.5 31.5t12.5 98.5q4 10 14 34.5t23 56t27 66t26.5 65.5t22 54t13.5 32q9 20 2.5 32.5t-29.5 12.5h-9l20 43q8 2 17 4q8 2 17.5 3t19.5 1q58 0 72 -31.5t-13 -98.5l-41 -98
q13 6 29.5 7.5t37.5 -5.5q45 35 69 71.5t35 61.5q12 28 1.5 40.5t-42.5 4.5l15 40q8 1 17 3q8 2 17 3t20 1q23 0 42.5 -7.5t31 -20.5t13 -31.5t-10.5 -40.5q-23 -42 -71.5 -82t-113.5 -78l34 -158q7 -34 35 -34q15 0 40 15.5t40 46.5l17 -28q-10 -24 -27.5 -44.5
t-39.5 -36.5t-46.5 -25t-48.5 -9q-49 0 -67 32.5t-14 95.5l5 102q-32 -1 -42 16l-61 -149v0z" />
    <glyph glyph-name="L" unicode="L" horiz-adv-x="424" 
d="M2 -2q42 99 75 182l28 70t26 64t21 50.5t12 29.5q28 67 67 98.5t95 30.5q10 0 18 -1t15 -3l14 -4l-15 -43h-10q-22 0 -38 -12.5t-24 -32.5l-136 -335q13 10 29.5 18t36.5 8q17 0 33 -9t32 -19t31.5 -18.5t33 -6.5t37 17t41.5 51l17 -28q-31 -54 -72.5 -84t-83.5 -30
q-26 0 -43.5 10.5t-30.5 23.5t-24 23.5t-25 10.5q-10 0 -21 -5.5t-21.5 -13.5t-20 -17t-15.5 -15l-4 -5l-5 -5h-73v0z" />
    <glyph glyph-name="M" unicode="M" horiz-adv-x="595" 
d="M483 349q-29 -36 -60 -75.5t-59 -75t-51 -64.5t-35 -44q-21 -27 -41 -38t-35.5 -7t-24.5 23t-8 52q0 10 1 35t2 57t2 67t2 66l-107 -262q-12 -30 -3.5 -41.5t40.5 -3.5l-19 -39q-8 -3 -17 -5q-8 -2 -18 -3.5t-20 0.5q-19 3 -26.5 19.5t1.5 39.5l157 382q7 17 7 27
q-11 14 -35 14h-10l4 43q7 2 16 4q8 2 16.5 3t19.5 1q57 0 83 -31.5t24 -98.5l-8 -229l235 298q-8 10 -27 10h-10l20 43q8 2 17 4q8 2 17.5 3t20.5 1q57 0 71.5 -31.5t-13.5 -98.5l-117 -289q-8 -20 2 -28.5t27.5 -5t37.5 19t33 42.5l17 -28q-10 -24 -27.5 -44.5t-39 -36.5
t-46 -25t-48.5 -9t-41.5 8.5t-26.5 24.5t-8 40t14 55z" />
    <glyph glyph-name="N" unicode="N" horiz-adv-x="482" 
d="M528 424q-5 -12 -14.5 -32.5t-21 -46.5t-25 -55.5t-26.5 -58.5q-31 -69 -66 -148q-10 -30 -0.5 -41.5t41.5 -3.5l-15 -39q-9 -3 -21 -5q-11 -2 -25.5 -3t-32.5 -1q-57 0 -86.5 31.5t-34.5 98.5l-18 237q-16 -42 -30.5 -85t-25.5 -80.5t-18 -66.5t-9 -42q-4 -30 2.5 -42
t38.5 -4l-15 -39q-8 -2 -17 -4q-8 -2 -17.5 -3t-19.5 -1q-47 0 -63 27.5t4 73.5q5 11 14.5 32t21 47t25 55.5t26.5 58.5q31 68 66 147q2 7 3 12.5t2 10.5q-13 19 -40 19h-10v43q7 2 15 4q7 2 16 3t20 1q57 0 86 -31.5t34 -98.5q1 -11 2.5 -36.5t4 -57.5t5 -67.5t5 -66
t4 -52.5t1.5 -27q2 -15 7 -24l111 369q10 30 0.5 41.5t-41.5 3.5l15 39q8 2 17 4q8 2 17 3t20 1q47 0 67.5 -27t0.5 -73z" />
    <glyph glyph-name="O" unicode="O" horiz-adv-x="460" 
d="M332 523q41 0 71.5 -15.5t47 -46t17 -76.5t-18.5 -106q-18 -58 -45 -111t-64.5 -93t-86.5 -63.5t-112 -23.5q-44 0 -75 16t-47.5 46.5t-16 76.5t20.5 106q19 56 43.5 108t60 92.5t85.5 65t120 24.5zM328 255q16 48 27 89.5t12.5 73t-8 49.5t-34.5 18q-27 0 -53 -20.5
t-49.5 -53t-43.5 -73.5t-34 -82q-16 -47 -27.5 -88t-13 -71.5t8.5 -48t36 -17.5q29 0 55.5 20t49 51.5t41.5 71.5t33 81z" />
    <glyph glyph-name="P" unicode="P" horiz-adv-x="401" 
d="M320 523q36 0 65 -14t46 -40t19.5 -62.5t-13.5 -80.5q-15 -41 -41.5 -74t-62.5 -53.5t-81 -26.5t-97 7l-38 -92q-8 -21 -2 -33.5t29 -12.5h10l-21 -43q-8 -2 -17 -4q-8 -2 -17.5 -3t-19.5 -1q-57 0 -71.5 31.5t12.5 98.5l121 296l98 60q-44 -10 -93.5 -31t-81.5 -53
l-20 21l52 72q51 21 104.5 29.5t119.5 8.5zM301 486q-5 0 -10 -0.5t-10 -1.5l-109 -263q31 -4 57 7t47.5 31.5t37.5 46.5t26 51q21 55 13 92t-52 37z" />
    <glyph glyph-name="Q" unicode="Q" horiz-adv-x="474" 
d="M332 523q40 0 70.5 -15.5t47 -46t17.5 -76.5t-18 -106q-18 -57 -43.5 -107.5t-60.5 -90.5q14 -9 28.5 -13.5t30 -1t33 19t37.5 47.5l17 -28q-31 -54 -73 -84t-84 -30q-23 0 -39 8t-29 19q-27 -14 -58.5 -22t-67.5 -8q-43 0 -74.5 16t-47.5 46.5t-15.5 76.5t20.5 106
q19 56 43.5 108t60 92.5t85.5 65t120 24.5zM327 255q16 48 27 89.5t13 73t-7.5 49.5t-34.5 18q-27 0 -53 -20.5t-49.5 -53t-43.5 -73.5t-34 -82q-9 -26 -16.5 -49t-12.5 -45q13 11 30.5 19.5t38.5 8.5q29 0 54 -15.5t41 -29.5q14 26 25.5 53.5t21.5 56.5zM131 132
q-9 0 -23 -7q-8 -43 0.5 -68.5t40.5 -25.5q20 0 38.5 9.5t35.5 26.5q-4 8 -12 19t-19 21.5t-26.5 17.5t-34.5 7z" />
    <glyph glyph-name="R" unicode="R" horiz-adv-x="441" 
d="M319 523q74 0 111 -36.5t17 -101.5q-11 -34 -50 -74t-105 -70l33 -136q7 -34 35 -34q15 0 40 15.5t40 46.5l17 -28q-10 -24 -27.5 -44.5t-39.5 -36.5t-46.5 -25t-48.5 -9q-49 0 -65.5 32.5t-15.5 95.5l1 103q-27 0 -37 14l-61 -148q-8 -21 -2 -33.5t29 -12.5h10l-21 -43
q-8 -2 -17 -4q-8 -2 -17.5 -3t-19.5 -1q-57 0 -71.5 31.5t12.5 98.5l121 296l98 60q-44 -10 -93.5 -31t-81.5 -53l-20 21l52 72q51 21 104 29.5t119 8.5zM301 486q-5 0 -10 -0.5t-10 -1.5l-79 -190q14 8 33.5 9t43.5 -7q26 9 39.5 32t26.5 65q7 23 6 40.5t-8.5 29
t-18.5 17.5t-23 6z" />
    <glyph glyph-name="S" unicode="S" horiz-adv-x="386" 
d="M332 520q25 -5 43.5 -19.5t26.5 -35t5.5 -46.5t-19.5 -55q-18 -32 -42 -43t-42 0t-20.5 35.5t11.5 48.5q14 23 36.5 32.5t40.5 -1.5q1 17 -13 31t-43 19q-34 5 -64 -13t-43 -49q-15 -34 2 -66t56 -57q53 -32 76 -77t0 -104q-13 -31 -37.5 -58t-57.5 -45.5t-72 -26.5
t-80 -2q-31 5 -52.5 22.5t-32 41.5t-9 52.5t15.5 54.5q15 29 39.5 45t46.5 4q18 -10 20.5 -35t-11.5 -48q-13 -22 -33.5 -31.5t-38.5 -2.5q-3 -19 18 -38.5t55 -26.5q17 -4 36.5 0t37.5 14t32.5 25.5t22.5 35.5q15 40 -5 68t-68 61q-24 16 -40 39t-22.5 50t-3 55t19.5 55
q15 26 38.5 46t51.5 32t58.5 15.5t59.5 -2.5z" />
    <glyph glyph-name="T" unicode="T" horiz-adv-x="330" 
d="M443 439q-21 -13 -39 -13.5t-34.5 6t-32.5 17t-33 19.5l-156 -381q-8 -21 -2.5 -33.5t28.5 -12.5h10l-20 -43q-8 -2 -17 -4q-8 -2 -18 -3t-20 -1q-57 0 -71 31.5t13 98.5l138 338l69 27q-2 0 -4 0.5t-4 0.5q-29 2 -59.5 -5.5t-60.5 -21.5t-57.5 -34t-50.5 -42l-20 21
l80 105q51 21 93.5 22.5t93.5 -8.5q20 -4 42 -7.5t47.5 -4.5t55.5 1.5t66 10.5z" />
    <glyph glyph-name="U" unicode="U" horiz-adv-x="469" 
d="M269 130q-21 -30 -44.5 -55.5t-47.5 -44t-48.5 -29.5t-49.5 -11q-58 0 -72 31.5t13 98.5q4 10 14 34.5t23 56t27 66t26.5 65.5t22 54t13.5 32q8 20 2 32.5t-29 12.5h-10l21 43q8 2 17 4q8 2 17.5 3t19.5 1q57 0 71.5 -31.5t-12.5 -98.5l-126 -307q-9 -23 -2.5 -30t24 1.5
t43.5 32t56 60.5t61.5 87.5t59.5 113.5l31 76q9 20 3 32.5t-29 12.5h-10l20 43q8 2 17 4q8 2 17.5 3t20.5 1q57 0 71 -31.5t-13 -98.5l-117 -289q-8 -20 2 -28.5t27 -5t37.5 19t33.5 42.5l17 -28q-10 -24 -27.5 -44.5t-39 -36.5t-46 -25t-48.5 -9t-41.5 8.5t-26.5 24.5
t-8 40t14 55z" />
    <glyph glyph-name="V" unicode="V" horiz-adv-x="397" 
d="M2 409q8 24 25 44.5t38.5 36t45.5 24.5t48 9q49 0 70.5 -32.5t-0.5 -94.5q-2 -6 -8.5 -24.5t-16 -45t-20.5 -58t-21.5 -62t-20.5 -57.5t-16 -44q-9 -26 -6 -40.5t15.5 -14t32.5 17.5t46 53q17 24 34.5 55t34 63t31.5 63.5t27 57.5t20.5 44t12.5 23q14 21 7 33t-30 12h-10
l32 44q11 1 22 3q9 2 20 3t21 1q58 0 63.5 -31t-39.5 -99l-27 -40.5t-34.5 -51t-32.5 -47.5t-21 -31q-39 -54 -69.5 -97t-59 -73.5t-59 -46.5t-68.5 -16q-49 0 -71 32.5t-1 95.5l103 291q6 19 -4.5 27t-27.5 5t-36.5 -18t-30.5 -42z" />
    <glyph glyph-name="W" unicode="W" horiz-adv-x="609" 
d="M213 121q8 12 21.5 38.5t24.5 51.5q13 31 26 63t25.5 61t23 53l17.5 40q9 20 3 32.5t-29 12.5h-10l20 43q8 2 17 4q8 2 17.5 3t20.5 1q57 0 70.5 -32t-12.5 -98q-13 -33 -27.5 -69.5t-29.5 -74l-30 -75t-29 -70.5q-11 -25 -8.5 -39.5t15.5 -14t34 17t46 52.5
q17 24 34.5 55t34 63t31.5 63.5t27 57.5t20.5 44t12.5 23q14 21 7 33t-30 12h-10l32 44q11 1 22 3q10 2 20.5 3t21.5 1q57 0 63 -31t-39 -99q-11 -15 -28 -40.5t-34.5 -51t-32.5 -47.5t-21 -31q-39 -54 -69.5 -97t-59 -73.5t-59 -46.5t-68.5 -16q-32 0 -54.5 14.5
t-27.5 43.5q-28 -28 -57 -43t-66 -15q-24 0 -42.5 8.5t-28.5 24.5t-11 40t10 55l102 291q7 19 -3.5 27t-27.5 5t-36.5 -18t-30.5 -42l-19 28q8 24 25 44.5t38.5 36t45.5 24.5t48 9q49 0 70.5 -32.5t-0.5 -94.5q-2 -6 -8.5 -24.5t-16 -45t-20.5 -58t-21.5 -62t-20.5 -57.5
t-16 -44q-9 -26 -6 -40.5t15 -14t32.5 17.5t45.5 53z" />
    <glyph glyph-name="X" unicode="X" horiz-adv-x="455" 
d="M214 220q-38 -29 -64 -67.5t-35 -69.5q-9 -29 0 -41.5t41 -4.5l-15 -39q-8 -2 -17 -4q-8 -2 -17.5 -3t-19.5 -1q-23 0 -42 7t-30 20.5t-13 32t9 41.5q12 25 31.5 50t45.5 47t56.5 41.5t63.5 34.5l-22 164q-3 20 -16 32.5t-36 12.5h-9l-4 43q7 2 15 4q7 2 16 3t20 1
q57 0 88.5 -31.5t40.5 -98.5l11 -80q29 28 48.5 59.5t27.5 57.5q8 29 -0.5 41t-40.5 4l15 40q8 1 17 3q8 2 17 3t20 1q23 0 42 -7t30 -20t12.5 -31.5t-8.5 -41.5q-22 -47 -68 -89t-104 -73l22 -156q3 -17 10.5 -25.5t22.5 -8.5t40 15.5t40 46.5l17 -28q-10 -24 -27.5 -44.5
t-39.5 -36.5t-46.5 -25t-48.5 -9t-38 8.5t-22 24.5t-12.5 40t-8.5 55z" />
    <glyph glyph-name="Y" unicode="Y" horiz-adv-x="322" 
d="M53 524q57 0 88.5 -31.5t40.5 -98.5l14 -101q38 30 64.5 68t35.5 70q9 29 0 41t-41 4l15 40q8 1 17 3q8 2 17 3t20 1q23 0 42 -7t30 -20t12.5 -31.5t-8.5 -41.5q-23 -51 -74.5 -95.5t-115.5 -74.5l-68 -166q-8 -21 -2 -33.5t29 -12.5h9l-20 -43q-8 -2 -17 -4
q-8 -2 -17.5 -3t-19.5 -1q-58 0 -72 31.5t13 98.5l48 119l-26 189q-2 20 -15 32.5t-36 12.5h-10l-4 43q7 2 15 4q7 2 16 3t20 1z" />
    <glyph glyph-name="Z" unicode="Z" horiz-adv-x="424" 
d="M499 439l-275 -293l-83 -32l-11 -14q12 8 25.5 13t30.5 5q26 0 58 -13.5t64.5 -21.5t62.5 -0.5t53 50.5l17 -28q-31 -54 -67.5 -84t-78.5 -30q-26 0 -49.5 9t-44 20t-38 20t-31.5 9q-13 0 -28 -8t-28 -18q-16 -11 -31 -25l-43 64l370 393l30 -6q-17 12 -35.5 23.5
t-41.5 13.5q-47 3 -91.5 -26.5t-91.5 -76.5l-20 21l80 105q45 19 77 20t64 -6q20 -4 39.5 -7.5t42 -4.5t49.5 1.5t62 10.5z" />
    <glyph glyph-name="bracketleft" unicode="[" horiz-adv-x="409" 
d="M588 683l-29 -69h-176l-257 -730h180l-29 -69h-249l305 868h255z" />
    <glyph glyph-name="backslash" unicode="\" horiz-adv-x="395" 
d="M143 548l175 -622h-74l-176 622h75z" />
    <glyph glyph-name="bracketright" unicode="]" horiz-adv-x="409" 
d="M-112 -185l29 69h176l257 730h-180l29 69h249l-305 -868h-255z" />
    <glyph glyph-name="asciicircum" unicode="^" horiz-adv-x="443" 
d="M470 598l26 -144l-120 -1l6 105l-176 -117l-36 49l203 108h97z" />
    <glyph glyph-name="underscore" unicode="_" 
d="M29 13h282l-29 -69h-282z" />
    <glyph glyph-name="grave" unicode="`" 
d="M324 431l-220 96l61 106l179 -163z" />
    <glyph glyph-name="a" unicode="a" 
d="M258 390q39 0 59 -28q3 7 4.5 12.5t3.5 7.5h110q-3 -9 -12 -31t-21 -50.5t-25 -60t-24.5 -59.5t-20 -48.5t-10.5 -26.5q-8 -19 2 -27t27 -5t37.5 18t33.5 42l17 -28q-10 -24 -27.5 -44.5t-39 -35.5t-46 -24t-48.5 -9q-31 0 -50.5 13t-24.5 39q-29 -24 -58.5 -38
t-56.5 -14q-34 0 -55.5 15.5t-30.5 42.5t-5.5 63.5t21.5 77.5q43 102 107 150t133 48zM300 323q-9 14 -29 14q-19 0 -35.5 -7.5t-33 -24t-33.5 -43.5t-36 -66q-15 -29 -23.5 -54.5t-9.5 -44.5t6.5 -30t24.5 -11t37 10t40 28q3 13 9 26z" />
    <glyph glyph-name="b" unicode="b" horiz-adv-x="391" 
d="M-55 0q51 124 91 223q17 42 33.5 82.5t30 72.5t21.5 52t9 22q9 20 3 32.5t-29 12.5h-10l21 43q8 1 17 3q8 2 17 3t20 1q57 0 71 -31t-14 -98l-25 -60q23 15 46 23.5t44 8.5q34 0 55.5 -15.5t30.5 -42.5t5.5 -63t-21.5 -77q-43 -102 -107 -150.5t-132 -48.5q-38 0 -60 27
q-5 -11 -6 -15q-1 -3 -2 -5h-109zM248 327q-17 0 -35.5 -9.5t-38.5 -26.5q-12 -29 -24.5 -60t-25 -61.5t-24.5 -59t-21 -50.5q9 -13 29 -13q38 0 69.5 31t69.5 108q14 29 22.5 55t9.5 45t-6 30t-25 11z" />
    <glyph glyph-name="c" unicode="c" horiz-adv-x="344" 
d="M361 106q-25 -53 -85.5 -83t-142.5 -30q-42 0 -71.5 15.5t-45.5 42.5t-17 63.5t15 77.5q39 97 102 147.5t140 50.5q32 0 51 -14.5t26 -37.5t2.5 -51.5t-18.5 -55.5q-13 -25 -27 -41t-27 -25.5t-24.5 -13t-18.5 -3.5q-28 0 -36.5 22t3.5 54q15 37 39.5 57t54.5 20h6.5
t5.5 -1q3 20 -5.5 33t-28.5 13t-39 -14t-36.5 -36t-32 -49.5t-24.5 -55.5q-27 -72 -8 -107t73 -35q21 0 43.5 7t43 18.5t37.5 27t28 32.5z" />
    <glyph glyph-name="d" unicode="d" 
d="M258 390q39 0 59 -28l37 90q9 20 2.5 32.5t-28.5 12.5h-10l20 43q8 1 17 3q8 2 17.5 3t19.5 1q57 0 71.5 -31t-13.5 -98l-128 -312q-7 -20 2.5 -28t27 -4.5t37.5 18.5t33 42l17 -28q-10 -24 -27.5 -44.5t-39 -35.5t-46 -24t-48.5 -9q-31 0 -50 12.5t-24 38.5
q-29 -24 -59 -37.5t-57 -13.5q-34 0 -55.5 15.5t-30.5 42.5t-5.5 63.5t21.5 77.5q44 102 107.5 150t132.5 48zM217 120q3 7 11.5 27.5t20.5 48.5t25.5 61.5t26.5 65.5q-11 14 -30 14q-37 0 -68 -31.5t-70 -109.5q-14 -29 -22.5 -54.5t-9.5 -44.5t6.5 -30t24.5 -11t36 10
t39 27q2 7 4.5 13t5.5 14z" />
    <glyph glyph-name="e" unicode="e" horiz-adv-x="344" 
d="M192 49q21 0 43.5 7t43 18.5t37.5 27t28 32.5l17 -28q-25 -53 -86 -83t-142 -30q-42 0 -71.5 15.5t-45.5 42.5t-17 63.5t15 77.5q38 97 101.5 147.5t140.5 50.5q41 0 62 -21.5t23.5 -52t-13 -65t-47.5 -61.5q-45 -37 -104 -37h-64q-13 -45 9.5 -74.5t69.5 -29.5zM231 345
q-10 -4 -23.5 -18t-27.5 -35t-28.5 -47t-25.5 -54h35q23 0 39 14t30 43q12 22 19 42t8 34t-5 20.5t-21 0.5z" />
    <glyph glyph-name="f" unicode="f" horiz-adv-x="336" 
d="M87 348q39 98 102 148.5t140 50.5q32 0 51 -14.5t26 -37t2.5 -51t-18.5 -55.5q-13 -25 -27 -41.5t-27 -26t-24.5 -13.5t-18.5 -4q-28 0 -36.5 23t3.5 55q15 36 39.5 56.5t54.5 20.5q5 0 13 -2q2 20 -6.5 33t-28.5 13t-39 -13.5t-36.5 -35.5t-32 -50t-24.5 -56l-54 -131
q61 -5 64 -75q29 1 55 8.5t47 19.5t37 27.5t26 31.5l17 -27q-22 -48 -71 -77t-117 -36q-5 -17 -11 -36.5t-16 -39.5q-44 -92 -93 -140t-97 -48t-67.5 32.5t6.5 94.5zM130 22q20 40 28 69t6.5 47.5t-11.5 27t-25 7.5l-96 -234q-8 -19 -3 -28t19 -1.5t35.5 34.5t46.5 78z" />
    <glyph glyph-name="g" unicode="g" horiz-adv-x="396" 
d="M433 382q-8 -19 -18 -44t-22 -53.5t-24 -59t-24 -59.5q-28 -68 -58 -142q-38 -97 -101 -148t-140 -51q-32 0 -51 15t-26.5 38t-3 51t19.5 55q14 23 32 40q-21 27 -21 70.5t22 97.5q44 102 108 150t133 48q37 0 57 -26l7 18h110zM133 56q15 0 32.5 8.5t35.5 22.5l98 238
q-10 12 -28 12t-34.5 -7.5t-33 -24t-33.5 -43.5t-36 -66q-15 -29 -23.5 -54.5t-9.5 -44.5t6.5 -30t25.5 -11zM89 -7q-12 0 -22 2t-19 5q-14 -10 -26 -29t-19 -48q-5 -25 7.5 -39.5t32.5 -14.5q19 0 38 13.5t36.5 35.5t32 49.5t24.5 54.5q-22 -14 -43.5 -21.5t-41.5 -7.5z
" />
    <glyph glyph-name="h" unicode="h" horiz-adv-x="385" 
d="M90 88q-8 -21 -2 -33t29 -12h10l-21 -43q-8 -2 -17 -4q-15 -3 -37 -3q-57 0 -71 31t13 97l138 341q9 20 3 32.5t-29 12.5h-10l21 43q8 1 17 3q8 2 17 3t20 1q57 0 71.5 -31t-13.5 -99l-27 -65q20 13 42.5 20.5t44.5 7.5q48 0 67 -32.5t-6 -94.5l-65 -157q-7 -19 3 -27
t27 -5t37 18t33 42l17 -28q-10 -24 -27.5 -44.5t-39 -35.5t-46 -24t-48.5 -9t-41.5 8t-26 24t-7.5 40t14 55l65 156q6 15 0.5 23.5t-17.5 9.5t-27.5 -5.5t-30.5 -20.5l-80 -195v0z" />
    <glyph glyph-name="i" unicode="i" horiz-adv-x="198" 
d="M215 106q-10 -24 -27.5 -44.5t-39 -35.5t-46 -24t-48.5 -9q-49 0 -68 32t7 95q5 12 15.5 36.5t21.5 51.5t20.5 51t14.5 35q8 20 2 32.5t-29 12.5h-10l21 43q8 2 17 4q8 2 17.5 3t19.5 1q57 0 71 -31.5t-13 -97.5q-6 -15 -16.5 -41t-21.5 -52q-12 -30 -25 -62
q-8 -20 2 -28t27.5 -4.5t37.5 18.5t33 42zM257 487q0 -25 -18 -43t-43 -18q-26 0 -44 18t-18 43t18 43t44 18q25 0 43 -18t18 -43z" />
    <glyph glyph-name="j" unicode="j" horiz-adv-x="178" 
d="M23 -79q-9 -20 -3 -32.5t29 -12.5h10l-21 -43q-8 -2 -17 -4q-8 -2 -17.5 -3t-19.5 -1q-57 0 -70.5 31.5t13.5 97.5q4 10 14.5 37t25 62t30 73.5t29.5 73t24.5 60t14.5 34.5q9 20 2.5 32.5t-29.5 12.5h-10l21 43q8 2 17 4q8 2 17.5 3t19.5 1q57 0 71 -31.5t-13 -97.5
q-4 -11 -15.5 -39t-26 -64t-30.5 -75.5t-30 -73.5t-24 -58.5t-12 -29.5zM257 487q0 -25 -18 -43t-43 -18q-26 0 -44 18t-18 43t18 43t44 18q25 0 43 -18t18 -43z" />
    <glyph glyph-name="k" unicode="k" horiz-adv-x="372" 
d="M272 106q-8 -19 1.5 -27t27 -5t37.5 18t34 42l16 -28q-9 -24 -26.5 -44.5t-39.5 -35.5t-46 -24t-48 -9q-49 0 -68 34t6 93q6 14 4.5 25t-8 17t-18 5.5t-24.5 -9.5l-29 -70q-8 -21 -2 -33t29 -12h9l-20 -43q-8 -2 -17 -4q-15 -3 -37 -3q-58 0 -72 31t13 97q4 10 15.5 37
t25.5 62t30 74t30 73.5t24 60t14 34.5q9 20 3 32.5t-29 12.5h-10l20 43q8 1 17 3q8 2 17.5 3t19.5 1q57 0 71 -31t-13 -99l-89 -218l101 35q-10 10 -10.5 27.5t7.5 37.5q14 37 38.5 57t55.5 20q28 0 38 -23t-5 -54q-24 -51 -59 -70.5t-68 -24.5q37 -5 44.5 -33.5
t-10.5 -74.5z" />
    <glyph glyph-name="l" unicode="l" horiz-adv-x="199" 
d="M216 106q-10 -24 -27.5 -44.5t-39 -35.5t-46 -24t-48.5 -9t-41.5 8t-26.5 24t-8 40t14 55q3 8 14 33.5t25 60t30 73.5t30 73.5t24.5 59.5t13.5 32q9 20 3 32.5t-29 12.5h-10l21 43q8 1 17 3q8 2 17 3t20 1q57 0 71 -31t-14 -98q-3 -8 -10 -25t-16.5 -40.5t-21 -51
t-22.5 -54.5q-26 -64 -57 -141q-8 -20 2 -28t27 -4.5t37 18.5t34 42l17 -28v0z" />
    <glyph glyph-name="m" unicode="m" horiz-adv-x="566" 
d="M466 106q-8 -19 2 -27t27 -5t37.5 18t33.5 42l17 -28q-10 -24 -27.5 -44.5t-39 -35.5t-46 -24t-48.5 -9q-49 0 -68 32t7 95l64 156q6 15 1.5 23t-15.5 9.5t-26 -3.5t-29 -17q-2 -6 -4.5 -12t-4.5 -13l-72 -175q-8 -21 -2 -33t28 -12h10l-20 -43q-8 -2 -17 -4
q-15 -3 -37 -3q-57 0 -71.5 31t13.5 97q6 14 16 40t21 52q12 30 26 63q6 15 0.5 23.5t-16.5 10t-26 -4.5t-30 -19q-2 -6 -4.5 -12t-4.5 -13q-6 -16 -17 -42t-21.5 -52.5t-19.5 -48.5t-12 -30q-9 -21 -3 -33t29 -12h10l-21 -43q-8 -2 -17 -4q-15 -3 -37 -3q-57 0 -71 31
t13 97q6 16 16 40t20.5 49.5t19.5 48t15 35.5q8 20 2 32.5t-28 12.5h-10l20 43q8 2 17 4q8 2 17 3t20 1q66 0 75 -44q24 20 52 32t56 12q61 0 73 -46q24 21 52.5 33.5t57.5 12.5q49 0 67.5 -32t-6.5 -95z" />
    <glyph glyph-name="n" unicode="n" horiz-adv-x="386" 
d="M90 88q-8 -21 -2 -33t29 -12h10l-20 -43q-8 -2 -17 -4q-15 -3 -37 -3q-57 0 -71.5 31t12.5 97l71 173q9 20 3 32.5t-29 12.5h-10l20 43q8 2 17 4q8 2 17.5 3t19.5 1q68 0 75 -47q24 22 53 34.5t58 12.5q49 0 68 -32t-7 -95q-5 -13 -14 -35.5t-19 -46.5t-18.5 -45
t-12.5 -30q-8 -19 2 -27t27.5 -5t37.5 18t33 42l17 -28q-10 -24 -27.5 -44.5t-39 -35.5t-46 -24t-48.5 -9t-41.5 8t-26.5 24t-8 40t14 55l65 156q6 15 0.5 23.5t-17.5 9t-28.5 -6t-31.5 -21.5q-2 -5 -3.5 -10t-3.5 -10q-6 -16 -17 -42t-21.5 -52.5t-20 -48.5t-12.5 -30z" />
    <glyph glyph-name="o" unicode="o" horiz-adv-x="375" 
d="M257 390q36 0 60.5 -15.5t35.5 -42.5t9 -63t-18 -77q-18 -47 -44 -83.5t-57.5 -62.5t-67 -39.5t-73.5 -13.5q-37 0 -61 15.5t-35 42.5t-8.5 63.5t18.5 77.5q38 95 100.5 146.5t140.5 51.5zM232 191q12 31 19.5 59t9.5 49.5t-2 34.5t-16 13t-27 -13t-30.5 -34.5
t-30.5 -49.5t-27 -59q-12 -30 -20 -57.5t-9.5 -48.5t3.5 -33.5t17 -12.5t26.5 12.5t29.5 33.5t30 48.5t27 57.5z" />
    <glyph glyph-name="p" unicode="p" horiz-adv-x="391" 
d="M121 -7q-38 0 -58 26l-40 -98q-9 -20 -2.5 -32.5t28.5 -12.5h10l-21 -43q-8 -2 -17 -4q-8 -2 -17.5 -3t-19.5 -1q-57 0 -70.5 31.5t13.5 97.5q4 10 15 37t25 62t30 73.5t30 73t24 60t14 34.5q9 20 2.5 32.5t-29.5 12.5h-9l20 43q8 2 17 4q8 2 17.5 3t19.5 1q70 0 76 -48
q28 23 56.5 35.5t54.5 12.5q34 0 55.5 -15.5t31 -42.5t5.5 -63t-21 -77q-44 -103 -107.5 -151t-132.5 -48zM80 59q9 -12 28 -12q18 0 34.5 7t33 23.5t33.5 43t37 65.5q14 29 22.5 55t9.5 45t-6.5 30t-24.5 11t-36 -9.5t-39 -26.5q-2 -8 -4.5 -15t-5.5 -15z" />
    <glyph glyph-name="q" unicode="q" horiz-adv-x="399" 
d="M436 382q-52 -124 -92 -223q-17 -42 -34 -82.5t-30 -72t-21.5 -52t-8.5 -21.5q-9 -20 -2.5 -32.5t29.5 -12.5h9l-20 -44q-8 -2 -17 -4q-15 -3 -37 -3q-58 0 -72 31.5t13 97.5q1 2 7.5 18.5t17.5 42.5q-23 -15 -46 -23.5t-43 -8.5q-34 0 -55.5 15.5t-31 42.5t-5.5 63.5
t21 77.5q44 102 107.5 150t132.5 48q37 0 59 -27q2 6 5 12q2 4 3 7h111zM132 56q16 0 34.5 9t38.5 26q12 29 25 60.5t25.5 62t24 58.5t20.5 51q-9 14 -29 14q-37 0 -68.5 -31.5t-69.5 -109.5q-14 -29 -22.5 -54.5t-9.5 -44.5t6 -30t25 -11z" />
    <glyph glyph-name="r" unicode="r" horiz-adv-x="250" 
d="M149 463q29 0 38 -22.5t-4 -54.5q-9 -24 -22 -40h88q-3 -9 -11 -28t-18 -44t-21.5 -52t-21.5 -51t-17.5 -41.5t-9.5 -23.5q-8 -19 2 -27t27.5 -5t37.5 18t33 42l17 -28q-10 -24 -27.5 -44.5t-39 -35.5t-46 -24t-48.5 -9t-41.5 8t-26 24t-7.5 40t14 55l82 198
q-18 -9 -38 -9q-28 0 -37 22.5t5 54.5q14 37 38.5 57t53.5 20z" />
    <glyph glyph-name="s" unicode="s" horiz-adv-x="338" 
d="M185 312q31 6 58 -1.5t44 -26t22.5 -48t-5.5 -67.5q-15 -50 -39 -83.5t-55 -54t-67 -29.5t-75 -9q-32 0 -50.5 14.5t-25.5 37t-3 51t19 55.5q13 25 27 41.5t27 26t24 13t18 3.5q28 0 37 -22.5t-3 -54.5q-15 -37 -39.5 -57t-54.5 -20q-5 0 -13 2q-2 -20 6.5 -33t28.5 -13
q19 0 37.5 10t34.5 28t30 42t24 52q27 72 9.5 100t-74.5 11q-14 -4 -24 1.5t-15 16.5t-5.5 26t5.5 31q15 38 39.5 58t54.5 20q29 0 37.5 -22.5t-3.5 -55.5q-4 -9 -12 -22.5t-19 -20.5z" />
    <glyph glyph-name="t" unicode="t" horiz-adv-x="200" 
d="M225 410l-125 -304q-8 -19 2 -27t27.5 -5t37.5 18t33 42l17 -28q-10 -24 -27.5 -44.5t-39 -35.5t-46 -24t-48.5 -9t-41.5 8t-26.5 24t-8 40t14 55l120 290h-57l28 51h50l12 30l120 23l-22 -53h90l-28 -51h-82z" />
    <glyph glyph-name="u" unicode="u" horiz-adv-x="390" 
d="M290 106q-8 -19 2 -27t27.5 -5t37.5 18t33 42l17 -28q-10 -24 -27.5 -44.5t-39 -35.5t-46 -24t-48.5 -9q-31 0 -50 13t-24 39q-25 -24 -56.5 -38t-61.5 -14q-24 0 -41.5 8t-26 24t-7.5 40t14 55q5 12 15.5 36.5t21.5 51.5t20.5 51t14.5 35q9 20 3 32.5t-29 12.5h-10
l20 43q8 2 17 4q8 2 17.5 3t20.5 1q57 0 71 -31.5t-14 -97.5q-6 -15 -16.5 -41t-21.5 -52q-12 -30 -25 -62q-6 -17 0.5 -25.5t19.5 -8.5t30 8.5t32 25.5q1 4 2 7t3 7l108 262h111z" />
    <glyph glyph-name="v" unicode="v" horiz-adv-x="351" 
d="M397 382q-6 -13 -19 -41.5t-28 -60.5t-28 -60t-18 -39q-42 -92 -96 -140t-141 -48q-24 0 -42 8t-28 24t-11.5 40t8.5 55q4 12 14 36.5t21 51.5t20.5 51t12.5 35q6 20 1.5 32.5t-27.5 12.5h-10l21 43q8 2 17 4q8 2 17 3t20 1q57 0 72.5 -32.5t-12.5 -96.5
q-38 -88 -51.5 -134.5t-4.5 -61.5q4 -6 11.5 -8.5t16 -2t17 4.5t15.5 11q0 18 4 34.5t16 48t36 85t65 144.5h111z" />
    <glyph glyph-name="w" unicode="w" horiz-adv-x="545" 
d="M590 382q-6 -13 -19.5 -41.5t-28 -60.5t-27.5 -60t-18 -39q-21 -46 -44.5 -81t-52 -59t-63.5 -36t-78 -12q-32 0 -53.5 14.5t-26.5 43.5q-26 -26 -59 -42t-65 -16q-49 0 -68 32t7 95l72 174q8 20 2 32.5t-29 12.5h-9l20 43q8 2 17 4q8 2 17.5 3t19.5 1q57 0 71 -31.5
t-13 -97.5q-6 -15 -16.5 -41t-21.5 -52q-12 -30 -25 -62q-7 -17 0 -25.5t20.5 -8.5t30.5 9t32 27l4 12q4 12 13.5 36.5t20.5 51.5t21 51t13 35q7 20 2 32.5t-28 12.5h-10l21 43q8 2 17 4q8 2 17.5 3t19.5 1q57 0 72.5 -32.5t-11.5 -96.5q-38 -88 -51.5 -134.5t-4.5 -61.5
q8 -13 26.5 -11t32.5 16q0 18 4 34.5t16.5 48t36.5 85t65 144.5h111z" />
    <glyph glyph-name="x" unicode="x" horiz-adv-x="368" 
d="M328 386q29 0 39 -23t-5 -54q-20 -42 -48 -62t-56 -28q20 -14 23.5 -42.5t-13.5 -70.5q-8 -19 2 -27t27 -5t37.5 18t33.5 42l17 -28q-10 -24 -27.5 -44.5t-39 -35.5t-46 -24t-48.5 -9q-49 0 -67.5 34t6.5 93q11 27 -2 41t-39 0l-30 -73q-9 -21 -3 -33t29 -12h10l-21 -43
q-8 -2 -17 -4q-15 -3 -37 -3q-107 0 -66 108q7 19 11.5 30t6.5 16q5 13 22 20l70 27q-27 33 -6 100q7 20 2 32.5t-28 12.5h-9l20 43q8 2 17 4q8 2 17 3t20 1q57 0 74 -29t-5 -73q-14 -29 -16.5 -42t1.5 -21l54 19q-9 10 -10 27.5t7 37.5q14 37 38.5 57t54.5 20z" />
    <glyph glyph-name="y" unicode="y" horiz-adv-x="374" 
d="M404 382q-8 -19 -18.5 -44t-22 -53.5t-23.5 -59t-24 -59.5q-27 -68 -58 -142q-38 -97 -101 -148t-140 -51q-32 0 -51.5 15t-26.5 38t-2.5 51t19.5 55q14 23 32 40q-9 17 -8.5 40.5t13.5 55.5q5 12 15.5 36.5t22 51.5t21 51t13.5 35q9 20 3 32.5t-29 12.5h-10l21 43
q8 2 17 4q8 2 17 3t20 1q57 0 71.5 -31.5t-13.5 -97.5q-6 -15 -16.5 -41t-21.5 -52q-12 -30 -25 -62q-6 -17 0 -25.5t18.5 -9t29.5 7.5t32 25l114 278h111zM55 -7q-22 0 -38 6q-13 -11 -25 -29t-18 -47q-6 -25 6.5 -39.5t32.5 -14.5q19 0 38.5 14t37 36t32.5 49.5t25 54.5
q-22 -14 -45 -22t-46 -8z" />
    <glyph glyph-name="z" unicode="z" horiz-adv-x="297" 
d="M89 382h261l-3 -6l-40 -92l-194 -123q36 4 64.5 -5t45 -30t18.5 -52.5t-14 -71.5q-39 -96 -98.5 -136.5t-136.5 -40.5q-32 0 -50.5 14.5t-25.5 37.5t-3 51.5t18 55.5q13 25 27 41t27 25.5t24 13.5t18 4q29 0 38 -22.5t-4 -54.5q-14 -37 -38.5 -57t-55.5 -20q-8 0 -13 1
q-2 -20 7 -33t29 -13q19 0 37.5 10.5t34.5 28.5t30 42t24 52q21 57 8 87t-49 30q-12 0 -26.5 -4t-28.5 -12l-11 -7l-9 38q7 17 15.5 39.5t16.5 39.5l187 127h-148z" />
    <glyph glyph-name="braceleft" unicode="{" horiz-adv-x="409" 
d="M149 -202q-52 36 -70 73.5t-14.5 75.5t22.5 74.5t40.5 70.5t39.5 63t20.5 52t-17 38t-73.5 21l27 49q58 0 92.5 14.5t55.5 38t32 54t21 63.5t24 66t40 61.5t69 50t111 32.5l12 -55q-46 -15 -73.5 -45t-46.5 -66.5t-36 -76t-42.5 -73.5t-66 -59t-106.5 -32
q35 -16 49 -39.5t13.5 -52t-11.5 -60t-26 -64.5t-30.5 -65.5t-24.5 -61.5t-9 -54t17 -43z" />
    <glyph glyph-name="bar" unicode="|" 
d="M426 694l-306 -868h-74l305 868h75z" />
    <glyph glyph-name="braceright" unicode="}" horiz-adv-x="409" 
d="M305 695q52 -36 70.5 -72.5t16.5 -72t-18.5 -69.5t-36.5 -65t-36 -57.5t-17.5 -47t19 -34.5t74.5 -20l-27 -49q-58 0 -93.5 -15.5t-57.5 -41.5t-35 -59t-25 -68.5t-27.5 -71.5t-43 -66.5t-71.5 -54t-112 -33.5l-12 55q46 15 74.5 47t50 72t41 83.5t47.5 81t70 64.5
t108 34q-46 21 -58 53t-4.5 70t27 78.5t35 79t20 72t-17.5 57.5z" />
    <glyph glyph-name="asciitilde" unicode="~" horiz-adv-x="461" 
d="M63 166q34 47 79.5 76t91.5 36q31 4 43 -7.5t16 -26.5t7.5 -27.5t18.5 -10.5t30 13t26 24q13 15 26 33l36 -35q-22 -28 -48 -51q-23 -20 -54.5 -38t-68.5 -23q-25 -3 -38.5 1t-20.5 12.5t-9.5 19t-4 19.5t-5 14.5t-12.5 4.5q-14 -2 -28 -12.5t-25 -22.5q-13 -14 -25 -31z
" />
    <glyph glyph-name="exclamdown" unicode="&#xa1;" horiz-adv-x="261" 
d="M208 500q0 27 19.5 46.5t47.5 19.5t47.5 -19.5t19.5 -46.5q0 -28 -19.5 -47.5t-47.5 -19.5t-47.5 19.5t-19.5 47.5zM19 98q19 43 47.5 84t57 76.5t53 64t37.5 45.5h35q-29 -57 -48 -113.5t-31.5 -102.5t-19 -76.5t-9.5 -35.5q-12 -25 -38 -34t-52 2q-25 12 -34.5 38
t2.5 52z" />
    <glyph glyph-name="cent" unicode="&#xa2;" horiz-adv-x="380" 
d="M329 447l-21 -59q31 -19 34 -61.5t-19 -85.5q-2 -4 -4 -7.5t-4 -6.5l-34 24q18 35 18 57.5t-8 33.5l-103 -283h10q21 0 43.5 7t43 18.5t37.5 27t28 32.5l17 -28q-23 -48 -75 -77.5t-124 -34.5l-24 -67h-54l24 67q-35 4 -59.5 21.5t-37 44t-12.5 60.5t15 72q38 96 100 146
t137 52l17 47h55zM133 201q-18 -48 -15.5 -79t22.5 -47l99 274q-16 -8 -31.5 -23t-29.5 -35.5t-25.5 -43.5t-19.5 -46z" />
    <glyph glyph-name="sterling" unicode="&#xa3;" horiz-adv-x="480" 
d="M68 241h33l12 29h-37l15 35h34q22 52 52.5 92.5t67.5 68.5t78.5 42.5t85.5 14.5q35 0 57.5 -14.5t32 -37.5t7 -51.5t-17.5 -55.5q-13 -25 -27 -41.5t-27.5 -26t-24.5 -13.5t-18 -4q-29 0 -37.5 23t4.5 55q14 37 39 57t55 20q9 0 13 -1q3 7 2 15t-6.5 15t-17.5 11.5
t-31 4.5q-30 0 -56.5 -14t-48.5 -38t-40 -55.5t-32 -66.5h86l-14 -35h-85l-12 -29h89l-15 -35h-88l-46 -113q13 10 29.5 17.5t36.5 7.5q17 0 33 -9t32 -19t31.5 -18.5t33 -6.5t37 17t41.5 51l17 -28q-31 -54 -72.5 -84t-83.5 -30q-26 0 -43.5 10.5t-30.5 23.5t-24 23.5
t-25 10.5q-10 0 -21 -5.5t-21.5 -13.5t-20 -17t-15.5 -15l-4 -5l-5 -5h-73q13 31 27 65q12 29 27 66.5t31 76.5h-33z" />
    <glyph glyph-name="currency" unicode="&#xa4;" horiz-adv-x="450" 
d="M341 190q0 -18 -6 -34l34 -28l-57 -75l-28 42q-25 -14 -54 -14q-26 0 -48.5 11t-37.5 30l-91 -59l-9 75l76 36q-1 5 -1 16q0 20 8 41l-32 21l56 74l29 -37q11 5 23.5 8.5t26.5 3.5q26 0 48.5 -11t37.5 -30l107 58l10 -74l-94 -33q1 -5 1.5 -10.5t0.5 -10.5zM297 190
q0 28 -19.5 47.5t-47.5 19.5t-47.5 -19.5t-19.5 -47.5q0 -27 19.5 -46.5t47.5 -19.5t47.5 19.5t19.5 46.5z" />
    <glyph glyph-name="yen" unicode="&#xa5;" horiz-adv-x="387" 
d="M75 233h56l2 6l-26 189q-2 20 -15 32.5t-36 12.5h-10l-4 43q7 2 15 4q7 2 16 3t20 1q57 0 88.5 -31.5t40.5 -98.5l14 -101q38 30 64.5 68t35.5 70q9 29 0 41t-41 4l15 40q8 1 17 3q8 2 17 3t20 1q23 0 42 -7t30 -20t12.5 -31.5t-8.5 -41.5q-23 -51 -74.5 -95.5
t-115.5 -74.5l-8 -20h63l-14 -35h-63l-12 -29h67l-15 -35h-67l-19 -47q-8 -21 -2 -33.5t29 -12.5h9l-20 -43q-8 -2 -17 -4q-8 -2 -17.5 -3t-19.5 -1q-58 0 -72 31.5t13 98.5l5 14h-52l14 35h53l12 29h-57z" />
    <glyph glyph-name="brokenbar" unicode="&#xa6;" 
d="M252 199l-132 -373h-74l131 373h75zM216 311l135 383h75l-135 -383h-75z" />
    <glyph glyph-name="section" unicode="&#xa7;" horiz-adv-x="419" 
d="M368 167q-22 -55 -78 -86q-3 -24 -17 -49q-13 -22 -32.5 -38.5t-42.5 -26.5t-48 -13t-49 2q-21 4 -36 16t-22 29.5t-5 38.5t16 45q15 27 35 36t35 0t17 -29.5t-10 -40.5q-11 -19 -29.5 -26.5t-33.5 1.5q-1 -14 10.5 -26t35.5 -16q28 -4 53 11t36 41q12 28 -2 54.5
t-46 47.5q-22 13 -38 29t-25 34.5t-9.5 40t9.5 45.5q22 53 78 86q3 28 17 50q13 22 32.5 38.5t42.5 26.5t48 13t49 -2q21 -5 36 -16.5t22 -29t5 -39t-16 -45.5q-15 -26 -35 -35t-35 0t-17 29t10 40q11 20 29.5 27.5t33.5 -1.5q1 14 -10.5 25.5t-35.5 15.5q-28 5 -53 -10
t-36 -41q-12 -28 2 -54.5t46 -47.5q22 -13 38 -29t25 -35t9.5 -40.5t-9.5 -45.5zM225 258q-32 22 -46 55q-2 -2 -2.5 -5t-1.5 -5q-13 -33 3.5 -56t56.5 -51q32 -22 45 -55l5 11q13 33 -3.5 56t-56.5 50z" />
    <glyph glyph-name="dieresis" unicode="&#xa8;" horiz-adv-x="440" 
d="M198 499q0 -25 -17 -42t-43 -17q-24 0 -42 17t-18 42q0 26 18 43t42 17q26 0 43 -17t17 -43zM348 499q0 -25 -18 -42t-42 -17q-26 0 -43 17t-17 42q0 26 17 43t43 17q24 0 42 -17t18 -43z" />
    <glyph glyph-name="copyright" unicode="&#xa9;" horiz-adv-x="833" 
d="M573 563q78 0 123.5 -31.5t62.5 -82.5t8.5 -117t-38 -134t-77.5 -134t-109.5 -117t-134.5 -82.5t-152 -31.5t-124 31.5t-61 82.5t-6.5 117t40 134t79 134t109.5 117t132.5 82.5t147.5 31.5zM258 -126q67 0 129.5 27.5t117 73t98.5 103.5t72 118.5t39 118.5t-1 103.5
t-48 73t-102 27.5q-63 0 -123 -27.5t-113.5 -73t-97 -103.5t-72.5 -118.5t-40.5 -118.5t-1.5 -103.5t44.5 -73t98.5 -27.5zM526 82q-12 -19 -28.5 -36t-38.5 -29.5t-49.5 -20t-61.5 -7.5q-69 0 -92 54t4 153q15 54 40 96t57 71t70 44.5t79 15.5q29 0 47 -12t26 -31
t5.5 -41.5t-14.5 -44.5q-11 -20 -22.5 -33.5t-22 -21.5t-19.5 -11t-14 -3q-23 0 -30.5 18.5t3.5 45.5q11 29 31.5 45t44.5 16h11q2 5 1.5 11.5t-5 12t-14 9.5t-25.5 4q-28 0 -51.5 -14.5t-42.5 -38t-34 -54.5t-26 -64q-13 -38 -19.5 -71t-3 -57t19 -38t47.5 -14
q36 0 65.5 20.5t47.5 48.5z" />
    <glyph glyph-name="ordfeminine" unicode="&#xaa;" horiz-adv-x="603" 
d="M433 683q39 0 59 -28q3 7 4.5 12.5t3.5 7.5h110q-3 -9 -12 -31t-21 -50.5t-25 -60.5t-24.5 -59.5t-20 -48t-10.5 -26.5q-8 -19 2 -27t27 -5t37.5 18t33.5 42l17 -28q-10 -24 -27.5 -44.5t-39 -35.5t-46 -24t-48.5 -9q-31 0 -50.5 13t-24.5 39q-29 -24 -58.5 -38
t-56.5 -14q-34 0 -55.5 15.5t-30.5 42.5t-5.5 63.5t21.5 77.5q43 102 107 150t133 48zM475 616q-9 14 -29 14q-19 0 -35.5 -7.5t-33 -24t-33.5 -43.5t-36 -66q-15 -29 -23.5 -54.5t-9.5 -44.5t6.5 -30t24.5 -11t37 10t40 28q3 13 9 26z" />
    <glyph glyph-name="guillemotleft" unicode="&#xab;" horiz-adv-x="594" 
d="M114 275l294 141l23 -57l-270 -127l116 -134l-64 -73l-139 184zM314 275l294 141l23 -57l-270 -127l116 -134l-64 -73l-139 184z" />
    <glyph glyph-name="logicalnot" unicode="&#xac;" 
d="M79 223h282l-69 -164h-74l42 95h-210z" />
    <glyph glyph-name="uni00AD" unicode="&#xad;" horiz-adv-x="270" 
d="M79 223h162l-29 -69h-162z" />
    <glyph glyph-name="registered" unicode="&#xae;" horiz-adv-x="833" 
d="M573 563q78 0 123.5 -31.5t62.5 -82.5t8.5 -117t-38 -134t-77.5 -134t-109.5 -117t-134.5 -82.5t-152 -31.5t-124 31.5t-61 82.5t-6.5 117t40 134t79 134t109.5 117t132.5 82.5t147.5 31.5zM258 -126q67 0 129.5 27.5t117 73t98.5 103.5t72 118.5t39 118.5t-1 103.5
t-48 73t-102 27.5q-63 0 -123 -27.5t-113.5 -73t-97 -103.5t-72.5 -118.5t-40.5 -118.5t-1.5 -103.5t44.5 -73t98.5 -27.5zM454 13q-41 0 -49.5 30t6.5 74q11 39 12.5 55.5t-6.5 23.5q-29 -7 -46 -2l-46 -111q-7 -15 -2 -24.5t21 -9.5h7l-14 -31q-7 -2 -13 -3t-12.5 -1.5
t-13.5 -0.5q-81 0 -43 92l87 214l74 45q-16 -4 -33.5 -9.5t-35 -13.5t-33 -17.5t-27.5 -21.5l-14 15l37 52q35 14 73.5 20.5t86.5 6.5q53 0 80 -26t12 -73q-4 -14 -14 -26.5t-23 -23.5t-27 -19.5t-26 -12.5l-7 -3q20 -8 28 -26t-3 -49q-14 -35 -10 -50t19 -15
q12 0 29.5 10.5t30.5 32.5l11 -19q-7 -17 -20 -32.5t-28.5 -26.5t-33 -17.5t-34.5 -6.5zM456 370q-8 0 -13 -1l-57 -139q5 1 11.5 0.5t14.5 -1.5q27 0 47 22t30 51q10 33 -2.5 50.5t-30.5 17.5z" />
    <glyph glyph-name="macron" unicode="&#xaf;" 
d="M99 555h282l-29 -69h-282z" />
    <glyph glyph-name="degree" unicode="&#xb0;" horiz-adv-x="275" 
d="M247 319q0 28 -19.5 47.5t-47.5 19.5t-47.5 -19.5t-19.5 -47.5q0 -27 19.5 -46.5t47.5 -19.5t47.5 19.5t19.5 46.5zM291 319q0 -22 -9 -42t-24 -35t-35 -23.5t-43 -8.5t-43 8.5t-35 23.5t-24 35t-9 42q0 23 9 43t24 35t35 24t43 9t43 -9t35 -24t24 -35t9 -43z" />
    <glyph glyph-name="plusminus" unicode="&#xb1;" 
d="M327 389l-41 -96h105l-29 -69h-105l-40 -95h-74l40 95h-103l29 69h103l40 96h75zM29 83h282l-29 -69h-282z" />
    <glyph glyph-name="twosuperior" unicode="&#xb2;" horiz-adv-x="313" 
d="M320 521q45 0 67.5 -16.5t25.5 -42t-12 -57.5t-43.5 -62.5t-69.5 -56t-91 -39.5h141l-36 -87h-253l37 87h28q29 0 60 16t58 40.5t47 52.5t27 52.5t-2 40.5t-39 16q-11 0 -22.5 -3.5t-23.5 -8.5q13 -8 15.5 -25t-5.5 -39q-13 -32 -35.5 -50t-48.5 -18q-25 0 -34 20t5 48
q15 33 40.5 58t54.5 41.5t57.5 24.5t51.5 8z" />
    <glyph glyph-name="threesuperior" unicode="&#xb3;" horiz-adv-x="313" 
d="M330 512q45 -7 60 -35t6 -60.5t-40 -62.5t-78 -41q28 -14 40.5 -41t10.5 -58.5t-18.5 -63t-45.5 -55t-69.5 -33.5t-91.5 1q-43 10 -54.5 49t14.5 88q17 34 41.5 49t45 14.5t30.5 -15.5t-2 -42q-14 -32 -40 -48t-52 -8q-2 -5 -1.5 -12t2.5 -14t7 -13t14 -8
q29 -7 58.5 14.5t49.5 54t24.5 67t-15.5 54.5q-17 -6 -34 -9.5t-30.5 -3t-22 5t-8.5 12.5q0 13 23.5 24t82.5 4q31 14 49.5 35.5t24 42.5t-2.5 38t-30 21q-8 2 -18 0t-22 -5q12 -3 14.5 -20t-8.5 -37q-14 -27 -35.5 -38t-39 -8t-25 18.5t6.5 42.5q17 31 40.5 50.5t48 30.5
t48.5 14.5t42 0.5z" />
    <glyph glyph-name="acute" unicode="&#xb4;" 
d="M104 470l179 163l61 -106l-220 -96z" />
    <glyph glyph-name="mu" unicode="&#xb5;" horiz-adv-x="390" 
d="M290 106q-8 -19 2 -27t27.5 -5t37.5 18t33 42l17 -28q-10 -24 -27.5 -44.5t-39 -35.5t-46 -24t-48.5 -9q-31 0 -50 13t-24 39q-25 -24 -56.5 -38t-61.5 -14t-51 13l-22 -180h-92l176 468q9 20 3 32.5t-29 12.5h-10l20 43q8 2 17 4q8 2 17.5 3t20.5 1q57 0 71 -31.5
t-14 -97.5q-6 -15 -16.5 -41t-21.5 -52q-12 -30 -25 -62q-6 -17 0.5 -25.5t19.5 -8.5t30 8.5t32 25.5q1 4 2 7t3 7l108 262h111z" />
    <glyph glyph-name="paragraph" unicode="&#xb6;" horiz-adv-x="534" 
d="M46 -174l166 474q-44 8 -64.5 31t-22 53.5t14 63.5t45 60.5t71 45.5t91.5 18h202l-29 -69h-25l-238 -677h-74l237 677h-62l-238 -677h-74z" />
    <glyph glyph-name="periodcentered" unicode="&#xb7;" horiz-adv-x="290" 
d="M217 219q0 -27 -19.5 -46.5t-47.5 -19.5t-47.5 19.5t-19.5 46.5q0 28 19.5 47.5t47.5 19.5t47.5 -19.5t19.5 -47.5z" />
    <glyph glyph-name="cedilla" unicode="&#xb8;" horiz-adv-x="304" 
d="M122 -23l52 79l51 -9l-52 -79q11 -5 21.5 -10.5t20.5 -13.5q24 -18 32 -39t4 -41t-19 -36.5t-37 -25.5t-48 -9.5t-51.5 6t-49.5 19.5t-41 32l42 67q30 -23 59.5 -31t50 -5.5t27 13t-8.5 25.5q-14 13 -34.5 21.5t-42.5 15.5z" />
    <glyph glyph-name="onesuperior" unicode="&#xb9;" horiz-adv-x="240" 
d="M41 199h64q7 18 20.5 51t27.5 67.5t26 64t17 40.5q8 18 2.5 29t-25.5 11h-9l18 39q7 1 15 3q7 1 15.5 2t17.5 1q51 0 63.5 -27.5t-11.5 -87.5q-5 -12 -15.5 -37t-22.5 -54t-23.5 -56.5t-18.5 -45.5h65l-16 -39h-226z" />
    <glyph glyph-name="ordmasculine" unicode="&#xba;" horiz-adv-x="330" 
d="M306 508q33 0 56.5 -11.5t35.5 -34t11 -55.5t-19 -76q-73 -177 -210 -177q-71 0 -92 54t18 146q19 46 41 75.5t47 47t53 24.5t59 7zM296 343q23 60 23 94.5t-21 34.5q-26 0 -51 -36.5t-46 -88.5q-12 -29 -20.5 -57.5t-11.5 -51.5t1.5 -37t19.5 -14q24 0 50 40.5t56 115.5
z" />
    <glyph glyph-name="guillemotright" unicode="&#xbb;" horiz-adv-x="590" 
d="M331 166l-294 -141l-23 57l270 127l-116 134l64 73l139 -184zM531 166l-294 -141l-23 57l270 127l-116 134l64 73l139 -184z" />
    <glyph glyph-name="onequarter" unicode="&#xbc;" horiz-adv-x="1107" 
d="M1038 244q-13 -30 -28.5 -68t-32 -77.5t-32.5 -78t-29 -69.5t-21.5 -52.5t-10.5 -26.5h-122l106 257q-21 -21 -45 -41t-48 -35.5t-47.5 -25t-42.5 -9.5q-27 0 -43 9t-19.5 27t7 44.5t36.5 60.5q10 13 28.5 37t38 49.5t37 48t26.5 33.5q17 23 15 36.5t-27 13.5h-11l39 49
q10 2 21 4q9 2 20 3t22 1q63 0 67.5 -34.5t-52.5 -109.5q-12 -17 -31.5 -41.5t-37.5 -47.5q-21 -27 -44 -56q-15 -21 -7 -24.5t28.5 6t48 30t52.5 47.5l17 40h122zM51 159h80l114 278q10 23 3 36.5t-32 13.5h-11l23 49q9 2 19 4q8 2 19 3t22 1q63 0 79 -34.5t-15 -109.5
q-6 -15 -18.5 -46t-27.5 -67t-29.5 -71t-23.5 -57h81l-20 -49h-283zM847 548l-539 -622h-84l538 622h85z" />
    <glyph glyph-name="onehalf" unicode="&#xbd;" horiz-adv-x="1086" 
d="M915 451q56 0 84 -20.5t32 -52.5t-14 -71t-53.5 -77t-86.5 -70.5t-113 -50.5h174l-45 -109h-317l46 109h36q36 0 74.5 20t72 50.5t58.5 65.5t34 65.5t-2 50.5t-49 20q-13 0 -27.5 -4t-29.5 -11q16 -10 19.5 -31.5t-7.5 -48.5q-16 -40 -44 -62.5t-61 -22.5q-31 0 -42 25
t6 60q19 42 50.5 73t67.5 51.5t72.5 30.5t64.5 10zM51 159h80l114 278q10 23 3 36.5t-32 13.5h-11l23 49q9 2 19 4q8 2 19 3t22 1q63 0 79 -34.5t-15 -109.5q-6 -15 -18.5 -46t-27.5 -67t-29.5 -71t-23.5 -57h81l-20 -49h-283zM817 548l-539 -622h-84l538 622h85z" />
    <glyph glyph-name="threequarters" unicode="&#xbe;" horiz-adv-x="1198" 
d="M413 550q37 -6 58 -24t27 -42.5t-2 -52.5t-28 -54t-50.5 -46.5t-69.5 -29.5q35 -17 50.5 -51t12.5 -73.5t-23.5 -79t-56.5 -68.5t-86.5 -41.5t-114.5 1.5q-27 6 -44 22t-24 39t-2.5 51.5t20.5 58.5q21 42 51.5 61t56 18t38 -19.5t-1.5 -51.5q-9 -20 -21.5 -35.5t-28 -25
t-32.5 -12t-33 2.5q-2 -6 -2 -15t3 -18t9 -16t17 -10q24 -6 49.5 4.5t47 31.5t38.5 49t25 56.5t5.5 54t-19.5 41.5q-21 -8 -42.5 -12t-38 -3t-27 6t-10.5 15q0 8 6.5 16.5t22 14t41 7t62.5 -2.5q39 18 62.5 45t30.5 53.5t-3.5 47.5t-38.5 26q-10 2 -22.5 0t-26.5 -7
q14 -4 17 -25t-10 -46q-17 -33 -44 -47t-49 -10.5t-31.5 23t8.5 53.5q21 39 50.5 63.5t60 38.5t60.5 17.5t53 0.5zM1129 244q-12 -30 -28 -68t-32.5 -77.5t-32.5 -78t-29 -69.5t-21.5 -52.5t-10.5 -26.5h-122l106 257q-21 -21 -45 -41t-48 -35.5t-47.5 -25t-42.5 -9.5
q-27 0 -43 9t-19.5 27t7 44.5t36.5 60.5q10 13 28.5 37t38 49.5t37 48t26.5 33.5q17 23 15 36.5t-27 13.5h-11l39 49q10 2 21 4q9 2 20 3t22 1q63 0 67.5 -34.5t-52.5 -109.5q-12 -17 -31.5 -41.5t-37.5 -47.5q-21 -27 -44 -56q-15 -21 -7 -24.5t28.5 6t48 30t52.5 47.5
l17 40h122zM938 548l-539 -622h-84l538 622h85z" />
    <glyph glyph-name="questiondown" unicode="&#xbf;" horiz-adv-x="428" 
d="M331 489q0 27 19.5 46.5t47.5 19.5t47.5 -19.5t19.5 -46.5q0 -28 -19.5 -47.5t-47.5 -19.5t-47.5 19.5t-19.5 47.5zM351 331q-34 -9 -69 -32t-64 -53t-49.5 -62t-26 -59t6 -44.5t47.5 -17.5q13 0 27.5 4t29.5 11q-16 10 -19.5 31.5t7.5 48.5q16 40 44 62.5t61 22.5
q31 0 42 -25t-6 -60q-19 -42 -51 -73t-68 -51.5t-72 -30.5t-64 -10q-61 0 -89 23.5t-28 60t25 80t69 83t105 69.5t133 40z" />
    <glyph glyph-name="Agrave" unicode="&#xc0;" horiz-adv-x="481" 
d="M500 105q-8 -24 -25 -44.5t-38.5 -36.5t-45.5 -25t-48 -9q-49 0 -70.5 32.5t0.5 95.5l16 43h-127l-34 -74q-11 -27 -5 -36.5t29 -9.5h9l-32 -43l-22 -4q-10 -2 -20.5 -3t-20.5 -1q-57 0 -63 31.5t39 98.5l27 40.5t34.5 51.5t32.5 48t21 31q39 54 69.5 97t59 73t59 46
t68.5 16q24 0 42.5 -8t28.5 -24t11 -40t-10 -55l-102 -291q-7 -19 3.5 -27.5t27.5 -5t36.5 18.5t30.5 42zM306 212l70 197q9 26 6 40.5t-15 14t-32.5 -17.5t-45.5 -53q-26 -38 -52.5 -86.5t-49.5 -94.5h119zM518 565l-220 96l61 106l179 -163z" />
    <glyph glyph-name="Aacute" unicode="&#xc1;" horiz-adv-x="481" 
d="M500 105q-8 -24 -25 -44.5t-38.5 -36.5t-45.5 -25t-48 -9q-49 0 -70.5 32.5t0.5 95.5l16 43h-127l-34 -74q-11 -27 -5 -36.5t29 -9.5h9l-32 -43l-22 -4q-10 -2 -20.5 -3t-20.5 -1q-57 0 -63 31.5t39 98.5l27 40.5t34.5 51.5t32.5 48t21 31q39 54 69.5 97t59 73t59 46
t68.5 16q24 0 42.5 -8t28.5 -24t11 -40t-10 -55l-102 -291q-7 -19 3.5 -27.5t27.5 -5t36.5 18.5t30.5 42zM306 212l70 197q9 26 6 40.5t-15 14t-32.5 -17.5t-45.5 -53q-26 -38 -52.5 -86.5t-49.5 -94.5h119zM371 604l179 163l61 -106l-220 -96z" />
    <glyph glyph-name="Acircumflex" unicode="&#xc2;" horiz-adv-x="481" 
d="M500 105q-8 -24 -25 -44.5t-38.5 -36.5t-45.5 -25t-48 -9q-49 0 -70.5 32.5t0.5 95.5l16 43h-127l-34 -74q-11 -27 -5 -36.5t29 -9.5h9l-32 -43l-22 -4q-10 -2 -20.5 -3t-20.5 -1q-57 0 -63 31.5t39 98.5l27 40.5t34.5 51.5t32.5 48t21 31q39 54 69.5 97t59 73t59 46
t68.5 16q24 0 42.5 -8t28.5 -24t11 -40t-10 -55l-102 -291q-7 -19 3.5 -27.5t27.5 -5t36.5 18.5t30.5 42zM571 732l26 -144l-120 -1l6 105l-176 -117l-36 49l203 108h97zM306 212l70 197q9 26 6 40.5t-15 14t-32.5 -17.5t-45.5 -53q-26 -38 -52.5 -86.5t-49.5 -94.5h119z
" />
    <glyph glyph-name="Atilde" unicode="&#xc3;" horiz-adv-x="481" 
d="M500 105q-8 -24 -25 -44.5t-38.5 -36.5t-45.5 -25t-48 -9q-49 0 -70.5 32.5t0.5 95.5l16 43h-127l-34 -74q-11 -27 -5 -36.5t29 -9.5h9l-32 -43l-22 -4q-10 -2 -20.5 -3t-20.5 -1q-57 0 -63 31.5t39 98.5l27 40.5t34.5 51.5t32.5 48t21 31q39 54 69.5 97t59 73t59 46
t68.5 16q24 0 42.5 -8t28.5 -24t11 -40t-10 -55l-102 -291q-7 -19 3.5 -27.5t27.5 -5t36.5 18.5t30.5 42zM282 623q31 43 72 69.5t83 32.5q29 4 39.5 -6.5t14.5 -24t7 -25t17 -9.5t27 12t24 21q12 13 23 30l33 -32q-19 -25 -44 -46q-21 -18 -49.5 -34t-61.5 -21
q-23 -3 -35.5 1t-19 11.5t-8.5 17t-3.5 17.5t-4.5 13t-11 4q-13 -2 -25.5 -11.5t-22.5 -20.5q-12 -13 -23 -28zM306 212l70 197q9 26 6 40.5t-15 14t-32.5 -17.5t-45.5 -53q-26 -38 -52.5 -86.5t-49.5 -94.5h119z" />
    <glyph glyph-name="Adieresis" unicode="&#xc4;" horiz-adv-x="481" 
d="M500 105q-8 -24 -25 -44.5t-38.5 -36.5t-45.5 -25t-48 -9q-49 0 -70.5 32.5t0.5 95.5l16 43h-127l-34 -74q-11 -27 -5 -36.5t29 -9.5h9l-32 -43l-22 -4q-10 -2 -20.5 -3t-20.5 -1q-57 0 -63 31.5t39 98.5l27 40.5t34.5 51.5t32.5 48t21 31q39 54 69.5 97t59 73t59 46
t68.5 16q24 0 42.5 -8t28.5 -24t11 -40t-10 -55l-102 -291q-7 -19 3.5 -27.5t27.5 -5t36.5 18.5t30.5 42zM306 212l70 197q9 26 6 40.5t-15 14t-32.5 -17.5t-45.5 -53q-26 -38 -52.5 -86.5t-49.5 -94.5h119zM426 623q0 -25 -17 -42t-43 -17q-24 0 -42 17t-18 42q0 26 18 43
t42 17q26 0 43 -17t17 -43zM576 623q0 -25 -18 -42t-42 -17q-26 0 -43 17t-17 42q0 26 17 43t43 17q24 0 42 -17t18 -43z" />
    <glyph glyph-name="Aring" unicode="&#xc5;" horiz-adv-x="481" 
d="M500 105q-8 -24 -25 -44.5t-38.5 -36.5t-45.5 -25t-48 -9q-49 0 -70.5 32.5t0.5 95.5l16 43h-127l-34 -74q-11 -27 -5 -36.5t29 -9.5h9l-32 -43l-22 -4q-10 -2 -20.5 -3t-20.5 -1q-57 0 -63 31.5t39 98.5l27 40.5t34.5 51.5t32.5 48t21 31q39 54 69.5 97t59 73t59 46
t68.5 16q24 0 42.5 -8t28.5 -24t11 -40t-10 -55l-102 -291q-7 -19 3.5 -27.5t27.5 -5t36.5 18.5t30.5 42zM565 633q0 -20 -8 -38t-22 -31.5t-32 -21.5t-39 -8t-39 8t-32 21.5t-22 31.5t-8 38q0 21 8 39.5t22 32t32 21.5t39 8t39 -8t32 -21.5t22 -32t8 -39.5zM306 212l70 197
q9 26 6 40.5t-15 14t-32.5 -17.5t-45.5 -53q-26 -38 -52.5 -86.5t-49.5 -94.5h119zM525 633q0 26 -17.5 43.5t-43.5 17.5t-43.5 -17.5t-17.5 -43.5q0 -25 17.5 -42.5t43.5 -17.5t43.5 17.5t17.5 42.5z" />
    <glyph glyph-name="AE" unicode="&#xc6;" horiz-adv-x="677" 
d="M301 161h-139l-34 -74q-11 -27 -5 -36.5t29 -9.5h9l-32 -43l-22 -4q-10 -2 -20.5 -3t-20.5 -1q-57 0 -63 31.5t39 98.5l27 40.5t34.5 51.5t32.5 48t21 31q39 54 69.5 97t59 73t59 46t68.5 16q25 0 43 -9q24 5 50.5 7t59.5 2q20 0 45 -3t54.5 -5t62 -1t68.5 9l-37 -84
q-29 -17 -55 -12t-51.5 18t-51.5 27t-53 14h-2l-78 -187h134l-18 -51h-137q-18 -44 -35 -84.5t-29 -71.5q13 10 29.5 18t36.5 8q17 0 34.5 -9t35.5 -19t36.5 -18.5t38 -6.5t40.5 17t43 51l17 -28q-31 -54 -72.5 -84t-83.5 -30q-26 0 -46.5 10.5t-37.5 23.5t-31 23.5
t-28 10.5q-10 0 -21 -5.5t-21.5 -13.5t-20 -17t-15.5 -15l-4 -5l-5 -5h-73zM289 393q-26 -38 -52.5 -86.5t-49.5 -94.5h135l81 198q1 23 -8.5 36t-25.5 12.5t-37 -16t-43 -49.5z" />
    <glyph glyph-name="Ccedilla" unicode="&#xc7;" horiz-adv-x="376" 
d="M64 -58l32 49q-66 13 -85.5 78t9.5 175q18 66 49 118t71 87.5t87 54.5t97 19q35 0 57.5 -14.5t32 -37.5t7 -51.5t-17.5 -55.5q-13 -25 -27 -41.5t-27.5 -26t-24.5 -13.5t-18 -4q-29 0 -37.5 23t4.5 55q14 37 39 57t55 20q9 0 13 -1q3 7 2 15t-6.5 15t-17.5 11.5t-31 4.5
q-35 0 -63.5 -17.5t-52 -47t-42 -67.5t-32.5 -79q-16 -47 -24 -88t-3.5 -71t24 -47t58.5 -17q45 0 81 25.5t58 60.5l17 -28q-14 -22 -32.5 -41.5t-42.5 -35t-54 -25t-67 -12.5l-37 -56q11 -5 21.5 -10.5t20.5 -13.5q24 -18 32 -39t4 -41t-19 -36.5t-37 -25.5t-48 -9.5
t-51.5 6t-49.5 19.5t-41 32l42 67q30 -23 59.5 -31t50 -5.5t27 13t-8.5 25.5q-14 13 -34.5 21.5t-42.5 15.5z" />
    <glyph glyph-name="Egrave" unicode="&#xc8;" horiz-adv-x="444" 
d="M526 439q-29 -17 -55 -12t-51.5 18t-51.5 27t-53 14h-2l-78 -187h134l-18 -51h-137q-18 -44 -35 -84.5t-29 -71.5q13 10 29.5 18t36.5 8q17 0 34.5 -9t35.5 -19t36.5 -18.5t38 -6.5t40.5 17t43 51l17 -28q-31 -54 -72.5 -84t-83.5 -30q-26 0 -46.5 10.5t-37.5 23.5
t-31 23.5t-28 10.5q-10 0 -21 -5.5t-21.5 -13.5t-20 -17t-15.5 -15l-4 -5l-5 -5h-73l171 418l106 66q-20 -4 -44.5 -12t-49.5 -19t-48 -26t-41 -33l-20 21l52 72q25 10 48 17.5t47 12t50.5 6.5t59.5 2q20 0 45 -3t54.5 -5t62 -1t68.5 9zM464 539l-220 96l61 106l179 -163z
" />
    <glyph glyph-name="Eacute" unicode="&#xc9;" horiz-adv-x="444" 
d="M526 439q-29 -17 -55 -12t-51.5 18t-51.5 27t-53 14h-2l-78 -187h134l-18 -51h-137q-18 -44 -35 -84.5t-29 -71.5q13 10 29.5 18t36.5 8q17 0 34.5 -9t35.5 -19t36.5 -18.5t38 -6.5t40.5 17t43 51l17 -28q-31 -54 -72.5 -84t-83.5 -30q-26 0 -46.5 10.5t-37.5 23.5
t-31 23.5t-28 10.5q-10 0 -21 -5.5t-21.5 -13.5t-20 -17t-15.5 -15l-4 -5l-5 -5h-73l171 418l106 66q-20 -4 -44.5 -12t-49.5 -19t-48 -26t-41 -33l-20 21l52 72q25 10 48 17.5t47 12t50.5 6.5t59.5 2q20 0 45 -3t54.5 -5t62 -1t68.5 9zM271 587l179 163l61 -106l-220 -96z
" />
    <glyph glyph-name="Ecircumflex" unicode="&#xca;" horiz-adv-x="444" 
d="M526 439q-29 -17 -55 -12t-51.5 18t-51.5 27t-53 14h-2l-78 -187h134l-18 -51h-137q-18 -44 -35 -84.5t-29 -71.5q13 10 29.5 18t36.5 8q17 0 34.5 -9t35.5 -19t36.5 -18.5t38 -6.5t40.5 17t43 51l17 -28q-31 -54 -72.5 -84t-83.5 -30q-26 0 -46.5 10.5t-37.5 23.5
t-31 23.5t-28 10.5q-10 0 -21 -5.5t-21.5 -13.5t-20 -17t-15.5 -15l-4 -5l-5 -5h-73l171 418l106 66q-20 -4 -44.5 -12t-49.5 -19t-48 -26t-41 -33l-20 21l52 72q25 10 48 17.5t47 12t50.5 6.5t59.5 2q20 0 45 -3t54.5 -5t62 -1t68.5 9zM508 702l26 -144l-120 -1l6 105
l-176 -117l-36 49l203 108h97z" />
    <glyph glyph-name="Edieresis" unicode="&#xcb;" horiz-adv-x="444" 
d="M526 439q-29 -17 -55 -12t-51.5 18t-51.5 27t-53 14h-2l-78 -187h134l-18 -51h-137q-18 -44 -35 -84.5t-29 -71.5q13 10 29.5 18t36.5 8q17 0 34.5 -9t35.5 -19t36.5 -18.5t38 -6.5t40.5 17t43 51l17 -28q-31 -54 -72.5 -84t-83.5 -30q-26 0 -46.5 10.5t-37.5 23.5
t-31 23.5t-28 10.5q-10 0 -21 -5.5t-21.5 -13.5t-20 -17t-15.5 -15l-4 -5l-5 -5h-73l171 418l106 66q-20 -4 -44.5 -12t-49.5 -19t-48 -26t-41 -33l-20 21l52 72q25 10 48 17.5t47 12t50.5 6.5t59.5 2q20 0 45 -3t54.5 -5t62 -1t68.5 9zM349 626q0 -25 -17 -42t-43 -17
q-24 0 -42 17t-18 42q0 26 18 43t42 17q26 0 43 -17t17 -43zM499 626q0 -25 -18 -42t-42 -17q-26 0 -43 17t-17 42q0 26 17 43t43 17q24 0 42 -17t18 -43z" />
    <glyph glyph-name="Igrave" unicode="&#xcc;" horiz-adv-x="252" 
d="M310 479h-37l-151 -374q-10 -25 3 -33t35.5 -3t48.5 21.5t43 42.5l17 -28q-14 -26 -35.5 -47t-46 -36t-50 -23.5t-49.5 -8.5t-43.5 8.5t-30 24.5t-11 40t12.5 55q2 6 11 27.5t21.5 52t27.5 68t30.5 75.5t30 74t25.5 64h-43l18 44h191zM310 565l-220 96l61 106l179 -163z
" />
    <glyph glyph-name="Iacute" unicode="&#xcd;" horiz-adv-x="252" 
d="M310 479h-37l-151 -374q-10 -25 3 -33t35.5 -3t48.5 21.5t43 42.5l17 -28q-14 -26 -35.5 -47t-46 -36t-50 -23.5t-49.5 -8.5t-43.5 8.5t-30 24.5t-11 40t12.5 55q2 6 11 27.5t21.5 52t27.5 68t30.5 75.5t30 74t25.5 64h-43l18 44h191zM194 604l179 163l61 -106l-220 -96z
" />
    <glyph glyph-name="Icircumflex" unicode="&#xce;" horiz-adv-x="252" 
d="M310 479h-37l-151 -374q-10 -25 3 -33t35.5 -3t48.5 21.5t43 42.5l17 -28q-14 -26 -35.5 -47t-46 -36t-50 -23.5t-49.5 -8.5t-43.5 8.5t-30 24.5t-11 40t12.5 55q2 6 11 27.5t21.5 52t27.5 68t30.5 75.5t30 74t25.5 64h-43l18 44h191zM392 732l26 -144l-120 -1l6 105
l-176 -117l-36 49l203 108h97z" />
    <glyph glyph-name="Idieresis" unicode="&#xcf;" horiz-adv-x="252" 
d="M273 479l-151 -374q-10 -25 3 -33t35.5 -3t48.5 21.5t43 42.5l17 -28q-14 -26 -35.5 -47t-46 -36t-50 -23.5t-49.5 -8.5t-43.5 8.5t-30 24.5t-11 40t12.5 55q2 6 11 27.5t21.5 52t27.5 68t30.5 75.5t30 74t25.5 64h-43l18 44h191l-18 -44h-37zM224 623q0 -25 -17 -42
t-43 -17q-24 0 -42 17t-18 42q0 26 18 43t42 17q26 0 43 -17t17 -43zM374 623q0 -25 -18 -42t-42 -17q-26 0 -43 17t-17 42q0 26 17 43t43 17q24 0 42 -17t18 -43z" />
    <glyph glyph-name="Eth" unicode="&#xd0;" horiz-adv-x="477" 
d="M63 257h45l65 159l97 60q-46 -11 -94.5 -32t-79.5 -52l-20 21l52 72q51 21 104 29.5t119 8.5q87 0 122.5 -61t2.5 -183q-16 -58 -42.5 -113.5t-66.5 -97.5t-96 -64t-132 -13q-20 3 -30 7h-107l88 215h-45zM343 486q-7 0 -14.5 -0.5t-15.5 -1.5l-94 -227h52l-18 -44h-52
l-72 -175l14 -4t17 -3q33 -4 63 15t55.5 52t45.5 74.5t34 82.5q17 51 25 93t6.5 73t-13 48t-33.5 17z" />
    <glyph glyph-name="Ntilde" unicode="&#xd1;" horiz-adv-x="482" 
d="M528 424q-5 -12 -14.5 -32.5t-21 -46.5t-25 -55.5t-26.5 -58.5q-31 -69 -66 -148q-10 -30 -0.5 -41.5t41.5 -3.5l-15 -39q-9 -3 -21 -5q-11 -2 -25.5 -3t-32.5 -1q-57 0 -86.5 31.5t-34.5 98.5l-18 237q-16 -42 -30.5 -85t-25.5 -80.5t-18 -66.5t-9 -42q-4 -30 2.5 -42
t38.5 -4l-15 -39q-8 -2 -17 -4q-8 -2 -17.5 -3t-19.5 -1q-47 0 -63 27.5t4 73.5q5 11 14.5 32t21 47t25 55.5t26.5 58.5q31 68 66 147q2 7 3 12.5t2 10.5q-13 19 -40 19h-10v43q7 2 15 4q7 2 16 3t20 1q57 0 86 -31.5t34 -98.5q1 -11 2.5 -36.5t4 -57.5t5 -67.5t5 -66
t4 -52.5t1.5 -27q2 -15 7 -24l111 369q10 30 0.5 41.5t-41.5 3.5l15 39q8 2 17 4q8 2 17 3t20 1q47 0 67.5 -27t0.5 -73zM220 596q31 43 72 69.5t83 32.5q29 4 39.5 -6.5t14.5 -24t7 -25t17 -9.5t27 12t24 21q12 13 23 30l33 -32q-19 -25 -44 -46q-21 -18 -49.5 -34
t-61.5 -21q-23 -3 -35.5 1t-19 11.5t-8.5 17t-3.5 17.5t-4.5 13t-11 4q-13 -2 -25.5 -11.5t-22.5 -20.5q-12 -13 -23 -28z" />
    <glyph glyph-name="Ograve" unicode="&#xd2;" horiz-adv-x="460" 
d="M332 523q41 0 71.5 -15.5t47 -46t17 -76.5t-18.5 -106q-18 -58 -45 -111t-64.5 -93t-86.5 -63.5t-112 -23.5q-44 0 -75 16t-47.5 46.5t-16 76.5t20.5 106q19 56 43.5 108t60 92.5t85.5 65t120 24.5zM328 255q16 48 27 89.5t12.5 73t-8 49.5t-34.5 18q-27 0 -53 -20.5
t-49.5 -53t-43.5 -73.5t-34 -82q-16 -47 -27.5 -88t-13 -71.5t8.5 -48t36 -17.5q29 0 55.5 20t49 51.5t41.5 71.5t33 81zM429 555l-220 96l61 106l179 -163z" />
    <glyph glyph-name="Oacute" unicode="&#xd3;" horiz-adv-x="460" 
d="M332 523q41 0 71.5 -15.5t47 -46t17 -76.5t-18.5 -106q-18 -58 -45 -111t-64.5 -93t-86.5 -63.5t-112 -23.5q-44 0 -75 16t-47.5 46.5t-16 76.5t20.5 106q19 56 43.5 108t60 92.5t85.5 65t120 24.5zM328 255q16 48 27 89.5t12.5 73t-8 49.5t-34.5 18q-27 0 -53 -20.5
t-49.5 -53t-43.5 -73.5t-34 -82q-16 -47 -27.5 -88t-13 -71.5t8.5 -48t36 -17.5q29 0 55.5 20t49 51.5t41.5 71.5t33 81zM261 594l179 163l61 -106l-220 -96z" />
    <glyph glyph-name="Ocircumflex" unicode="&#xd4;" horiz-adv-x="460" 
d="M332 523q41 0 71.5 -15.5t47 -46t17 -76.5t-18.5 -106q-18 -58 -45 -111t-64.5 -93t-86.5 -63.5t-112 -23.5q-44 0 -75 16t-47.5 46.5t-16 76.5t20.5 106q19 56 43.5 108t60 92.5t85.5 65t120 24.5zM328 255q16 48 27 89.5t12.5 73t-8 49.5t-34.5 18q-27 0 -53 -20.5
t-49.5 -53t-43.5 -73.5t-34 -82q-16 -47 -27.5 -88t-13 -71.5t8.5 -48t36 -17.5q29 0 55.5 20t49 51.5t41.5 71.5t33 81zM486 702l26 -144l-120 -1l6 105l-176 -117l-36 49l203 108h97z" />
    <glyph glyph-name="Otilde" unicode="&#xd5;" horiz-adv-x="460" 
d="M332 523q41 0 71.5 -15.5t47 -46t17 -76.5t-18.5 -106q-18 -58 -45 -111t-64.5 -93t-86.5 -63.5t-112 -23.5q-44 0 -75 16t-47.5 46.5t-16 76.5t20.5 106q19 56 43.5 108t60 92.5t85.5 65t120 24.5zM328 255q16 48 27 89.5t12.5 73t-8 49.5t-34.5 18q-27 0 -53 -20.5
t-49.5 -53t-43.5 -73.5t-34 -82q-16 -47 -27.5 -88t-13 -71.5t8.5 -48t36 -17.5q29 0 55.5 20t49 51.5t41.5 71.5t33 81zM206 584q31 43 72 69.5t83 32.5q29 4 39.5 -6.5t14.5 -24t7 -25t17 -9.5t27 12t24 21q12 13 23 30l33 -32q-19 -25 -44 -46q-21 -18 -49.5 -34
t-61.5 -21q-23 -3 -35.5 1t-19 11.5t-8.5 17t-3.5 17.5t-4.5 13t-11 4q-13 -2 -25.5 -11.5t-22.5 -20.5q-12 -13 -23 -28z" />
    <glyph glyph-name="Odieresis" unicode="&#xd6;" horiz-adv-x="460" 
d="M332 523q41 0 71.5 -15.5t47 -46t17 -76.5t-18.5 -106q-18 -58 -45 -111t-64.5 -93t-86.5 -63.5t-112 -23.5q-44 0 -75 16t-47.5 46.5t-16 76.5t20.5 106q19 56 43.5 108t60 92.5t85.5 65t120 24.5zM328 255q16 48 27 89.5t12.5 73t-8 49.5t-34.5 18q-27 0 -53 -20.5
t-49.5 -53t-43.5 -73.5t-34 -82q-16 -47 -27.5 -88t-13 -71.5t8.5 -48t36 -17.5q29 0 55.5 20t49 51.5t41.5 71.5t33 81zM340 614q0 -25 -17 -42t-43 -17q-24 0 -42 17t-18 42q0 26 18 43t42 17q26 0 43 -17t17 -43zM490 614q0 -25 -18 -42t-42 -17q-26 0 -43 17t-17 42
q0 26 17 43t43 17q24 0 42 -17t18 -43z" />
    <glyph glyph-name="multiply" unicode="&#xd7;" horiz-adv-x="450" 
d="M229 210l135 76l8 -61l-113 -50l60 -47l-47 -62l-54 84l-131 -76l-7 62l107 51l-65 44l46 61z" />
    <glyph glyph-name="Oslash" unicode="&#xd8;" horiz-adv-x="460" 
d="M332 523q54 0 89 -27l31 35h57l-60 -68q17 -31 18 -77t-18 -107q-18 -58 -45 -111t-64.5 -93t-86.5 -63.5t-112 -23.5q-55 0 -91 25l-33 -38h-56l61 69q-19 31 -19.5 78t20.5 111q19 56 43.5 108t60 92.5t85.5 65t120 24.5zM145 256q-21 -59 -33 -110l255 289
q-1 23 -11 36.5t-31 13.5q-27 0 -53 -20.5t-49.5 -53t-43.5 -73.5t-34 -82zM328 255q9 29 17 55.5t13 50.5l-253 -287q2 -20 12.5 -31.5t31.5 -11.5q29 0 55.5 20t49 51.5t41.5 71.5t33 81z" />
    <glyph glyph-name="Ugrave" unicode="&#xd9;" horiz-adv-x="469" 
d="M269 130q-21 -30 -44.5 -55.5t-47.5 -44t-48.5 -29.5t-49.5 -11q-58 0 -72 31.5t13 98.5q4 10 14 34.5t23 56t27 66t26.5 65.5t22 54t13.5 32q8 20 2 32.5t-29 12.5h-10l21 43q8 2 17 4q8 2 17.5 3t19.5 1q57 0 71.5 -31.5t-12.5 -98.5l-126 -307q-9 -23 -2.5 -30t24 1.5
t43.5 32t56 60.5t61.5 87.5t59.5 113.5l31 76q9 20 3 32.5t-29 12.5h-10l20 43q8 2 17 4q8 2 17.5 3t20.5 1q57 0 71 -31.5t-13 -98.5l-117 -289q-8 -20 2 -28.5t27 -5t37.5 19t33.5 42.5l17 -28q-10 -24 -27.5 -44.5t-39 -36.5t-46 -25t-48.5 -9t-41.5 8.5t-26.5 24.5
t-8 40t14 55zM403 551l-220 96l61 106l179 -163z" />
    <glyph glyph-name="Uacute" unicode="&#xda;" horiz-adv-x="469" 
d="M269 130q-21 -30 -44.5 -55.5t-47.5 -44t-48.5 -29.5t-49.5 -11q-58 0 -72 31.5t13 98.5q4 10 14 34.5t23 56t27 66t26.5 65.5t22 54t13.5 32q8 20 2 32.5t-29 12.5h-10l21 43q8 2 17 4q8 2 17.5 3t19.5 1q57 0 71.5 -31.5t-12.5 -98.5l-126 -307q-9 -23 -2.5 -30t24 1.5
t43.5 32t56 60.5t61.5 87.5t59.5 113.5l31 76q9 20 3 32.5t-29 12.5h-10l20 43q8 2 17 4q8 2 17.5 3t20.5 1q57 0 71 -31.5t-13 -98.5l-117 -289q-8 -20 2 -28.5t27 -5t37.5 19t33.5 42.5l17 -28q-10 -24 -27.5 -44.5t-39 -36.5t-46 -25t-48.5 -9t-41.5 8.5t-26.5 24.5
t-8 40t14 55zM266 581l179 163l61 -106l-220 -96z" />
    <glyph glyph-name="Ucircumflex" unicode="&#xdb;" horiz-adv-x="469" 
d="M269 130q-21 -30 -44.5 -55.5t-47.5 -44t-48.5 -29.5t-49.5 -11q-58 0 -72 31.5t13 98.5q4 10 14 34.5t23 56t27 66t26.5 65.5t22 54t13.5 32q8 20 2 32.5t-29 12.5h-10l21 43q8 2 17 4q8 2 17.5 3t19.5 1q57 0 71.5 -31.5t-12.5 -98.5l-126 -307q-9 -23 -2.5 -30t24 1.5
t43.5 32t56 60.5t61.5 87.5t59.5 113.5l31 76q9 20 3 32.5t-29 12.5h-10l20 43q8 2 17 4q8 2 17.5 3t20.5 1q57 0 71 -31.5t-13 -98.5l-117 -289q-8 -20 2 -28.5t27 -5t37.5 19t33.5 42.5l17 -28q-10 -24 -27.5 -44.5t-39 -36.5t-46 -25t-48.5 -9t-41.5 8.5t-26.5 24.5
t-8 40t14 55zM478 716l26 -144l-120 -1l6 105l-176 -117l-36 49l203 108h97z" />
    <glyph glyph-name="Udieresis" unicode="&#xdc;" horiz-adv-x="469" 
d="M269 130q-21 -30 -44.5 -55.5t-47.5 -44t-48.5 -29.5t-49.5 -11q-58 0 -72 31.5t13 98.5q4 10 14 34.5t23 56t27 66t26.5 65.5t22 54t13.5 32q8 20 2 32.5t-29 12.5h-10l21 43q8 2 17 4q8 2 17.5 3t19.5 1q57 0 71.5 -31.5t-12.5 -98.5l-126 -307q-9 -23 -2.5 -30t24 1.5
t43.5 32t56 60.5t61.5 87.5t59.5 113.5l31 76q9 20 3 32.5t-29 12.5h-10l20 43q8 2 17 4q8 2 17.5 3t20.5 1q57 0 71 -31.5t-13 -98.5l-117 -289q-8 -20 2 -28.5t27 -5t37.5 19t33.5 42.5l17 -28q-10 -24 -27.5 -44.5t-39 -36.5t-46 -25t-48.5 -9t-41.5 8.5t-26.5 24.5
t-8 40t14 55zM328 610q0 -25 -17 -42t-43 -17q-24 0 -42 17t-18 42q0 26 18 43t42 17q26 0 43 -17t17 -43zM478 610q0 -25 -18 -42t-42 -17q-26 0 -43 17t-17 42q0 26 17 43t43 17q24 0 42 -17t18 -43z" />
    <glyph glyph-name="Yacute" unicode="&#xdd;" horiz-adv-x="322" 
d="M53 524q57 0 88.5 -31.5t40.5 -98.5l14 -101q38 30 64.5 68t35.5 70q9 29 0 41t-41 4l15 40q8 1 17 3q8 2 17 3t20 1q23 0 42 -7t30 -20t12.5 -31.5t-8.5 -41.5q-23 -51 -74.5 -95.5t-115.5 -74.5l-68 -166q-8 -21 -2 -33.5t29 -12.5h9l-20 -43q-8 -2 -17 -4
q-8 -2 -17.5 -3t-19.5 -1q-58 0 -72 31.5t13 98.5l48 119l-26 189q-2 20 -15 32.5t-36 12.5h-10l-4 43q7 2 15 4q7 2 16 3t20 1zM160 591l179 163l61 -106l-220 -96z" />
    <glyph glyph-name="Thorn" unicode="&#xde;" 
d="M133 87q-8 -21 -2 -33.5t29 -12.5h10l-21 -43q-8 -2 -17 -4q-8 -2 -17.5 -3t-19.5 -1q-57 0 -71.5 31.5t12.5 98.5l99 244q-29 -12 -55 -27t-45 -34l-20 21l52 72q46 18 93 27q0 3 2 5q9 20 2.5 32.5t-29.5 12.5h-9l20 43q8 2 17 4q8 2 17.5 3t19.5 1q94 0 72 -90h19
q36 0 65 -14t46 -40t19.5 -62.5t-13.5 -80.5q-15 -40 -40.5 -72.5t-61 -53.5t-79 -27.5t-94.5 4.5v-1zM151 131q29 -2 54 10t45.5 32t35.5 45.5t25 49.5q21 55 13 92t-52 37q-8 0 -12 -1q-1 -1 -1 -2z" />
    <glyph glyph-name="germandbls" unicode="&#xdf;" horiz-adv-x="415" 
d="M390 389q-16 -30 -36.5 -49t-39.5 -27q22 -3 39 -14.5t27.5 -30t12.5 -43.5t-7 -56q-15 -50 -39 -83.5t-54.5 -54t-66.5 -29.5t-75 -9q-32 0 -51 15t-26 38l-51 -125q-8 -20 -2 -32.5t28 -12.5h10l-20 -43q-8 -2 -17 -4q-8 -2 -17.5 -3t-19.5 -1q-57 0 -71 31.5t12 97.5
l161 394q38 98 101.5 148.5t139.5 50.5q32 0 51 -14.5t26.5 -37t3 -51t-18.5 -55.5zM146 219q12 9 22.5 12.5t17.5 3.5q29 0 38 -22.5t-4 -54.5q-14 -37 -39 -57t-55 -20q-4 0 -6.5 0.5t-6.5 1.5q-2 -20 6.5 -33t28.5 -13q19 0 37.5 10t35 28t30 42t23.5 52q27 72 6 99
t-70 12l14 33q86 22 127 107q7 14 8.5 29t-1.5 27t-10 19.5t-17 7.5q-19 0 -38 -13.5t-36.5 -35.5t-32.5 -50t-25 -56z" />
    <glyph glyph-name="agrave" unicode="&#xe0;" 
d="M258 390q39 0 59 -28q3 7 4.5 12.5t3.5 7.5h110q-3 -9 -12 -31t-21 -50.5t-25 -60t-24.5 -59.5t-20 -48.5t-10.5 -26.5q-8 -19 2 -27t27 -5t37.5 18t33.5 42l17 -28q-10 -24 -27.5 -44.5t-39 -35.5t-46 -24t-48.5 -9q-31 0 -50.5 13t-24.5 39q-29 -24 -58.5 -38
t-56.5 -14q-34 0 -55.5 15.5t-30.5 42.5t-5.5 63.5t21.5 77.5q43 102 107 150t133 48zM300 323q-9 14 -29 14q-19 0 -35.5 -7.5t-33 -24t-33.5 -43.5t-36 -66q-15 -29 -23.5 -54.5t-9.5 -44.5t6.5 -30t24.5 -11t37 10t40 28q3 13 9 26zM425 431l-220 96l61 106l179 -163z
" />
    <glyph glyph-name="aacute" unicode="&#xe1;" 
d="M258 390q39 0 59 -28q3 7 4.5 12.5t3.5 7.5h110q-3 -9 -12 -31t-21 -50.5t-25 -60t-24.5 -59.5t-20 -48.5t-10.5 -26.5q-8 -19 2 -27t27 -5t37.5 18t33.5 42l17 -28q-10 -24 -27.5 -44.5t-39 -35.5t-46 -24t-48.5 -9q-31 0 -50.5 13t-24.5 39q-29 -24 -58.5 -38
t-56.5 -14q-34 0 -55.5 15.5t-30.5 42.5t-5.5 63.5t21.5 77.5q43 102 107 150t133 48zM300 323q-9 14 -29 14q-19 0 -35.5 -7.5t-33 -24t-33.5 -43.5t-36 -66q-15 -29 -23.5 -54.5t-9.5 -44.5t6.5 -30t24.5 -11t37 10t40 28q3 13 9 26zM243 470l179 163l61 -106l-220 -96z
" />
    <glyph glyph-name="acircumflex" unicode="&#xe2;" 
d="M258 390q39 0 59 -28q3 7 4.5 12.5t3.5 7.5h110q-3 -9 -12 -31t-21 -50.5t-25 -60t-24.5 -59.5t-20 -48.5t-10.5 -26.5q-8 -19 2 -27t27 -5t37.5 18t33.5 42l17 -28q-10 -24 -27.5 -44.5t-39 -35.5t-46 -24t-48.5 -9q-31 0 -50.5 13t-24.5 39q-29 -24 -58.5 -38
t-56.5 -14q-34 0 -55.5 15.5t-30.5 42.5t-5.5 63.5t21.5 77.5q43 102 107 150t133 48zM300 323q-9 14 -29 14q-19 0 -35.5 -7.5t-33 -24t-33.5 -43.5t-36 -66q-15 -29 -23.5 -54.5t-9.5 -44.5t6.5 -30t24.5 -11t37 10t40 28q3 13 9 26zM457 598l26 -144l-120 -1l6 105
l-176 -117l-36 49l203 108h97z" />
    <glyph glyph-name="atilde" unicode="&#xe3;" 
d="M258 390q39 0 59 -28q3 7 4.5 12.5t3.5 7.5h110q-3 -9 -12 -31t-21 -50.5t-25 -60t-24.5 -59.5t-20 -48.5t-10.5 -26.5q-8 -19 2 -27t27 -5t37.5 18t33.5 42l17 -28q-10 -24 -27.5 -44.5t-39 -35.5t-46 -24t-48.5 -9q-31 0 -50.5 13t-24.5 39q-29 -24 -58.5 -38
t-56.5 -14q-34 0 -55.5 15.5t-30.5 42.5t-5.5 63.5t21.5 77.5q43 102 107 150t133 48zM300 323q-9 14 -29 14q-19 0 -35.5 -7.5t-33 -24t-33.5 -43.5t-36 -66q-15 -29 -23.5 -54.5t-9.5 -44.5t6.5 -30t24.5 -11t37 10t40 28q3 13 9 26zM160 489q31 43 72 69.5t83 32.5
q29 4 39.5 -6.5t14.5 -24t7 -25t17 -9.5t27 12t24 21q12 13 23 30l33 -32q-19 -25 -44 -46q-21 -18 -49.5 -34t-61.5 -21q-23 -3 -35.5 1t-19 11.5t-8.5 17t-3.5 17.5t-4.5 13t-11 4q-13 -2 -25.5 -11.5t-22.5 -20.5q-12 -13 -23 -28z" />
    <glyph glyph-name="adieresis" unicode="&#xe4;" 
d="M258 390q39 0 59 -28q3 7 4.5 12.5t3.5 7.5h110q-3 -9 -12 -31t-21 -50.5t-25 -60t-24.5 -59.5t-20 -48.5t-10.5 -26.5q-8 -19 2 -27t27 -5t37.5 18t33.5 42l17 -28q-10 -24 -27.5 -44.5t-39 -35.5t-46 -24t-48.5 -9q-31 0 -50.5 13t-24.5 39q-29 -24 -58.5 -38
t-56.5 -14q-34 0 -55.5 15.5t-30.5 42.5t-5.5 63.5t21.5 77.5q43 102 107 150t133 48zM300 323q-9 14 -29 14q-19 0 -35.5 -7.5t-33 -24t-33.5 -43.5t-36 -66q-15 -29 -23.5 -54.5t-9.5 -44.5t6.5 -30t24.5 -11t37 10t40 28q3 13 9 26zM305 499q0 -25 -17 -42t-43 -17
q-24 0 -42 17t-18 42q0 26 18 43t42 17q26 0 43 -17t17 -43zM455 499q0 -25 -18 -42t-42 -17q-26 0 -43 17t-17 42q0 26 17 43t43 17q24 0 42 -17t18 -43z" />
    <glyph glyph-name="aring" unicode="&#xe5;" 
d="M258 390q39 0 59 -28q3 7 4.5 12.5t3.5 7.5h110q-3 -9 -12 -31t-21 -50.5t-25 -60t-24.5 -59.5t-20 -48.5t-10.5 -26.5q-8 -19 2 -27t27 -5t37.5 18t33.5 42l17 -28q-10 -24 -27.5 -44.5t-39 -35.5t-46 -24t-48.5 -9q-31 0 -50.5 13t-24.5 39q-29 -24 -58.5 -38
t-56.5 -14q-34 0 -55.5 15.5t-30.5 42.5t-5.5 63.5t21.5 77.5q43 102 107 150t133 48zM427 509q0 -20 -8 -38t-22 -31.5t-32 -21.5t-39 -8t-39 8t-32 21.5t-22 31.5t-8 38q0 21 8 39.5t22 32t32 21.5t39 8t39 -8t32 -21.5t22 -32t8 -39.5zM300 323q-9 14 -29 14
q-19 0 -35.5 -7.5t-33 -24t-33.5 -43.5t-36 -66q-15 -29 -23.5 -54.5t-9.5 -44.5t6.5 -30t24.5 -11t37 10t40 28q3 13 9 26zM387 509q0 26 -17.5 43.5t-43.5 17.5t-43.5 -17.5t-17.5 -43.5q0 -25 17.5 -42.5t43.5 -17.5t43.5 17.5t17.5 42.5z" />
    <glyph glyph-name="ae" unicode="&#xe6;" horiz-adv-x="576" 
d="M258 390q39 0 59 -28q4 12 8 20h50l-6 -28q54 36 119 36q41 0 62 -21.5t23.5 -52t-13 -65t-47.5 -61.5q-45 -37 -104 -37h-64q-13 -45 9.5 -74.5t69.5 -29.5q21 0 43.5 7t43 18.5t37.5 27t28 32.5l17 -28q-25 -53 -86 -83t-142 -30q-51 0 -84 22.5t-44 60.5
q-35 -38 -74.5 -60.5t-74.5 -22.5q-34 0 -55.5 15.5t-30.5 42.5t-5.5 63.5t21.5 77.5q43 102 107 150t133 48zM300 322q-10 15 -29 15t-35.5 -7.5t-33 -24t-33.5 -43.5t-36 -66q-15 -29 -23.5 -54.5t-9.5 -44.5t6.5 -30t24.5 -11q22 0 48 16.5t52 44.5q0 17 3.5 36t11.5 39
q5 15 14 32zM463 345q-10 -4 -23.5 -18t-27.5 -35t-28.5 -47t-25.5 -54h35q23 0 39 14t30 43q12 22 19 42t8 34t-5 20.5t-21 0.5z" />
    <glyph glyph-name="ccedilla" unicode="&#xe7;" horiz-adv-x="344" 
d="M76 -34l20 31q-32 6 -54 24t-33 43.5t-10 58.5t15 69q39 97 102 147.5t140 50.5q32 0 51 -14.5t26 -37.5t2.5 -51.5t-18.5 -55.5q-13 -25 -27 -41t-27 -25.5t-24.5 -13t-18.5 -3.5q-28 0 -36.5 22t3.5 54q15 37 39.5 57t54.5 20h6.5t5.5 -1q3 20 -5.5 33t-28.5 13
t-39 -14t-36.5 -36t-32 -49.5t-24.5 -55.5q-27 -72 -8 -107t73 -35q21 0 43.5 7t43 18.5t37.5 27t28 32.5l17 -28q-23 -50 -79 -79.5t-131 -32.5l-24 -37q11 -5 21.5 -10.5t20.5 -13.5q24 -18 32 -39t4 -41t-19 -36.5t-37 -25.5t-48 -9.5t-51.5 6t-49.5 19.5t-41 32l42 67
q30 -23 59.5 -31t50 -5.5t27 13t-8.5 25.5q-14 13 -34.5 21.5t-42.5 15.5z" />
    <glyph glyph-name="egrave" unicode="&#xe8;" horiz-adv-x="344" 
d="M192 49q21 0 43.5 7t43 18.5t37.5 27t28 32.5l17 -28q-25 -53 -86 -83t-142 -30q-42 0 -71.5 15.5t-45.5 42.5t-17 63.5t15 77.5q38 97 101.5 147.5t140.5 50.5q41 0 62 -21.5t23.5 -52t-13 -65t-47.5 -61.5q-45 -37 -104 -37h-64q-13 -45 9.5 -74.5t69.5 -29.5zM341 431
l-220 96l61 106l179 -163zM231 345q-10 -4 -23.5 -18t-27.5 -35t-28.5 -47t-25.5 -54h35q23 0 39 14t30 43q12 22 19 42t8 34t-5 20.5t-21 0.5z" />
    <glyph glyph-name="eacute" unicode="&#xe9;" horiz-adv-x="344" 
d="M192 49q21 0 43.5 7t43 18.5t37.5 27t28 32.5l17 -28q-25 -53 -86 -83t-142 -30q-42 0 -71.5 15.5t-45.5 42.5t-17 63.5t15 77.5q38 97 101.5 147.5t140.5 50.5q41 0 62 -21.5t23.5 -52t-13 -65t-47.5 -61.5q-45 -37 -104 -37h-64q-13 -45 9.5 -74.5t69.5 -29.5zM204 470
l179 163l61 -106l-220 -96zM231 345q-10 -4 -23.5 -18t-27.5 -35t-28.5 -47t-25.5 -54h35q23 0 39 14t30 43q12 22 19 42t8 34t-5 20.5t-21 0.5z" />
    <glyph glyph-name="ecircumflex" unicode="&#xea;" horiz-adv-x="344" 
d="M192 49q21 0 43.5 7t43 18.5t37.5 27t28 32.5l17 -28q-25 -53 -86 -83t-142 -30q-42 0 -71.5 15.5t-45.5 42.5t-17 63.5t15 77.5q38 97 101.5 147.5t140.5 50.5q41 0 62 -21.5t23.5 -52t-13 -65t-47.5 -61.5q-45 -37 -104 -37h-64q-13 -45 9.5 -74.5t69.5 -29.5zM385 598
l26 -144l-120 -1l6 105l-176 -117l-36 49l203 108h97zM231 345q-10 -4 -23.5 -18t-27.5 -35t-28.5 -47t-25.5 -54h35q23 0 39 14t30 43q12 22 19 42t8 34t-5 20.5t-21 0.5z" />
    <glyph glyph-name="edieresis" unicode="&#xeb;" horiz-adv-x="344" 
d="M192 49q21 0 43.5 7t43 18.5t37.5 27t28 32.5l17 -28q-25 -53 -86 -83t-142 -30q-42 0 -71.5 15.5t-45.5 42.5t-17 63.5t15 77.5q38 97 101.5 147.5t140.5 50.5q41 0 62 -21.5t23.5 -52t-13 -65t-47.5 -61.5q-45 -37 -104 -37h-64q-13 -45 9.5 -74.5t69.5 -29.5zM257 499
q0 -25 -17 -42t-43 -17q-24 0 -42 17t-18 42q0 26 18 43t42 17q26 0 43 -17t17 -43zM407 499q0 -25 -18 -42t-42 -17q-26 0 -43 17t-17 42q0 26 17 43t43 17q24 0 42 -17t18 -43zM231 345q-10 -4 -23.5 -18t-27.5 -35t-28.5 -47t-25.5 -54h35q23 0 39 14t30 43q12 22 19 42
t8 34t-5 20.5t-21 0.5z" />
    <glyph glyph-name="igrave" unicode="&#xec;" horiz-adv-x="198" 
d="M215 106q-10 -24 -27.5 -44.5t-39 -35.5t-46 -24t-48.5 -9q-49 0 -68 32t7 95q5 12 15.5 36.5t21.5 51.5t20.5 51t14.5 35q8 20 2 32.5t-29 12.5h-10l21 43q8 2 17 4q8 2 17.5 3t19.5 1q57 0 71 -31.5t-13 -97.5q-6 -15 -16.5 -41t-21.5 -52q-12 -30 -25 -62
q-8 -20 2 -28t27.5 -4.5t37.5 18.5t33 42zM233 431l-220 96l61 106l179 -163z" />
    <glyph glyph-name="iacute" unicode="&#xed;" horiz-adv-x="198" 
d="M215 106q-10 -24 -27.5 -44.5t-39 -35.5t-46 -24t-48.5 -9q-49 0 -68 32t7 95q5 12 15.5 36.5t21.5 51.5t20.5 51t14.5 35q8 20 2 32.5t-29 12.5h-10l21 43q8 2 17 4q8 2 17.5 3t19.5 1q57 0 71 -31.5t-13 -97.5q-6 -15 -16.5 -41t-21.5 -52q-12 -30 -25 -62
q-8 -20 2 -28t27.5 -4.5t37.5 18.5t33 42zM60 470l179 163l61 -106l-220 -96z" />
    <glyph glyph-name="icircumflex" unicode="&#xee;" horiz-adv-x="198" 
d="M215 106q-10 -24 -27.5 -44.5t-39 -35.5t-46 -24t-48.5 -9q-49 0 -68 32t7 95q5 12 15.5 36.5t21.5 51.5t20.5 51t14.5 35q8 20 2 32.5t-29 12.5h-10l21 43q8 2 17 4q8 2 17.5 3t19.5 1q57 0 71 -31.5t-13 -97.5q-6 -15 -16.5 -41t-21.5 -52q-12 -30 -25 -62
q-8 -20 2 -28t27.5 -4.5t37.5 18.5t33 42zM288 598l23 -149l-110 -1l6 109l-162 -121l-33 51l187 111h89z" />
    <glyph glyph-name="idieresis" unicode="&#xef;" horiz-adv-x="198" 
d="M215 106q-10 -24 -27.5 -44.5t-39 -35.5t-46 -24t-48.5 -9q-49 0 -68 32t7 95q5 12 15.5 36.5t21.5 51.5t20.5 51t14.5 35q8 20 2 32.5t-29 12.5h-10l21 43q8 2 17 4q8 2 17.5 3t19.5 1q57 0 71 -31.5t-13 -97.5q-6 -15 -16.5 -41t-21.5 -52q-12 -30 -25 -62
q-8 -20 2 -28t27.5 -4.5t37.5 18.5t33 42zM153 498q0 -21 -14.5 -35t-36.5 -14q-20 0 -35 14t-15 35q0 22 15 36.5t35 14.5q22 0 36.5 -14.5t14.5 -36.5zM279 498q0 -21 -15 -35t-35 -14q-22 0 -36.5 14t-14.5 35q0 22 14.5 36.5t36.5 14.5q20 0 35 -14.5t15 -36.5z" />
    <glyph glyph-name="eth" unicode="&#xf0;" horiz-adv-x="371" 
d="M386 466q9 -38 4.5 -88t-20 -102.5t-41.5 -103.5t-60.5 -90.5t-76 -64t-88.5 -24.5q-37 0 -61.5 16t-36 43t-9.5 63t20 77q33 71 73.5 113t79.5 61.5t70.5 21.5t46.5 -6q2 10 4 24.5t2 30.5l-96 -30l11 56l70 22q-12 12 -31 12h-10l10 43q7 1 16 3q8 2 16.5 3t19.5 1
q23 0 40 -9t28 -25l79 25l-11 -56zM234 191q9 23 17.5 49t15.5 49q8 26 15 54q-5 2 -11 4q-13 4 -29 1q-12 -3 -26.5 -16t-29.5 -34t-29.5 -48.5t-26.5 -58.5q-12 -30 -20 -57.5t-9.5 -48.5t3 -33.5t16.5 -12.5t27 12.5t30 33.5t30 48.5t27 57.5z" />
    <glyph glyph-name="ntilde" unicode="&#xf1;" horiz-adv-x="386" 
d="M90 88q-8 -21 -2 -33t29 -12h10l-20 -43q-8 -2 -17 -4q-15 -3 -37 -3q-57 0 -71.5 31t12.5 97l71 173q9 20 3 32.5t-29 12.5h-10l20 43q8 2 17 4q8 2 17.5 3t19.5 1q68 0 75 -47q24 22 53 34.5t58 12.5q49 0 68 -32t-7 -95q-5 -13 -14 -35.5t-19 -46.5t-18.5 -45
t-12.5 -30q-8 -19 2 -27t27.5 -5t37.5 18t33 42l17 -28q-10 -24 -27.5 -44.5t-39 -35.5t-46 -24t-48.5 -9t-41.5 8t-26.5 24t-8 40t14 55l65 156q6 15 0.5 23.5t-17.5 9t-28.5 -6t-31.5 -21.5q-2 -5 -3.5 -10t-3.5 -10q-6 -16 -17 -42t-21.5 -52.5t-20 -48.5t-12.5 -30z
M110 489q31 43 72 69.5t83 32.5q29 4 39.5 -6.5t14.5 -24t7 -25t17 -9.5t27 12t24 21q12 13 23 30l33 -32q-19 -25 -44 -46q-21 -18 -49.5 -34t-61.5 -21q-23 -3 -35.5 1t-19 11.5t-8.5 17t-3.5 17.5t-4.5 13t-11 4q-13 -2 -25.5 -11.5t-22.5 -20.5q-12 -13 -23 -28z" />
    <glyph glyph-name="ograve" unicode="&#xf2;" horiz-adv-x="364" 
d="M257 390q36 0 60.5 -15.5t35.5 -42.5t9 -63t-18 -77q-18 -47 -44 -83.5t-57.5 -62.5t-67 -39.5t-73.5 -13.5q-37 0 -61 15.5t-35 42.5t-8.5 63.5t18.5 77.5q38 95 100.5 146.5t140.5 51.5zM232 191q12 31 19.5 59t9.5 49.5t-2 34.5t-16 13t-27 -13t-30.5 -34.5
t-30.5 -49.5t-27 -59q-12 -30 -20 -57.5t-9.5 -48.5t3.5 -33.5t17 -12.5t26.5 12.5t29.5 33.5t30 48.5t27 57.5zM349 431l-220 96l61 106l179 -163z" />
    <glyph glyph-name="oacute" unicode="&#xf3;" horiz-adv-x="364" 
d="M257 390q36 0 60.5 -15.5t35.5 -42.5t9 -63t-18 -77q-18 -47 -44 -83.5t-57.5 -62.5t-67 -39.5t-73.5 -13.5q-37 0 -61 15.5t-35 42.5t-8.5 63.5t18.5 77.5q38 95 100.5 146.5t140.5 51.5zM232 191q12 31 19.5 59t9.5 49.5t-2 34.5t-16 13t-27 -13t-30.5 -34.5
t-30.5 -49.5t-27 -59q-12 -30 -20 -57.5t-9.5 -48.5t3.5 -33.5t17 -12.5t26.5 12.5t29.5 33.5t30 48.5t27 57.5zM185 470l179 163l61 -106l-220 -96z" />
    <glyph glyph-name="ocircumflex" unicode="&#xf4;" horiz-adv-x="364" 
d="M257 390q36 0 60.5 -15.5t35.5 -42.5t9 -63t-18 -77q-18 -47 -44 -83.5t-57.5 -62.5t-67 -39.5t-73.5 -13.5q-37 0 -61 15.5t-35 42.5t-8.5 63.5t18.5 77.5q38 95 100.5 146.5t140.5 51.5zM232 191q12 31 19.5 59t9.5 49.5t-2 34.5t-16 13t-27 -13t-30.5 -34.5
t-30.5 -49.5t-27 -59q-12 -30 -20 -57.5t-9.5 -48.5t3.5 -33.5t17 -12.5t26.5 12.5t29.5 33.5t30 48.5t27 57.5zM431 598l26 -144l-120 -1l6 105l-176 -117l-36 49l203 108h97z" />
    <glyph glyph-name="otilde" unicode="&#xf5;" horiz-adv-x="364" 
d="M257 390q36 0 60.5 -15.5t35.5 -42.5t9 -63t-18 -77q-18 -47 -44 -83.5t-57.5 -62.5t-67 -39.5t-73.5 -13.5q-37 0 -61 15.5t-35 42.5t-8.5 63.5t18.5 77.5q38 95 100.5 146.5t140.5 51.5zM232 191q12 31 19.5 59t9.5 49.5t-2 34.5t-16 13t-27 -13t-30.5 -34.5
t-30.5 -49.5t-27 -59q-12 -30 -20 -57.5t-9.5 -48.5t3.5 -33.5t17 -12.5t26.5 12.5t29.5 33.5t30 48.5t27 57.5zM141 489q31 43 72 69.5t83 32.5q29 4 39.5 -6.5t14.5 -24t7 -25t17 -9.5t27 12t24 21q12 13 23 30l33 -32q-19 -25 -44 -46q-21 -18 -49.5 -34t-61.5 -21
q-23 -3 -35.5 1t-19 11.5t-8.5 17t-3.5 17.5t-4.5 13t-11 4q-13 -2 -25.5 -11.5t-22.5 -20.5q-12 -13 -23 -28z" />
    <glyph glyph-name="odieresis" unicode="&#xf6;" horiz-adv-x="364" 
d="M257 390q36 0 60.5 -15.5t35.5 -42.5t9 -63t-18 -77q-18 -47 -44 -83.5t-57.5 -62.5t-67 -39.5t-73.5 -13.5q-37 0 -61 15.5t-35 42.5t-8.5 63.5t18.5 77.5q38 95 100.5 146.5t140.5 51.5zM232 191q12 31 19.5 59t9.5 49.5t-2 34.5t-16 13t-27 -13t-30.5 -34.5
t-30.5 -49.5t-27 -59q-12 -30 -20 -57.5t-9.5 -48.5t3.5 -33.5t17 -12.5t26.5 12.5t29.5 33.5t30 48.5t27 57.5zM275 499q0 -25 -17 -42t-43 -17q-24 0 -42 17t-18 42q0 26 18 43t42 17q26 0 43 -17t17 -43zM425 499q0 -25 -18 -42t-42 -17q-26 0 -43 17t-17 42q0 26 17 43
t43 17q24 0 42 -17t18 -43z" />
    <glyph glyph-name="divide" unicode="&#xf7;" horiz-adv-x="495" 
d="M256 59q0 -27 -19.5 -46.5t-47.5 -19.5t-47.5 19.5t-19.5 46.5q0 28 19.5 47.5t47.5 19.5t47.5 -19.5t19.5 -47.5zM366 319q0 -27 -19.5 -46.5t-47.5 -19.5t-47.5 19.5t-19.5 46.5q0 28 19.5 47.5t47.5 19.5t47.5 -19.5t19.5 -47.5zM123 229h282l-29 -69h-282z" />
    <glyph glyph-name="oslash" unicode="&#xf8;" horiz-adv-x="364" 
d="M257 390q20 0 36.5 -5.5t29.5 -14.5l26 26h62l-60 -61q13 -27 11.5 -64t-18.5 -79q-18 -47 -44 -83.5t-57.5 -62.5t-67 -39.5t-73.5 -13.5q-42 0 -68 20l-15 -15h-61l49 50q-11 27 -9.5 64t18.5 80q38 95 100.5 146.5t140.5 51.5zM232 191q4 9 7 18.5t6 18.5l-147 -149
q-2 -40 21 -40q12 0 26.5 12.5t29.5 33.5t30 48.5t27 57.5zM128 191q-7 -16 -12 -32l145 148q1 18 -3 29t-15 11q-12 0 -27 -13t-30.5 -34.5t-30.5 -49.5t-27 -59z" />
    <glyph glyph-name="ugrave" unicode="&#xf9;" horiz-adv-x="390" 
d="M290 106q-8 -19 2 -27t27.5 -5t37.5 18t33 42l17 -28q-10 -24 -27.5 -44.5t-39 -35.5t-46 -24t-48.5 -9q-31 0 -50 13t-24 39q-25 -24 -56.5 -38t-61.5 -14q-24 0 -41.5 8t-26 24t-7.5 40t14 55q5 12 15.5 36.5t21.5 51.5t20.5 51t14.5 35q9 20 3 32.5t-29 12.5h-10
l20 43q8 2 17 4q8 2 17.5 3t20.5 1q57 0 71 -31.5t-14 -97.5q-6 -15 -16.5 -41t-21.5 -52q-12 -30 -25 -62q-6 -17 0.5 -25.5t19.5 -8.5t30 8.5t32 25.5q1 4 2 7t3 7l108 262h111zM351 431l-220 96l61 106l179 -163z" />
    <glyph glyph-name="uacute" unicode="&#xfa;" horiz-adv-x="390" 
d="M290 106q-8 -19 2 -27t27.5 -5t37.5 18t33 42l17 -28q-10 -24 -27.5 -44.5t-39 -35.5t-46 -24t-48.5 -9q-31 0 -50 13t-24 39q-25 -24 -56.5 -38t-61.5 -14q-24 0 -41.5 8t-26 24t-7.5 40t14 55q5 12 15.5 36.5t21.5 51.5t20.5 51t14.5 35q9 20 3 32.5t-29 12.5h-10
l20 43q8 2 17 4q8 2 17.5 3t20.5 1q57 0 71 -31.5t-14 -97.5q-6 -15 -16.5 -41t-21.5 -52q-12 -30 -25 -62q-6 -17 0.5 -25.5t19.5 -8.5t30 8.5t32 25.5q1 4 2 7t3 7l108 262h111zM186 470l179 163l61 -106l-220 -96z" />
    <glyph glyph-name="ucircumflex" unicode="&#xfb;" horiz-adv-x="390" 
d="M290 106q-8 -19 2 -27t27.5 -5t37.5 18t33 42l17 -28q-10 -24 -27.5 -44.5t-39 -35.5t-46 -24t-48.5 -9q-31 0 -50 13t-24 39q-25 -24 -56.5 -38t-61.5 -14q-24 0 -41.5 8t-26 24t-7.5 40t14 55q5 12 15.5 36.5t21.5 51.5t20.5 51t14.5 35q9 20 3 32.5t-29 12.5h-10
l20 43q8 2 17 4q8 2 17.5 3t20.5 1q57 0 71 -31.5t-14 -97.5q-6 -15 -16.5 -41t-21.5 -52q-12 -30 -25 -62q-6 -17 0.5 -25.5t19.5 -8.5t30 8.5t32 25.5q1 4 2 7t3 7l108 262h111zM399 598l26 -144l-120 -1l6 105l-176 -117l-36 49l203 108h97z" />
    <glyph glyph-name="udieresis" unicode="&#xfc;" horiz-adv-x="390" 
d="M290 106q-8 -19 2 -27t27.5 -5t37.5 18t33 42l17 -28q-10 -24 -27.5 -44.5t-39 -35.5t-46 -24t-48.5 -9q-31 0 -50 13t-24 39q-25 -24 -56.5 -38t-61.5 -14q-24 0 -41.5 8t-26 24t-7.5 40t14 55q5 12 15.5 36.5t21.5 51.5t20.5 51t14.5 35q9 20 3 32.5t-29 12.5h-10
l20 43q8 2 17 4q8 2 17.5 3t20.5 1q57 0 71 -31.5t-14 -97.5q-6 -15 -16.5 -41t-21.5 -52q-12 -30 -25 -62q-6 -17 0.5 -25.5t19.5 -8.5t30 8.5t32 25.5q1 4 2 7t3 7l108 262h111zM253 499q0 -25 -17 -42t-43 -17q-24 0 -42 17t-18 42q0 26 18 43t42 17q26 0 43 -17t17 -43z
M403 499q0 -25 -18 -42t-42 -17q-26 0 -43 17t-17 42q0 26 17 43t43 17q24 0 42 -17t18 -43z" />
    <glyph glyph-name="yacute" unicode="&#xfd;" horiz-adv-x="374" 
d="M404 382q-8 -19 -18.5 -44t-22 -53.5t-23.5 -59t-24 -59.5q-27 -68 -58 -142q-38 -97 -101 -148t-140 -51q-32 0 -51.5 15t-26.5 38t-2.5 51t19.5 55q14 23 32 40q-9 17 -8.5 40.5t13.5 55.5q5 12 15.5 36.5t22 51.5t21 51t13.5 35q9 20 3 32.5t-29 12.5h-10l21 43
q8 2 17 4q8 2 17 3t20 1q57 0 71.5 -31.5t-13.5 -97.5q-6 -15 -16.5 -41t-21.5 -52q-12 -30 -25 -62q-6 -17 0 -25.5t18.5 -9t29.5 7.5t32 25l114 278h111zM196 470l179 163l61 -106l-220 -96zM55 -7q-22 0 -38 6q-13 -11 -25 -29t-18 -47q-6 -25 6.5 -39.5t32.5 -14.5
q19 0 38.5 14t37 36t32.5 49.5t25 54.5q-22 -14 -45 -22t-46 -8z" />
    <glyph glyph-name="thorn" unicode="&#xfe;" horiz-adv-x="391" 
d="M121 -7q-38 0 -58 26q-16 -40 -27 -66.5t-13 -31.5q-9 -20 -2.5 -32.5t28.5 -12.5h10l-21 -43q-8 -2 -17 -4q-8 -2 -17.5 -3t-19.5 -1q-57 0 -70.5 31.5t13.5 97.5q4 10 19.5 48.5t37 91t45.5 111.5t45 111t36 89t19 46q9 20 2.5 32.5t-29.5 12.5h-9l20 43q8 2 17 4
q8 2 17.5 3t19.5 1q57 0 71.5 -31.5t-12.5 -97.5l-25 -59q46 31 89 31q34 0 55.5 -15.5t31 -42.5t5.5 -63t-21 -77q-44 -103 -107.5 -151t-132.5 -48zM79 59q10 -12 29 -12q18 0 34.5 7t33 23.5t33.5 43t37 65.5q14 29 22.5 55t9.5 45t-6.5 30t-24.5 11q-32 0 -73 -35z" />
    <glyph glyph-name="ydieresis" unicode="&#xff;" horiz-adv-x="374" 
d="M404 382q-8 -19 -18.5 -44t-22 -53.5t-23.5 -59t-24 -59.5q-27 -68 -58 -142q-38 -97 -101 -148t-140 -51q-32 0 -51.5 15t-26.5 38t-2.5 51t19.5 55q14 23 32 40q-9 17 -8.5 40.5t13.5 55.5q5 12 15.5 36.5t22 51.5t21 51t13.5 35q9 20 3 32.5t-29 12.5h-10l21 43
q8 2 17 4q8 2 17 3t20 1q57 0 71.5 -31.5t-13.5 -97.5q-6 -15 -16.5 -41t-21.5 -52q-12 -30 -25 -62q-6 -17 0 -25.5t18.5 -9t29.5 7.5t32 25l114 278h111zM55 -7q-22 0 -38 6q-13 -11 -25 -29t-18 -47q-6 -25 6.5 -39.5t32.5 -14.5q19 0 38.5 14t37 36t32.5 49.5t25 54.5
q-22 -14 -45 -22t-46 -8zM254 499q0 -25 -17 -42t-43 -17q-24 0 -42 17t-18 42q0 26 18 43t42 17q26 0 43 -17t17 -43zM404 499q0 -25 -18 -42t-42 -17q-26 0 -43 17t-17 42q0 26 17 43t43 17q24 0 42 -17t18 -43z" />
    <glyph glyph-name="Amacron" unicode="&#x100;" horiz-adv-x="481" 
d="M500 105q-8 -24 -25 -44.5t-38.5 -36.5t-45.5 -25t-48 -9q-49 0 -70.5 32.5t0.5 95.5l16 43h-127l-34 -74q-11 -27 -5 -36.5t29 -9.5h9l-32 -43l-22 -4q-10 -2 -20.5 -3t-20.5 -1q-57 0 -63 31.5t39 98.5l27 40.5t34.5 51.5t32.5 48t21 31q39 54 69.5 97t59 73t59 46
t68.5 16q24 0 42.5 -8t28.5 -24t11 -40t-10 -55l-102 -291q-7 -19 3.5 -27.5t27.5 -5t36.5 18.5t30.5 42zM306 212l70 197q9 26 6 40.5t-15 14t-32.5 -17.5t-45.5 -53q-26 -38 -52.5 -86.5t-49.5 -94.5h119zM311 633h282l-29 -69h-282z" />
    <glyph glyph-name="amacron" unicode="&#x101;" 
d="M258 390q39 0 59 -28q3 7 4.5 12.5t3.5 7.5h110q-3 -9 -12 -31t-21 -50.5t-25 -60t-24.5 -59.5t-20 -48.5t-10.5 -26.5q-8 -19 2 -27t27 -5t37.5 18t33.5 42l17 -28q-10 -24 -27.5 -44.5t-39 -35.5t-46 -24t-48.5 -9q-31 0 -50.5 13t-24.5 39q-29 -24 -58.5 -38
t-56.5 -14q-34 0 -55.5 15.5t-30.5 42.5t-5.5 63.5t21.5 77.5q43 102 107 150t133 48zM300 323q-9 14 -29 14q-19 0 -35.5 -7.5t-33 -24t-33.5 -43.5t-36 -66q-15 -29 -23.5 -54.5t-9.5 -44.5t6.5 -30t24.5 -11t37 10t40 28q3 13 9 26zM214 555h282l-29 -69h-282z" />
    <glyph glyph-name="Abreve" unicode="&#x102;" horiz-adv-x="481" 
d="M500 105q-8 -24 -25 -44.5t-38.5 -36.5t-45.5 -25t-48 -9q-49 0 -70.5 32.5t0.5 95.5l16 43h-127l-34 -74q-11 -27 -5 -36.5t29 -9.5h9l-32 -43l-22 -4q-10 -2 -20.5 -3t-20.5 -1q-57 0 -63 31.5t39 98.5l27 40.5t34.5 51.5t32.5 48t21 31q39 54 69.5 97t59 73t59 46
t68.5 16q24 0 42.5 -8t28.5 -24t11 -40t-10 -55l-102 -291q-7 -19 3.5 -27.5t27.5 -5t36.5 18.5t30.5 42zM306 212l70 197q9 26 6 40.5t-15 14t-32.5 -17.5t-45.5 -53q-26 -38 -52.5 -86.5t-49.5 -94.5h119zM623 697q-14 -29 -35 -54t-45.5 -43.5t-51 -29.5t-50.5 -11
t-39.5 10.5t-22.5 29t-5 43t14 51.5l47 1q-16 -33 -5.5 -56.5t38.5 -23.5q14 0 29.5 6.5t30.5 17.5t27.5 25.5t20.5 31.5z" />
    <glyph glyph-name="abreve" unicode="&#x103;" 
d="M258 390q39 0 59 -28q3 7 4.5 12.5t3.5 7.5h110q-3 -9 -12 -31t-21 -50.5t-25 -60t-24.5 -59.5t-20 -48.5t-10.5 -26.5q-8 -19 2 -27t27 -5t37.5 18t33.5 42l17 -28q-10 -24 -27.5 -44.5t-39 -35.5t-46 -24t-48.5 -9q-31 0 -50.5 13t-24.5 39q-29 -24 -58.5 -38
t-56.5 -14q-34 0 -55.5 15.5t-30.5 42.5t-5.5 63.5t21.5 77.5q43 102 107 150t133 48zM300 323q-9 14 -29 14q-19 0 -35.5 -7.5t-33 -24t-33.5 -43.5t-36 -66q-15 -29 -23.5 -54.5t-9.5 -44.5t6.5 -30t24.5 -11t37 10t40 28q3 13 9 26zM494 591q-14 -29 -35 -54t-45.5 -43.5
t-51 -29.5t-50.5 -11t-39.5 10.5t-22.5 29t-5 43t14 51.5l47 1q-16 -33 -5.5 -56.5t38.5 -23.5q14 0 29.5 6.5t30.5 17.5t27.5 25.5t20.5 31.5z" />
    <glyph glyph-name="Aogonek" unicode="&#x104;" horiz-adv-x="481" 
d="M448 -79q-10 -24 -27.5 -44.5t-39 -35.5t-46 -24t-48.5 -9t-42 10t-26.5 27t-5.5 38.5t22 44.5q14 17 37 33t48 31q-38 7 -52.5 39t5.5 87l16 43h-127l-34 -74q-11 -27 -5 -36.5t29 -9.5h9l-32 -43l-22 -4q-10 -2 -20.5 -3t-20.5 -1q-57 0 -63 31.5t39 98.5l27 40.5
t34.5 51.5t32.5 48t21 31q39 54 69.5 97t59 73t59 46t68.5 16q24 0 42.5 -8t28.5 -24t11 -40t-10 -55l-102 -291q-7 -19 3.5 -27.5t27.5 -5t36.5 18.5t30.5 42l19 -28q-8 -22 -22.5 -41.5t-34.5 -35.5q-9 -9 -24 -19.5t-31.5 -23.5t-32 -29t-24.5 -35t0 -27t27 -5t38.5 18
t34.5 42zM306 212l70 197q9 26 6 40.5t-15 14t-32.5 -17.5t-45.5 -53q-26 -38 -52.5 -86.5t-49.5 -94.5h119z" />
    <glyph glyph-name="aogonek" unicode="&#x105;" 
d="M258 390q39 0 59 -28q3 7 4.5 12.5t3.5 7.5h110q-3 -9 -12 -31t-21 -50.5t-25 -60t-24.5 -59.5t-20 -48.5t-10.5 -26.5q-8 -19 2 -27t27 -5t37.5 18t33.5 42l17 -28q-9 -22 -25 -41.5t-36 -34.5q-10 -9 -24.5 -19.5t-30 -23t-30 -27.5t-23.5 -34t0 -27t27 -5t38.5 18
t34.5 42l17 -28q-10 -24 -27.5 -44.5t-39 -35.5t-46 -24t-48.5 -9t-42 10t-26.5 27t-5.5 38.5t22 44.5q13 17 35.5 32.5t45.5 29.5q-44 8 -52 50q-29 -24 -58.5 -38t-56.5 -14q-34 0 -55.5 15.5t-30.5 42.5t-5.5 63.5t21.5 77.5q43 102 107 150t133 48zM300 323
q-9 14 -29 14q-19 0 -35.5 -7.5t-33 -24t-33.5 -43.5t-36 -66q-15 -29 -23.5 -54.5t-9.5 -44.5t6.5 -30t24.5 -11t37 10t40 28q3 13 9 26z" />
    <glyph glyph-name="Cacute" unicode="&#x106;" horiz-adv-x="376" 
d="M348 103q-15 -24 -35.5 -44.5t-47 -36.5t-60 -25t-76.5 -9q-86 0 -114 67t5 189q18 66 49 118t71 87.5t87 54.5t97 19q35 0 57.5 -14.5t32 -37.5t7 -51.5t-17.5 -55.5q-13 -25 -27 -41.5t-27.5 -26t-24.5 -13.5t-18 -4q-29 0 -37.5 23t4.5 55q14 37 39 57t55 20
q9 0 13 -1q3 7 2 15t-6.5 15t-17.5 11.5t-31 4.5q-35 0 -63.5 -17.5t-52 -47t-42 -67.5t-32.5 -79q-16 -47 -24 -88t-3.5 -71t24 -47t58.5 -17q45 0 81 25.5t58 60.5zM266 604l179 163l61 -106l-220 -96z" />
    <glyph glyph-name="cacute" unicode="&#x107;" horiz-adv-x="344" 
d="M361 106q-25 -53 -85.5 -83t-142.5 -30q-42 0 -71.5 15.5t-45.5 42.5t-17 63.5t15 77.5q39 97 102 147.5t140 50.5q32 0 51 -14.5t26 -37.5t2.5 -51.5t-18.5 -55.5q-13 -25 -27 -41t-27 -25.5t-24.5 -13t-18.5 -3.5q-28 0 -36.5 22t3.5 54q15 37 39.5 57t54.5 20h6.5
t5.5 -1q3 20 -5.5 33t-28.5 13t-39 -14t-36.5 -36t-32 -49.5t-24.5 -55.5q-27 -72 -8 -107t73 -35q21 0 43.5 7t43 18.5t37.5 27t28 32.5zM193 470l179 163l61 -106l-220 -96z" />
    <glyph glyph-name="Ccircumflex" unicode="&#x108;" horiz-adv-x="376" 
d="M348 103q-15 -24 -35.5 -44.5t-47 -36.5t-60 -25t-76.5 -9q-86 0 -114 67t5 189q18 66 49 118t71 87.5t87 54.5t97 19q35 0 57.5 -14.5t32 -37.5t7 -51.5t-17.5 -55.5q-13 -25 -27 -41.5t-27.5 -26t-24.5 -13.5t-18 -4q-29 0 -37.5 23t4.5 55q14 37 39 57t55 20
q9 0 13 -1q3 7 2 15t-6.5 15t-17.5 11.5t-31 4.5q-35 0 -63.5 -17.5t-52 -47t-42 -67.5t-32.5 -79q-16 -47 -24 -88t-3.5 -71t24 -47t58.5 -17q45 0 81 25.5t58 60.5zM467 716l26 -144l-120 -1l6 105l-176 -117l-36 49l203 108h97z" />
    <glyph glyph-name="ccircumflex" unicode="&#x109;" horiz-adv-x="344" 
d="M361 106q-25 -53 -85.5 -83t-142.5 -30q-42 0 -71.5 15.5t-45.5 42.5t-17 63.5t15 77.5q39 97 102 147.5t140 50.5q32 0 51 -14.5t26 -37.5t2.5 -51.5t-18.5 -55.5q-13 -25 -27 -41t-27 -25.5t-24.5 -13t-18.5 -3.5q-28 0 -36.5 22t3.5 54q15 37 39.5 57t54.5 20h6.5
t5.5 -1q3 20 -5.5 33t-28.5 13t-39 -14t-36.5 -36t-32 -49.5t-24.5 -55.5q-27 -72 -8 -107t73 -35q21 0 43.5 7t43 18.5t37.5 27t28 32.5zM422 598l26 -144l-120 -1l6 105l-176 -117l-36 49l203 108h97z" />
    <glyph glyph-name="Cdotaccent" unicode="&#x10a;" horiz-adv-x="376" 
d="M348 103q-15 -24 -35.5 -44.5t-47 -36.5t-60 -25t-76.5 -9q-86 0 -114 67t5 189q18 66 49 118t71 87.5t87 54.5t97 19q35 0 57.5 -14.5t32 -37.5t7 -51.5t-17.5 -55.5q-13 -25 -27 -41.5t-27.5 -26t-24.5 -13.5t-18 -4q-29 0 -37.5 23t4.5 55q14 37 39 57t55 20
q9 0 13 -1q3 7 2 15t-6.5 15t-17.5 11.5t-31 4.5q-35 0 -63.5 -17.5t-52 -47t-42 -67.5t-32.5 -79q-16 -47 -24 -88t-3.5 -71t24 -47t58.5 -17q45 0 81 25.5t58 60.5zM438 621q0 -27 -19.5 -46.5t-47.5 -19.5t-47.5 19.5t-19.5 46.5q0 28 19.5 47.5t47.5 19.5t47.5 -19.5
t19.5 -47.5z" />
    <glyph glyph-name="cdotaccent" unicode="&#x10b;" horiz-adv-x="344" 
d="M361 106q-25 -53 -85.5 -83t-142.5 -30q-42 0 -71.5 15.5t-45.5 42.5t-17 63.5t15 77.5q39 97 102 147.5t140 50.5q32 0 51 -14.5t26 -37.5t2.5 -51.5t-18.5 -55.5q-13 -25 -27 -41t-27 -25.5t-24.5 -13t-18.5 -3.5q-28 0 -36.5 22t3.5 54q15 37 39.5 57t54.5 20h6.5
t5.5 -1q3 20 -5.5 33t-28.5 13t-39 -14t-36.5 -36t-32 -49.5t-24.5 -55.5q-27 -72 -8 -107t73 -35q21 0 43.5 7t43 18.5t37.5 27t28 32.5zM396 519q0 -27 -19.5 -46.5t-47.5 -19.5t-47.5 19.5t-19.5 46.5q0 28 19.5 47.5t47.5 19.5t47.5 -19.5t19.5 -47.5z" />
    <glyph glyph-name="Ccaron" unicode="&#x10c;" horiz-adv-x="376" 
d="M348 103q-15 -24 -35.5 -44.5t-47 -36.5t-60 -25t-76.5 -9q-86 0 -114 67t5 189q18 66 49 118t71 87.5t87 54.5t97 19q35 0 57.5 -14.5t32 -37.5t7 -51.5t-17.5 -55.5q-13 -25 -27 -41.5t-27.5 -26t-24.5 -13.5t-18 -4q-29 0 -37.5 23t4.5 55q14 37 39 57t55 20
q9 0 13 -1q3 7 2 15t-6.5 15t-17.5 11.5t-31 4.5q-35 0 -63.5 -17.5t-52 -47t-42 -67.5t-32.5 -79q-16 -47 -24 -88t-3.5 -71t24 -47t58.5 -17q45 0 81 25.5t58 60.5zM258 561l-26 144l120 1l-6 -105l176 117l36 -49l-203 -108h-97z" />
    <glyph glyph-name="ccaron" unicode="&#x10d;" horiz-adv-x="344" 
d="M361 106q-25 -53 -85.5 -83t-142.5 -30q-42 0 -71.5 15.5t-45.5 42.5t-17 63.5t15 77.5q39 97 102 147.5t140 50.5q32 0 51 -14.5t26 -37.5t2.5 -51.5t-18.5 -55.5q-13 -25 -27 -41t-27 -25.5t-24.5 -13t-18.5 -3.5q-28 0 -36.5 22t3.5 54q15 37 39.5 57t54.5 20h6.5
t5.5 -1q3 20 -5.5 33t-28.5 13t-39 -14t-36.5 -36t-32 -49.5t-24.5 -55.5q-27 -72 -8 -107t73 -35q21 0 43.5 7t43 18.5t37.5 27t28 32.5zM220 441l-26 144l120 1l-6 -105l176 117l36 -49l-203 -108h-97z" />
    <glyph glyph-name="Dcaron" unicode="&#x10e;" horiz-adv-x="477" 
d="M351 523q87 0 122.5 -61t2.5 -183q-16 -58 -42.5 -113.5t-66.5 -97.5t-96 -64t-132 -13q-20 3 -30 7h-107l171 418l97 60q-46 -11 -94.5 -32t-79.5 -52l-20 21l52 72q51 21 104 29.5t119 8.5zM343 486q-7 0 -14.5 -0.5t-15.5 -1.5l-184 -446l14 -4t17 -3q33 -4 63 15
t55.5 52t45.5 74.5t34 82.5q17 51 25 93t6.5 73t-13 48t-33.5 17zM286 564l-26 144l120 1l-6 -105l176 117l36 -49l-203 -108h-97z" />
    <glyph glyph-name="dcaron" unicode="&#x10f;" horiz-adv-x="532" 
d="M258 390q39 0 59 -28l37 90q9 20 2.5 32.5t-28.5 12.5h-10l20 43q8 1 17 3q8 2 17.5 3t19.5 1q57 0 71.5 -31t-13.5 -98l-128 -312q-7 -20 2.5 -28t27 -4.5t37.5 18.5t33 42l17 -28q-10 -24 -27.5 -44.5t-39 -35.5t-46 -24t-48.5 -9q-31 0 -50 12.5t-24 38.5
q-29 -24 -59 -37.5t-57 -13.5q-34 0 -55.5 15.5t-30.5 42.5t-5.5 63.5t21.5 77.5q44 102 107.5 150t132.5 48zM217 120q3 7 11.5 27.5t20.5 48.5t25.5 61.5t26.5 65.5q-11 14 -30 14q-37 0 -68 -31.5t-70 -109.5q-14 -29 -22.5 -54.5t-9.5 -44.5t6.5 -30t24.5 -11t36 10
t39 27q2 7 4.5 13t5.5 14zM512 457q-8 12 -8 32q0 28 19.5 47.5t47.5 19.5t47.5 -19.5t19.5 -47.5q0 -23 -10.5 -39.5t-28 -32.5t-40.5 -35.5t-48 -48.5l-35 14z" />
    <glyph glyph-name="Dcroat" unicode="&#x110;" horiz-adv-x="477" 
d="M82 284h37l54 132l97 60q-46 -11 -94.5 -32t-79.5 -52l-20 21l52 72q51 21 104 29.5t119 8.5q87 0 122.5 -61t2.5 -183q-16 -58 -42.5 -113.5t-66.5 -97.5t-96 -64t-132 -13q-20 3 -30 7h-107l97 238h-37zM343 486q-7 0 -14.5 -0.5t-15.5 -1.5l-83 -200h46l-20 -48h-45
l-82 -198l14 -4t17 -3q33 -4 63 15t55.5 52t45.5 74.5t34 82.5q17 51 25 93t6.5 73t-13 48t-33.5 17z" />
    <glyph glyph-name="dcroat" unicode="&#x111;" 
d="M294 467h64q2 14 -5.5 22t-24.5 8h-10l20 43q8 1 17 3q8 2 17.5 3t19.5 1q90 0 74 -80h68l-43 -58h-45l-124 -303q-7 -20 2.5 -28t27 -4.5t37.5 18.5t33 42l17 -28q-10 -24 -27.5 -44.5t-39 -35.5t-46 -24t-48.5 -9q-31 0 -50 12.5t-24 38.5q-29 -24 -59 -37.5t-57 -13.5
q-34 0 -55.5 15.5t-30.5 42.5t-5.5 63.5t21.5 77.5q44 102 107.5 150t132.5 48q39 0 59 -28l19 47h-85zM217 120q3 7 11.5 27.5t20.5 48.5t25.5 61.5t26.5 65.5q-11 14 -30 14q-37 0 -68 -31.5t-70 -109.5q-14 -29 -22.5 -54.5t-9.5 -44.5t6.5 -30t24.5 -11t36 10t39 27
q2 7 4.5 13t5.5 14z" />
    <glyph glyph-name="Emacron" unicode="&#x112;" horiz-adv-x="444" 
d="M526 439q-29 -17 -55 -12t-51.5 18t-51.5 27t-53 14h-2l-78 -187h134l-18 -51h-137q-18 -44 -35 -84.5t-29 -71.5q13 10 29.5 18t36.5 8q17 0 34.5 -9t35.5 -19t36.5 -18.5t38 -6.5t40.5 17t43 51l17 -28q-31 -54 -72.5 -84t-83.5 -30q-26 0 -46.5 10.5t-37.5 23.5
t-31 23.5t-28 10.5q-10 0 -21 -5.5t-21.5 -13.5t-20 -17t-15.5 -15l-4 -5l-5 -5h-73l171 418l106 66q-20 -4 -44.5 -12t-49.5 -19t-48 -26t-41 -33l-20 21l52 72q25 10 48 17.5t47 12t50.5 6.5t59.5 2q20 0 45 -3t54.5 -5t62 -1t68.5 9zM245 629h282l-29 -69h-282z" />
    <glyph glyph-name="emacron" unicode="&#x113;" horiz-adv-x="344" 
d="M192 49q21 0 43.5 7t43 18.5t37.5 27t28 32.5l17 -28q-25 -53 -86 -83t-142 -30q-42 0 -71.5 15.5t-45.5 42.5t-17 63.5t15 77.5q38 97 101.5 147.5t140.5 50.5q41 0 62 -21.5t23.5 -52t-13 -65t-47.5 -61.5q-45 -37 -104 -37h-64q-13 -45 9.5 -74.5t69.5 -29.5zM183 555
h282l-29 -69h-282zM231 345q-10 -4 -23.5 -18t-27.5 -35t-28.5 -47t-25.5 -54h35q23 0 39 14t30 43q12 22 19 42t8 34t-5 20.5t-21 0.5z" />
    <glyph glyph-name="Edotaccent" unicode="&#x116;" horiz-adv-x="444" 
d="M526 439q-29 -17 -55 -12t-51.5 18t-51.5 27t-53 14h-2l-78 -187h134l-18 -51h-137q-18 -44 -35 -84.5t-29 -71.5q13 10 29.5 18t36.5 8q17 0 34.5 -9t35.5 -19t36.5 -18.5t38 -6.5t40.5 17t43 51l17 -28q-31 -54 -72.5 -84t-83.5 -30q-26 0 -46.5 10.5t-37.5 23.5
t-31 23.5t-28 10.5q-10 0 -21 -5.5t-21.5 -13.5t-20 -17t-15.5 -15l-4 -5l-5 -5h-73l171 418l106 66q-20 -4 -44.5 -12t-49.5 -19t-48 -26t-41 -33l-20 21l52 72q25 10 48 17.5t47 12t50.5 6.5t59.5 2q20 0 45 -3t54.5 -5t62 -1t68.5 9zM446 619q0 -27 -19.5 -46.5
t-47.5 -19.5t-47.5 19.5t-19.5 46.5q0 28 19.5 47.5t47.5 19.5t47.5 -19.5t19.5 -47.5z" />
    <glyph glyph-name="edotaccent" unicode="&#x117;" horiz-adv-x="344" 
d="M192 49q21 0 43.5 7t43 18.5t37.5 27t28 32.5l17 -28q-25 -53 -86 -83t-142 -30q-42 0 -71.5 15.5t-45.5 42.5t-17 63.5t15 77.5q38 97 101.5 147.5t140.5 50.5q41 0 62 -21.5t23.5 -52t-13 -65t-47.5 -61.5q-45 -37 -104 -37h-64q-13 -45 9.5 -74.5t69.5 -29.5zM377 519
q0 -27 -19.5 -46.5t-47.5 -19.5t-47.5 19.5t-19.5 46.5q0 28 19.5 47.5t47.5 19.5t47.5 -19.5t19.5 -47.5zM231 345q-10 -4 -23.5 -18t-27.5 -35t-28.5 -47t-25.5 -54h35q23 0 39 14t30 43q12 22 19 42t8 34t-5 20.5t-21 0.5z" />
    <glyph glyph-name="Eogonek" unicode="&#x118;" horiz-adv-x="444" 
d="M526 439q-29 -17 -55 -12t-51.5 18t-51.5 27t-53 14h-2l-78 -187h134l-18 -51h-137q-18 -44 -35 -84.5t-29 -71.5q13 10 29.5 18t36.5 8q17 0 34.5 -9t35.5 -19t36.5 -18.5t38 -6.5t40.5 17t43 51l17 -28q-30 -53 -71 -82.5t-82 -31.5q-20 -14 -39 -32.5t-30 -41.5
q-9 -19 0 -27t27 -5t38.5 18t34.5 42l17 -28q-10 -24 -27.5 -44.5t-39 -35.5t-46 -24t-48.5 -9t-42 10t-26.5 27t-5.5 38.5t22 44.5q17 22 49.5 42t61.5 37q-15 7 -27 17t-23.5 18.5t-21.5 14.5t-20 6t-21 -5.5t-21.5 -13.5t-20 -17t-15.5 -15l-4 -5l-5 -5h-73l171 418
l106 66q-20 -4 -44.5 -12t-49.5 -19t-48 -26t-41 -33l-20 21l52 72q25 10 48 17.5t47 12t50.5 6.5t59.5 2q20 0 45 -3t54.5 -5t62 -1t68.5 9z" />
    <glyph glyph-name="eogonek" unicode="&#x119;" horiz-adv-x="344" 
d="M297 -74q-10 -24 -27.5 -44.5t-39 -35.5t-46 -24t-48.5 -9t-42 10t-26.5 27t-5.5 38.5t22 44.5q13 16 35 31.5t45 29.5q-8 -1 -15.5 -1h-15.5q-42 0 -71.5 15.5t-45.5 42.5t-17 63.5t15 77.5q38 97 101.5 147.5t140.5 50.5q41 0 62 -21.5t23.5 -52t-13 -65t-47.5 -61.5
q-45 -37 -104 -37h-64q-13 -45 9.5 -74.5t69.5 -29.5q21 0 43.5 7t43 18.5t37.5 27t28 32.5l17 -28q-22 -45 -72 -75q-10 -9 -25 -19.5t-30.5 -23.5t-30 -28t-23.5 -34t0 -27t27 -5t38.5 18t34.5 42zM231 345q-10 -4 -23.5 -18t-27.5 -35t-28.5 -47t-25.5 -54h35q23 0 39 14
t30 43q12 22 19 42t8 34t-5 20.5t-21 0.5z" />
    <glyph glyph-name="Ecaron" unicode="&#x11a;" horiz-adv-x="444" 
d="M526 439q-29 -17 -55 -12t-51.5 18t-51.5 27t-53 14h-2l-78 -187h134l-18 -51h-137q-18 -44 -35 -84.5t-29 -71.5q13 10 29.5 18t36.5 8q17 0 34.5 -9t35.5 -19t36.5 -18.5t38 -6.5t40.5 17t43 51l17 -28q-31 -54 -72.5 -84t-83.5 -30q-26 0 -46.5 10.5t-37.5 23.5
t-31 23.5t-28 10.5q-10 0 -21 -5.5t-21.5 -13.5t-20 -17t-15.5 -15l-4 -5l-5 -5h-73l171 418l106 66q-20 -4 -44.5 -12t-49.5 -19t-48 -26t-41 -33l-20 21l52 72q25 10 48 17.5t47 12t50.5 6.5t59.5 2q20 0 45 -3t54.5 -5t62 -1t68.5 9zM315 561l-26 144l120 1l-6 -105
l176 117l36 -49l-203 -108h-97z" />
    <glyph glyph-name="ecaron" unicode="&#x11b;" horiz-adv-x="344" 
d="M192 49q21 0 43.5 7t43 18.5t37.5 27t28 32.5l17 -28q-25 -53 -86 -83t-142 -30q-42 0 -71.5 15.5t-45.5 42.5t-17 63.5t15 77.5q38 97 101.5 147.5t140.5 50.5q41 0 62 -21.5t23.5 -52t-13 -65t-47.5 -61.5q-45 -37 -104 -37h-64q-13 -45 9.5 -74.5t69.5 -29.5zM228 441
l-26 144l120 1l-6 -105l176 117l36 -49l-203 -108h-97zM231 345q-10 -4 -23.5 -18t-27.5 -35t-28.5 -47t-25.5 -54h35q23 0 39 14t30 43q12 22 19 42t8 34t-5 20.5t-21 0.5z" />
    <glyph glyph-name="Gcircumflex" unicode="&#x11c;" horiz-adv-x="400" 
d="M361 196q-8 -21 -18.5 -50t-22 -58t-21 -53.5t-14.5 -36.5q-28 -68 -67 -99t-95 -31q-10 0 -18.5 1t-14.5 3q-8 2 -14 4l15 44h10q22 0 38 12t24 33l16 41q-15 -8 -33.5 -13t-40.5 -5q-31 0 -55 17.5t-36.5 50.5t-11 80.5t22.5 107.5q45 132 124 205.5t179 73.5
q36 0 58 -14.5t32 -37.5t7 -51.5t-17 -55.5q-14 -25 -28 -41.5t-27 -26t-24 -13.5t-18 -4q-29 0 -37.5 23t3.5 55q14 37 39 57t55 20q9 0 13 -1q3 7 2 15t-6.5 15t-17.5 11.5t-31 4.5q-34 0 -63 -17.5t-52.5 -47t-42 -67.5t-31.5 -79q-16 -47 -24.5 -87.5t-8.5 -70.5
t7.5 -48.5t24.5 -21.5q13 -2 25.5 5.5t24 21.5t22.5 33t20 40q5 13 9.5 24.5t8.5 19.5q4 10 7 18l8 20l8 18h137l-18 -44h-32zM457 713l26 -144l-120 -1l6 105l-176 -117l-36 49l203 108h97z" />
    <glyph glyph-name="gcircumflex" unicode="&#x11d;" horiz-adv-x="396" 
d="M433 382q-8 -19 -18 -44t-22 -53.5t-24 -59t-24 -59.5q-28 -68 -58 -142q-38 -97 -101 -148t-140 -51q-32 0 -51 15t-26.5 38t-3 51t19.5 55q14 23 32 40q-21 27 -21 70.5t22 97.5q44 102 108 150t133 48q37 0 57 -26l7 18h110zM133 56q15 0 32.5 8.5t35.5 22.5l98 238
q-10 12 -28 12t-34.5 -7.5t-33 -24t-33.5 -43.5t-36 -66q-15 -29 -23.5 -54.5t-9.5 -44.5t6.5 -30t25.5 -11zM440 598l22 -139l-105 -1l5 101l-155 -113l-32 47l179 105h86zM89 -7q-12 0 -22 2t-19 5q-14 -10 -26 -29t-19 -48q-5 -25 7.5 -39.5t32.5 -14.5q19 0 38 13.5
t36.5 35.5t32 49.5t24.5 54.5q-22 -14 -43.5 -21.5t-41.5 -7.5z" />
    <glyph glyph-name="Gbreve" unicode="&#x11e;" horiz-adv-x="400" 
d="M361 196q-8 -21 -18.5 -50t-22 -58t-21 -53.5t-14.5 -36.5q-28 -68 -67 -99t-95 -31q-10 0 -18.5 1t-14.5 3q-8 2 -14 4l15 44h10q22 0 38 12t24 33l16 41q-15 -8 -33.5 -13t-40.5 -5q-31 0 -55 17.5t-36.5 50.5t-11 80.5t22.5 107.5q45 132 124 205.5t179 73.5
q36 0 58 -14.5t32 -37.5t7 -51.5t-17 -55.5q-14 -25 -28 -41.5t-27 -26t-24 -13.5t-18 -4q-29 0 -37.5 23t3.5 55q14 37 39 57t55 20q9 0 13 -1q3 7 2 15t-6.5 15t-17.5 11.5t-31 4.5q-34 0 -63 -17.5t-52.5 -47t-42 -67.5t-31.5 -79q-16 -47 -24.5 -87.5t-8.5 -70.5
t7.5 -48.5t24.5 -21.5q13 -2 25.5 5.5t24 21.5t22.5 33t20 40q5 13 9.5 24.5t8.5 19.5q4 10 7 18l8 20l8 18h137l-18 -44h-32zM517 693q-14 -29 -35 -54t-45.5 -43.5t-51 -29.5t-50.5 -11t-39.5 10.5t-22.5 29t-5 43t14 51.5l47 1q-16 -33 -5.5 -56.5t38.5 -23.5
q14 0 29.5 6.5t30.5 17.5t27.5 25.5t20.5 31.5z" />
    <glyph glyph-name="gbreve" unicode="&#x11f;" horiz-adv-x="396" 
d="M433 382q-8 -19 -18 -44t-22 -53.5t-24 -59t-24 -59.5q-28 -68 -58 -142q-38 -97 -101 -148t-140 -51q-32 0 -51 15t-26.5 38t-3 51t19.5 55q14 23 32 40q-21 27 -21 70.5t22 97.5q44 102 108 150t133 48q37 0 57 -26l7 18h110zM133 56q15 0 32.5 8.5t35.5 22.5l98 238
q-10 12 -28 12t-34.5 -7.5t-33 -24t-33.5 -43.5t-36 -66q-15 -29 -23.5 -54.5t-9.5 -44.5t6.5 -30t25.5 -11zM469 578q-14 -29 -35 -54t-45.5 -43.5t-51 -29.5t-50.5 -11t-39.5 10.5t-22.5 29t-5 43t14 51.5l47 1q-16 -33 -5.5 -56.5t38.5 -23.5q14 0 29.5 6.5t30.5 17.5
t27.5 25.5t20.5 31.5zM89 -7q-12 0 -22 2t-19 5q-14 -10 -26 -29t-19 -48q-5 -25 7.5 -39.5t32.5 -14.5q19 0 38 13.5t36.5 35.5t32 49.5t24.5 54.5q-22 -14 -43.5 -21.5t-41.5 -7.5z" />
    <glyph glyph-name="Gdotaccent" unicode="&#x120;" horiz-adv-x="400" 
d="M361 196q-8 -21 -18.5 -50t-22 -58t-21 -53.5t-14.5 -36.5q-28 -68 -67 -99t-95 -31q-10 0 -18.5 1t-14.5 3q-8 2 -14 4l15 44h10q22 0 38 12t24 33l16 41q-15 -8 -33.5 -13t-40.5 -5q-31 0 -55 17.5t-36.5 50.5t-11 80.5t22.5 107.5q45 132 124 205.5t179 73.5
q36 0 58 -14.5t32 -37.5t7 -51.5t-17 -55.5q-14 -25 -28 -41.5t-27 -26t-24 -13.5t-18 -4q-29 0 -37.5 23t3.5 55q14 37 39 57t55 20q9 0 13 -1q3 7 2 15t-6.5 15t-17.5 11.5t-31 4.5q-34 0 -63 -17.5t-52.5 -47t-42 -67.5t-31.5 -79q-16 -47 -24.5 -87.5t-8.5 -70.5
t7.5 -48.5t24.5 -21.5q13 -2 25.5 5.5t24 21.5t22.5 33t20 40q5 13 9.5 24.5t8.5 19.5q4 10 7 18l8 20l8 18h137l-18 -44h-32zM467 633q0 -27 -19.5 -46.5t-47.5 -19.5t-47.5 19.5t-19.5 46.5q0 28 19.5 47.5t47.5 19.5t47.5 -19.5t19.5 -47.5z" />
    <glyph glyph-name="gdotaccent" unicode="&#x121;" horiz-adv-x="396" 
d="M433 382q-8 -19 -18 -44t-22 -53.5t-24 -59t-24 -59.5q-28 -68 -58 -142q-38 -97 -101 -148t-140 -51q-32 0 -51 15t-26.5 38t-3 51t19.5 55q14 23 32 40q-21 27 -21 70.5t22 97.5q44 102 108 150t133 48q37 0 57 -26l7 18h110zM133 56q15 0 32.5 8.5t35.5 22.5l98 238
q-10 12 -28 12t-34.5 -7.5t-33 -24t-33.5 -43.5t-36 -66q-15 -29 -23.5 -54.5t-9.5 -44.5t6.5 -30t25.5 -11zM89 -7q-12 0 -22 2t-19 5q-14 -10 -26 -29t-19 -48q-5 -25 7.5 -39.5t32.5 -14.5q19 0 38 13.5t36.5 35.5t32 49.5t24.5 54.5q-22 -14 -43.5 -21.5t-41.5 -7.5z
M404 519q0 -27 -19.5 -46.5t-47.5 -19.5t-47.5 19.5t-19.5 46.5q0 28 19.5 47.5t47.5 19.5t47.5 -19.5t19.5 -47.5z" />
    <glyph glyph-name="uni0122" unicode="&#x122;" horiz-adv-x="400" 
d="M31 -138q-8 12 -8 32q0 28 19.5 47.5t47.5 19.5q32 0 53 -26q13 13 20 30l16 41q-15 -8 -33.5 -13t-40.5 -5q-31 0 -55 17.5t-36.5 50.5t-11 80.5t22.5 107.5q45 132 124 205.5t179 73.5q36 0 58 -14.5t32 -37.5t7 -51.5t-17 -55.5q-14 -25 -28 -41.5t-27 -26t-24 -13.5
t-18 -4q-29 0 -37.5 23t3.5 55q14 37 39 57t55 20q9 0 13 -1q3 7 2 15t-6.5 15t-17.5 11.5t-31 4.5q-34 0 -63 -17.5t-52.5 -47t-42 -67.5t-31.5 -79q-16 -47 -24.5 -87.5t-8.5 -70.5t7.5 -48.5t24.5 -21.5q13 -2 25.5 5.5t24 21.5t22.5 33t20 40q5 13 9.5 24.5t8.5 19.5
q4 10 7 18l8 20l8 18h137l-18 -44h-32q-8 -21 -18.5 -50t-22 -58t-21 -53.5t-14.5 -36.5q-24 -58 -56 -88.5t-75 -38.5q-5 -17 -17 -30.5t-28.5 -28t-36.5 -32t-42 -42.5l-35 14z" />
    <glyph glyph-name="uni0123" unicode="&#x123;" horiz-adv-x="396" 
d="M433 382q-8 -19 -18 -44t-22 -53.5t-24 -59t-24 -59.5q-28 -68 -58 -142q-38 -97 -101 -148t-140 -51q-32 0 -51 15t-26.5 38t-3 51t19.5 55q14 23 32 40q-21 27 -21 70.5t22 97.5q44 102 108 150t133 48q37 0 57 -26l7 18h110zM133 56q15 0 32.5 8.5t35.5 22.5l98 238
q-10 12 -28 12t-34.5 -7.5t-33 -24t-33.5 -43.5t-36 -66q-15 -29 -23.5 -54.5t-9.5 -44.5t6.5 -30t25.5 -11zM398 551q8 -12 8 -32q0 -28 -19.5 -47.5t-47.5 -19.5t-47.5 19.5t-19.5 47.5q0 23 10.5 39.5t28 32.5t40.5 35.5t48 48.5l35 -14zM89 -7q-12 0 -22 2t-19 5
q-14 -10 -26 -29t-19 -48q-5 -25 7.5 -39.5t32.5 -14.5q19 0 38 13.5t36.5 35.5t32 49.5t24.5 54.5q-22 -14 -43.5 -21.5t-41.5 -7.5z" />
    <glyph glyph-name="Hcircumflex" unicode="&#x124;" horiz-adv-x="452" 
d="M284 212h-116l-51 -125q-8 -21 -2 -33.5t29 -12.5h10l-21 -43q-8 -2 -17 -4q-8 -2 -17.5 -3t-19.5 -1q-57 0 -71.5 31.5t12.5 98.5q4 10 14 34.5t23 56t27 66t26.5 65.5t22 54t13.5 32q9 20 2.5 32.5t-29.5 12.5h-9l20 43q8 2 17 4q8 2 17.5 3t19.5 1q58 0 72 -31.5
t-13 -98.5l-54 -131h116l67 165q9 20 3 32.5t-29 12.5h-10l20 43q8 2 17 4q8 2 17.5 3t20.5 1q57 0 71.5 -31.5t-13.5 -98.5l-117 -289q-8 -20 2 -28.5t27.5 -5t37.5 19t33 42.5l17 -28q-10 -24 -27.5 -44.5t-39 -36.5t-46 -25t-48.5 -9t-41.5 8.5t-26.5 24.5t-8 40t14 55z
M458 713l26 -144l-120 -1l6 105l-176 -117l-36 49l203 108h97z" />
    <glyph glyph-name="hcircumflex" unicode="&#x125;" horiz-adv-x="385" 
d="M90 88q-8 -21 -2 -33t29 -12h10l-21 -43q-8 -2 -17 -4q-15 -3 -37 -3q-57 0 -71 31t13 97l138 341q9 20 3 32.5t-29 12.5h-10l21 43q8 1 17 3q8 2 17 3t20 1q57 0 71.5 -31t-13.5 -99l-27 -65q20 13 42.5 20.5t44.5 7.5q48 0 67 -32.5t-6 -94.5l-65 -157q-7 -19 3 -27
t27 -5t37 18t33 42l17 -28q-10 -24 -27.5 -44.5t-39 -35.5t-46 -24t-48.5 -9t-41.5 8t-26 24t-7.5 40t14 55l65 156q6 15 0.5 23.5t-17.5 9.5t-27.5 -5.5t-30.5 -20.5zM466 731l26 -144l-120 -1l6 105l-176 -117l-36 49l203 108h97z" />
    <glyph glyph-name="Hbar" unicode="&#x126;" horiz-adv-x="452" 
d="M84 350h29q11 28 20 49t13 29q9 20 2.5 32.5t-29.5 12.5h-9l20 43q8 2 17 4q8 2 17.5 3t19.5 1q58 0 72 -31.5t-13 -98.5l-18 -44h115l32 78q9 20 3 32.5t-29 12.5h-10l20 43q8 2 17 4q8 2 17.5 3t20.5 1q57 0 71.5 -31.5t-13.5 -98.5l-18 -44h34l-26 -54h-30l-77 -191
q-8 -20 2 -28.5t27.5 -5t37.5 19t33 42.5l17 -28q-10 -24 -27.5 -44.5t-39 -36.5t-46 -25t-48.5 -9t-41.5 8.5t-26.5 24.5t-8 40t14 55l38 94h-116l-51 -125q-8 -21 -2 -33.5t29 -12.5h10l-21 -43q-8 -2 -17 -4q-8 -2 -17.5 -3t-19.5 -1q-57 0 -71.5 31.5t12.5 98.5l71 176
h-34zM189 263h116l13 33h-116z" />
    <glyph glyph-name="hbar" unicode="&#x127;" horiz-adv-x="385" 
d="M75 478h62q3 29 -31 29h-10l21 43q8 1 17 3q8 2 17 3t20 1q89 0 74 -79h103l-28 -45h-89l-2 -6l-27 -65q20 13 42.5 20.5t44.5 7.5q48 0 67 -32.5t-6 -94.5l-65 -157q-7 -19 3 -27t27 -5t37 18t33 42l17 -28q-10 -24 -27.5 -44.5t-39 -35.5t-46 -24t-48.5 -9t-41.5 8
t-26 24t-7.5 40t14 55l65 156q6 15 0.5 23.5t-17.5 9.5t-27.5 -5.5t-30.5 -20.5l-80 -195q-8 -21 -2 -33t29 -12h10l-21 -43q-8 -2 -17 -4q-15 -3 -37 -3q-57 0 -71 31t13 97l126 312h-73z" />
    <glyph glyph-name="Itilde" unicode="&#x128;" horiz-adv-x="252" 
d="M310 479h-37l-151 -374q-10 -25 3 -33t35.5 -3t48.5 21.5t43 42.5l17 -28q-14 -26 -35.5 -47t-46 -36t-50 -23.5t-49.5 -8.5t-43.5 8.5t-30 24.5t-11 40t12.5 55q2 6 11 27.5t21.5 52t27.5 68t30.5 75.5t30 74t25.5 64h-43l18 44h191zM109 590q31 43 72 69.5t83 32.5
q29 4 39.5 -6.5t14.5 -24t7 -25t17 -9.5t27 12t24 21q12 13 23 30l33 -32q-19 -25 -44 -46q-21 -18 -49.5 -34t-61.5 -21q-23 -3 -35.5 1t-19 11.5t-8.5 17t-3.5 17.5t-4.5 13t-11 4q-13 -2 -25.5 -11.5t-22.5 -20.5q-12 -13 -23 -28z" />
    <glyph glyph-name="itilde" unicode="&#x129;" horiz-adv-x="198" 
d="M215 106q-10 -24 -27.5 -44.5t-39 -35.5t-46 -24t-48.5 -9q-49 0 -68 32t7 95q5 12 15.5 36.5t21.5 51.5t20.5 51t14.5 35q8 20 2 32.5t-29 12.5h-10l21 43q8 2 17 4q8 2 17.5 3t19.5 1q57 0 71 -31.5t-13 -97.5q-6 -15 -16.5 -41t-21.5 -52q-12 -30 -25 -62
q-8 -20 2 -28t27.5 -4.5t37.5 18.5t33 42zM27 471q31 43 72 69.5t83 32.5q29 4 39.5 -6.5t14.5 -24t7 -25t17 -9.5t27 12t24 21q12 13 23 30l33 -32q-19 -25 -44 -46q-21 -18 -49.5 -34t-61.5 -21q-23 -3 -35.5 1t-19 11.5t-8.5 17t-3.5 17.5t-4.5 13t-11 4
q-13 -2 -25.5 -11.5t-22.5 -20.5q-12 -13 -23 -28z" />
    <glyph glyph-name="Imacron" unicode="&#x12a;" horiz-adv-x="252" 
d="M310 479h-37l-151 -374q-10 -25 3 -33t35.5 -3t48.5 21.5t43 42.5l17 -28q-14 -26 -35.5 -47t-46 -36t-50 -23.5t-49.5 -8.5t-43.5 8.5t-30 24.5t-11 40t12.5 55q2 6 11 27.5t21.5 52t27.5 68t30.5 75.5t30 74t25.5 64h-43l18 44h191zM134 644h282l-29 -69h-282z" />
    <glyph glyph-name="imacron" unicode="&#x12b;" horiz-adv-x="198" 
d="M83 555h202l-29 -69h-202zM215 106q-10 -24 -27.5 -44.5t-39 -35.5t-46 -24t-48.5 -9q-49 0 -68 32t7 95q5 12 15.5 36.5t21.5 51.5t20.5 51t14.5 35q8 20 2 32.5t-29 12.5h-10l21 43q8 2 17 4q8 2 17.5 3t19.5 1q57 0 71 -31.5t-13 -97.5q-6 -15 -16.5 -41t-21.5 -52
q-12 -30 -25 -62q-8 -20 2 -28t27.5 -4.5t37.5 18.5t33 42z" />
    <glyph glyph-name="Iogonek" unicode="&#x12e;" horiz-adv-x="252" 
d="M202 -76q-10 -24 -27.5 -44.5t-39 -35.5t-46 -24t-48.5 -9t-42 10t-26.5 27t-5.5 38.5t22 44.5q13 16 34.5 31.5t44.5 29.5q-20 3 -35 12.5t-22.5 25.5t-6.5 38t12 50q2 6 11 27.5t21.5 52t27.5 68t30.5 75.5t30 74t25.5 64h-43l18 44h191l-18 -44h-37l-151 -374
q-10 -25 3 -33t35.5 -3t48.5 21.5t43 42.5l17 -28q-15 -27 -38 -49t-49 -38q-22 -17 -51.5 -39.5t-45.5 -54.5q-9 -19 0 -27t27 -5t38.5 18t34.5 42l17 -28v0z" />
    <glyph glyph-name="iogonek" unicode="&#x12f;" horiz-adv-x="198" 
d="M163 -74q-10 -24 -27.5 -44.5t-39 -35.5t-46 -24t-48.5 -9t-42 10t-26.5 27t-5.5 38.5t22 44.5q14 17 36 32.5t45 29.5q-36 7 -48.5 38.5t10.5 86.5q5 12 15.5 36.5t21.5 51.5t20.5 51t14.5 35q8 20 2 32.5t-29 12.5h-10l21 43q8 2 17 4q8 2 17.5 3t19.5 1q57 0 71 -31.5
t-13 -97.5q-6 -15 -16.5 -41t-21.5 -52q-12 -30 -25 -62q-8 -20 2 -28t27.5 -4.5t37.5 18.5t33 42l17 -28q-9 -22 -25 -41.5t-36 -34.5q-10 -9 -24.5 -19.5t-30 -23t-30 -27.5t-23.5 -34t0 -27t27 -5t38.5 18t34.5 42zM257 487q0 -25 -18 -43t-43 -18q-26 0 -44 18t-18 43
t18 43t44 18q25 0 43 -18t18 -43z" />
    <glyph glyph-name="Idotaccent" unicode="&#x130;" horiz-adv-x="252" 
d="M310 479h-37l-151 -374q-10 -25 3 -33t35.5 -3t48.5 21.5t43 42.5l17 -28q-14 -26 -35.5 -47t-46 -36t-50 -23.5t-49.5 -8.5t-43.5 8.5t-30 24.5t-11 40t12.5 55q2 6 11 27.5t21.5 52t27.5 68t30.5 75.5t30 74t25.5 64h-43l18 44h191zM339 621q0 -27 -19.5 -46.5
t-47.5 -19.5t-47.5 19.5t-19.5 46.5q0 28 19.5 47.5t47.5 19.5t47.5 -19.5t19.5 -47.5z" />
    <glyph glyph-name="dotlessi" unicode="&#x131;" horiz-adv-x="198" 
d="M215 106q-10 -24 -27.5 -44.5t-39 -35.5t-46 -24t-48.5 -9q-49 0 -68 32t7 95q5 12 15.5 36.5t21.5 51.5t20.5 51t14.5 35q8 20 2 32.5t-29 12.5h-10l21 43q8 2 17 4q8 2 17.5 3t19.5 1q57 0 71 -31.5t-13 -97.5q-6 -15 -16.5 -41t-21.5 -52q-12 -30 -25 -62
q-8 -20 2 -28t27.5 -4.5t37.5 18.5t33 42l17 -28v0z" />
    <glyph glyph-name="Jcircumflex" unicode="&#x134;" horiz-adv-x="386" 
d="M107 218q29 0 38 -23t-4 -55q-14 -34 -36.5 -54t-49.5 -23q4 -16 17 -25.5t33 -9.5h5q26 2 40.5 20t23.5 38q2 5 13.5 34t28 69.5t36 87.5t36.5 89t29.5 73t16.5 40h-77l21 44h224l-22 -44h-46q-8 -21 -20.5 -53.5t-26.5 -69.5t-29 -75.5t-28 -71.5t-22.5 -57.5
t-12.5 -32.5q-28 -68 -72 -99t-108 -31h-4q-35 1 -58.5 14t-36 34.5t-13.5 48t10 54.5q15 37 39.5 57.5t54.5 20.5zM546 713l26 -144l-120 -1l6 105l-176 -117l-36 49l203 108h97z" />
    <glyph glyph-name="jcircumflex" unicode="&#x135;" horiz-adv-x="178" 
d="M23 -79q-9 -20 -3 -32.5t29 -12.5h10l-21 -43q-8 -2 -17 -4q-8 -2 -17.5 -3t-19.5 -1q-57 0 -70.5 31.5t13.5 97.5q4 10 14.5 37t25 62t30 73.5t29.5 73t24.5 60t14.5 34.5q9 20 2.5 32.5t-29.5 12.5h-10l21 43q8 2 17 4q8 2 17.5 3t19.5 1q57 0 71 -31.5t-13 -97.5
q-4 -11 -15.5 -39t-26 -64t-30.5 -75.5t-30 -73.5t-24 -58.5t-12 -29.5zM287 606l21 -151l-98 -1l5 110l-143 -122l-30 51l166 113h79z" />
    <glyph glyph-name="uni0136" unicode="&#x136;" horiz-adv-x="442" 
d="M296 -10q-28 0 -45 11t-23.5 30.5t-4 46t12.5 57.5t13 51t0 32t-10.5 16.5t-19.5 4.5q-16 0 -33.5 -14.5t-37.5 -62.5l-31 -75q-8 -21 -2 -33.5t29 -12.5h10l-21 -43q-8 -2 -17 -4q-8 -2 -17.5 -3t-19.5 -1q-57 0 -71.5 31.5t12.5 98.5q4 10 14 34.5t23 56t27 66
t26.5 65.5t22 54t13.5 32q9 20 2.5 32.5t-29.5 12.5h-9l20 43q8 2 17 4q8 2 17.5 3t19.5 1q58 0 72 -31.5t-13 -98.5l-49 -118l157 104q-10 11 -11 28t7 38q15 37 39.5 57t54.5 20q29 0 38.5 -22.5t-4.5 -54.5q-11 -25 -32.5 -46t-49.5 -40t-60.5 -37.5t-65.5 -38.5
q8 1 15 1.5t10 0.5q99 0 55 -122q-19 -50 -13.5 -71t25.5 -21q17 0 41.5 14.5t40.5 46.5l17 -28q-10 -24 -28 -44.5t-39.5 -36.5t-46 -25t-48.5 -9zM71 -138q-8 12 -8 32q0 28 19.5 47.5t47.5 19.5t47.5 -19.5t19.5 -47.5q0 -23 -10.5 -39.5t-28 -32.5t-40.5 -35.5
t-48 -48.5l-35 14z" />
    <glyph glyph-name="uni0137" unicode="&#x137;" horiz-adv-x="372" 
d="M272 106q-8 -19 1.5 -27t27 -5t37.5 18t34 42l16 -28q-9 -24 -26.5 -44.5t-39.5 -35.5t-46 -24t-48 -9q-49 0 -68 34t6 93q6 14 4.5 25t-8 17t-18 5.5t-24.5 -9.5l-29 -70q-8 -21 -2 -33t29 -12h9l-20 -43q-8 -2 -17 -4q-15 -3 -37 -3q-58 0 -72 31t13 97q4 10 15.5 37
t25.5 62t30 74t30 73.5t24 60t14 34.5q9 20 3 32.5t-29 12.5h-10l20 43q8 1 17 3q8 2 17.5 3t19.5 1q57 0 71 -31t-13 -99l-89 -218l101 35q-10 10 -10.5 27.5t7.5 37.5q14 37 38.5 57t55.5 20q28 0 38 -23t-5 -54q-24 -51 -59 -70.5t-68 -24.5q37 -5 44.5 -33.5
t-10.5 -74.5zM53 -160q-8 12 -8 32q0 28 19.5 47.5t47.5 19.5t47.5 -19.5t19.5 -47.5q0 -23 -10.5 -39.5t-28 -32.5t-40.5 -35.5t-48 -48.5l-35 14z" />
    <glyph glyph-name="kgreenlandic" unicode="&#x138;" horiz-adv-x="372" 
d="M272 106q-8 -19 1.5 -27t27 -5t37.5 18t34 42l16 -28q-9 -24 -26.5 -44.5t-39.5 -35.5t-46 -24t-48 -9q-49 0 -68 34t6 93q6 14 4.5 25t-8 17t-18 5.5t-24.5 -9.5q-11 -24 -18.5 -43t-10.5 -27q-8 -21 -2 -33t29 -12h9l-20 -43q-8 -2 -17 -4q-15 -3 -37 -3q-58 0 -72 31
t13 97q7 16 17.5 41.5t21.5 52.5t21 51t15 37q9 20 3 32.5t-29 12.5h-10l20 43q8 1 17 3q8 2 17.5 3t19.5 1q57 0 71 -31t-13 -99l-24 -59l100 35q-10 10 -10.5 27.5t7.5 37.5q14 37 38.5 57t55.5 20q28 0 38 -23t-5 -54q-24 -51 -59 -70.5t-68 -24.5q37 -5 44.5 -33.5
t-10.5 -74.5z" />
    <glyph glyph-name="Lacute" unicode="&#x139;" horiz-adv-x="424" 
d="M2 -2q42 99 75 182l28 70t26 64t21 50.5t12 29.5q28 67 67 98.5t95 30.5q10 0 18 -1t15 -3l14 -4l-15 -43h-10q-22 0 -38 -12.5t-24 -32.5l-136 -335q13 10 29.5 18t36.5 8q17 0 33 -9t32 -19t31.5 -18.5t33 -6.5t37 17t41.5 51l17 -28q-31 -54 -72.5 -84t-83.5 -30
q-26 0 -43.5 10.5t-30.5 23.5t-24 23.5t-25 10.5q-10 0 -21 -5.5t-21.5 -13.5t-20 -17t-15.5 -15l-4 -5l-5 -5h-73zM268 593l179 163l61 -106l-220 -96z" />
    <glyph glyph-name="lacute" unicode="&#x13a;" horiz-adv-x="199" 
d="M216 106q-10 -24 -27.5 -44.5t-39 -35.5t-46 -24t-48.5 -9t-41.5 8t-26.5 24t-8 40t14 55q3 8 14 33.5t25 60t30 73.5t30 73.5t24.5 59.5t13.5 32q9 20 3 32.5t-29 12.5h-10l21 43q8 1 17 3q8 2 17 3t20 1q57 0 71 -31t-14 -98q-3 -8 -10 -25t-16.5 -40.5t-21 -51
t-22.5 -54.5q-26 -64 -57 -141q-8 -20 2 -28t27 -4.5t37 18.5t34 42zM154 618l179 163l61 -106l-220 -96z" />
    <glyph glyph-name="uni013B" unicode="&#x13b;" horiz-adv-x="424" 
d="M2 -2q42 99 75 182l28 70t26 64t21 50.5t12 29.5q28 67 67 98.5t95 30.5q10 0 18 -1t15 -3l14 -4l-15 -43h-10q-22 0 -38 -12.5t-24 -32.5l-136 -335q13 10 29.5 18t36.5 8q17 0 33 -9t32 -19t31.5 -18.5t33 -6.5t37 17t41.5 51l17 -28q-31 -54 -72.5 -84t-83.5 -30
q-26 0 -43.5 10.5t-30.5 23.5t-24 23.5t-25 10.5q-10 0 -21 -5.5t-21.5 -13.5t-20 -17t-15.5 -15l-4 -5l-5 -5h-73zM71 -138q-8 12 -8 32q0 28 19.5 47.5t47.5 19.5t47.5 -19.5t19.5 -47.5q0 -23 -10.5 -39.5t-28 -32.5t-40.5 -35.5t-48 -48.5l-35 14z" />
    <glyph glyph-name="uni013C" unicode="&#x13c;" horiz-adv-x="199" 
d="M216 106q-10 -24 -27.5 -44.5t-39 -35.5t-46 -24t-48.5 -9t-41.5 8t-26.5 24t-8 40t14 55q3 8 14 33.5t25 60t30 73.5t30 73.5t24.5 59.5t13.5 32q9 20 3 32.5t-29 12.5h-10l21 43q8 1 17 3q8 2 17 3t20 1q57 0 71 -31t-14 -98q-3 -8 -10 -25t-16.5 -40.5t-21 -51
t-22.5 -54.5q-26 -64 -57 -141q-8 -20 2 -28t27 -4.5t37 18.5t34 42zM-96 -160q-8 12 -8 32q0 28 19.5 47.5t47.5 19.5t47.5 -19.5t19.5 -47.5q0 -23 -10.5 -39.5t-28 -32.5t-40.5 -35.5t-48 -48.5l-35 14z" />
    <glyph glyph-name="Lcaron" unicode="&#x13d;" horiz-adv-x="424" 
d="M2 -2q42 99 75 182l28 70t26 64t21 50.5t12 29.5q28 67 67 98.5t95 30.5q10 0 18 -1t15 -3l14 -4l-15 -43h-10q-22 0 -38 -12.5t-24 -32.5l-136 -335q13 10 29.5 18t36.5 8q17 0 33 -9t32 -19t31.5 -18.5t33 -6.5t37 17t41.5 51l17 -28q-31 -54 -72.5 -84t-83.5 -30
q-26 0 -43.5 10.5t-30.5 23.5t-24 23.5t-25 10.5q-10 0 -21 -5.5t-21.5 -13.5t-20 -17t-15.5 -15l-4 -5l-5 -5h-73zM404 440q-8 12 -8 32q0 28 19.5 47.5t47.5 19.5t47.5 -19.5t19.5 -47.5q0 -23 -10.5 -39.5t-28 -32.5t-40.5 -35.5t-48 -48.5l-35 14z" />
    <glyph glyph-name="lcaron" unicode="&#x13e;" horiz-adv-x="366" 
d="M216 106q-10 -24 -27.5 -44.5t-39 -35.5t-46 -24t-48.5 -9t-41.5 8t-26.5 24t-8 40t14 55q3 8 14 33.5t25 60t30 73.5t30 73.5t24.5 59.5t13.5 32q9 20 3 32.5t-29 12.5h-10l21 43q8 1 17 3q8 2 17 3t20 1q57 0 71 -31t-14 -98q-3 -8 -10 -25t-16.5 -40.5t-21 -51
t-22.5 -54.5q-26 -64 -57 -141q-8 -20 2 -28t27 -4.5t37 18.5t34 42zM306 445q-8 12 -8 32q0 28 19.5 47.5t47.5 19.5t47.5 -19.5t19.5 -47.5q0 -23 -10.5 -39.5t-28 -32.5t-40.5 -35.5t-48 -48.5l-35 14z" />
    <glyph glyph-name="Lslash" unicode="&#x141;" horiz-adv-x="424" 
d="M46 273l80 27l38 94q28 67 67 98.5t95 30.5q10 0 18 -1t15 -3l14 -4l-15 -43h-10q-22 0 -38 -12.5t-24 -32.5l-34 -84l76 26l-29 -69l-75 -26q-19 -46 -38.5 -93.5t-35.5 -88.5q13 10 29.5 18t36.5 8q17 0 33 -9t32 -19t31.5 -18.5t33 -6.5t37 17t41.5 51l17 -28
q-31 -54 -72.5 -84t-83.5 -30q-26 0 -43.5 10.5t-30.5 23.5t-24 23.5t-25 10.5q-10 0 -21 -5.5t-21.5 -13.5t-20 -17t-15.5 -15l-4 -5l-5 -5h-73q15 35 31 75q14 33 31 74.5t34 83.5l-81 -27z" />
    <glyph glyph-name="lslash" unicode="&#x142;" horiz-adv-x="199" 
d="M36 325l48 16l46 111q9 20 3 32.5t-29 12.5h-10l21 43q8 1 17 3q8 2 17 3t20 1q57 0 71 -31t-14 -98l-14 -33l77 27l-46 -86l-64 -22q-14 -34 -28.5 -69t-25.5 -64q-14 -33 -26 -65q-8 -20 2 -28t27 -4.5t37 18.5t34 42l17 -28q-10 -24 -27.5 -44.5t-39 -35.5t-46 -24
t-48.5 -9t-41.5 8t-26.5 24t-8 40t14 55q5 10 21.5 50t36.5 90l-61 -21z" />
    <glyph glyph-name="Nacute" unicode="&#x143;" horiz-adv-x="482" 
d="M528 424q-5 -12 -14.5 -32.5t-21 -46.5t-25 -55.5t-26.5 -58.5q-31 -69 -66 -148q-10 -30 -0.5 -41.5t41.5 -3.5l-15 -39q-9 -3 -21 -5q-11 -2 -25.5 -3t-32.5 -1q-57 0 -86.5 31.5t-34.5 98.5l-18 237q-16 -42 -30.5 -85t-25.5 -80.5t-18 -66.5t-9 -42q-4 -30 2.5 -42
t38.5 -4l-15 -39q-8 -2 -17 -4q-8 -2 -17.5 -3t-19.5 -1q-47 0 -63 27.5t4 73.5q5 11 14.5 32t21 47t25 55.5t26.5 58.5q31 68 66 147q2 7 3 12.5t2 10.5q-13 19 -40 19h-10v43q7 2 15 4q7 2 16 3t20 1q57 0 86 -31.5t34 -98.5q1 -11 2.5 -36.5t4 -57.5t5 -67.5t5 -66
t4 -52.5t1.5 -27q2 -15 7 -24l111 369q10 30 0.5 41.5t-41.5 3.5l15 39q8 2 17 4q8 2 17 3t20 1q47 0 67.5 -27t0.5 -73zM296 571l179 163l61 -106l-220 -96z" />
    <glyph glyph-name="nacute" unicode="&#x144;" horiz-adv-x="386" 
d="M90 88q-8 -21 -2 -33t29 -12h10l-20 -43q-8 -2 -17 -4q-15 -3 -37 -3q-57 0 -71.5 31t12.5 97l71 173q9 20 3 32.5t-29 12.5h-10l20 43q8 2 17 4q8 2 17.5 3t19.5 1q68 0 75 -47q24 22 53 34.5t58 12.5q49 0 68 -32t-7 -95q-5 -13 -14 -35.5t-19 -46.5t-18.5 -45
t-12.5 -30q-8 -19 2 -27t27.5 -5t37.5 18t33 42l17 -28q-10 -24 -27.5 -44.5t-39 -35.5t-46 -24t-48.5 -9t-41.5 8t-26.5 24t-8 40t14 55l65 156q6 15 0.5 23.5t-17.5 9t-28.5 -6t-31.5 -21.5q-2 -5 -3.5 -10t-3.5 -10q-6 -16 -17 -42t-21.5 -52.5t-20 -48.5t-12.5 -30z
M178 470l179 163l61 -106l-220 -96z" />
    <glyph glyph-name="uni0145" unicode="&#x145;" horiz-adv-x="482" 
d="M528 424q-5 -12 -14.5 -32.5t-21 -46.5t-25 -55.5t-26.5 -58.5q-31 -69 -66 -148q-10 -30 -0.5 -41.5t41.5 -3.5l-15 -39q-9 -3 -21 -5q-11 -2 -25.5 -3t-32.5 -1q-57 0 -86.5 31.5t-34.5 98.5l-18 237q-16 -42 -30.5 -85t-25.5 -80.5t-18 -66.5t-9 -42q-4 -30 2.5 -42
t38.5 -4l-15 -39q-8 -2 -17 -4q-8 -2 -17.5 -3t-19.5 -1q-47 0 -63 27.5t4 73.5q5 11 14.5 32t21 47t25 55.5t26.5 58.5q31 68 66 147q2 7 3 12.5t2 10.5q-13 19 -40 19h-10v43q7 2 15 4q7 2 16 3t20 1q57 0 86 -31.5t34 -98.5q1 -11 2.5 -36.5t4 -57.5t5 -67.5t5 -66
t4 -52.5t1.5 -27q2 -15 7 -24l111 369q10 30 0.5 41.5t-41.5 3.5l15 39q8 2 17 4q8 2 17 3t20 1q47 0 67.5 -27t0.5 -73zM71 -138q-8 12 -8 32q0 28 19.5 47.5t47.5 19.5t47.5 -19.5t19.5 -47.5q0 -23 -10.5 -39.5t-28 -32.5t-40.5 -35.5t-48 -48.5l-35 14z" />
    <glyph glyph-name="uni0146" unicode="&#x146;" horiz-adv-x="386" 
d="M90 88q-8 -21 -2 -33t29 -12h10l-20 -43q-8 -2 -17 -4q-15 -3 -37 -3q-57 0 -71.5 31t12.5 97l71 173q9 20 3 32.5t-29 12.5h-10l20 43q8 2 17 4q8 2 17.5 3t19.5 1q68 0 75 -47q24 22 53 34.5t58 12.5q49 0 68 -32t-7 -95q-5 -13 -14 -35.5t-19 -46.5t-18.5 -45
t-12.5 -30q-8 -19 2 -27t27.5 -5t37.5 18t33 42l17 -28q-10 -24 -27.5 -44.5t-39 -35.5t-46 -24t-48.5 -9t-41.5 8t-26.5 24t-8 40t14 55l65 156q6 15 0.5 23.5t-17.5 9t-28.5 -6t-31.5 -21.5q-2 -5 -3.5 -10t-3.5 -10q-6 -16 -17 -42t-21.5 -52.5t-20 -48.5t-12.5 -30z
M53 -160q-8 12 -8 32q0 28 19.5 47.5t47.5 19.5t47.5 -19.5t19.5 -47.5q0 -23 -10.5 -39.5t-28 -32.5t-40.5 -35.5t-48 -48.5l-35 14z" />
    <glyph glyph-name="Ncaron" unicode="&#x147;" horiz-adv-x="482" 
d="M528 424q-5 -12 -14.5 -32.5t-21 -46.5t-25 -55.5t-26.5 -58.5q-31 -69 -66 -148q-10 -30 -0.5 -41.5t41.5 -3.5l-15 -39q-9 -3 -21 -5q-11 -2 -25.5 -3t-32.5 -1q-57 0 -86.5 31.5t-34.5 98.5l-18 237q-16 -42 -30.5 -85t-25.5 -80.5t-18 -66.5t-9 -42q-4 -30 2.5 -42
t38.5 -4l-15 -39q-8 -2 -17 -4q-8 -2 -17.5 -3t-19.5 -1q-47 0 -63 27.5t4 73.5q5 11 14.5 32t21 47t25 55.5t26.5 58.5q31 68 66 147q2 7 3 12.5t2 10.5q-13 19 -40 19h-10v43q7 2 15 4q7 2 16 3t20 1q57 0 86 -31.5t34 -98.5q1 -11 2.5 -36.5t4 -57.5t5 -67.5t5 -66
t4 -52.5t1.5 -27q2 -15 7 -24l111 369q10 30 0.5 41.5t-41.5 3.5l15 39q8 2 17 4q8 2 17 3t20 1q47 0 67.5 -27t0.5 -73zM299 550l-26 144l120 1l-6 -105l176 117l36 -49l-203 -108h-97z" />
    <glyph glyph-name="ncaron" unicode="&#x148;" horiz-adv-x="386" 
d="M90 88q-8 -21 -2 -33t29 -12h10l-20 -43q-8 -2 -17 -4q-15 -3 -37 -3q-57 0 -71.5 31t12.5 97l71 173q9 20 3 32.5t-29 12.5h-10l20 43q8 2 17 4q8 2 17.5 3t19.5 1q68 0 75 -47q24 22 53 34.5t58 12.5q49 0 68 -32t-7 -95q-5 -13 -14 -35.5t-19 -46.5t-18.5 -45
t-12.5 -30q-8 -19 2 -27t27.5 -5t37.5 18t33 42l17 -28q-10 -24 -27.5 -44.5t-39 -35.5t-46 -24t-48.5 -9t-41.5 8t-26.5 24t-8 40t14 55l65 156q6 15 0.5 23.5t-17.5 9t-28.5 -6t-31.5 -21.5q-2 -5 -3.5 -10t-3.5 -10q-6 -16 -17 -42t-21.5 -52.5t-20 -48.5t-12.5 -30z
M163 441l-26 144l120 1l-6 -105l176 117l36 -49l-203 -108h-97z" />
    <glyph glyph-name="Eng" unicode="&#x14a;" horiz-adv-x="482" 
d="M528 424q-6 -14 -18.5 -42t-28 -62t-32 -71.5t-31.5 -70t-26 -57t-15 -33.5l-30 -81q-26 -69 -71 -99.5t-109 -30.5h-4q-29 1 -50.5 10.5t-35 25t-19.5 35.5t-3 43q-37 5 -48.5 31.5t6.5 68.5q5 11 14.5 32t21 47t25 55.5t26.5 58.5q31 68 66 147q2 7 3 12.5t2 10.5
q-13 19 -40 19h-10v43q7 2 15 4q7 2 16 3t20 1q57 0 86 -31.5t34 -98.5q1 -11 2.5 -36.5t4 -57.5t5 -67.5t5 -66t4 -52.5t1.5 -27q2 -15 7 -24l111 369q10 30 0.5 41.5t-41.5 3.5l15 39q8 2 17 4q8 2 17 3t20 1q47 0 67.5 -27t0.5 -73zM159 106q29 0 38 -23t-4 -55
q-14 -33 -36.5 -53t-49.5 -23q4 -17 17 -26.5t33 -9.5q29 0 44.5 18.5t24.5 39.5l17 41q-36 30 -42 105l-17 238q-17 -42 -31 -85t-25.5 -80.5t-18.5 -67t-9 -42.5q0 -1 -1 -2q27 25 60 25z" />
    <glyph glyph-name="eng" unicode="&#x14b;" horiz-adv-x="386" 
d="M90 88q-8 -21 -2 -33t29 -12h10l-20 -43q-8 -2 -17 -4q-15 -3 -37 -3q-57 0 -71.5 31t12.5 97l71 173q9 20 3 32.5t-29 12.5h-10l20 43q8 2 17 4q8 2 17.5 3t19.5 1q68 0 75 -47q24 22 53 34.5t58 12.5q49 0 68 -32t-7 -95l-140 -342q-9 -20 -3 -32.5t29 -12.5h10
l-21 -43q-8 -2 -17 -4q-8 -2 -17.5 -3t-19.5 -1q-57 0 -70.5 31.5t13.5 97.5q4 10 16.5 42t31 77t40 98t43.5 105q6 15 0.5 23.5t-17.5 9t-28.5 -6t-31.5 -21.5q-2 -5 -3.5 -10t-3.5 -10q-6 -16 -17 -42t-21.5 -52.5t-20 -48.5t-12.5 -30z" />
    <glyph glyph-name="Omacron" unicode="&#x14c;" horiz-adv-x="460" 
d="M332 523q41 0 71.5 -15.5t47 -46t17 -76.5t-18.5 -106q-18 -58 -45 -111t-64.5 -93t-86.5 -63.5t-112 -23.5q-44 0 -75 16t-47.5 46.5t-16 76.5t20.5 106q19 56 43.5 108t60 92.5t85.5 65t120 24.5zM328 255q16 48 27 89.5t12.5 73t-8 49.5t-34.5 18q-27 0 -53 -20.5
t-49.5 -53t-43.5 -73.5t-34 -82q-16 -47 -27.5 -88t-13 -71.5t8.5 -48t36 -17.5q29 0 55.5 20t49 51.5t41.5 71.5t33 81zM239 654h282l-29 -69h-282z" />
    <glyph glyph-name="omacron" unicode="&#x14d;" horiz-adv-x="364" 
d="M257 390q36 0 60.5 -15.5t35.5 -42.5t9 -63t-18 -77q-18 -47 -44 -83.5t-57.5 -62.5t-67 -39.5t-73.5 -13.5q-37 0 -61 15.5t-35 42.5t-8.5 63.5t18.5 77.5q38 95 100.5 146.5t140.5 51.5zM232 191q12 31 19.5 59t9.5 49.5t-2 34.5t-16 13t-27 -13t-30.5 -34.5
t-30.5 -49.5t-27 -59q-12 -30 -20 -57.5t-9.5 -48.5t3.5 -33.5t17 -12.5t26.5 12.5t29.5 33.5t30 48.5t27 57.5zM173 555h282l-29 -69h-282z" />
    <glyph glyph-name="Ohungarumlaut" unicode="&#x150;" horiz-adv-x="460" 
d="M332 523q41 0 71.5 -15.5t47 -46t17 -76.5t-18.5 -106q-18 -58 -45 -111t-64.5 -93t-86.5 -63.5t-112 -23.5q-44 0 -75 16t-47.5 46.5t-16 76.5t20.5 106q19 56 43.5 108t60 92.5t85.5 65t120 24.5zM328 255q16 48 27 89.5t12.5 73t-8 49.5t-34.5 18q-27 0 -53 -20.5
t-49.5 -53t-43.5 -73.5t-34 -82q-16 -47 -27.5 -88t-13 -71.5t8.5 -48t36 -17.5q29 0 55.5 20t49 51.5t41.5 71.5t33 81zM188 598l179 163l56 -97l106 97l61 -106l-220 -96l-20 39l48 44l-190 -83z" />
    <glyph glyph-name="ohungarumlaut" unicode="&#x151;" horiz-adv-x="364" 
d="M257 390q36 0 60.5 -15.5t35.5 -42.5t9 -63t-18 -77q-18 -47 -44 -83.5t-57.5 -62.5t-67 -39.5t-73.5 -13.5q-37 0 -61 15.5t-35 42.5t-8.5 63.5t18.5 77.5q38 95 100.5 146.5t140.5 51.5zM132 470l179 163l56 -97l106 97l61 -106l-220 -96l-20 39l48 44l-190 -83z
M232 191q12 31 19.5 59t9.5 49.5t-2 34.5t-16 13t-27 -13t-30.5 -34.5t-30.5 -49.5t-27 -59q-12 -30 -20 -57.5t-9.5 -48.5t3.5 -33.5t17 -12.5t26.5 12.5t29.5 33.5t30 48.5t27 57.5z" />
    <glyph glyph-name="OE" unicode="&#x152;" horiz-adv-x="664" 
d="M746 439q-29 -17 -55 -12t-51.5 18t-51.5 27t-53 14q-16 0 -39 -5t-50 -14q17 -28 20 -70t-12 -98h135l-18 -51h-133q-14 -38 -30.5 -72t-37.5 -64q24 6 49 6q17 0 36 -9t38.5 -19t40.5 -18.5t42.5 -6.5t43.5 17t44 51l17 -28q-31 -54 -72.5 -84t-83.5 -30q-26 0 -50 13
t-44.5 28.5t-38 28.5t-31.5 13q-5 0 -13.5 -2.5t-18.5 -6.5q-36 -36 -82.5 -56.5t-105.5 -20.5q-44 0 -75 16t-47.5 46.5t-16 76.5t20.5 106q19 56 43.5 108t60 92.5t85.5 65t120 24.5q43 0 74 -17q32 9 66.5 13t80.5 4q20 0 45 -3t54.5 -5t62 -1t68.5 9zM328 255
q17 54 28.5 99t10.5 77q-29 -17 -51 -39l-20 21l49 68q-5 2 -9.5 3t-10.5 1q-27 0 -53 -20.5t-49.5 -53t-43.5 -73.5t-34 -82q-16 -47 -27.5 -88t-13 -71.5t8.5 -48t36 -17.5q29 0 55.5 20t49 51.5t41.5 71.5t33 81z" />
    <glyph glyph-name="oe" unicode="&#x153;" horiz-adv-x="564" 
d="M412 49q21 0 43.5 7t43 18.5t37.5 27t28 32.5l17 -28q-25 -53 -86 -83t-142 -30q-39 0 -67.5 13.5t-45.5 37.5q-63 -51 -138 -51q-37 0 -61 15.5t-35 42.5t-8.5 63.5t18.5 77.5q38 95 100.5 146.5t140.5 51.5q31 0 53 -12t35 -32q59 44 131 44q41 0 62 -21.5t23.5 -52
t-13 -65t-47.5 -61.5q-45 -37 -104 -37h-64q-13 -45 9.5 -74.5t69.5 -29.5zM232 191q12 31 19.5 59t9.5 49.5t-2 34.5t-16 13t-27 -13t-30.5 -34.5t-30.5 -49.5t-27 -59q-12 -30 -20 -57.5t-9.5 -48.5t3.5 -33.5t17 -12.5t26.5 12.5t29.5 33.5t30 48.5t27 57.5zM451 345
q-10 -4 -23.5 -18t-27.5 -35t-28.5 -47t-25.5 -54h35q23 0 39 14t30 43q12 22 19 42t8 34t-5 20.5t-21 0.5z" />
    <glyph glyph-name="Racute" unicode="&#x154;" horiz-adv-x="441" 
d="M319 523q74 0 111 -36.5t17 -101.5q-11 -34 -50 -74t-105 -70l33 -136q7 -34 35 -34q15 0 40 15.5t40 46.5l17 -28q-10 -24 -27.5 -44.5t-39.5 -36.5t-46.5 -25t-48.5 -9q-49 0 -65.5 32.5t-15.5 95.5l1 103q-27 0 -37 14l-61 -148q-8 -21 -2 -33.5t29 -12.5h10l-21 -43
q-8 -2 -17 -4q-8 -2 -17.5 -3t-19.5 -1q-57 0 -71.5 31.5t12.5 98.5l121 296l98 60q-44 -10 -93.5 -31t-81.5 -53l-20 21l52 72q51 21 104 29.5t119 8.5zM232 584l179 163l61 -106l-220 -96zM301 486q-5 0 -10 -0.5t-10 -1.5l-79 -190q14 8 33.5 9t43.5 -7q26 9 39.5 32
t26.5 65q7 23 6 40.5t-8.5 29t-18.5 17.5t-23 6z" />
    <glyph glyph-name="racute" unicode="&#x155;" horiz-adv-x="250" 
d="M149 463q29 0 38 -22.5t-4 -54.5q-9 -24 -22 -40h88q-3 -9 -11 -28t-18 -44t-21.5 -52t-21.5 -51t-17.5 -41.5t-9.5 -23.5q-8 -19 2 -27t27.5 -5t37.5 18t33 42l17 -28q-10 -24 -27.5 -44.5t-39 -35.5t-46 -24t-48.5 -9t-41.5 8t-26 24t-7.5 40t14 55l82 198
q-18 -9 -38 -9q-28 0 -37 22.5t5 54.5q14 37 38.5 57t53.5 20zM164 534l179 163l61 -106l-220 -96z" />
    <glyph glyph-name="uni0156" unicode="&#x156;" horiz-adv-x="441" 
d="M296 -10q-28 0 -44.5 11t-23.5 30.5t-4.5 46t12.5 57.5q17 54 19 77t-10 32q-21 -5 -37 -5t-27 3l-64 -155q-8 -21 -2 -33.5t29 -12.5h10l-21 -43q-8 -2 -17 -4q-8 -2 -17.5 -3t-19.5 -1q-57 0 -71.5 31.5t12.5 98.5l121 296l98 60q-44 -10 -93.5 -31t-81.5 -53l-20 21
l52 72q51 21 104 29.5t119 8.5q74 0 111 -36.5t17 -101.5q-6 -19 -20 -36.5t-31.5 -32.5t-37 -26.5t-37.5 -17.5l-10 -4q28 -11 39.5 -36t-3.5 -68q-19 -50 -13.5 -71t25.5 -21q17 0 41.5 14.5t40.5 46.5l17 -28q-10 -24 -27.5 -44.5t-39.5 -36.5t-46.5 -25t-48.5 -9z
M71 -138q-8 12 -8 32q0 28 19.5 47.5t47.5 19.5t47.5 -19.5t19.5 -47.5q0 -23 -10.5 -39.5t-28 -32.5t-40.5 -35.5t-48 -48.5l-35 14zM301 486q-5 0 -10 -0.5t-10 -1.5l-79 -191q13 1 36 -2q18 0 35 8t30.5 22t24.5 32.5t17 39.5q7 23 6 40.5t-8.5 29t-18.5 17.5t-23 6z" />
    <glyph glyph-name="uni0157" unicode="&#x157;" horiz-adv-x="250" 
d="M149 463q29 0 38 -22.5t-4 -54.5q-9 -24 -22 -40h88q-3 -9 -11 -28t-18 -44t-21.5 -52t-21.5 -51t-17.5 -41.5t-9.5 -23.5q-8 -19 2 -27t27.5 -5t37.5 18t33 42l17 -28q-10 -24 -27.5 -44.5t-39 -35.5t-46 -24t-48.5 -9t-41.5 8t-26 24t-7.5 40t14 55l82 198
q-18 -9 -38 -9q-28 0 -37 22.5t5 54.5q14 37 38.5 57t53.5 20zM-47 -160q-8 12 -8 32q0 28 19.5 47.5t47.5 19.5t47.5 -19.5t19.5 -47.5q0 -23 -10.5 -39.5t-28 -32.5t-40.5 -35.5t-48 -48.5l-35 14z" />
    <glyph glyph-name="Rcaron" unicode="&#x158;" horiz-adv-x="441" 
d="M319 523q74 0 111 -36.5t17 -101.5q-11 -34 -50 -74t-105 -70l33 -136q7 -34 35 -34q15 0 40 15.5t40 46.5l17 -28q-10 -24 -27.5 -44.5t-39.5 -36.5t-46.5 -25t-48.5 -9q-49 0 -65.5 32.5t-15.5 95.5l1 103q-27 0 -37 14l-61 -148q-8 -21 -2 -33.5t29 -12.5h10l-21 -43
q-8 -2 -17 -4q-8 -2 -17.5 -3t-19.5 -1q-57 0 -71.5 31.5t12.5 98.5l121 296l98 60q-44 -10 -93.5 -31t-81.5 -53l-20 21l52 72q51 21 104 29.5t119 8.5zM265 547l-26 144l120 1l-6 -105l176 117l36 -49l-203 -108h-97zM301 486q-5 0 -10 -0.5t-10 -1.5l-79 -190
q14 8 33.5 9t43.5 -7q26 9 39.5 32t26.5 65q7 23 6 40.5t-8.5 29t-18.5 17.5t-23 6z" />
    <glyph glyph-name="rcaron" unicode="&#x159;" horiz-adv-x="250" 
d="M149 463q29 0 38 -22.5t-4 -54.5q-9 -24 -22 -40h88q-3 -9 -11 -28t-18 -44t-21.5 -52t-21.5 -51t-17.5 -41.5t-9.5 -23.5q-8 -19 2 -27t27.5 -5t37.5 18t33 42l17 -28q-10 -24 -27.5 -44.5t-39 -35.5t-46 -24t-48.5 -9t-41.5 8t-26 24t-7.5 40t14 55l82 198
q-18 -9 -38 -9q-28 0 -37 22.5t5 54.5q14 37 38.5 57t53.5 20zM150 491l-26 144l120 1l-6 -105l176 117l36 -49l-203 -108h-97z" />
    <glyph glyph-name="Sacute" unicode="&#x15a;" horiz-adv-x="386" 
d="M332 520q25 -5 43.5 -19.5t26.5 -35t5.5 -46.5t-19.5 -55q-18 -32 -42 -43t-42 0t-20.5 35.5t11.5 48.5q14 23 36.5 32.5t40.5 -1.5q1 17 -13 31t-43 19q-34 5 -64 -13t-43 -49q-15 -34 2 -66t56 -57q53 -32 76 -77t0 -104q-13 -31 -37.5 -58t-57.5 -45.5t-72 -26.5
t-80 -2q-31 5 -52.5 22.5t-32 41.5t-9 52.5t15.5 54.5q15 29 39.5 45t46.5 4q18 -10 20.5 -35t-11.5 -48q-13 -22 -33.5 -31.5t-38.5 -2.5q-3 -19 18 -38.5t55 -26.5q17 -4 36.5 0t37.5 14t32.5 25.5t22.5 35.5q15 40 -5 68t-68 61q-24 16 -40 39t-22.5 50t-3 55t19.5 55
q15 26 38.5 46t51.5 32t58.5 15.5t59.5 -2.5zM251 587l179 163l61 -106l-220 -96z" />
    <glyph glyph-name="sacute" unicode="&#x15b;" horiz-adv-x="338" 
d="M185 312q31 6 58 -1.5t44 -26t22.5 -48t-5.5 -67.5q-15 -50 -39 -83.5t-55 -54t-67 -29.5t-75 -9q-32 0 -50.5 14.5t-25.5 37t-3 51t19 55.5q13 25 27 41.5t27 26t24 13t18 3.5q28 0 37 -22.5t-3 -54.5q-15 -37 -39.5 -57t-54.5 -20q-5 0 -13 2q-2 -20 6.5 -33t28.5 -13
q19 0 37.5 10t34.5 28t30 42t24 52q27 72 9.5 100t-74.5 11q-14 -4 -24 1.5t-15 16.5t-5.5 26t5.5 31q15 38 39.5 58t54.5 20q29 0 37.5 -22.5t-3.5 -55.5q-4 -9 -12 -22.5t-19 -20.5zM143 492l179 163l61 -106l-220 -96z" />
    <glyph glyph-name="Scircumflex" unicode="&#x15c;" horiz-adv-x="386" 
d="M332 520q25 -5 43.5 -19.5t26.5 -35t5.5 -46.5t-19.5 -55q-18 -32 -42 -43t-42 0t-20.5 35.5t11.5 48.5q14 23 36.5 32.5t40.5 -1.5q1 17 -13 31t-43 19q-34 5 -64 -13t-43 -49q-15 -34 2 -66t56 -57q53 -32 76 -77t0 -104q-13 -31 -37.5 -58t-57.5 -45.5t-72 -26.5
t-80 -2q-31 5 -52.5 22.5t-32 41.5t-9 52.5t15.5 54.5q15 29 39.5 45t46.5 4q18 -10 20.5 -35t-11.5 -48q-13 -22 -33.5 -31.5t-38.5 -2.5q-3 -19 18 -38.5t55 -26.5q17 -4 36.5 0t37.5 14t32.5 25.5t22.5 35.5q15 40 -5 68t-68 61q-24 16 -40 39t-22.5 50t-3 55t19.5 55
q15 26 38.5 46t51.5 32t58.5 15.5t59.5 -2.5zM440 717l26 -144l-120 -1l6 105l-176 -117l-36 49l203 108h97z" />
    <glyph glyph-name="scircumflex" unicode="&#x15d;" horiz-adv-x="338" 
d="M185 312q31 6 58 -1.5t44 -26t22.5 -48t-5.5 -67.5q-15 -50 -39 -83.5t-55 -54t-67 -29.5t-75 -9q-32 0 -50.5 14.5t-25.5 37t-3 51t19 55.5q13 25 27 41.5t27 26t24 13t18 3.5q28 0 37 -22.5t-3 -54.5q-15 -37 -39.5 -57t-54.5 -20q-5 0 -13 2q-2 -20 6.5 -33t28.5 -13
q19 0 37.5 10t34.5 28t30 42t24 52q27 72 9.5 100t-74.5 11q-14 -4 -24 1.5t-15 16.5t-5.5 26t5.5 31q15 38 39.5 58t54.5 20q29 0 37.5 -22.5t-3.5 -55.5q-4 -9 -12 -22.5t-19 -20.5zM332 598l22 -134l-102 -1l5 98l-149 -109l-31 46l172 100h83z" />
    <glyph glyph-name="Scedilla" unicode="&#x15e;" horiz-adv-x="386" 
d="M37 -59l35 53q-24 9 -40.5 27t-23.5 41t-5 48t15 49q15 29 39.5 45t46.5 4q18 -10 20.5 -35t-11.5 -48q-13 -22 -33.5 -31.5t-38.5 -2.5q-3 -19 18 -38.5t55 -26.5q17 -4 36.5 0t37.5 14t32.5 25.5t22.5 35.5q15 40 -5 68t-68 61q-24 16 -40 39t-22.5 50t-3 55t19.5 55
q15 26 38.5 46t51.5 32t58.5 15.5t59.5 -2.5q25 -5 43.5 -19.5t26.5 -35t5.5 -46.5t-19.5 -55q-18 -32 -42 -43t-42 0t-20.5 35.5t11.5 48.5q14 23 36.5 32.5t40.5 -1.5q1 17 -13 31t-43 19q-34 5 -64 -13t-43 -49q-15 -34 2 -66t56 -57q53 -32 76 -77t0 -104
q-12 -29 -33.5 -53.5t-50.5 -43t-64 -28.5t-72 -9l-35 -54q11 -5 21.5 -10.5t20.5 -13.5q24 -18 32 -39t4 -41t-19 -36.5t-37 -25.5t-48 -9.5t-51.5 6t-49.5 19.5t-41 32l42 67q30 -23 59.5 -31t50 -5.5t27 13t-8.5 25.5q-14 13 -34.5 21.5t-42.5 15.5z" />
    <glyph glyph-name="scedilla" unicode="&#x15f;" horiz-adv-x="338" 
d="M-14 -46l34 52q-15 10 -23 26t-9.5 35.5t4 41t16.5 42.5q13 25 27 41.5t27 26t24 13t18 3.5q28 0 37 -22.5t-3 -54.5q-15 -37 -39.5 -57t-54.5 -20q-5 0 -13 2q-2 -20 6.5 -33t28.5 -13q19 0 37.5 10t34.5 28t30 42t24 52q27 72 9.5 100t-74.5 11q-14 -4 -24 1.5
t-15 16.5t-5.5 26t5.5 31q15 38 39.5 58t54.5 20q29 0 37.5 -22.5t-3.5 -55.5q-4 -9 -12 -22.5t-19 -20.5q31 6 58 -1.5t44 -26t22.5 -48t-5.5 -67.5q-15 -50 -39 -83.5t-55 -54t-67 -29.5t-74 -9l-32 -48q11 -5 21.5 -10.5t20.5 -13.5q24 -18 32 -39t4 -41t-19 -36.5
t-37 -25.5t-48 -9.5t-51.5 6t-49.5 19.5t-41 32l42 67q30 -23 59.5 -31t50 -5.5t27 13t-8.5 25.5q-14 13 -34.5 21.5t-42.5 15.5z" />
    <glyph glyph-name="Scaron" unicode="&#x160;" horiz-adv-x="386" 
d="M332 520q25 -5 43.5 -19.5t26.5 -35t5.5 -46.5t-19.5 -55q-18 -32 -42 -43t-42 0t-20.5 35.5t11.5 48.5q14 23 36.5 32.5t40.5 -1.5q1 17 -13 31t-43 19q-34 5 -64 -13t-43 -49q-15 -34 2 -66t56 -57q53 -32 76 -77t0 -104q-13 -31 -37.5 -58t-57.5 -45.5t-72 -26.5
t-80 -2q-31 5 -52.5 22.5t-32 41.5t-9 52.5t15.5 54.5q15 29 39.5 45t46.5 4q18 -10 20.5 -35t-11.5 -48q-13 -22 -33.5 -31.5t-38.5 -2.5q-3 -19 18 -38.5t55 -26.5q17 -4 36.5 0t37.5 14t32.5 25.5t22.5 35.5q15 40 -5 68t-68 61q-24 16 -40 39t-22.5 50t-3 55t19.5 55
q15 26 38.5 46t51.5 32t58.5 15.5t59.5 -2.5zM281 575l-26 144l120 1l-6 -105l176 117l36 -49l-203 -108h-97z" />
    <glyph glyph-name="scaron" unicode="&#x161;" horiz-adv-x="338" 
d="M185 312q31 6 58 -1.5t44 -26t22.5 -48t-5.5 -67.5q-15 -50 -39 -83.5t-55 -54t-67 -29.5t-75 -9q-32 0 -50.5 14.5t-25.5 37t-3 51t19 55.5q13 25 27 41.5t27 26t24 13t18 3.5q28 0 37 -22.5t-3 -54.5q-15 -37 -39.5 -57t-54.5 -20q-5 0 -13 2q-2 -20 6.5 -33t28.5 -13
q19 0 37.5 10t34.5 28t30 42t24 52q27 72 9.5 100t-74.5 11q-14 -4 -24 1.5t-15 16.5t-5.5 26t5.5 31q15 38 39.5 58t54.5 20q29 0 37.5 -22.5t-3.5 -55.5q-4 -9 -12 -22.5t-19 -20.5zM177 468l-26 144l120 1l-6 -105l176 117l36 -49l-203 -108h-97z" />
    <glyph glyph-name="uni0162" unicode="&#x162;" horiz-adv-x="330" 
d="M443 439q-21 -13 -39 -13.5t-34.5 6t-32.5 17t-33 19.5l-156 -381q-8 -21 -2.5 -33.5t28.5 -12.5h10l-20 -43q-8 -2 -17 -4q-8 -2 -18 -3t-20 -1q-57 0 -71 31.5t13 98.5l138 338l69 27q-2 0 -4 0.5t-4 0.5q-29 2 -59.5 -5.5t-60.5 -21.5t-57.5 -34t-50.5 -42l-20 21
l80 105q51 21 93.5 22.5t93.5 -8.5q20 -4 42 -7.5t47.5 -4.5t55.5 1.5t66 10.5zM-15 -135q-8 12 -8 32q0 28 19.5 47.5t47.5 19.5t47.5 -19.5t19.5 -47.5q0 -23 -10.5 -39.5t-28 -32.5t-40.5 -35.5t-48 -48.5l-35 14z" />
    <glyph glyph-name="uni0163" unicode="&#x163;" horiz-adv-x="200" 
d="M225 410l-125 -304q-8 -19 2 -27t27.5 -5t37.5 18t33 42l17 -28q-10 -24 -27.5 -44.5t-39 -35.5t-46 -24t-48.5 -9t-41.5 8t-26.5 24t-8 40t14 55l120 290h-57l28 51h50l12 30l120 23l-22 -53h90l-28 -51h-82zM-71 -160q-8 12 -8 32q0 28 19.5 47.5t47.5 19.5t47.5 -19.5
t19.5 -47.5q0 -23 -10.5 -39.5t-28 -32.5t-40.5 -35.5t-48 -48.5l-35 14z" />
    <glyph glyph-name="Tcaron" unicode="&#x164;" horiz-adv-x="330" 
d="M443 439q-21 -13 -39 -13.5t-34.5 6t-32.5 17t-33 19.5l-156 -381q-8 -21 -2.5 -33.5t28.5 -12.5h10l-20 -43q-8 -2 -17 -4q-8 -2 -18 -3t-20 -1q-57 0 -71 31.5t13 98.5l138 338l69 27q-2 0 -4 0.5t-4 0.5q-29 2 -59.5 -5.5t-60.5 -21.5t-57.5 -34t-50.5 -42l-20 21
l80 105q51 21 93.5 22.5t93.5 -8.5q20 -4 42 -7.5t47.5 -4.5t55.5 1.5t66 10.5zM223 564l-26 144l120 1l-6 -105l176 117l36 -49l-203 -108h-97z" />
    <glyph glyph-name="tcaron" unicode="&#x165;" horiz-adv-x="386" 
d="M225 410l-125 -304q-8 -19 2 -27t27.5 -5t37.5 18t33 42l17 -28q-10 -24 -27.5 -44.5t-39 -35.5t-46 -24t-48.5 -9t-41.5 8t-26.5 24t-8 40t14 55l120 290h-57l28 51h50l12 30l120 23l-22 -53h90l-28 -51h-82zM366 476q-8 12 -8 32q0 28 19.5 47.5t47.5 19.5t47.5 -19.5
t19.5 -47.5q0 -23 -10.5 -39.5t-28 -32.5t-40.5 -35.5t-48 -48.5l-35 14z" />
    <glyph glyph-name="Tbar" unicode="&#x166;" horiz-adv-x="330" 
d="M53 331h84l52 127l69 27q-2 0 -4 0.5t-4 0.5q-29 2 -59.5 -5.5t-60.5 -21.5t-57.5 -34t-50.5 -42l-20 21l80 105q51 21 93.5 22.5t93.5 -8.5q20 -4 42 -7.5t47.5 -4.5t55.5 1.5t66 10.5l-37 -84q-21 -13 -39 -13.5t-34.5 6t-32.5 17t-33 19.5l-56 -137h87l-29 -69h-87
l-71 -175q-8 -21 -2.5 -33.5t28.5 -12.5h10l-20 -43q-8 -2 -17 -4q-8 -2 -18 -3t-20 -1q-57 0 -71 31.5t13 98.5l58 142h-85z" />
    <glyph glyph-name="tbar" unicode="&#x167;" horiz-adv-x="200" 
d="M49 381h53l12 29h-57l28 51h50l12 30l120 23l-22 -53h90l-28 -51h-82l-12 -29h83l-25 -60h-83l-88 -215q-8 -19 2 -27t27.5 -5t37.5 18t33 42l17 -28q-10 -24 -27.5 -44.5t-39 -35.5t-46 -24t-48.5 -9t-41.5 8t-26.5 24t-8 40t14 55l83 201h-54z" />
    <glyph glyph-name="Utilde" unicode="&#x168;" horiz-adv-x="469" 
d="M269 130q-21 -30 -44.5 -55.5t-47.5 -44t-48.5 -29.5t-49.5 -11q-58 0 -72 31.5t13 98.5q4 10 14 34.5t23 56t27 66t26.5 65.5t22 54t13.5 32q8 20 2 32.5t-29 12.5h-10l21 43q8 2 17 4q8 2 17.5 3t19.5 1q57 0 71.5 -31.5t-12.5 -98.5l-126 -307q-9 -23 -2.5 -30t24 1.5
t43.5 32t56 60.5t61.5 87.5t59.5 113.5l31 76q9 20 3 32.5t-29 12.5h-10l20 43q8 2 17 4q8 2 17.5 3t20.5 1q57 0 71 -31.5t-13 -98.5l-117 -289q-8 -20 2 -28.5t27 -5t37.5 19t33.5 42.5l17 -28q-10 -24 -27.5 -44.5t-39 -36.5t-46 -25t-48.5 -9t-41.5 8.5t-26.5 24.5
t-8 40t14 55zM192 588q31 43 72 69.5t83 32.5q29 4 39.5 -6.5t14.5 -24t7 -25t17 -9.5t27 12t24 21q12 13 23 30l33 -32q-19 -25 -44 -46q-21 -18 -49.5 -34t-61.5 -21q-22 -3 -35 1t-19.5 11.5t-8.5 17t-3.5 17.5t-4.5 13t-11 4q-13 -2 -25.5 -11.5t-22.5 -20.5
q-12 -13 -23 -28z" />
    <glyph glyph-name="utilde" unicode="&#x169;" horiz-adv-x="390" 
d="M290 106q-8 -19 2 -27t27.5 -5t37.5 18t33 42l17 -28q-10 -24 -27.5 -44.5t-39 -35.5t-46 -24t-48.5 -9q-31 0 -50 13t-24 39q-25 -24 -56.5 -38t-61.5 -14q-24 0 -41.5 8t-26 24t-7.5 40t14 55q5 12 15.5 36.5t21.5 51.5t20.5 51t14.5 35q9 20 3 32.5t-29 12.5h-10
l20 43q8 2 17 4q8 2 17.5 3t20.5 1q57 0 71 -31.5t-14 -97.5q-6 -15 -16.5 -41t-21.5 -52q-12 -30 -25 -62q-6 -17 0.5 -25.5t19.5 -8.5t30 8.5t32 25.5q1 4 2 7t3 7l108 262h111zM101 489q31 43 72 69.5t83 32.5q29 4 39.5 -6.5t14.5 -24t7 -25t17 -9.5t27 12t24 21
q12 13 23 30l33 -32q-19 -25 -44 -46q-21 -18 -49.5 -34t-61.5 -21q-22 -3 -35 1t-19.5 11.5t-8.5 17t-3.5 17.5t-4.5 13t-11 4q-13 -2 -25.5 -11.5t-22.5 -20.5q-12 -13 -23 -28z" />
    <glyph glyph-name="Umacron" unicode="&#x16a;" horiz-adv-x="469" 
d="M269 130q-21 -30 -44.5 -55.5t-47.5 -44t-48.5 -29.5t-49.5 -11q-58 0 -72 31.5t13 98.5q4 10 14 34.5t23 56t27 66t26.5 65.5t22 54t13.5 32q8 20 2 32.5t-29 12.5h-10l21 43q8 2 17 4q8 2 17.5 3t19.5 1q57 0 71.5 -31.5t-12.5 -98.5l-126 -307q-9 -23 -2.5 -30t24 1.5
t43.5 32t56 60.5t61.5 87.5t59.5 113.5l31 76q9 20 3 32.5t-29 12.5h-10l20 43q8 2 17 4q8 2 17.5 3t20.5 1q57 0 71 -31.5t-13 -98.5l-117 -289q-8 -20 2 -28.5t27 -5t37.5 19t33.5 42.5l17 -28q-10 -24 -27.5 -44.5t-39 -36.5t-46 -25t-48.5 -9t-41.5 8.5t-26.5 24.5
t-8 40t14 55zM251 660h282l-29 -69h-282z" />
    <glyph glyph-name="umacron" unicode="&#x16b;" horiz-adv-x="390" 
d="M290 106q-8 -19 2 -27t27.5 -5t37.5 18t33 42l17 -28q-10 -24 -27.5 -44.5t-39 -35.5t-46 -24t-48.5 -9q-31 0 -50 13t-24 39q-25 -24 -56.5 -38t-61.5 -14q-24 0 -41.5 8t-26 24t-7.5 40t14 55q5 12 15.5 36.5t21.5 51.5t20.5 51t14.5 35q9 20 3 32.5t-29 12.5h-10
l20 43q8 2 17 4q8 2 17.5 3t20.5 1q57 0 71 -31.5t-14 -97.5q-6 -15 -16.5 -41t-21.5 -52q-12 -30 -25 -62q-6 -17 0.5 -25.5t19.5 -8.5t30 8.5t32 25.5q1 4 2 7t3 7l108 262h111zM155 555h282l-29 -69h-282z" />
    <glyph glyph-name="Ubreve" unicode="&#x16c;" horiz-adv-x="469" 
d="M269 130q-21 -30 -44.5 -55.5t-47.5 -44t-48.5 -29.5t-49.5 -11q-58 0 -72 31.5t13 98.5q4 10 14 34.5t23 56t27 66t26.5 65.5t22 54t13.5 32q8 20 2 32.5t-29 12.5h-10l21 43q8 2 17 4q8 2 17.5 3t19.5 1q57 0 71.5 -31.5t-12.5 -98.5l-126 -307q-9 -23 -2.5 -30t24 1.5
t43.5 32t56 60.5t61.5 87.5t59.5 113.5l31 76q9 20 3 32.5t-29 12.5h-10l20 43q8 2 17 4q8 2 17.5 3t20.5 1q57 0 71 -31.5t-13 -98.5l-117 -289q-8 -20 2 -28.5t27 -5t37.5 19t33.5 42.5l17 -28q-10 -24 -27.5 -44.5t-39 -36.5t-46 -25t-48.5 -9t-41.5 8.5t-26.5 24.5
t-8 40t14 55zM533 702q-14 -29 -35 -54t-45.5 -43.5t-51 -29.5t-50.5 -11t-39.5 10.5t-22.5 29t-5 43t14 51.5l47 1q-16 -33 -5.5 -56.5t38.5 -23.5q14 0 29.5 6.5t30.5 17.5t27.5 25.5t20.5 31.5z" />
    <glyph glyph-name="ubreve" unicode="&#x16d;" horiz-adv-x="390" 
d="M290 106q-8 -19 2 -27t27.5 -5t37.5 18t33 42l17 -28q-10 -24 -27.5 -44.5t-39 -35.5t-46 -24t-48.5 -9q-31 0 -50 13t-24 39q-25 -24 -56.5 -38t-61.5 -14q-24 0 -41.5 8t-26 24t-7.5 40t14 55q5 12 15.5 36.5t21.5 51.5t20.5 51t14.5 35q9 20 3 32.5t-29 12.5h-10
l20 43q8 2 17 4q8 2 17.5 3t20.5 1q57 0 71 -31.5t-14 -97.5q-6 -15 -16.5 -41t-21.5 -52q-12 -30 -25 -62q-6 -17 0.5 -25.5t19.5 -8.5t30 8.5t32 25.5q1 4 2 7t3 7l108 262h111zM454 578q-14 -29 -35 -54t-45.5 -43.5t-51 -29.5t-50.5 -11t-39.5 10.5t-22.5 29t-5 43
t14 51.5l47 1q-16 -33 -5.5 -56.5t38.5 -23.5q14 0 29.5 6.5t30.5 17.5t27.5 25.5t20.5 31.5z" />
    <glyph glyph-name="Uring" unicode="&#x16e;" horiz-adv-x="469" 
d="M269 130q-21 -30 -44.5 -55.5t-47.5 -44t-48.5 -29.5t-49.5 -11q-58 0 -72 31.5t13 98.5q4 10 14 34.5t23 56t27 66t26.5 65.5t22 54t13.5 32q8 20 2 32.5t-29 12.5h-10l21 43q8 2 17 4q8 2 17.5 3t19.5 1q57 0 71.5 -31.5t-12.5 -98.5l-126 -307q-9 -23 -2.5 -30t24 1.5
t43.5 32t56 60.5t61.5 87.5t59.5 113.5l31 76q9 20 3 32.5t-29 12.5h-10l20 43q8 2 17 4q8 2 17.5 3t20.5 1q57 0 71 -31.5t-13 -98.5l-117 -289q-8 -20 2 -28.5t27 -5t37.5 19t33.5 42.5l17 -28q-10 -24 -27.5 -44.5t-39 -36.5t-46 -25t-48.5 -9t-41.5 8.5t-26.5 24.5
t-8 40t14 55zM462 633q0 -20 -8 -38t-22 -31.5t-32 -21.5t-39 -8t-39 8t-32 21.5t-22 31.5t-8 38q0 21 8 39.5t22 32t32 21.5t39 8t39 -8t32 -21.5t22 -32t8 -39.5zM422 633q0 26 -17.5 43.5t-43.5 17.5t-43.5 -17.5t-17.5 -43.5q0 -25 17.5 -42.5t43.5 -17.5t43.5 17.5
t17.5 42.5z" />
    <glyph glyph-name="uring" unicode="&#x16f;" horiz-adv-x="390" 
d="M290 106q-8 -19 2 -27t27.5 -5t37.5 18t33 42l17 -28q-10 -24 -27.5 -44.5t-39 -35.5t-46 -24t-48.5 -9q-31 0 -50 13t-24 39q-25 -24 -56.5 -38t-61.5 -14q-24 0 -41.5 8t-26 24t-7.5 40t14 55q5 12 15.5 36.5t21.5 51.5t20.5 51t14.5 35q9 20 3 32.5t-29 12.5h-10
l20 43q8 2 17 4q8 2 17.5 3t20.5 1q57 0 71 -31.5t-14 -97.5q-6 -15 -16.5 -41t-21.5 -52q-12 -30 -25 -62q-6 -17 0.5 -25.5t19.5 -8.5t30 8.5t32 25.5q1 4 2 7t3 7l108 262h111zM377 524q0 -20 -8 -38t-22 -31.5t-32 -21.5t-39 -8t-39 8t-32 21.5t-22 31.5t-8 38
q0 21 8 39.5t22 32t32 21.5t39 8t39 -8t32 -21.5t22 -32t8 -39.5zM337 524q0 26 -17.5 43.5t-43.5 17.5t-43.5 -17.5t-17.5 -43.5q0 -25 17.5 -42.5t43.5 -17.5t43.5 17.5t17.5 42.5z" />
    <glyph glyph-name="Uhungarumlaut" unicode="&#x170;" horiz-adv-x="469" 
d="M269 130q-21 -30 -44.5 -55.5t-47.5 -44t-48.5 -29.5t-49.5 -11q-58 0 -72 31.5t13 98.5q4 10 14 34.5t23 56t27 66t26.5 65.5t22 54t13.5 32q8 20 2 32.5t-29 12.5h-10l21 43q8 2 17 4q8 2 17.5 3t19.5 1q57 0 71.5 -31.5t-12.5 -98.5l-126 -307q-9 -23 -2.5 -30t24 1.5
t43.5 32t56 60.5t61.5 87.5t59.5 113.5l31 76q9 20 3 32.5t-29 12.5h-10l20 43q8 2 17 4q8 2 17.5 3t20.5 1q57 0 71 -31.5t-13 -98.5l-117 -289q-8 -20 2 -28.5t27 -5t37.5 19t33.5 42.5l17 -28q-10 -24 -27.5 -44.5t-39 -36.5t-46 -25t-48.5 -9t-41.5 8.5t-26.5 24.5
t-8 40t14 55zM212 584l179 163l56 -97l106 97l61 -106l-220 -96l-20 39l48 44l-190 -83z" />
    <glyph glyph-name="uhungarumlaut" unicode="&#x171;" horiz-adv-x="390" 
d="M290 106q-8 -19 2 -27t27.5 -5t37.5 18t33 42l17 -28q-10 -24 -27.5 -44.5t-39 -35.5t-46 -24t-48.5 -9q-31 0 -50 13t-24 39q-25 -24 -56.5 -38t-61.5 -14q-24 0 -41.5 8t-26 24t-7.5 40t14 55q5 12 15.5 36.5t21.5 51.5t20.5 51t14.5 35q9 20 3 32.5t-29 12.5h-10
l20 43q8 2 17 4q8 2 17.5 3t20.5 1q57 0 71 -31.5t-14 -97.5q-6 -15 -16.5 -41t-21.5 -52q-12 -30 -25 -62q-6 -17 0.5 -25.5t19.5 -8.5t30 8.5t32 25.5q1 4 2 7t3 7l108 262h111zM115 470l179 163l56 -97l106 97l61 -106l-220 -96l-20 39l48 44l-190 -83z" />
    <glyph glyph-name="Uogonek" unicode="&#x172;" horiz-adv-x="469" 
d="M440 -71q-10 -24 -27.5 -44.5t-39 -35.5t-46 -24t-48.5 -9t-42 10t-26.5 27t-5.5 38.5t22 44.5q12 15 32 29t41 28q-35 8 -46.5 39.5t10.5 85.5l5 12q-21 -30 -44.5 -55.5t-47.5 -44t-48.5 -29.5t-49.5 -11q-58 0 -72 31.5t13 98.5q4 10 14 34.5t23 56t27 66t26.5 65.5
t22 54t13.5 32q8 20 2 32.5t-29 12.5h-10l21 43q8 2 17 4q8 2 17.5 3t19.5 1q57 0 71.5 -31.5t-12.5 -98.5l-126 -307q-9 -23 -2.5 -30t24 1.5t43.5 32t56 60.5t61.5 87.5t59.5 113.5l31 76q9 20 3 32.5t-29 12.5h-10l20 43q8 2 17 4q8 2 17.5 3t20.5 1q57 0 71 -31.5
t-13 -98.5l-117 -289q-8 -20 2 -28.5t27 -5t37.5 19t33.5 42.5l17 -28q-9 -23 -25 -42.5t-36 -34.5q-11 -9 -25 -19t-28.5 -22t-28 -26.5t-21.5 -31.5q-9 -19 0 -27t27 -5t38.5 18t34.5 42l17 -28v0z" />
    <glyph glyph-name="uogonek" unicode="&#x173;" horiz-adv-x="390" 
d="M363 -66q-10 -24 -27.5 -44.5t-39 -35.5t-46 -24t-48.5 -9t-42 10t-26.5 27t-5.5 38.5t22 44.5q11 14 30 28t40 27q-40 9 -48 49q-25 -24 -56.5 -38t-61.5 -14q-24 0 -41.5 8t-26 24t-7.5 40t14 55q5 12 15.5 36.5t21.5 51.5t20.5 51t14.5 35q9 20 3 32.5t-29 12.5h-10
l20 43q8 2 17 4q8 2 17.5 3t20.5 1q57 0 71 -31.5t-14 -97.5q-6 -15 -16.5 -41t-21.5 -52q-12 -30 -25 -62q-6 -17 0.5 -25.5t19.5 -8.5t30 8.5t32 25.5q1 4 2 7t3 7l108 262h111l-114 -276q-8 -19 2 -27t27.5 -5t37.5 18t33 42l17 -28q-11 -26 -30 -47.5t-43 -37.5
q-22 -16 -48 -37t-40 -50q-9 -19 0 -27t27 -5t38.5 18t34.5 42l17 -28v0z" />
    <glyph glyph-name="Wcircumflex" unicode="&#x174;" horiz-adv-x="609" 
d="M213 121q8 12 21.5 38.5t24.5 51.5q13 31 26 63t25.5 61t23 53l17.5 40q9 20 3 32.5t-29 12.5h-10l20 43q8 2 17 4q8 2 17.5 3t20.5 1q57 0 70.5 -32t-12.5 -98q-13 -33 -27.5 -69.5t-29.5 -74l-30 -75t-29 -70.5q-11 -25 -8.5 -39.5t15.5 -14t34 17t46 52.5
q17 24 34.5 55t34 63t31.5 63.5t27 57.5t20.5 44t12.5 23q14 21 7 33t-30 12h-10l32 44q11 1 22 3q10 2 20.5 3t21.5 1q57 0 63 -31t-39 -99q-11 -15 -28 -40.5t-34.5 -51t-32.5 -47.5t-21 -31q-39 -54 -69.5 -97t-59 -73.5t-59 -46.5t-68.5 -16q-32 0 -54.5 14.5
t-27.5 43.5q-28 -28 -57 -43t-66 -15q-24 0 -42.5 8.5t-28.5 24.5t-11 40t10 55l102 291q7 19 -3.5 27t-27.5 5t-36.5 -18t-30.5 -42l-19 28q8 24 25 44.5t38.5 36t45.5 24.5t48 9q49 0 70.5 -32.5t-0.5 -94.5q-2 -6 -8.5 -24.5t-16 -45t-20.5 -58t-21.5 -62t-20.5 -57.5
t-16 -44q-9 -26 -6 -40.5t15 -14t32.5 17.5t45.5 53zM563 706l26 -144l-120 -1l6 105l-176 -117l-36 49l203 108h97z" />
    <glyph glyph-name="wcircumflex" unicode="&#x175;" horiz-adv-x="545" 
d="M590 382q-6 -13 -19.5 -41.5t-28 -60.5t-27.5 -60t-18 -39q-21 -46 -44.5 -81t-52 -59t-63.5 -36t-78 -12q-32 0 -53.5 14.5t-26.5 43.5q-26 -26 -59 -42t-65 -16q-49 0 -68 32t7 95l72 174q8 20 2 32.5t-29 12.5h-9l20 43q8 2 17 4q8 2 17.5 3t19.5 1q57 0 71 -31.5
t-13 -97.5q-6 -15 -16.5 -41t-21.5 -52q-12 -30 -25 -62q-7 -17 0 -25.5t20.5 -8.5t30.5 9t32 27l4 12q4 12 13.5 36.5t20.5 51.5t21 51t13 35q7 20 2 32.5t-28 12.5h-10l21 43q8 2 17 4q8 2 17.5 3t19.5 1q57 0 72.5 -32.5t-11.5 -96.5q-38 -88 -51.5 -134.5t-4.5 -61.5
q8 -13 26.5 -11t32.5 16q0 18 4 34.5t16.5 48t36.5 85t65 144.5h111zM502 598l26 -144l-120 -1l6 105l-176 -117l-36 49l203 108h97z" />
    <glyph glyph-name="Ycircumflex" unicode="&#x176;" horiz-adv-x="322" 
d="M53 524q57 0 88.5 -31.5t40.5 -98.5l14 -101q38 30 64.5 68t35.5 70q9 29 0 41t-41 4l15 40q8 1 17 3q8 2 17 3t20 1q23 0 42 -7t30 -20t12.5 -31.5t-8.5 -41.5q-23 -51 -74.5 -95.5t-115.5 -74.5l-68 -166q-8 -21 -2 -33.5t29 -12.5h9l-20 -43q-8 -2 -17 -4
q-8 -2 -17.5 -3t-19.5 -1q-58 0 -72 31.5t13 98.5l48 119l-26 189q-2 20 -15 32.5t-36 12.5h-10l-4 43q7 2 15 4q7 2 16 3t20 1zM401 712l26 -144l-120 -1l6 105l-176 -117l-36 49l203 108h97z" />
    <glyph glyph-name="ycircumflex" unicode="&#x177;" horiz-adv-x="374" 
d="M404 382q-8 -19 -18.5 -44t-22 -53.5t-23.5 -59t-24 -59.5q-27 -68 -58 -142q-38 -97 -101 -148t-140 -51q-32 0 -51.5 15t-26.5 38t-2.5 51t19.5 55q14 23 32 40q-9 17 -8.5 40.5t13.5 55.5q5 12 15.5 36.5t22 51.5t21 51t13.5 35q9 20 3 32.5t-29 12.5h-10l21 43
q8 2 17 4q8 2 17 3t20 1q57 0 71.5 -31.5t-13.5 -97.5q-6 -15 -16.5 -41t-21.5 -52q-12 -30 -25 -62q-6 -17 0 -25.5t18.5 -9t29.5 7.5t32 25l114 278h111zM425 598l26 -144l-120 -1l6 105l-176 -117l-36 49l203 108h97zM55 -7q-22 0 -38 6q-13 -11 -25 -29t-18 -47
q-6 -25 6.5 -39.5t32.5 -14.5q19 0 38.5 14t37 36t32.5 49.5t25 54.5q-22 -14 -45 -22t-46 -8z" />
    <glyph glyph-name="Ydieresis" unicode="&#x178;" horiz-adv-x="322" 
d="M53 524q57 0 88.5 -31.5t40.5 -98.5l14 -101q38 30 64.5 68t35.5 70q9 29 0 41t-41 4l15 40q8 1 17 3q8 2 17 3t20 1q23 0 42 -7t30 -20t12.5 -31.5t-8.5 -41.5q-23 -51 -74.5 -95.5t-115.5 -74.5l-68 -166q-8 -21 -2 -33.5t29 -12.5h9l-20 -43q-8 -2 -17 -4
q-8 -2 -17.5 -3t-19.5 -1q-58 0 -72 31.5t13 98.5l48 119l-26 189q-2 20 -15 32.5t-36 12.5h-10l-4 43q7 2 15 4q7 2 16 3t20 1zM244 613q0 -25 -17 -42t-43 -17q-24 0 -42 17t-18 42q0 26 18 43t42 17q26 0 43 -17t17 -43zM394 613q0 -25 -18 -42t-42 -17q-26 0 -43 17
t-17 42q0 26 17 43t43 17q24 0 42 -17t18 -43z" />
    <glyph glyph-name="Zacute" unicode="&#x179;" horiz-adv-x="1036" 
d="M564 439l-275 -293l-83 -32l-11 -14q12 8 25.5 13t30.5 5t33 -9t32 -19t31.5 -18.5t33 -6.5t37 17t41.5 51l17 -28q-31 -54 -72.5 -84t-83.5 -30q-26 0 -43.5 10.5t-30.5 23.5t-24 23.5t-25 10.5q-13 0 -28 -10t-28 -21q-16 -13 -31 -30l-43 64l370 393l30 -6
q-17 12 -35.5 23.5t-41.5 13.5q-47 3 -91.5 -26.5t-91.5 -76.5l-20 21l80 105q45 19 77 20t64 -6q20 -4 39.5 -7.5t42 -4.5t49.5 1.5t62 10.5zM852 745l179 163l61 -106l-220 -96z" />
    <glyph glyph-name="zacute" unicode="&#x17a;" horiz-adv-x="297" 
d="M89 382h261l-3 -6l-40 -92l-194 -123q36 4 64.5 -5t45 -30t18.5 -52.5t-14 -71.5q-39 -96 -98.5 -136.5t-136.5 -40.5q-32 0 -50.5 14.5t-25.5 37.5t-3 51.5t18 55.5q13 25 27 41t27 25.5t24 13.5t18 4q29 0 38 -22.5t-4 -54.5q-14 -37 -38.5 -57t-55.5 -20q-8 0 -13 1
q-2 -20 7 -33t29 -13q19 0 37.5 10.5t34.5 28.5t30 42t24 52q21 57 8 87t-49 30q-12 0 -26.5 -4t-28.5 -12l-11 -7l-9 38q7 17 15.5 39.5t16.5 39.5l187 127h-148zM182 470l179 163l61 -106l-220 -96z" />
    <glyph glyph-name="Zdotaccent" unicode="&#x17b;" horiz-adv-x="1036" 
d="M564 439l-275 -293l-83 -32l-11 -14q12 8 25.5 13t30.5 5t33 -9t32 -19t31.5 -18.5t33 -6.5t37 17t41.5 51l17 -28q-31 -54 -72.5 -84t-83.5 -30q-26 0 -43.5 10.5t-30.5 23.5t-24 23.5t-25 10.5q-13 0 -28 -10t-28 -21q-16 -13 -31 -30l-43 64l370 393l30 -6
q-17 12 -35.5 23.5t-41.5 13.5q-47 3 -91.5 -26.5t-91.5 -76.5l-20 21l80 105q45 19 77 20t64 -6q20 -4 39.5 -7.5t42 -4.5t49.5 1.5t62 10.5zM1016 809q0 -27 -19.5 -46.5t-47.5 -19.5t-47.5 19.5t-19.5 46.5q0 28 19.5 47.5t47.5 19.5t47.5 -19.5t19.5 -47.5z" />
    <glyph glyph-name="zdotaccent" unicode="&#x17c;" horiz-adv-x="297" 
d="M89 382h261l-3 -6l-40 -92l-194 -123q36 4 64.5 -5t45 -30t18.5 -52.5t-14 -71.5q-39 -96 -98.5 -136.5t-136.5 -40.5q-32 0 -50.5 14.5t-25.5 37.5t-3 51.5t18 55.5q13 25 27 41t27 25.5t24 13.5t18 4q29 0 38 -22.5t-4 -54.5q-14 -37 -38.5 -57t-55.5 -20q-8 0 -13 1
q-2 -20 7 -33t29 -13q19 0 37.5 10.5t34.5 28.5t30 42t24 52q21 57 8 87t-49 30q-12 0 -26.5 -4t-28.5 -12l-11 -7l-9 38q7 17 15.5 39.5t16.5 39.5l187 127h-148zM343 519q0 -27 -19.5 -46.5t-47.5 -19.5t-47.5 19.5t-19.5 46.5q0 28 19.5 47.5t47.5 19.5t47.5 -19.5
t19.5 -47.5z" />
    <glyph glyph-name="Zcaron" unicode="&#x17d;" horiz-adv-x="424" 
d="M499 439l-275 -293l-83 -32l-11 -14q12 8 25.5 13t30.5 5q26 0 58 -13.5t64.5 -21.5t62.5 -0.5t53 50.5l17 -28q-31 -54 -67.5 -84t-78.5 -30q-26 0 -49.5 9t-44 20t-38 20t-31.5 9q-13 0 -28 -8t-28 -18q-16 -11 -31 -25l-43 64l370 393l30 -6q-17 12 -35.5 23.5
t-41.5 13.5q-47 3 -91.5 -26.5t-91.5 -76.5l-20 21l80 105q45 19 77 20t64 -6q20 -4 39.5 -7.5t42 -4.5t49.5 1.5t62 10.5zM317 575l-26 144l120 1l-6 -105l176 117l36 -49l-203 -108h-97z" />
    <glyph glyph-name="zcaron" unicode="&#x17e;" horiz-adv-x="297" 
d="M89 382h261l-3 -6l-40 -92l-194 -123q36 4 64.5 -5t45 -30t18.5 -52.5t-14 -71.5q-39 -96 -98.5 -136.5t-136.5 -40.5q-32 0 -50.5 14.5t-25.5 37.5t-3 51.5t18 55.5q13 25 27 41t27 25.5t24 13.5t18 4q29 0 38 -22.5t-4 -54.5q-14 -37 -38.5 -57t-55.5 -20q-8 0 -13 1
q-2 -20 7 -33t29 -13q19 0 37.5 10.5t34.5 28.5t30 42t24 52q21 57 8 87t-49 30q-12 0 -26.5 -4t-28.5 -12l-11 -7l-9 38q7 17 15.5 39.5t16.5 39.5l187 127h-148zM184 441l-26 144l120 1l-6 -105l176 117l36 -49l-203 -108h-97z" />
    <glyph glyph-name="florin" unicode="&#x192;" horiz-adv-x="336" 
d="M87 348q39 98 102 148.5t140 50.5q32 0 51 -14.5t26 -37t2.5 -51t-18.5 -55.5q-13 -25 -27 -41.5t-27 -26t-24.5 -13.5t-18.5 -4q-28 0 -36.5 23t3.5 55q15 36 39.5 56.5t54.5 20.5q5 0 13 -2q2 20 -6.5 33t-28.5 13t-39 -13.5t-36.5 -35.5t-32 -50t-24.5 -56l-54 -131
q26 -2 42 -17.5t20.5 -42t-3 -63.5t-28.5 -81q-44 -92 -93 -140t-97 -48t-67.5 32.5t6.5 94.5zM130 22q20 40 28 69t6.5 47.5t-11.5 27t-25 7.5l-96 -234q-8 -19 -3 -28t19 -1.5t35.5 34.5t46.5 78z" />
    <glyph glyph-name="circumflex" unicode="&#x2c6;" horiz-adv-x="395" 
d="M380 598l26 -144l-120 -1l6 105l-176 -117l-36 49l203 108h97z" />
    <glyph glyph-name="caron" unicode="&#x2c7;" horiz-adv-x="395" 
d="M136 441l-26 144l120 1l-6 -105l176 117l36 -49l-203 -108h-97z" />
    <glyph glyph-name="breve" unicode="&#x2d8;" horiz-adv-x="351" 
d="M311 578q-14 -29 -35 -54t-45.5 -43.5t-51 -29.5t-50.5 -11t-39.5 10.5t-22.5 29t-5 43t14 51.5l47 1q-16 -33 -5.5 -56.5t38.5 -23.5q14 0 29.5 6.5t30.5 17.5t27.5 25.5t20.5 31.5z" />
    <glyph glyph-name="dotaccent" unicode="&#x2d9;" horiz-adv-x="275" 
d="M207 519q0 -27 -19.5 -46.5t-47.5 -19.5t-47.5 19.5t-19.5 46.5q0 28 19.5 47.5t47.5 19.5t47.5 -19.5t19.5 -47.5z" />
    <glyph glyph-name="ring" unicode="&#x2da;" horiz-adv-x="275" 
d="M201 499q0 26 -17.5 43.5t-43.5 17.5t-43.5 -17.5t-17.5 -43.5q0 -25 17.5 -42.5t43.5 -17.5t43.5 17.5t17.5 42.5zM241 499q0 -20 -8 -38t-22 -31.5t-32 -21.5t-39 -8t-39 8t-32 21.5t-22 31.5t-8 38q0 21 8 39.5t22 32t32 21.5t39 8t39 -8t32 -21.5t22 -32t8 -39.5z
" />
    <glyph glyph-name="ogonek" unicode="&#x2db;" horiz-adv-x="295" 
d="M236 -74q-10 -24 -27.5 -44.5t-39 -35.5t-46 -24t-48.5 -9t-42 10t-26.5 27t-5.5 38.5t22 44.5q15 18 40.5 35t51 32.5t45.5 29t25 24.5l52 -13q-6 -10 -21.5 -21t-33.5 -25t-35.5 -31t-27.5 -38q-9 -19 0 -27t27 -5t38.5 18t34.5 42l17 -28v0z" />
    <glyph glyph-name="tilde" unicode="&#x2dc;" horiz-adv-x="461" 
d="M100 489q31 43 72 69.5t83 32.5q29 4 39.5 -6.5t14.5 -24t7 -25t17 -9.5t27 12t24 21q12 13 23 30l33 -32q-19 -25 -44 -46q-21 -18 -49.5 -34t-61.5 -21q-23 -3 -35.5 1t-19 11.5t-8.5 17t-3.5 17.5t-4.5 13t-11 4q-13 -2 -25.5 -11.5t-22.5 -20.5q-12 -13 -23 -28z" />
    <glyph glyph-name="hungarumlaut" unicode="&#x2dd;" horiz-adv-x="572" 
d="M104 470l179 163l56 -97l106 97l61 -106l-220 -96l-20 39l48 44l-190 -83z" />
    <glyph glyph-name="uni1E02" unicode="&#x1e02;" horiz-adv-x="463" 
d="M351 523q36 0 64.5 -9.5t45.5 -27.5t22 -43.5t-5 -57.5q-6 -19 -19.5 -36.5t-31.5 -32.5t-37.5 -26.5t-36.5 -17.5q22 -4 38.5 -17.5t25.5 -33.5t8.5 -45t-10.5 -52q-67 -166 -277 -133q-18 3 -28 7h-108l171 418l97 60q-44 -10 -93.5 -31t-81.5 -53l-20 21l52 72
q51 21 104.5 29.5t119.5 8.5zM292 249q-27 -9 -46.5 -10t-32.5 3l-84 -204q13 -6 31 -7q22 -3 45 5t43.5 23t37 35t26.5 43q24 54 16.5 83t-36.5 29zM332 486q-5 0 -10 -0.5t-10 -1.5l-79 -191q14 1 37 -2q36 0 64.5 30.5t42.5 71.5q7 23 5.5 40.5t-9 29t-18.5 17.5t-23 6z
M427 633q0 -27 -19.5 -46.5t-47.5 -19.5t-47.5 19.5t-19.5 46.5q0 28 19.5 47.5t47.5 19.5t47.5 -19.5t19.5 -47.5z" />
    <glyph glyph-name="uni1E03" unicode="&#x1e03;" horiz-adv-x="391" 
d="M-55 0q51 124 91 223q17 42 33.5 82.5t30 72.5t21.5 52t9 22q9 20 3 32.5t-29 12.5h-10l21 43q8 1 17 3q8 2 17 3t20 1q57 0 71 -31t-14 -98l-25 -60q23 15 46 23.5t44 8.5q34 0 55.5 -15.5t30.5 -42.5t5.5 -63t-21.5 -77q-43 -102 -107 -150.5t-132 -48.5q-38 0 -60 27
q-5 -11 -6 -15q-1 -3 -2 -5h-109zM248 327q-17 0 -35.5 -9.5t-38.5 -26.5q-12 -29 -24.5 -60t-25 -61.5t-24.5 -59t-21 -50.5q9 -13 29 -13q38 0 69.5 31t69.5 108q14 29 22.5 55t9.5 45t-6 30t-25 11zM429 554q0 -27 -19.5 -46.5t-47.5 -19.5t-47.5 19.5t-19.5 46.5
q0 28 19.5 47.5t47.5 19.5t47.5 -19.5t19.5 -47.5z" />
    <glyph glyph-name="uni1E0A" unicode="&#x1e0a;" horiz-adv-x="477" 
d="M351 523q87 0 122.5 -61t2.5 -183q-16 -58 -42.5 -113.5t-66.5 -97.5t-96 -64t-132 -13q-20 3 -30 7h-107l171 418l97 60q-46 -11 -94.5 -32t-79.5 -52l-20 21l52 72q51 21 104 29.5t119 8.5zM343 486q-7 0 -14.5 -0.5t-15.5 -1.5l-184 -446l14 -4t17 -3q33 -4 63 15
t55.5 52t45.5 74.5t34 82.5q17 51 25 93t6.5 73t-13 48t-33.5 17zM438 623q0 -27 -19.5 -46.5t-47.5 -19.5t-47.5 19.5t-19.5 46.5q0 28 19.5 47.5t47.5 19.5t47.5 -19.5t19.5 -47.5z" />
    <glyph glyph-name="uni1E0B" unicode="&#x1e0b;" 
d="M258 390q39 0 59 -28l37 90q9 20 2.5 32.5t-28.5 12.5h-10l20 43q8 1 17 3q8 2 17.5 3t19.5 1q57 0 71.5 -31t-13.5 -98l-128 -312q-7 -20 2.5 -28t27 -4.5t37.5 18.5t33 42l17 -28q-10 -24 -27.5 -44.5t-39 -35.5t-46 -24t-48.5 -9q-31 0 -50 12.5t-24 38.5
q-29 -24 -59 -37.5t-57 -13.5q-34 0 -55.5 15.5t-30.5 42.5t-5.5 63.5t21.5 77.5q44 102 107.5 150t132.5 48zM217 120q3 7 11.5 27.5t20.5 48.5t25.5 61.5t26.5 65.5q-11 14 -30 14q-37 0 -68 -31.5t-70 -109.5q-14 -29 -22.5 -54.5t-9.5 -44.5t6.5 -30t24.5 -11t36 10
t39 27q2 7 4.5 13t5.5 14zM425 638q0 -27 -19.5 -46.5t-47.5 -19.5t-47.5 19.5t-19.5 46.5q0 28 19.5 47.5t47.5 19.5t47.5 -19.5t19.5 -47.5z" />
    <glyph glyph-name="uni1E1E" unicode="&#x1e1e;" horiz-adv-x="370" 
d="M493 439q-28 -17 -54.5 -12t-52 18t-51 27t-52.5 14h-2l-92 -223h152l-19 -51h-154l-51 -125q-8 -21 -2 -33.5t29 -12.5h9l-20 -43q-8 -2 -17 -4q-8 -2 -17.5 -3t-19.5 -1q-58 0 -72 31.5t13 98.5l121 296l106 66q-20 -4 -44.5 -12t-49.5 -19t-48 -26t-41 -33l-20 21
l52 72q25 10 48 17.5t47 12t50.5 6.5t59.5 2q20 0 45 -3t54.5 -5t62 -1t67.5 9zM391 627q0 -27 -19.5 -46.5t-47.5 -19.5t-47.5 19.5t-19.5 46.5q0 28 19.5 47.5t47.5 19.5t47.5 -19.5t19.5 -47.5z" />
    <glyph glyph-name="uni1E1F" unicode="&#x1e1f;" horiz-adv-x="336" 
d="M87 348q39 98 102 148.5t140 50.5q32 0 51 -14.5t26 -37t2.5 -51t-18.5 -55.5q-13 -25 -27 -41.5t-27 -26t-24.5 -13.5t-18.5 -4q-28 0 -36.5 23t3.5 55q15 36 39.5 56.5t54.5 20.5q5 0 13 -2q2 20 -6.5 33t-28.5 13t-39 -13.5t-36.5 -35.5t-32 -50t-24.5 -56l-54 -131
q61 -5 64 -75q29 1 55 8.5t47 19.5t37 27.5t26 31.5l17 -27q-22 -48 -71 -77t-117 -36q-5 -17 -11 -36.5t-16 -39.5q-44 -92 -93 -140t-97 -48t-67.5 32.5t6.5 94.5zM130 22q20 40 28 69t6.5 47.5t-11.5 27t-25 7.5l-96 -234q-8 -19 -3 -28t19 -1.5t35.5 34.5t46.5 78z
M456 641q0 -27 -19.5 -46.5t-47.5 -19.5t-47.5 19.5t-19.5 46.5q0 28 19.5 47.5t47.5 19.5t47.5 -19.5t19.5 -47.5z" />
    <glyph glyph-name="uni1E40" unicode="&#x1e40;" horiz-adv-x="595" 
d="M483 349q-29 -36 -60 -75.5t-59 -75t-51 -64.5t-35 -44q-21 -27 -41 -38t-35.5 -7t-24.5 23t-8 52q0 10 1 35t2 57t2 67t2 66l-107 -262q-12 -30 -3.5 -41.5t40.5 -3.5l-19 -39q-8 -3 -17 -5q-8 -2 -18 -3.5t-20 0.5q-19 3 -26.5 19.5t1.5 39.5l157 382q7 17 7 27
q-11 14 -35 14h-10l4 43q7 2 16 4q8 2 16.5 3t19.5 1q57 0 83 -31.5t24 -98.5l-8 -229l235 298q-8 10 -27 10h-10l20 43q8 2 17 4q8 2 17.5 3t20.5 1q57 0 71.5 -31.5t-13.5 -98.5l-117 -289q-8 -20 2 -28.5t27.5 -5t37.5 19t33 42.5l17 -28q-10 -24 -27.5 -44.5t-39 -36.5
t-46 -25t-48.5 -9t-41.5 8.5t-26.5 24.5t-8 40t14 55zM467 616q0 -27 -19.5 -46.5t-47.5 -19.5t-47.5 19.5t-19.5 46.5q0 28 19.5 47.5t47.5 19.5t47.5 -19.5t19.5 -47.5z" />
    <glyph glyph-name="uni1E41" unicode="&#x1e41;" horiz-adv-x="566" 
d="M466 106q-8 -19 2 -27t27 -5t37.5 18t33.5 42l17 -28q-10 -24 -27.5 -44.5t-39 -35.5t-46 -24t-48.5 -9q-49 0 -68 32t7 95l64 156q6 15 1.5 23t-15.5 9.5t-26 -3.5t-29 -17q-2 -6 -4.5 -12t-4.5 -13l-72 -175q-8 -21 -2 -33t28 -12h10l-20 -43q-8 -2 -17 -4
q-15 -3 -37 -3q-57 0 -71.5 31t13.5 97q6 14 16 40t21 52q12 30 26 63q6 15 0.5 23.5t-16.5 10t-26 -4.5t-30 -19q-2 -6 -4.5 -12t-4.5 -13q-6 -16 -17 -42t-21.5 -52.5t-19.5 -48.5t-12 -30q-9 -21 -3 -33t29 -12h10l-21 -43q-8 -2 -17 -4q-15 -3 -37 -3q-57 0 -71 31
t13 97q6 16 16 40t20.5 49.5t19.5 48t15 35.5q8 20 2 32.5t-28 12.5h-10l20 43q8 2 17 4q8 2 17 3t20 1q66 0 75 -44q24 20 52 32t56 12q61 0 73 -46q24 21 52.5 33.5t57.5 12.5q49 0 67.5 -32t-6.5 -95zM445 519q0 -27 -19.5 -46.5t-47.5 -19.5t-47.5 19.5t-19.5 46.5
q0 28 19.5 47.5t47.5 19.5t47.5 -19.5t19.5 -47.5z" />
    <glyph glyph-name="uni1E56" unicode="&#x1e56;" horiz-adv-x="401" 
d="M320 523q36 0 65 -14t46 -40t19.5 -62.5t-13.5 -80.5q-15 -41 -41.5 -74t-62.5 -53.5t-81 -26.5t-97 7l-38 -92q-8 -21 -2 -33.5t29 -12.5h10l-21 -43q-8 -2 -17 -4q-8 -2 -17.5 -3t-19.5 -1q-57 0 -71.5 31.5t12.5 98.5l121 296l98 60q-44 -10 -93.5 -31t-81.5 -53
l-20 21l52 72q51 21 104.5 29.5t119.5 8.5zM301 486q-5 0 -10 -0.5t-10 -1.5l-109 -263q31 -4 57 7t47.5 31.5t37.5 46.5t26 51q21 55 13 92t-52 37zM392 629q0 -27 -19.5 -46.5t-47.5 -19.5t-47.5 19.5t-19.5 46.5q0 28 19.5 47.5t47.5 19.5t47.5 -19.5t19.5 -47.5z" />
    <glyph glyph-name="uni1E57" unicode="&#x1e57;" horiz-adv-x="391" 
d="M121 -7q-38 0 -58 26l-40 -98q-9 -20 -2.5 -32.5t28.5 -12.5h10l-21 -43q-8 -2 -17 -4q-8 -2 -17.5 -3t-19.5 -1q-57 0 -70.5 31.5t13.5 97.5q4 10 15 37t25 62t30 73.5t30 73t24 60t14 34.5q9 20 2.5 32.5t-29.5 12.5h-9l20 43q8 2 17 4q8 2 17.5 3t19.5 1q70 0 76 -48
q28 23 56.5 35.5t54.5 12.5q34 0 55.5 -15.5t31 -42.5t5.5 -63t-21 -77q-44 -103 -107.5 -151t-132.5 -48zM80 59q9 -12 28 -12q18 0 34.5 7t33 23.5t33.5 43t37 65.5q14 29 22.5 55t9.5 45t-6.5 30t-24.5 11t-36 -9.5t-39 -26.5q-2 -8 -4.5 -15t-5.5 -15zM362 519
q0 -27 -19.5 -46.5t-47.5 -19.5t-47.5 19.5t-19.5 46.5q0 28 19.5 47.5t47.5 19.5t47.5 -19.5t19.5 -47.5z" />
    <glyph glyph-name="uni1E60" unicode="&#x1e60;" horiz-adv-x="386" 
d="M332 520q25 -5 43.5 -19.5t26.5 -35t5.5 -46.5t-19.5 -55q-18 -32 -42 -43t-42 0t-20.5 35.5t11.5 48.5q14 23 36.5 32.5t40.5 -1.5q1 17 -13 31t-43 19q-34 5 -64 -13t-43 -49q-15 -34 2 -66t56 -57q53 -32 76 -77t0 -104q-13 -31 -37.5 -58t-57.5 -45.5t-72 -26.5
t-80 -2q-31 5 -52.5 22.5t-32 41.5t-9 52.5t15.5 54.5q15 29 39.5 45t46.5 4q18 -10 20.5 -35t-11.5 -48q-13 -22 -33.5 -31.5t-38.5 -2.5q-3 -19 18 -38.5t55 -26.5q17 -4 36.5 0t37.5 14t32.5 25.5t22.5 35.5q15 40 -5 68t-68 61q-24 16 -40 39t-22.5 50t-3 55t19.5 55
q15 26 38.5 46t51.5 32t58.5 15.5t59.5 -2.5zM412 626q0 -27 -19.5 -46.5t-47.5 -19.5t-47.5 19.5t-19.5 46.5q0 28 19.5 47.5t47.5 19.5t47.5 -19.5t19.5 -47.5z" />
    <glyph glyph-name="uni1E61" unicode="&#x1e61;" horiz-adv-x="338" 
d="M185 312q31 6 58 -1.5t44 -26t22.5 -48t-5.5 -67.5q-15 -50 -39 -83.5t-55 -54t-67 -29.5t-75 -9q-32 0 -50.5 14.5t-25.5 37t-3 51t19 55.5q13 25 27 41.5t27 26t24 13t18 3.5q28 0 37 -22.5t-3 -54.5q-15 -37 -39.5 -57t-54.5 -20q-5 0 -13 2q-2 -20 6.5 -33t28.5 -13
q19 0 37.5 10t34.5 28t30 42t24 52q27 72 9.5 100t-74.5 11q-14 -4 -24 1.5t-15 16.5t-5.5 26t5.5 31q15 38 39.5 58t54.5 20q29 0 37.5 -22.5t-3.5 -55.5q-4 -9 -12 -22.5t-19 -20.5zM354 519q0 -27 -19.5 -46.5t-47.5 -19.5t-47.5 19.5t-19.5 46.5q0 28 19.5 47.5
t47.5 19.5t47.5 -19.5t19.5 -47.5z" />
    <glyph glyph-name="uni1E6A" unicode="&#x1e6a;" horiz-adv-x="330" 
d="M443 439q-21 -13 -39 -13.5t-34.5 6t-32.5 17t-33 19.5l-156 -381q-8 -21 -2.5 -33.5t28.5 -12.5h10l-20 -43q-8 -2 -17 -4q-8 -2 -18 -3t-20 -1q-57 0 -71 31.5t13 98.5l138 338l69 27q-2 0 -4 0.5t-4 0.5q-29 2 -59.5 -5.5t-60.5 -21.5t-57.5 -34t-50.5 -42l-20 21
l80 105q51 21 93.5 22.5t93.5 -8.5q20 -4 42 -7.5t47.5 -4.5t55.5 1.5t66 10.5zM375 626q0 -27 -19.5 -46.5t-47.5 -19.5t-47.5 19.5t-19.5 46.5q0 28 19.5 47.5t47.5 19.5t47.5 -19.5t19.5 -47.5z" />
    <glyph glyph-name="uni1E6B" unicode="&#x1e6b;" horiz-adv-x="200" 
d="M225 410l-125 -304q-8 -19 2 -27t27.5 -5t37.5 18t33 42l17 -28q-10 -24 -27.5 -44.5t-39 -35.5t-46 -24t-48.5 -9t-41.5 8t-26.5 24t-8 40t14 55l120 290h-57l28 51h50l12 30l120 23l-22 -53h90l-28 -51h-82zM316 611q0 -27 -19.5 -46.5t-47.5 -19.5t-47.5 19.5
t-19.5 46.5q0 28 19.5 47.5t47.5 19.5t47.5 -19.5t19.5 -47.5z" />
    <glyph glyph-name="Wgrave" unicode="&#x1e80;" horiz-adv-x="609" 
d="M213 121q8 12 21.5 38.5t24.5 51.5q13 31 26 63t25.5 61t23 53l17.5 40q9 20 3 32.5t-29 12.5h-10l20 43q8 2 17 4q8 2 17.5 3t20.5 1q57 0 70.5 -32t-12.5 -98q-13 -33 -27.5 -69.5t-29.5 -74l-30 -75t-29 -70.5q-11 -25 -8.5 -39.5t15.5 -14t34 17t46 52.5
q17 24 34.5 55t34 63t31.5 63.5t27 57.5t20.5 44t12.5 23q14 21 7 33t-30 12h-10l32 44q11 1 22 3q10 2 20.5 3t21.5 1q57 0 63 -31t-39 -99q-11 -15 -28 -40.5t-34.5 -51t-32.5 -47.5t-21 -31q-39 -54 -69.5 -97t-59 -73.5t-59 -46.5t-68.5 -16q-32 0 -54.5 14.5
t-27.5 43.5q-28 -28 -57 -43t-66 -15q-24 0 -42.5 8.5t-28.5 24.5t-11 40t10 55l102 291q7 19 -3.5 27t-27.5 5t-36.5 -18t-30.5 -42l-19 28q8 24 25 44.5t38.5 36t45.5 24.5t48 9q49 0 70.5 -32.5t-0.5 -94.5q-2 -6 -8.5 -24.5t-16 -45t-20.5 -58t-21.5 -62t-20.5 -57.5
t-16 -44q-9 -26 -6 -40.5t15 -14t32.5 17.5t45.5 53zM504 539l-220 96l61 106l179 -163z" />
    <glyph glyph-name="wgrave" unicode="&#x1e81;" horiz-adv-x="545" 
d="M590 382q-6 -13 -19.5 -41.5t-28 -60.5t-27.5 -60t-18 -39q-21 -46 -44.5 -81t-52 -59t-63.5 -36t-78 -12q-32 0 -53.5 14.5t-26.5 43.5q-26 -26 -59 -42t-65 -16q-49 0 -68 32t7 95l72 174q8 20 2 32.5t-29 12.5h-9l20 43q8 2 17 4q8 2 17.5 3t19.5 1q57 0 71 -31.5
t-13 -97.5q-6 -15 -16.5 -41t-21.5 -52q-12 -30 -25 -62q-7 -17 0 -25.5t20.5 -8.5t30.5 9t32 27l4 12q4 12 13.5 36.5t20.5 51.5t21 51t13 35q7 20 2 32.5t-28 12.5h-10l21 43q8 2 17 4q8 2 17.5 3t19.5 1q57 0 72.5 -32.5t-11.5 -96.5q-38 -88 -51.5 -134.5t-4.5 -61.5
q8 -13 26.5 -11t32.5 16q0 18 4 34.5t16.5 48t36.5 85t65 144.5h111zM414 431l-220 96l61 106l179 -163z" />
    <glyph glyph-name="Wacute" unicode="&#x1e82;" horiz-adv-x="609" 
d="M213 121q8 12 21.5 38.5t24.5 51.5q13 31 26 63t25.5 61t23 53l17.5 40q9 20 3 32.5t-29 12.5h-10l20 43q8 2 17 4q8 2 17.5 3t20.5 1q57 0 70.5 -32t-12.5 -98q-13 -33 -27.5 -69.5t-29.5 -74l-30 -75t-29 -70.5q-11 -25 -8.5 -39.5t15.5 -14t34 17t46 52.5
q17 24 34.5 55t34 63t31.5 63.5t27 57.5t20.5 44t12.5 23q14 21 7 33t-30 12h-10l32 44q11 1 22 3q10 2 20.5 3t21.5 1q57 0 63 -31t-39 -99q-11 -15 -28 -40.5t-34.5 -51t-32.5 -47.5t-21 -31q-39 -54 -69.5 -97t-59 -73.5t-59 -46.5t-68.5 -16q-32 0 -54.5 14.5
t-27.5 43.5q-28 -28 -57 -43t-66 -15q-24 0 -42.5 8.5t-28.5 24.5t-11 40t10 55l102 291q7 19 -3.5 27t-27.5 5t-36.5 -18t-30.5 -42l-19 28q8 24 25 44.5t38.5 36t45.5 24.5t48 9q49 0 70.5 -32.5t-0.5 -94.5q-2 -6 -8.5 -24.5t-16 -45t-20.5 -58t-21.5 -62t-20.5 -57.5
t-16 -44q-9 -26 -6 -40.5t15 -14t32.5 17.5t45.5 53zM323 594l179 163l61 -106l-220 -96z" />
    <glyph glyph-name="wacute" unicode="&#x1e83;" horiz-adv-x="545" 
d="M590 382q-6 -13 -19.5 -41.5t-28 -60.5t-27.5 -60t-18 -39q-21 -46 -44.5 -81t-52 -59t-63.5 -36t-78 -12q-32 0 -53.5 14.5t-26.5 43.5q-26 -26 -59 -42t-65 -16q-49 0 -68 32t7 95l72 174q8 20 2 32.5t-29 12.5h-9l20 43q8 2 17 4q8 2 17.5 3t19.5 1q57 0 71 -31.5
t-13 -97.5q-6 -15 -16.5 -41t-21.5 -52q-12 -30 -25 -62q-7 -17 0 -25.5t20.5 -8.5t30.5 9t32 27l4 12q4 12 13.5 36.5t20.5 51.5t21 51t13 35q7 20 2 32.5t-28 12.5h-10l21 43q8 2 17 4q8 2 17.5 3t19.5 1q57 0 72.5 -32.5t-11.5 -96.5q-38 -88 -51.5 -134.5t-4.5 -61.5
q8 -13 26.5 -11t32.5 16q0 18 4 34.5t16.5 48t36.5 85t65 144.5h111zM254 470l179 163l61 -106l-220 -96z" />
    <glyph glyph-name="Wdieresis" unicode="&#x1e84;" horiz-adv-x="609" 
d="M213 121q8 12 21.5 38.5t24.5 51.5q13 31 26 63t25.5 61t23 53l17.5 40q9 20 3 32.5t-29 12.5h-10l20 43q8 2 17 4q8 2 17.5 3t20.5 1q57 0 70.5 -32t-12.5 -98q-13 -33 -27.5 -69.5t-29.5 -74l-30 -75t-29 -70.5q-11 -25 -8.5 -39.5t15.5 -14t34 17t46 52.5
q17 24 34.5 55t34 63t31.5 63.5t27 57.5t20.5 44t12.5 23q14 21 7 33t-30 12h-10l32 44q11 1 22 3q10 2 20.5 3t21.5 1q57 0 63 -31t-39 -99q-11 -15 -28 -40.5t-34.5 -51t-32.5 -47.5t-21 -31q-39 -54 -69.5 -97t-59 -73.5t-59 -46.5t-68.5 -16q-32 0 -54.5 14.5
t-27.5 43.5q-28 -28 -57 -43t-66 -15q-24 0 -42.5 8.5t-28.5 24.5t-11 40t10 55l102 291q7 19 -3.5 27t-27.5 5t-36.5 -18t-30.5 -42l-19 28q8 24 25 44.5t38.5 36t45.5 24.5t48 9q49 0 70.5 -32.5t-0.5 -94.5q-2 -6 -8.5 -24.5t-16 -45t-20.5 -58t-21.5 -62t-20.5 -57.5
t-16 -44q-9 -26 -6 -40.5t15 -14t32.5 17.5t45.5 53zM411 606q0 -25 -17 -42t-43 -17q-24 0 -42 17t-18 42q0 26 18 43t42 17q26 0 43 -17t17 -43zM561 606q0 -25 -18 -42t-42 -17q-26 0 -43 17t-17 42q0 26 17 43t43 17q24 0 42 -17t18 -43z" />
    <glyph glyph-name="wdieresis" unicode="&#x1e85;" horiz-adv-x="545" 
d="M590 382q-6 -13 -19.5 -41.5t-28 -60.5t-27.5 -60t-18 -39q-21 -46 -44.5 -81t-52 -59t-63.5 -36t-78 -12q-32 0 -53.5 14.5t-26.5 43.5q-26 -26 -59 -42t-65 -16q-49 0 -68 32t7 95l72 174q8 20 2 32.5t-29 12.5h-9l20 43q8 2 17 4q8 2 17.5 3t19.5 1q57 0 71 -31.5
t-13 -97.5q-6 -15 -16.5 -41t-21.5 -52q-12 -30 -25 -62q-7 -17 0 -25.5t20.5 -8.5t30.5 9t32 27l4 12q4 12 13.5 36.5t20.5 51.5t21 51t13 35q7 20 2 32.5t-28 12.5h-10l21 43q8 2 17 4q8 2 17.5 3t19.5 1q57 0 72.5 -32.5t-11.5 -96.5q-38 -88 -51.5 -134.5t-4.5 -61.5
q8 -13 26.5 -11t32.5 16q0 18 4 34.5t16.5 48t36.5 85t65 144.5h111zM329 499q0 -25 -17 -42t-43 -17q-24 0 -42 17t-18 42q0 26 18 43t42 17q26 0 43 -17t17 -43zM479 499q0 -25 -18 -42t-42 -17q-26 0 -43 17t-17 42q0 26 17 43t43 17q24 0 42 -17t18 -43z" />
    <glyph glyph-name="Ygrave" unicode="&#x1ef2;" horiz-adv-x="322" 
d="M53 524q57 0 88.5 -31.5t40.5 -98.5l14 -101q38 30 64.5 68t35.5 70q9 29 0 41t-41 4l15 40q8 1 17 3q8 2 17 3t20 1q23 0 42 -7t30 -20t12.5 -31.5t-8.5 -41.5q-23 -51 -74.5 -95.5t-115.5 -74.5l-68 -166q-8 -21 -2 -33.5t29 -12.5h9l-20 -43q-8 -2 -17 -4
q-8 -2 -17.5 -3t-19.5 -1q-58 0 -72 31.5t13 98.5l48 119l-26 189q-2 20 -15 32.5t-36 12.5h-10l-4 43q7 2 15 4q7 2 16 3t20 1zM321 549l-220 96l61 106l179 -163z" />
    <glyph glyph-name="ygrave" unicode="&#x1ef3;" horiz-adv-x="374" 
d="M404 382q-8 -19 -18.5 -44t-22 -53.5t-23.5 -59t-24 -59.5q-27 -68 -58 -142q-38 -97 -101 -148t-140 -51q-32 0 -51.5 15t-26.5 38t-2.5 51t19.5 55q14 23 32 40q-9 17 -8.5 40.5t13.5 55.5q5 12 15.5 36.5t22 51.5t21 51t13.5 35q9 20 3 32.5t-29 12.5h-10l21 43
q8 2 17 4q8 2 17 3t20 1q57 0 71.5 -31.5t-13.5 -97.5q-6 -15 -16.5 -41t-21.5 -52q-12 -30 -25 -62q-6 -17 0 -25.5t18.5 -9t29.5 7.5t32 25l114 278h111zM332 421l-220 96l61 106l179 -163zM55 -7q-22 0 -38 6q-13 -11 -25 -29t-18 -47q-6 -25 6.5 -39.5t32.5 -14.5
q19 0 38.5 14t37 36t32.5 49.5t25 54.5q-22 -14 -45 -22t-46 -8z" />
    <glyph glyph-name="endash" unicode="&#x2013;" horiz-adv-x="530" 
d="M79 223h382l-29 -69h-382z" />
    <glyph glyph-name="emdash" unicode="&#x2014;" horiz-adv-x="838" 
d="M79 223h682l-29 -69h-682z" />
    <glyph glyph-name="quoteleft" unicode="&#x2018;" horiz-adv-x="258" 
d="M241 412q8 -12 8 -32q0 -28 -19.5 -47.5t-47.5 -19.5t-47.5 19.5t-19.5 47.5q0 23 10.5 39.5t28 32.5t40.5 35.5t48 48.5l35 -14z" />
    <glyph glyph-name="quoteright" unicode="&#x2019;" horiz-adv-x="258" 
d="M141 437q-8 12 -8 32q0 28 19.5 47.5t47.5 19.5t47.5 -19.5t19.5 -47.5q0 -23 -10.5 -39.5t-28 -32.5t-40.5 -35.5t-48 -48.5l-35 14z" />
    <glyph glyph-name="quotesinglbase" unicode="&#x201a;" horiz-adv-x="258" 
d="M41 37q-8 12 -8 32q0 28 19.5 47.5t47.5 19.5t47.5 -19.5t19.5 -47.5q0 -23 -10.5 -39.5t-28 -32.5t-40.5 -35.5t-48 -48.5l-35 14z" />
    <glyph glyph-name="quotedblleft" unicode="&#x201c;" horiz-adv-x="374" 
d="M241 412v-1q6 15 18.5 27.5t28.5 26t35 30.5t39 41l35 -14l-36 -110q8 -12 8 -32q0 -28 -19.5 -47.5t-47.5 -19.5q-20 0 -36 10t-24 27q-8 -17 -24 -27t-36 -10q-28 0 -47.5 19.5t-19.5 47.5q0 23 10.5 39.5t28 32.5t40.5 35.5t48 48.5l35 -14z" />
    <glyph glyph-name="quotedblright" unicode="&#x201d;" horiz-adv-x="374" 
d="M261 437h-1q-6 -15 -18 -27t-28 -26t-35 -30.5t-39 -40.5l-35 14l36 110q-8 12 -8 32q0 28 19.5 47.5t47.5 19.5q20 0 36 -10.5t24 -27.5q8 17 24 27.5t36 10.5q28 0 47.5 -19.5t19.5 -47.5q0 -23 -10.5 -39.5t-28 -32.5t-40.5 -35.5t-48 -48.5l-35 14z" />
    <glyph glyph-name="quotedblbase" unicode="&#x201e;" horiz-adv-x="374" 
d="M161 37h-1q-6 -14 -18 -26.5t-28 -26t-35 -30.5t-39 -41l-35 14l36 110q-8 12 -8 32q0 28 19.5 47.5t47.5 19.5q20 0 36 -10.5t24 -27.5q8 17 24 27.5t36 10.5q28 0 47.5 -19.5t19.5 -47.5q0 -23 -10.5 -39.5t-28 -32.5t-40.5 -35.5t-48 -48.5l-35 14z" />
    <glyph glyph-name="dagger" unicode="&#x2020;" horiz-adv-x="454" 
d="M195 528h117l59 166h75l-59 -166h112l-29 -69h-107l-223 -633h-74l222 633h-122z" />
    <glyph glyph-name="daggerdbl" unicode="&#x2021;" horiz-adv-x="454" 
d="M195 528h117l59 166h75l-59 -166h112l-29 -69h-107l-139 -394h122l-29 -69h-117l-60 -170h-74l59 170h-112l29 69h108l138 394h-122z" />
    <glyph glyph-name="bullet" unicode="&#x2022;" horiz-adv-x="462" 
d="M396 329q0 -23 -9 -43t-24 -35t-35.5 -23.5t-43.5 -8.5t-43.5 8.5t-35.5 23.5t-24 35t-9 43t9 43.5t24 35.5t35.5 24t43.5 9t43.5 -9t35.5 -24t24 -35.5t9 -43.5z" />
    <glyph glyph-name="ellipsis" unicode="&#x2026;" horiz-adv-x="608" 
d="M167 59q0 -27 -19.5 -46.5t-47.5 -19.5t-47.5 19.5t-19.5 46.5q0 28 19.5 47.5t47.5 19.5t47.5 -19.5t19.5 -47.5zM346 59q0 -27 -19.5 -46.5t-47.5 -19.5t-47.5 19.5t-19.5 46.5q0 28 19.5 47.5t47.5 19.5t47.5 -19.5t19.5 -47.5zM525 59q0 -27 -19.5 -46.5t-47.5 -19.5
t-47.5 19.5t-19.5 46.5q0 28 19.5 47.5t47.5 19.5t47.5 -19.5t19.5 -47.5z" />
    <glyph glyph-name="perthousand" unicode="&#x2030;" horiz-adv-x="855" 
d="M699 268q57 0 87.5 -20.5t37.5 -51t-6 -66t-42.5 -66t-73.5 -51t-97 -20.5q-35 0 -59 9t-39 26q-26 -16 -57.5 -25.5t-66.5 -9.5q-41 0 -69 9.5t-45 26t-23 38t-2 45.5l-166 -112h-84l181 122h-2q-57 0 -87.5 20.5t-37.5 51t6 66t42.5 66t73 51t97.5 20.5q41 0 69 -10
t45 -26.5t22.5 -38t1.5 -45.5l167 113h85l-181 -122h1q35 0 59.5 -8t39.5 -22q25 14 55.5 22t67.5 8zM465 227q-18 0 -34.5 -14t-30 -35t-22.5 -45.5t-11.5 -45.5t3.5 -35t22 -14t32 14t30 35t23.5 45.5t12.5 45.5t-2.5 35t-22.5 14zM687 227q-18 0 -34.5 -14t-30 -35
t-22.5 -45.5t-11.5 -45.5t3.5 -35t22 -14t32 14t30 35t23.5 45.5t12.5 45.5t-2.5 35t-22.5 14zM185 163q17 0 34 14t30.5 35t22.5 45.5t11.5 45.5t-3.5 35t-22 14t-32 -14t-30 -35t-23.5 -45.5t-12.5 -45.5t2.5 -35t22.5 -14z" />
    <glyph glyph-name="guilsinglleft" unicode="&#x2039;" horiz-adv-x="395" 
d="M114 275l294 141l23 -57l-270 -127l116 -134l-64 -73l-139 184z" />
    <glyph glyph-name="guilsinglright" unicode="&#x203a;" horiz-adv-x="395" 
d="M331 166l-294 -141l-23 57l270 127l-116 134l64 73l139 -184z" />
    <glyph glyph-name="fraction" unicode="&#x2044;" horiz-adv-x="395" 
d="M547 548l-539 -622h-84l538 622h85z" />
    <glyph glyph-name="Euro" unicode="&#x20ac;" horiz-adv-x="424" 
d="M60 292h23q21 55 52 98t68.5 72.5t80.5 45t88 15.5q35 0 57.5 -14.5t32 -37.5t7 -51.5t-17.5 -55.5q-13 -25 -27 -41.5t-27.5 -26t-24.5 -13.5t-18 -4q-29 0 -37.5 23t4.5 55q14 37 39 57t55 20q9 0 13 -1q3 7 2 15t-6.5 15t-17.5 11.5t-31 4.5q-32 0 -59 -15.5
t-49.5 -41t-41 -59.5t-32.5 -71h97l-14 -35h-95l-9 -29h96l-15 -35h-90q-7 -33 -7.5 -60.5t8 -47t27 -30t49.5 -10.5q45 0 81 25.5t58 60.5l17 -28q-15 -24 -35.5 -44.5t-47 -36.5t-60 -25t-76.5 -9q-77 0 -107.5 53t-13.5 152h-33l14 35h27l4 16l3 13h-26z" />
    <glyph glyph-name="trademark" unicode="&#x2122;" horiz-adv-x="713" 
d="M640 419l-128 -163q-13 -17 -25.5 -23.5t-22.5 -4.5t-15.5 14t-4.5 33l4 141l-67 -164q-15 -38 23 -28l-11 -25q-5 -2 -11 -3q-12 -3 -24 -2q-12 2 -16.5 12.5t0.5 24.5l97 236q6 16 -14 25.5t-49 11.5l-102 -249q-11 -29 16 -29h6l-12 -27q-5 -2 -11 -3
q-5 -1 -11.5 -1.5t-12.5 -0.5q-36 0 -44.5 19.5t8.5 61.5l90 225q-29 -8 -57.5 -23t-50.5 -37l-13 14l50 65q58 3 111 9t92.5 3t62 -21t21.5 -63q0 -7 -0.5 -23t-1.5 -36.5t-1.5 -43t-1.5 -41.5l148 188q-5 6 -17 6h-6l12 27q5 1 11 2q5 1 11 2t13 1q70 0 36 -82l-73 -181
q-5 -12 1 -17.5t17 -3.5t23.5 11.5t20.5 26.5l11 -17q-12 -30 -41.5 -51t-59.5 -21q-31 0 -43 20.5t4 59.5z" />
    <glyph glyph-name="minus" unicode="&#x2212;" 
d="M79 223h282l-29 -69h-282z" />
    <glyph glyph-name="fl" unicode="&#xfb02;" horiz-adv-x="535" 
d="M552 106q-10 -24 -27.5 -44.5t-39 -35.5t-46 -24t-48.5 -9t-41.5 8t-26.5 24t-8 40t14 55l6 14q-26 -18 -59 -29.5t-72 -15.5q-5 -17 -11 -36.5t-16 -39.5q-44 -92 -93 -140t-97 -48t-67.5 32.5t6.5 94.5l161 396q39 98 102 148.5t140 50.5q32 0 51 -14.5t26 -37t2.5 -51
t-18.5 -55.5q-13 -25 -27 -41.5t-27 -26t-24.5 -13.5t-18.5 -4q-28 0 -36.5 23t3.5 55q15 36 39.5 56.5t54.5 20.5q5 0 13 -2q2 20 -6.5 33t-28.5 13t-39 -13.5t-36.5 -35.5t-32 -50t-24.5 -56l-54 -131q61 -5 64 -75q57 2 100 27t63 57q14 34 29.5 71t28.5 69.5t22.5 55.5
t12.5 30q9 20 3 32.5t-29 12.5h-10l21 43q8 1 17 3q8 2 17 3t20 1q57 0 71 -31t-14 -98q-3 -8 -10 -25t-16.5 -40.5t-21 -51t-22.5 -54.5q-26 -64 -57 -141q-8 -20 2 -28t27 -4.5t37 18.5t34 42zM130 22q20 40 28 69t6.5 47.5t-11.5 27t-25 7.5l-96 -234q-8 -19 -3 -28
t19 -1.5t35.5 34.5t46.5 78z" />
    <glyph glyph-name="zero.001" horiz-adv-x="413" 
d="M282 435q41 0 70.5 -14.5t44.5 -42.5t13.5 -69.5t-23.5 -94.5q-90 -221 -262 -221q-89 0 -115 67.5t22 182.5q24 57 51.5 94t58.5 59t66 30.5t74 8.5zM270 229q29 75 29 118t-26 43q-16 0 -32 -12.5t-32 -33.5t-30.5 -49.5t-27.5 -60.5q-15 -36 -26 -72t-14 -64.5t3 -46
t24 -17.5q30 0 62 50.5t70 144.5z" />
    <glyph glyph-name="nine.001" horiz-adv-x="420" 
d="M379 152q-26 -57 -63.5 -108t-83 -89t-98 -60.5t-106.5 -22.5q-11 0 -20.5 1t-16.5 3q-8 2 -15 5l30 48h11q32 0 70 14t70 57q-18 -6 -40.5 -7t-43 5t-37.5 20t-24.5 40t-3.5 64t25 91q18 45 49 85t69 70t80.5 48t82.5 18q43 0 68 -23t33 -61.5t-1.5 -89.5t-34.5 -108z
M187 44l32 60q14 26 29 55t26 54q15 34 24.5 64.5t12 54t-2.5 37t-18 13.5t-29.5 -13.5t-34.5 -37t-35.5 -54t-32.5 -64.5q-31 -69 -38 -116t16 -58q11 -5 25.5 -3t25.5 8z" />
    <glyph glyph-name="eight.001" horiz-adv-x="420" 
d="M290 426q50 0 81.5 -15t46 -38.5t12.5 -52.5t-18 -58t-45.5 -54t-69.5 -40q29 -18 40 -47.5t5 -62.5t-27 -66t-55 -59.5t-79.5 -43.5t-100.5 -17q-53 0 -84 17.5t-42.5 45.5t-5.5 62.5t26.5 68t53.5 62.5t76 46q-24 16 -31.5 41.5t-1.5 53.5t24.5 56t47 50.5t66 36.5
t81.5 14zM92 -87q22 0 44 17.5t40 43.5t30 56.5t15 56.5t-4.5 43.5t-28.5 17.5q-20 0 -41.5 -17.5t-39.5 -43.5t-31 -56.5t-17 -56.5t3.5 -43.5t29.5 -17.5zM208 192q18 0 34.5 14t30 35t22.5 45.5t11.5 45.5t-3.5 35t-22 14t-32 -14t-30 -35t-23.5 -45.5t-12.5 -45.5
t2.5 -35t22.5 -14z" />
    <glyph glyph-name="seven.001" horiz-adv-x="320" 
d="M396 361q-38 -31 -80.5 -69t-87.5 -93.5t-89.5 -134.5t-86.5 -192h-121q41 97 83.5 167t84.5 121t82.5 87t78.5 63h-210l47 116h325z" />
    <glyph glyph-name="six.001" horiz-adv-x="420" 
d="M51 275q25 57 65.5 110t89 94t101 65.5t100.5 24.5q11 0 20 -1t16 -3q8 -2 15 -4l-29 -48h-11q-16 0 -36 -7t-40.5 -19t-38.5 -27.5t-30 -32.5q19 6 41 7t42.5 -5t37 -20t24 -40t3.5 -64t-25 -91q-18 -45 -48.5 -85t-69 -70t-81 -48t-82.5 -18q-42 0 -67 23t-33 61.5
t1 89.5t35 108zM242 383l-32 -60q-14 -26 -28.5 -55t-25.5 -54q-15 -34 -24.5 -65t-12 -54t2 -37t18.5 -14q13 0 29.5 14t34.5 37t35.5 54t32.5 65q30 69 37 116t-16 58q-11 5 -25.5 3t-25.5 -8z" />
    <glyph glyph-name="four.001" horiz-adv-x="412" 
d="M393 244q-13 -30 -28.5 -68t-32 -77.5t-32.5 -78t-29 -69.5t-21.5 -52.5t-10.5 -26.5h-122l106 257q-21 -21 -45 -41t-48 -35.5t-47.5 -25t-42.5 -9.5q-27 0 -43 9t-19.5 27t7 44.5t36.5 60.5q10 13 28.5 37t38 49.5t37 48t26.5 33.5q17 23 15 36.5t-27 13.5h-11l39 49
q10 2 21 4q9 2 20 3t22 1q63 0 67.5 -34.5t-52.5 -109.5q-12 -17 -31.5 -41.5t-37.5 -47.5q-21 -27 -44 -56q-15 -21 -7 -24.5t28.5 6t48 30t52.5 47.5l17 40h122z" />
    <glyph glyph-name="five.001" horiz-adv-x="373" 
d="M170 310l-46 -75q50 16 91.5 11.5t67 -27t31.5 -61t-15 -89.5q-44 -107 -110 -152t-151 -45q-36 0 -57 16.5t-29 42t-3 57t21 61.5q15 28 30.5 46t30 28.5t26.5 14.5t20 4q32 0 41.5 -25t-4.5 -60q-16 -42 -43 -64t-61 -22q-10 0 -14 2q-3 -22 6 -37t32 -15
q22 0 42.5 11.5t38.5 31.5t33 47t27 58q23 64 8.5 97t-54.5 33q-8 0 -13 -1l-10 -2t-9 -2h-41l127 232h227l-47 -116h-193z" />
    <glyph glyph-name="three.001" horiz-adv-x="391" 
d="M313 440q37 -6 58 -24t27 -42.5t-2 -52.5t-28 -54t-50.5 -46.5t-69.5 -29.5q35 -17 50.5 -51t12.5 -73.5t-23.5 -79t-56.5 -68.5t-86.5 -41.5t-114.5 1.5q-27 6 -44 22t-24 39t-2.5 51.5t20.5 58.5q21 42 51.5 61t56 18t38 -19.5t-1.5 -51.5q-9 -20 -21.5 -35.5t-28 -25
t-32.5 -12t-33 2.5q-2 -6 -2 -15t3 -18t9 -16t17 -10q24 -6 49.5 4.5t47 31.5t38.5 49t25 56.5t5.5 54t-19.5 41.5q-21 -8 -42.5 -12t-38 -3t-27 6t-10.5 15q0 8 6.5 16.5t22 14t41 7t62.5 -2.5q39 18 62.5 45t30.5 53.5t-3.5 47.5t-38.5 26q-10 2 -22.5 0t-26.5 -7
q14 -4 17 -25t-10 -46q-17 -33 -44 -47t-49 -10.5t-31.5 23t8.5 53.5q21 39 50.5 63.5t60 38.5t60.5 17.5t53 0.5z" />
    <glyph glyph-name="two.001" horiz-adv-x="391" 
d="M300 451q56 0 84 -20.5t32 -52.5t-14 -71t-53.5 -77t-86.5 -70.5t-113 -50.5h174l-45 -109h-317l46 109h36q36 0 74.5 20t72 50.5t58.5 65.5t34 65.5t-2 50.5t-49 20q-13 0 -27.5 -4t-29.5 -11q16 -10 19.5 -31.5t-7.5 -48.5q-16 -40 -44 -62.5t-61 -22.5q-31 0 -42 25
t6 60q19 42 50.5 73t67.5 51.5t72.5 30.5t64.5 10z" />
    <glyph glyph-name="one.001" horiz-adv-x="300" 
d="M-49 49h80l114 278q10 23 3 36.5t-32 13.5h-11l23 49q9 2 19 4q8 2 19 3t22 1q63 0 79 -34.5t-15 -109.5q-6 -15 -18.5 -46t-27.5 -67t-29.5 -71t-23.5 -57h81l-20 -49h-283z" />
    <glyph glyph-name="bullet.001" horiz-adv-x="833" 
 />
    <glyph glyph-name="Euro.001" horiz-adv-x="461" 
d="M52 273h40q24 52 56 100.5t69.5 85t78.5 58.5t83 22q32 0 53.5 -14.5t31.5 -37.5t8 -51.5t-16 -55.5q-13 -25 -27 -41t-27 -25.5t-24.5 -13t-18.5 -3.5q-28 0 -36.5 22t3.5 54q15 37 39.5 57t54.5 20h6.5t5.5 -1q3 20 -13.5 33t-36.5 13q-28 0 -55.5 -18t-52.5 -49
t-46.5 -71t-38.5 -84h145l-19 -49h-142q-4 -13 -7.5 -25t-5.5 -24h136l-19 -49h-126q-5 -35 -3.5 -66t9.5 -54t23.5 -36t39.5 -13q43 0 77 25.5t56 59.5l17 -28q-12 -23 -31 -43t-45 -36t-59 -25t-74 -9q-42 0 -69 18t-40.5 48.5t-15 71.5t7.5 87h-49l19 49h42q3 12 7 24
t9 25h-39z" />
    <glyph glyph-name="asciicircum.001" horiz-adv-x="833" 
 />
    <glyph glyph-name="sterling.001" horiz-adv-x="739" 
d="M275 349h107q36 43 75.5 82t84.5 67.5t96 42.5t109 7q30 -4 48 -18t24 -32.5t-1 -39t-28 -37.5q-29 -24 -50.5 -27t-29.5 1q-16 6 -16 20.5t10.5 28t28 21t37.5 -0.5q5 -2 6 -6q8 14 -6.5 30t-42.5 20t-54.5 -7.5t-52.5 -33t-51.5 -52.5t-52.5 -66h71l-21 -54h-89
l-42 -55h99l-21 -54h-121q-30 -35 -63 -66.5t-69 -54.5q41 -31 92 -58t121 -37q23 -2 43 1.5t36.5 10.5t28 15.5t17.5 15.5l21 -25q-16 -32 -41 -56q-21 -20 -55 -35t-81 -7q-32 4 -61 20t-56 38.5t-53.5 47.5t-52.5 47q-35 -17 -72.5 -24.5t-79.5 -2.5q-32 3 -51.5 16
t-27 30.5t-3.5 36.5t19 33.5t40 22.5t59 4q24 -4 46 -15.5t45 -28.5q16 15 31 33t31 38h-55l21 54h75l42 55h-85zM89 67q17 -3 34.5 2.5t34.5 16.5q-27 13 -51 17q-32 4 -47.5 0t-16.5 -11t11 -14.5t35 -10.5z" />
    <glyph glyph-name="yen.001" horiz-adv-x="551" 
d="M372 463q-31 -19 -59 -46.5t-49.5 -58.5t-35.5 -62t-17.5 -57t6 -43.5t35.5 -20.5q25 -3 47 6t41 23.5t33 30.5t23 28l3 4l7 10q0 1 1 2l1 1q28 40 59 76t66 62.5t74.5 42t84.5 15.5v-28q-44 0 -84 -35t-77.5 -89.5t-74.5 -121t-76 -130.5h57l-17 -42h-67
q-6 -10 -12.5 -19t-12.5 -17h74l-18 -42h-89q-38 -45 -81 -72.5t-92 -27.5q-50 0 -78.5 19t-39 48t-4.5 63.5t23.5 65.5t46 53.5t63.5 27.5q-21 32 -19 79.5t29 98.5t81 100t137 85zM208 72h75l44 76q-33 -26 -67.5 -40.5t-70.5 -16.5q-2 -11 -8 -23t-16.5 -22t-24 -16
t-29.5 -6q-18 0 -25 12t-2 29q-24 -23 -36.5 -53.5t-10.5 -58t19 -47t51 -19.5q26 0 50.5 17.5t47.5 47.5h-49l17 42h62q6 8 12 17t11 19h-67z" />
    <glyph glyph-name="section.001" horiz-adv-x="833" 
 />
    <glyph glyph-name="z_alt" horiz-adv-x="255" 
d="M72 382h232l-43 -103l-192 -117q35 3 63 -6.5t44 -30.5t18 -52t-14 -71q-40 -96 -99.5 -136.5t-135.5 -40.5q-32 0 -51 14.5t-26 37.5t-3 51.5t19 55.5q13 25 27 41t27 25.5t24 13.5t18 4q29 0 37.5 -22.5t-3.5 -54.5q-14 -37 -39 -57t-55 -20h-6.5t-5.5 1
q-3 -20 5.5 -33t28.5 -13q19 0 37.5 10.5t35 28.5t30 42t24.5 52q13 35 12.5 59.5t-12 38.5t-31.5 17.5t-47 -3.5l25 61l166 104h-152z" />
    <glyph glyph-name="j_alt" horiz-adv-x="178" 
d="M256 487q0 -25 -18 -43t-43 -18t-43 18t-18 43t18 43t43 18t43 -18t18 -43zM102 390q57 0 71.5 -31.5t-12.5 -97.5q-14 -34 -31 -75t-31 -77q-18 -42 -34 -85q-39 -97 -102 -148t-140 -51q-19 0 -36 7l27 31q20 0 39 13t37 35t33.5 51.5t28.5 61.5t31.5 76.5t35.5 85.5
t30 72t16 36q8 20 2 32.5t-29 12.5h-9l19 43q8 2 17 4q8 2 17.5 3t19.5 1z" />
    <glyph glyph-name="k_alt" horiz-adv-x="367" 
d="M92 88q-9 -21 -3 -33t29 -12h10l-21 -43q-8 -2 -17 -4q-15 -3 -37 -3q-57 0 -71 31t13 97q4 10 15 37t25 62t30 74t30 73.5t24 60t14 34.5q9 20 3 32.5t-29 12.5h-10l21 43q8 1 17 3q8 2 17.5 3t19.5 1q57 0 71 -31t-13 -99l-28 -68q21 14 44 22.5t46 8.5q52 0 69 -35
q13 -29 6 -59.5t-30 -56.5t-58.5 -43.5t-77.5 -19.5q3 -19 9 -37t15.5 -32.5t24.5 -23.5t38 -9q15 0 39.5 15t39.5 45l17 -28q-10 -24 -27.5 -44.5t-39 -35.5t-46 -24t-48.5 -9q-46 0 -68.5 46.5t-28.5 134.5q-14 -34 -23 -57.5t-11 -28.5zM250 298q-4 6 -13 8.5t-20.5 0.5
t-24 -9t-23.5 -19l-29 -70q18 -9 41 -2.5t41 21.5t27.5 34t0.5 36z" />
    <glyph glyph-name="f_alt" horiz-adv-x="336" 
d="M-13 -175q-49 0 -68.5 32.5t6.5 94.5l162 396q38 98 101 148.5t140 50.5q44 0 66.5 -24.5t22 -60t-23 -75.5t-68.5 -72q-6 -4 -13.5 -3.5t-12.5 5.5l-33 29q-8 7 -8 16t7 16q20 18 34.5 40t21 41t5 31.5t-13.5 12.5t-27.5 -13.5t-31 -35.5t-30 -50t-24.5 -56l-54 -131
q62 -5 65 -75q29 1 54.5 8.5t46.5 19.5t37 27.5t27 31.5l17 -27q-23 -48 -72 -77t-116 -36q-5 -17 -11 -36.5t-16 -39.5q-45 -92 -94 -140t-96 -48zM129 22q20 41 28 70t6.5 47.5t-11.5 26.5t-26 7l-96 -234q-8 -19 -2.5 -28t19.5 -1.5t35.5 34.5t46.5 78z" />
    <glyph glyph-name="r_alt" horiz-adv-x="376" 
d="M90 88q-8 -21 -2 -33t28 -12h10l-20 -43q-8 -2 -17 -4q-15 -3 -37 -3q-57 0 -71 31t13 97q6 16 15.5 40t20 49.5t20 48t14.5 35.5q9 20 3 32.5t-29 12.5h-10l21 43q8 2 17 4q8 2 17.5 3t19.5 1q78 0 75 -62q19 26 44 44t57 18q48 0 67 -32.5t-6 -94.5q-2 -5 -3.5 -9
t-5.5 -12q-8 -19 2 -27t27.5 -5t37.5 18t33 42l17 -28q-10 -24 -27.5 -44.5t-39 -35.5t-46 -24t-48.5 -9q-48 0 -67.5 32t6.5 94l5.5 11t3.5 10q9 24 -6 24q-7 0 -17.5 -4t-22.5 -13q-25 -24 -45 -63q-8 -19 -16.5 -39.5t-16 -39t-13 -33t-8.5 -20.5z" />
    <glyph glyph-name="c_alt" horiz-adv-x="343" 
d="M192 189q-7 7 -7 16t7 15q19 18 33.5 40t21.5 41t5.5 32t-13.5 13t-27.5 -14t-31.5 -36t-30.5 -49.5t-24.5 -55.5q-26 -72 -7 -107t73 -35q21 0 43.5 7t42.5 18.5t37.5 27t28.5 32.5l16 -28q-24 -53 -84.5 -83t-141.5 -30q-42 0 -72 15.5t-45.5 42.5t-16.5 63.5t15 77.5
q38 97 101 147.5t140 50.5q44 0 66 -24.5t22 -60t-23 -76t-69 -72.5q-13 -8 -25 2z" />
    <glyph glyph-name="o_alt" horiz-adv-x="380" 
d="M252 390q92 0 113 -51t-18 -147q-21 -50 -42.5 -87.5t-49 -62.5t-62.5 -37t-82 -12q-49 0 -76.5 15.5t-36 44.5t-0.5 70.5t29 93.5t42.5 85.5t47.5 53t58.5 27t76.5 7.5zM241 204q11 28 20.5 53t12.5 43.5t-3.5 29.5t-27.5 11q-29 0 -57 -37t-52 -94q-9 -23 -20.5 -52
t-17 -54.5t0 -43t29.5 -17.5q33 0 59.5 44.5t55.5 116.5z" />
    <glyph glyph-name="a_alt" horiz-adv-x="387" 
d="M401 382q-4 -9 -13 -31t-21 -50.5t-25 -60t-24.5 -59.5t-20 -48.5t-10.5 -26.5q-8 -19 2 -27t27 -5t37.5 18t33.5 42l16 -28q-9 -24 -26.5 -44.5t-39.5 -35.5t-46 -24t-48 -9q-30 0 -49.5 12.5t-24.5 36.5q-25 -23 -55 -36t-59 -13q-49 0 -68 32t7 95l26 65
q11 26 21.5 51t15.5 38q21 51 61 83.5t97 32.5q29 0 46.5 -7.5t26.5 -20.5l24 20h89zM182 120q2 5 12 30.5t23.5 57.5t27 65t21.5 53q-3 21 -24 21t-37.5 -15t-32.5 -49q-8 -17 -20 -46.5t-24 -58.5q-14 -34 -30 -72q-6 -17 -0.5 -25t18 -8.5t28.5 7t31 22.5z" />
    <glyph glyph-name="i_alt" horiz-adv-x="199" 
d="M212 382q-3 -9 -12 -31t-21 -50.5t-25 -60t-24.5 -59.5t-20 -48.5t-10.5 -26.5q-8 -19 2 -27t27 -5t37.5 18t33.5 42l17 -28q-10 -24 -27.5 -44.5t-39 -35.5t-46 -24t-48.5 -9q-49 0 -68 32t7 95l108 262h110zM256 487q0 -25 -17.5 -43t-43.5 -18q-25 0 -42.5 18
t-17.5 43t17.5 43t42.5 18q26 0 43.5 -18t17.5 -43z" />
    <glyph glyph-name="b_alt" horiz-adv-x="401" 
d="M-56 0q52 124 92 223q17 42 33.5 82.5t30 72.5t21.5 52t9 22q8 20 2 32.5t-29 12.5h-10l21 43q8 1 17 3q8 2 17.5 3t19.5 1q57 0 71.5 -31t-12.5 -98q-1 -2 -5.5 -12t-11.5 -27q30 11 62 11q37 0 62 -15.5t37.5 -42.5t11.5 -63t-17 -77q-18 -47 -45 -83.5t-59.5 -62.5
t-69.5 -39.5t-75 -13.5q-29 0 -46.5 10t-25.5 28l-22 -31h-79zM242 191q12 31 19 58t8 47t-5.5 31.5t-22.5 11.5q-17 0 -30.5 -6.5t-26.5 -17.5l-99 -242q5 -30 39 -30q15 0 31 11.5t31 32t29.5 47.5t26.5 57z" />
    <glyph glyph-name="e_alt" horiz-adv-x="344" 
d="M152 56q15 0 33 5t36 15t35 24.5t29 33.5l17 -28q-14 -29 -36.5 -50t-50 -35t-57 -21t-57.5 -7q-36 0 -60 15.5t-35 42.5t-9 63.5t18 77.5q38 97 101.5 147.5t140.5 50.5q41 0 62.5 -21.5t23.5 -52t-13.5 -65t-47.5 -61.5q-45 -37 -103 -37h-65q-13 -45 -4.5 -71
t42.5 -26zM232 345q-10 -4 -23.5 -18t-27.5 -35t-28 -47t-25 -54h34q23 0 39 14t31 43q11 22 18 42t8 34t-5 20.5t-21 0.5z" />
    <glyph glyph-name="p_alt" horiz-adv-x="386" 
d="M23 -79q-9 -20 -3 -32.5t29 -12.5h10l-21 -43q-8 -2 -17 -4q-8 -2 -17.5 -3t-19.5 -1q-57 0 -70.5 31.5t13.5 97.5q4 10 15 37t25 62t30 73.5t30 73t24 60t14 34.5q9 20 2.5 32.5t-29.5 12.5h-10l21 43q8 2 17 4q8 2 17.5 3t19.5 1q68 0 75 -47q24 22 53 34.5t58 12.5
q48 0 67 -32.5t-6 -94.5l-64 -157q-8 -19 2 -27t27 -5t37 18t34 42l17 -28q-10 -24 -27.5 -44.5t-39 -35.5t-46 -24t-48.5 -9t-41.5 8t-26.5 24t-8 40t14 55l65 156q6 15 0.5 23.5t-17.5 9t-28.5 -6t-31.5 -21.5q-2 -5 -3.5 -10t-3.5 -10q-4 -11 -15.5 -39t-26 -64
t-30.5 -75.5t-30 -73.5t-24 -58.5t-12 -29.5z" />
    <glyph glyph-name="thorn.001" 
d="M-91 -175q71 173 126 310q24 58 46.5 114.5t40.5 101t29.5 72t12.5 29.5q9 20 3 32.5t-29 12.5h-10l21 43q8 1 17 3q8 2 17 3t20 1q76 0 75 -59l73 206h75l-107 -304h6q34 0 55.5 -15.5t30.5 -42.5t5.5 -63t-21.5 -77q-39 -94 -96 -142t-120 -55l-59 -169h-74l63 181
q-6 4 -12 12q-17 -41 -31 -76t-25 -61q-12 -31 -23 -57h-109zM281 186q25 52 31 90.5t-16 47.5l-89 -250q18 16 36 43t38 69zM114 59q5 -7 11 -9l85 243l-1 -1q-21 -51 -46 -112t-49 -121z" />
    </font>
</defs>
</svg>
